<mxfile host="app.diagrams.net" modified="2024-06-10T21:36:29.309Z" agent="Mozilla/5.0 (Windows NT 10.0; Win64; x64) AppleWebKit/537.36 (KHTML, like Gecko) Chrome/125.0.0.0 Safari/537.36 Edg/125.0.0.0" etag="gzFlUoirStdOdFJ7Eatd" version="24.5.2" type="github">
  <diagram name="Page-1" id="eLmMQ0msYczKOYWhIRwh">
    <mxGraphModel dx="872" dy="473" grid="1" gridSize="10" guides="1" tooltips="1" connect="1" arrows="1" fold="1" page="1" pageScale="1" pageWidth="827" pageHeight="1169" math="0" shadow="0">
      <root>
        <mxCell id="0" />
        <mxCell id="1" parent="0" />
        <mxCell id="URRhDzllqDp2toMXEWSI-2" value="" style="shape=image;verticalLabelPosition=bottom;labelBackgroundColor=default;verticalAlign=top;aspect=fixed;imageAspect=0;image=data:image/png,iVBORw0KGgoAAAANSUhEUgAAA1AAAAJ7CAYAAADtB3BwAAAACXBIWXMAACxKAAAsSgF3enRNAAAgAElEQVR4nOzdz24bzb/n9/IPzJzJzATSLwoEzCbSs+CGG8mbylL0JqsAopELEL3LzvIFBJIuIDB9Baau4KGuwNK2s3ioDRfhwmIWGcSA5yciSHIy4YmCkr9ttdj802xWdVd1v1+A8JzD1s8imy2qPv2t+tabp6cnhXK0mrNjpdTu/A8fjRu3vCX11mrODpVShwtOwnA0bjymHgUAAEAhCFAFkMFwWyl1LF8nGX/qRCn1YAbN8ddo3BimvgtBajVnu3I9tCUsHea4NkzYviV0AwAAFIMA5YiEpo5SqquUOrL4U6bxoFkpNRiNGw+p74C3Ws1ZW66LtuXrwrhRSvVH48YgdQQAAABWEKAsk+B0qZQ6K+hHmkrEQAbOVKc81GrOOhKazNdOAc/QXBN9pVSP6X4AAAB2EaAskelYvQKD0yITeQ5UpkomlaZugaFpEVOtPB+NG/0FxwAAAJADAcqCVnPWleBS1kB5kWupSrE2piASojtSgTzw6KndmTBHqAYAANgeAWoLnlSd1rmXqVxUIRyRaZsmRJ97FqKTqEYBAABYQIDKScLTrYNGAK6Y6X2XDKDtKWG9mw1fRuPGeUDPFwAAwCsEqBwCDE9JBKktBRqckq5H40Y39SgAAADWIkBtKPDwlESQ2pC896Z6cxHUE1+MEAUAAJADAWoDFQpPSXcSpGg2sUKrObv0fI1THp9G40YvvKcNAABQHgLUBlrNWT/gaVvrXEuQolNbgrQj73vWVc+m92y8CwAAkB0BKqNWc2aqD5+DeLL5TaVj32WoL8AWWedkqjOn1XhFS5n3/JjgDAAAkA0BKgMZTA8rNn1rlXtpeV3LaX0Sli9r9H7fjcaNdupRAAAApBCgMmg1ZyZInHj/RO37ItP6Hqv2whZpNWfHMl2vSmvcsvpAQxEAAID1CFBrtJqzjlLqz9XfVWmmW1+36tUoaRJRhe56eZmpfId1CcsAAAB5/Y0zt1bdu5SZ5gnfWs1ZT7oQVoqpOrWas2HNw5OS6YpssAsAALAGAWqFVnPWrXD3tU19NC3cZZpbJchap6q1pd/GeRVDMgAAgE0EqNVq341ujgkaf0nwCJYJCbKu7XONGkVkQRUKAABgDdZALSHVp6+Lj0I24O2EtmZG9nUaEJyWmo7GDapQAAAAS1CBWq679AiUdCV8kEASBGkU8Y3wtNKO3DwAAADAAgSoBWTfpzq2Ld/UjjSY8HqqY2LKXt0bRWRFgAIAAFiCALUYA8jNXLSas4GPDQik6cUDgXgjJ3ITAQAAAHMIUIsRoDZ36luXPpmK9hdT9nLpBPicAQAAnCNAzZEAQOvyfI4kRJU++G41Z32agGyFmwgAAAALEKDSgmmK4ClT7fmzrHVRst7JbIx7ljqITRyxJxQAAEAaASqNqUt2mHVR/SIH4VI9HLIxrjX8LgAAAMwhQKXRbMCeM5nS5zxEybTBW6ZfWkU1FgAAYA4BKiGkPY0CYqpBQ5fNJaRZxJ80i7CO3wcAAIA5BKjXGDC6cSCVKOvnl2YRTh2wDgoAAOA1AtRr3rTgrqB4011r3d0kPNEswi1+JwAAABIIUK8xWHTv67Yhik57haIqCwAAkECAeo0GBMX4KtWjjcmUsls67RWGmwoAAAAJBChBA4nCnW0aoqQRBeGpWId1erEAAADrEKBesFi+eJlDFOGpNJxvAACABALUC6YqlcOEqOGqbm+J8ESb8hKsem8AAADqhgD1gkFieY6WbbhLePICNxcAAAAEAeoFg8RypUIU4QkAAAC+IUDBJ79DlLQ6Jzz5gQYrAAAAosGJ+I0KlB9MiHogOAEAAMBHVKBeMGD3w1QqHtd1PxEAAADwDwEKPnkOT6NxYzgaN7qEKG8whQ8AAEAQoOCTjglP8fMhRAEAAMA3BKiXbm8o14fRuHE7/wwIUQAAAPAJAeqX1P5DKJQJT/1lP5AQBQAAAF8QoFC2leEpRogCAACADwhQKFOm8BSTEHWfOgAAAAAUhACFsmwUnhLahCgAAACUhQCFMlznDE+mCvVIiAIAAEBZCFAo2rVMxcstEaImvHsAAAAoEgEKRdo6PMUkRHVk810AAACgEAQoFMVMuTu3+bNk0902IQoAAABFIUChCCY8taVqZJWEKCtVLQAAAGAdAtSvQfht6kHYYqpDHRfhKfH+DUxXv9QBAAAAwDICFFyaSuXpwfVZlq5+V6kDAAAAgEUEKLjUlSl2hRiNG5emUQXvqHXOAzAAAEAoCFBw5YNMrSuUdPljjyi7CFAAAACCAPWCPYXs+ZJ3o1xL2GgXAAAAThCgXnCX3Y6b0bhhtV35pqRhRZf25gAAALCNAAWb7n1pKZ7YIwrbo0slAACAIEC9oAK1namrvZ7ykhBFe3MAAABYQ4B6QYDajlfhKSZrsb6kDmAT3r2vAAAAZSFAwYYPRbYr35Ssybrhnc7H5/cWAACgaASoF6zzyKfsjntZ0d4cAAAAWyNAYRt3ZXfcy4rOfLndBfq8AQAAnCBAvWCa0mbMvlmdkJ6wTEXzoksgAAAAwkSAEj42QPCYqeJ0Qjxno3FjoJS6Sh3AMkxtBQAASCBAvcZ0pWzOQ24sMBo3LmkqAQAAgDwIUNhUKE0j1qGpRDZUoAAAABIIUK8xWFwtmKYR69BUIjOmtgIAACQQoF5jM93lpqE1jVhHpiFWIhC6wh5QAAAArxGgXiNALdeuYqMNmY54nToAJZ0WAQAAkECAeo277Yt9qnIlYjRusB5qMW4oAAAAzCFAJUiFhTUxr92Mxo1e6tHq6fDep7AmEAAAYA4BKo0q1ItJXTaeHY0bD2yym0IFCgAAYA4BKo0A9SLIzXLzkk12v4T57J3gdwEAAGAOASqNQeMvlV73tIy0aWc9FB34AAAAFiJApTForM+6p2VYD0WIBAAAWIgANYe77s/BodZrgWQ9VN33h6r77wEAAMBCBKjF6nz3vVbrnpZhfygCFAAAwCIEqMXqOni8Go0btK5+cV7jzWQJUAAAAAsQoBarY4i4H40bl6lHa0wqcZ06ngGCNAAAwGKNhY+ibnffp6uCwv7exbFSajfxUHvuW8yx49T/8JeT1CPuTJbsXfS44D19mPvehx8/r1L/W7MmrtWcXSmlLlL/anXRQAIAAGCJN09PT4uP1FyrOavFifmXf/mPk3/+fyL1f//z/zxIhCATiI5S31wvd4lXe/tv/81/e/Gf/+v/xgS0gxqchS/Szh0AAABzCFBLtJqz24KrJ7ZNpeqSrL7E07IepNOcqS6F/jqL9P7HzysTNM31EVfhDuUrWYUL/Xx+kCYaAAAAmEOAWqLVnF0GMG3rLhGQ4v/+Dkfr7O9dmCrD5zXfhhcmlB4vmuq3SCJktRMBK4Tq3h9ZryEAAIC6YQ3Ucr6sg7qXcHSbWLcz3LbVuKxromnEZnaUUv0Fa8AWSjRiSDVkaDVnceUqGa6O5WeUaUp4AgAAWI4K1BKt5swMav+x+KgTEwltw0QlyVmI29+7GLLOKbdPP35e9Vz8w3LdxWHqsIRgdTMaN5Y2FAEAAKg7AtQKrebMVci4i0OSVJNSFQqX9vcuQpie6DMzla/94+dVYVXKuYpVHKpcNLT4NBo3nIRDAACAKmAK32q3FgLUvfw7QwlLpU4NlKl7hKftxFP5lrVut06m1T0kpwMmqlU2QxX7PwEAAKxABWqFVnNmpjL9ufw7UuJpeLdlVJayYOqeVVc/fl55tY5MQlU7Eaw26Qho1j/tph4FAADAbwSoFTKsg5pIWHr+8n3xPVP3nHhb5FS+PKQbYByo2ivWU7H+CQAAYA0C1Bpz66CCCkxJMnXvr9QBbOv+x8+rwqby2dBqzpJhKhmoWP8EAACwBgFqCVm0bwaXXVnvElRgmsfUPae8m8q3CalQdaWden80bgzCefYAAADFIkAlyECyI8EpGTb+vu2+S2Vi6l4hvJ/Kt0qrOTMB6mviW26k0jpgXygAAIAXtQ5QssYpDkydFWtD3od6V56pe4W5+/HzKtMGuz5qNWfm+j5d8tTiTpL9srtIAgAAlK12ASoRmjorBozzvozGjfPUowFg6l6hnG2w61qrOXtccQMhaZKoTDHVDwAA1E4tAlTO0JQ0GY0bh6lHPbe/d2FC3+fQnnfAzAa7xz9+XgU15U2aSuSpUprXOyBMAQCAOqlsgLIQmub9EVjXvUPZkypLVQH2BDeVr9Wc2VgjN5VmK0zzAwAAlfa3qr040wii1ZyZgdyDLIq3EZ6UBLGQ9AlPpTjZ37sI7Vqx8XzNtfbRVLJazdlDqzk7l06WAAAAlVKJCpQM1LrydZD6BjuC2WR0f+9ivqMaimWqMYc/fl5537lRfne+pw7YcydVqX7Rrw0AAMCFoANUqznrSGiyVWVaaTRuvFl13Af7exe7Un2j+lSu6x8/r7q+P8kF7ctdiaf49WiLDgAAQhbcFD6ztsms2TDThJRSfxYVntRLYPNdj/DkhbP9vYsQ1kIVdU3HU/y+t5qz20B+lwAAAFIaqUc8JVONzGL3sxKfYUe6jnlJBuxlnh+8Ziouvq8DKiPknZivVnM2kcDfD3mjagAAUC/eV6CkKcStrNMoOxz4ftecdSZ+Odjfu7j09clJFajMauWBtNk3TSd6NJ0AAAAh8DZAmbUZEpy+yR1rH+zInjnekYG6qwYayO9cWsr7yJcbAsnpfX2CFAAA8Jl3AUqCU9yC3JfglORdYwAZoJ+nDsAHOx5XBn2sqJ4RpAAAgM+8CVBzwcnnSoqPg04aR/jNu72hpJLq8zVDkAIAAF4qvY25WeMkzSF8rDYt83Y0bgyXHCuUNI745sNzwUqmYcKxL3tDmTVHMm0uFNemykqzCQAAULbSKlDmrrKHa5yy8mkaH40jwnDg2TTL0NqIn0mzCbOFwW7qKAAAQEEKD1Cyj1NPuuqFFpxiXgw+aRwRnAsfGkrI9L0Qrxsz5fBCKTWUDYABAAAKV2iAkkHPQ2BThxY5KLsbH40jguVDxTD08GHC31fZkNfLrpgAAKC6CglQZpAj0/W+VqjZQdmD0EsaRwTpRNatlSm06XvLmAr2X0zrAwAARXIeoMzgxgxyAp6ut0xpg1AZgJe9qTDyK60KFfD0vVXiaX1lB1MAAFADzgKUVJ2GMripojKn8fVSjyAkB7J+rQxVXTtkQuE3s76SahQAAHDJSRvzVnNm1uZ8Th2oni+jcaPQdUj7exddmQpZFRNZF2fC9rIW1Sao7lasijlVSh0W3da81Zw91mDq570Jir5sNQAAAKrFaoCSO79metJp6mA1TUbjRmFd1fb3LnYlbIQ8ADaBaaCUMmvibjcNENI8oy1fncDPxfWPn1eFVYRazZk5X3+mDlTXp9G4QbUWAABYZS1AyXS2QQ3bar8fjRuD1KMOyLSvEKdETiVY9378vHpIHd3C/t5FR4JUqGvC3v74eVVIpaTVnPVruHbuRqpRbMALAACssBKgpD15laaVbeJ6NG44ryJI5eV76oDfTLXp8sfPK+dNE+T8dKW1e0hVqbsfP6+cNz+Q6nDo1cu8mNIHAACs2TpA1fSudtLzWhbXd7j39y5COs/mnJwXEZzmyTTHXmDX5LsfP69uU49aVPObHEquyc5o3HB6ngEAQPXl7sJn7mi3mrMB7bSf7+g7bWkeWNvyL9IcoZRW3WZNlawreiuVhxAUca6qsvdTXjvSpa+qXQgBAEBBclWgZDqQuZN7lDpYTzejccPZAHV/7+I2gA50z3f4XVdSNhXQurEPrkJnqzkLcfqnSx9G40Zpe3EBAICwbVyBIjwtdCqDVOukSYLv4eleqk7eTY/68fPKBKj3EvB81pPphy7Uvfo076tMPQYAANjYRgGK8LSSq6lBvrdhNq24j4vez2gTP35eDaTtuc8hakcaYLhQ6F5lgTgjRAEAgDwyByjC01rWA5RsmutzW/hC9zHahrQKP/R8XdS57SpUqzlr13BrgazOZNNvAACAzDapQBGeVjuQwaoVMpC+9PS1qpDCU0yqZD5XonYcVBxpmrDaZxpLAACATWQKUDLVhfC0ns2B2LnHlYOb0MJTLIAQdSZ7Wm1Nqsasf1rvq82bHwAAoNrWBiiZ4lL3VuVZncmgdStSffJ1atF96FUNmc7nc7CwVXns1HTj3DwGrebsOLynDQAAirYyQMld2c+pA1jFRrg493Tga6o2XZ8bRmQlHQOvPH16tqpQrO/Jzvy+9W3cAAEAANW2NEDJQGKQOoB1thq0ysDZ14HvpVRvKkFanPvaVGKrDnFSTWHa7WaOPF93CAAAPLA0QMkAjuk/m9u2mcSlp+f97sfPK99bqufh63TEk/29i22uI6pP+XxkPRQAAFhlYYBqNWdm7cRp6gCyyjUol+qTr+vNKjkgl4qar1P5clVDaB6xNabyAQCApRYGqAA2b/Vd3mYSvk4fuq7S1L0Fep525ctbhaJ5xHYOqOABAIBlUgGq1ZxdsvGmFRsNwDyvPlV6XYg0xfD1pkGec886nu2dt5ozK+3kAQBAtbwKUFI14c6rHZtO4/O5+vSQerR6KlGFkvU73ADZ3g5BFAAALDJfgeoy9ceaA1lLtpbn1aetusGFQqpQvnad3GQgH/QeXZ45owoFAADmzQcoqk92ZT2fvt7pnsh+SXXh6zS+TFUoGeyz6bVdBFIAAPDK7wAl1RKm/th1su4ONtUnf0ijjImnTy9LyGawbx/nFAAAvJKsQNH22I11A1+f11nUcSNlX19zlioUFWT7Mk/FBQAA9UCAcq+zrKW559WnacVbly/j85TFpWG71ZyxftEdNtYFAAC/PQco6dzF4MuNnRWVgaUDYg/Uae1Tks+ve1UVio5x7nBzCQAA/BZXoJYNymBHah2F59Uno47Vp7gbn6/roNSioETrcucOllWRAQBA/cQB6pj33qkDmWKVlBoIe6auFSjD532vFlWhqD65x2ckAAB4Fgco7q6693sa3/7exW4A04IeU4/Uh+/h8fe1JF0eT1LfAduo0gMAgGdxgGIA5t6RTLVSMgD2es1ZTRtIhOJUpoAqqk8AAADFmt9IF25dSvVpWVMJ+CGE8HjJxrmFYgofAAB41uA0FOqk0fj3vdnsP9Dx0G8hTF88m83+g2o0/n3qAJxgmjMAAHhGBapg/1njv6ZiACtm//KDawkAAKBgBKhiTf/f2f/6vk4vGM5M/vU/HX3g9AIAABSLAFWs3v/2v/8PA6XUXZ1edIBCWO/SG40bfc/3rKoSn1vbAwCAAsUBaspJL0Rffki/5OexljS7qCvfX/s0cQ31UkfhAgEKAAA8iwMULavdux6NG8+DsB8/r0KoHNS565jvAar34+dV3Oiizw2QQhCgAADAMwJUceb36/F9/57D1CP14XN4nCarTqNx45EqVCEIUAAA4BkBqhh3cfUpFkAVqs4VKJ9fe7L6FPN+SmjoRuPGbd3PAQAA+CUOUAwO3FpWbVr2uA9qGaD29y5M5c3Xfbqmi6pNEs6vU98NW2j6AgAAfnsOUDIAu+e0ODFZdvfa8yrUSU0bSbRTj/ijv6D6FKMK5c6gqi8MAABsLtnGnEGCG+uqTD5XoXwOE650PH5uqepTTEI6lRI3+GwEAAC/JQMUd7Dtm64bfHlehfI5TFgnFbdTT5/e9Y+fV+saGfA7bF9q/SIAAKi33wFKBgk3dT8hlvWlS9o6vlahOjWbxudzYFx7jbCxrhOEUgAA8Mrf5v7/pVOEkEum8+lxFWqnZlWobuoRP2SpPsUY8NszkVAKAADw26sAxToKq242nPrjaxXK9/2qrNjfuzDrvU48fXqbvAcM+O2pxbUPAAA2M1+BUgwarNloIOtxFepgf+/C18qMTb5e91cbVJ9oaW4P1ScAALBQKkBJFYq1UNsxg6+VzSOWoApVAo+rTwv3fcqAgf/26nDTAAAA5JAKUKIrgzfkk2sA63kV6jz1aHX4GhB7K/Z9WkpugtBMIr+bZXu3AQAALAxQ0jmuygNm17ZpxuFtFaqKHfkkGFap+hSjIUw+U6pPAABglYUBSr20RGYq3+auM7YuX8jzjnyVmhq2v3dxWLXqUwLT+PLpbvP7CwAAqm9pgBJdpgJtzMbA1dfq32nFpvINJBj6ZtvqU1xFppnEZr7kXLsIAABqZGWAkkFYh/VQmU1srJ348fNq4HE7+c/7exfHqUcDs793YYLukafP+nLL6lOMKlR2d6Nxg2nLAABgrZUBSv0KUUPWBGRmc8Dqc+e725BDlFTRzlIH/DD58fPKyvolmklkdl+zDaMBAMAW1gYo9WsgZioiH1IHMM9agPrx88rnTY13Qg1RsqfV59QBf9gOzjSTWM1U1zusewIAAFllClDqpakEIWq5G9nE1CafpxQFF6IkPH1NHfDHvTQRsYlpfMuZ8NR28HsLAAAqLHOAUoSodawvPv/x82roeSOAYELU/t5Fz/PwpFwEZqms0E0zLQ5Pw9QRAACAFTYKUIoQtcxUzosLPq+FUhKi/vK1O5/Zu2p/78KE24+pg365k2mbLlCFeo3wBAAActs4QClC1CLOWh//+HllphddpQ74x3TnG/i02e7+3kVbKWUGyaepg/5xFkBlDSOdNH+ZEJ4AAMA2cgUo9RKi3jMwe+Z6oX4vkPNsgsqDrDUqjVSdzDn7ppQ6KPeUZHIt0zVdogr1q9veMeEJAABs483T09NW/0CrOTPrX2493ZC0CGbvp0PXP0emyPncPW7enexn5GpaWopUv87lK5Tr0QTjY6k0OiO/p3+V+1JLZdYSntNtDwAAbGvrAKV+Dc52JUT5ujGpS59G40YhraL39y4eAqmoJJkg1XfQXe63/b2LQ9mrLKTgFLv68fOqkHVureYsxOvHhqvRuOH7WkIAABAIKwEq1mrOegEs1rftj6LaIMuanm+pA2GYyjSygY2qlFSbOvIVwhqnRSZSfSqkKtJqzkKrYm4r3uOpsCooAACoPqsBSv0apHVkoFyHKX33o3Gj0Bbe+3sXZjB4kjoQlqlULIfy34d1U9gkPJpKkznf7YpUOz+4rMzNazVn5vx9Tx2opjs2yAUAAC5YD1DqZUrfoAID/XU+OGxfvpBMV6vyINgs9I8HvccVDuKmbXk79ahjreZsWIOptkzZAwAAzuTuwreKues7GjfM4PBTxbv0OWtfvoxUar4sOVwFRxK8TypexSxrgF/lbnwmfL8lPAEAAJecBKiYNFc4luk0VXNT4vSgS9rHB+26yO6EcwoP/QUxVSdalAMAAOecBij1K0Q9SDWqantGlTYQlaYD3GUP09TlprnrSMOTKt3QuJNGLvw+AACAQjgPULHRuDGQJgBVmX5W6p38Hz+vejJlCWHpFdV1b4UqTOObyBrEdlFdMAEAAFSRAUq9rI0yd9/fBn4XvMzpe0mlVTKQy6SoPZ/WCH0a35WZGlx0AxcAAABVdICKmXUKMq3vndxJDo0XA1BZR3OdOgBfdX14XhL+Q6xeXsfT9WhPDgAAylJKgIqZDS5H44aZ1vchsCDl0x38cxpKBOGmxMYRi4RUvbmT7npdpusBAICylRqgYmYqTkBBypfpe89oKBGEUhtHLBHCND4TnN7JOie66wEAAC94EaBigQQpn6oIz2go4b2e7N/lDank+HrNJIOTd79vAACg3rwKUDHPg5Svd+5pKOGne08aRyzi2zS+a4ITAADwnZcBKpYIUu896dp37+saDFlfU5UW8VXic7D1IaRME80hugQnAADgO68DVMzsISVd+96W3HXO93UjlzSU8Mq1Z40jXpF1RWVVeCfSjvyQ5hAAACAkQQSomLQ/N62g/y6Dr6IHf14HKGkowVQ+P/jYOGKRoq9pU0l+byrLtCMHAAAhevP09BT0G9dqzjqyv85p6qBdE5lO6L39vQtT9TgJ4blW2IcfP6+8bxXeas5MZfdb6oBdU1lv1aPSBAAAQhd8gIq1mjMTbjpy1/8g9Q3bu5bql/f29y7MuTDTs3ZCeL4VdPfj51U7lJfVas4eHV0rNyY4mSm4qSMAAACBCmoK3yrmzvZo3OhJlSheK2VzPVAwg0Bpmd1LHUARplIRDYnNdVqmNfonM812NG50CE8AAKBqKlOBWkam+MVf29xl/3to6zX29y5MFeoodQAuXXnctnyhVnNmAt/XRccymsgNBqboAQCAyqt8gEraIkzdSRfAoOzvXRwrpf4K7XkHzOz5dBza05fpr99TB1aLQ1NfuvkBAADUQq0CVNKGYeqTmR6YejQA+3sXphpyEeJzD9DbHz+vggwTreYsS7XyXkLTgNAEAADqqlHXFy5rM57XZ7Sas2NZt9JeMogMeXPPnrw2F4018OIq1PAkbpdc+zdybMD0PAAAgBpXoJaR6UxtqUw9T9sbjRu7S749CPt7F0W0qq6zIKfuJUlF9s/E1LxbGkAAAACkEaDWaDVn5q77Y+IufJDVqP29C1OJ+pg6ABuCnLqXuFkQ3zC4DHWqKgAAQFFqO4VvA7sy/c1Mb/rYas7M//JOAtVtQIHqUgbJTOWzK5ipe3OBqb3gWghio2gAAIAyUYFaQdZGZelidycb18ahyst250zls87rqXty/R6vCEzz7kfjRtBTEQEAAFwjQK3Qas7OlVKfl3/HUhMJUyZUDX2qUjGVzypvpu61mrPdubB0nHPfs+D2OwMAACgSU/hWy7v3k7nTfyZfKjHtb5gIVWUNvJnKZ0dpU/fmwlJcZbL1frbj7pQAAABIowK1Qqs5e8x5Fz+rewlUD3HFqoi7/0zl21phU/dkGt5hIjAdOg6/X0bjxnnqUQAAADwjQC0hC+6/Lz7q1DRRqXpIVKysBis22N2K9al7EpR2EyHJfJ2kvtG9u9G4kbfyCgAAUHkEqCVazZnZfPbr4qOluZNQFQerx23WV+3vXQyXbJ6K5czUvculR1eQUB5Xk+KwtOvbezAaN96kHgQAAMAzAtQSreasH69hCsSdPM3b5BwNhugAACAASURBVH9XBaz9vYusXQbxy92Pn1dLqzOJgLSbCEnHPoakNd6tum4AAADqjAC1RKs5q1p15l42BH6U6pUx/D/+z5vuf/pP/8vp09M/p/4HePHmzT+pf/dv/7sP//SvWrsSiFSiyUjejne++sSGugAAAIsRoBaQLmf/SB+ppv/v6f+6+4//+J/iaWlx1SSWrLiEVknJ4i7xPclwqeIq3j/9q9bhf/Hv/vtexULSKjejcaOz4jgAAEBt0cZ8sVptJvq3N//m5L/6L//H40TVIXMba+noNy+eyrZKlu9ZZihhZ5VF3/OYp/lDqzm7rVF4UnW7/gEAADZBBWqBVnNWxw51pvtfu8T9qbxU02vB+GM0bjykHgUAAKi5v9X9BCxRxzvwpsLSTz1aY9JavK6t3qlCAQAALECAWqyug8ejVnNG84CXdXCZpzJWEAEKAABgAQLUHBk4H6QO1MfHVnNGA4Ff1bg6XweL1rYBAADUHgEqjTvvSvUlSNaSbKJ8WtfXL/I2+AAAAKg0AlQad95/rYeq5fQ1WffENEalDuocogEAAJYhQKVx5/2XE+lAVxsSGPo1a1m+CtVYAACAOQSoNALUi4tWc1anilyvghsFb4MABQAAMIcAlXaSeqTeBnWYyiXrns5SB+qNmwkAAABzCFAJreaMAWNa5ddDse5pKSpQAAAAcwhQrxGgFjup6v5QrHtaiQAFAAAwhwD1Gh34lqvq/lB91j0ttUMnPgAAgNcIUK8xWFytL9PdKqHVnJ2z39NaVKEAAAASCFCvMVhcbacqm+xKd8HPqQOYx7RWAACABALUawwW1zsKveGCNAup5UbBOfA7AQAAkECAeu0g9QgWOZPpb8GR6tmAphGZEaAAAAASCFCCFuYb+xzoJrtslrsZfi8AAAASCFAvGChubhBSUwmpmrFZ7mb4vQAAAEggQL1goLi5YJpK0DQiN6a1AgAAJBCgXhCg8jmSvZS8JVUymkbkxF5QAAAALwhQsOG01Zx52ZlPBv99mkZshfb+AAAAggD1IsSGCD752GrOuh4+rz5NIwAAAGALAQo2ffWpqUSrOTPh6TR1AJtieisAAIAgQMG2Wx9awks1jI57dhCgAAAABAHqBes87NiR9ualNR6QjntfUwcAAACALRGgXtBkwJ6jsrre0XEPAAAALhGg4MqJrEEqjFS9bgnD1tFgBQAAQBCg4NJZqzm7LOIME54AAABQBALUr8E3i+TduSiovfmAduUAAABwjQD1CwHKLdPevOPqJ8hUwZPUAQAAAMAyAhSK0nexR5SEJ9qVAwAAoBAEKBRlR/aIshai2OsJAAAARSNAoUhxiNp6jygJT+z1BAAAgEIRoFC0rUMU4QkAAABlIUChDEd5Q5RMAeylDgAAAAAFIEChLBuHKAlP7PUEAACA0hCgUCYTovpZfj7hCQAAAD4gQKFsp9KKfCnCEwAAAHxBgPrlIfUIinS2LEQRngAAAOATApRSajRuEKDKlwpRhCcAAAD4hgAFn/wOUdJcok948sJj3U8AAABArMGZgGfOJDwdSpMJlG/IewAAAPALFagX96lHUBamVAIAAMBLBKgXTFPyw4fRuHGulGoTar3B7wYAAIAgQMEnJjw9r4EajRuPhChvMIUPAABAEKBe3KYeQZF+h6dYIkTd8U4AAADABwQo+CAVnmImRI3GDROirlMHUYjRuMHNBQAAAEGAesEgsRxLw1PSaNzoEqJKMa3hawYAAFiKAPWCzm/FMgPzt1nCU4wQVQrWPwEAACQQoMRo3CBAFceEp/Zo3Nh4cC4h6lPqAFwhQAEAACQQoF6jWYF793nDU2w0bvTM1L/UAbjAjQUAAIAEAtRr3G13a+vwFJOpf+9Zo+McvxMAAGxBa72rtb7UWh9zHquBAPUag0V3biQ8WduUdTRuDKTNOSHKETrwAQCQj9b6UGvdk9kcF0qpXU5lNTTqfgLmMFh041rWLllnqlmt5szc0TFh6qhi561sTGkFAGBDJjgppS6VUmecu2qiApUgjSQmqQPYxgdX4Skm71tbqlywhxsKAABkJBUns8TgO+Gp2qhApd1y0VthptV1ipoCJlMDO63mzJTKP6a+AXkQoLagtX4K8GlPE1OZzX8f5ToYRlFkbfotAFSJ1trcxD1XSp3yxtbDm6enEP/Gu9Nqzky15GtVX19BTLOIro1mEXnwHloxHY0bzNXeQqABapWJhCoTqAZRFNGhEUCtSXAyU/VOMp6Hd1EUcXOyAghQc1rNmRk0/iN1AFndSHgq9W61rIsyH1I7qYPIwtm6tbqoYICaZ26U9AlTAOomR3CKEaAqgjVQc2Tgz1qafK5G40an7PCkpLmEUupQBnnYHB/wWMc0bfls5vprrW9lQAEAlaW17mqtzQ2jbznCEyqEALXYYOGjWMasm3g/GjculxwvhQlyo3HDVKK+8M5tZCr7bAFZmYHENzOw0Fp3OGsAqiQRnMzygAPeXBCgFhuwt1BmpsJzLHsyeWk0bpiFnR94TzPjBgLyMgOLP6UixYaRAIJHcMIiBKgFZAoag8j1vpgKj7QR95pUVNpM6cukF8BzhN9MReovs/M+7xOAwBGckEKAWo4//MvFU/bOl36Hh2RdVJspfSvdldU9EZV0IdUoOjoCACqDALWEVFVoJpF25/uUvVVkXZQJfu+Z0rcQa59gm6lGMaUPAFAZBKjVmMr0mumy1w5hyt46EgAPJRDilwnNI+DIESEKAFAVBKgVRuPGLVWoZ2bd0FvfuuxtS6pRZkrfJ6pRz9j3CS6ZPdkGTOcDAISOALVeUOt8HLiSRhGVXRczGjdMpfG45tWoO7lhALh0wB5jAIDQEaDWkOlqV6u/q5IqWXVaxrzPNa5GTak+oUBHWmumRwMAgkWAykBCRF3aX5vB9KeqV52WkWrUYc2mbl5WYV0bgvJRa93mLQMAhIgAlV23BpWJG+mwV+u7w7I2qqOUemcaK6S+oVru6v5+ozR91kMBAEJEgMpIqjFVXQ9lqmvvTGigEvHCrAkajRuHMoWziuHZhMNO6lGgGAesMQUAhIgAtQFp8Vyl9VBmAP1BpuuxsHsJmcJpgtT14u8IkgmEJjA/Vug1ITxmo91D3jcAQEgIUBuSwXToA+mpBMFj9v3JRqb1mWmcf1RgfZR5/9t1XOMGL9WiUQ0AoDrePD098Xbm0GrOTPA4C+xpT2Vz4B6Vh+20mrO2DPxOAnvqhKeCaK1tf7i6bLN/KFPqyvJHFEVMHwbgHcuf5e+iKGLGTwU06n4C8jLViFZzZn4JvgbwdAlOlsmUx7YEqW4gYXoi0/YITwGKosh51zqZTteWr45sfluEc9ZDAQBCwRS+Lcj0t3ceNxh4XuNk7i6bqYeEJ/uk0UQ8te/a42sh7rBIeMJSpgoURVE/iqJuFEW78vlRxBYO7EMGAAgGAWpLUonwrcHAtXTVM8GpT3ByTzbi7cq1UNSgM4upNAqhYQQ2JmHquIANpne01nSEBAAEgQBlQaLBwDvH6xRWuZdBzt/Nc6GrXjnkWjCh1Qw63yqlvpRYlbqS6iONQrCVKIp6Mq3P5bVMgAIABIE1UBaVsC7GhLWB+WL/Jv8k9g47l2uiI18uF+ubaZt91rvBtiiKhlprcx3fOlobRYACAASBLnwOtZqz3cSguW1h0GEC01AGMLcMkMPUas6SC/XbFgLVRK4JE6QHqaMohe0ufFEUvUk9WAKtdddh85y3JqilHgWA8j7z6MKHFCpQDknA6cuXGTibaV3Hsk7G/Hd3xU83g4hH+e8Di/+rQ6qFv68L9dIW/XDua5n42riVa4PqIwpj1kVJiHLRwr8t1zcAAN4iQBVIQhCDA6SwZg2BMQHqu4OnfJx6BAAAz9BEAgCwEdn01kXn0VWVVwAAvECAAgDk4aK7o4tpgQAAWMUUPgDAxsxCaK311HZHPq31bhRF3jfIkY6EStZtKVnTumwK4oN8qXgNIwvJFzPvf2KNcPJ8thf+D355TEyPf0ycY6bML6G1js9xfF4PV1SAk+c3vpYfpBIN1BIBCgCQ18DBdg3H0iDFG1rrZOdM8/yONnxuqcqa1lrJ/n1xZ9VBCMHRJgmhyeZKqfO0gdP5b11wjm/rOOiXUJq8fvOc50Xndzp3brkpgNqgjTkAOFDVNuZJWmuzz9nn1IHteNHmV+7QdwvYuy3pJt7br4phSs5pvK1HWdM172XA36tymJLQFG+jkgo/DnlzDWuteyuqwpuwea3eS0WvMFEUrareIicCFAA4UJMAZf4wf0sd2E6pAUpatJ/nqDLZNJVB6GXog3y5RorYRDyPOwlSldk/T6qll3K+XWx4nVXp17DW+pZ1lX7+7agCpvABAPJycSe1XcYUPq31pVScfBjk78jUyDOt9XVoQUoG8V2PzucyZnB9orU2m5F3Q56ClghOtqfU5hX0NQysQxc+AEAuVVikr7XuaK3NwO7C08G+GYR+NwFPpmV5y1SbtNYD2SPM1/O5iHme30zFQoJIUCT8f/coPM37fQ2njgCBIkABAGrHDJRlis+fgQz0TSAZyjoir5hpj3IuvxW83sa2EznHnRCerLkWEuE/BBdaay+vYWBTBCgAQK3IAHkY4PoIE/T+8uVOvlSczHn8WqG1Jmbq2Z++V0vk+f0VUJUvdiTXcDd1BAgIAQoAkEtiLySbnE4LlM5cf5a8wH5b5k5+v6wpfVL5iCtOZTbbcOn5HPv2pMx7Ls8rlKrTMl99PL9AVgQoAIBPnLT4lYGnWZ/zMXUwTGZdyW2RIUrOYU8qH3Xobnbm0yBf3utbj9c6bcqr8wtsggAFAMgriP1FEgPPkNfnLHJUcIjqViiAZnXmw3SzxDVctYofIQpBIkABAPJysRjc6hS+Cg88Y0WGqLoOdL+W2figBtfwGR36EBoCFAAgL+sVqCiKbE/hq/LAM3Ykm5Y6Je/NTemvthylhMcahKfYRSjdDwFFgAIA5CGDHduNGO5Sj2xBpgZVfeAZO5H1Sa7VtQp1VFKVpFeja7gf4j5cqCcCFAAgj3MHZ83a9D2t9XmFFttn9dFRZ8Tfoigyla5p6kA9nBfctKNu1/BOjQM6AkOAAgBsRAbpLrqw3aYeyUHWq3yu6btaRHvzug5ydxzdOEip8TV8wh5RCAEBCgCwKVdTxbYOUBIenK8H8pjZWNX1VLM6VwmKqkLV+Rz3ytrjDMiqwZkCAGQl60BcrMm4t9RA4lJCRFEmMvVwKHtYzU9DNJWEQ/lvUXsnmal8vSiKHlJHLIiiaKi1njg8z3dz53K4YH+w3UQXyLb830Vsjmx+RsdlwHH4OxaKuNJHZz54iwAFAMhEptZcODpbWw9IZdpTEfsU3UiV6zZDSPldVZO76h0ZHLoeIF/Kvk2u9CxNMZvIOTJfQxPOUt+x3KtKo7z/XflyGaacBShpouDqd2yV6YLAeixBdbeEQHcuNwGcbKwNbIsABQBYS8LTV4dnysa0O9dd6K5NMMlb2ZHBYF/WKbXl/3ZVxXneW8dVFUrer7wBaiKvfbBhYFpJ/q1zqeCcy5eLIHVqwrCjwX2RVZdNbgTEax878uW6ymujCnUu4W9b3+y8pGefFlSpEaA3T09PvG8AYJnW2uqHaxRFb1IPFkDuiJtgcurwp91EUbTVHjAyuLM50Em6N1UNm4P9mAz2XVUcrqMoclaF0loPNrgupjJY77k4j4tIRcpVK/sPURRZrUI5voaTtroRoF5uqLieLjuJoqj0tuaWP8vfRVFkpVkOykUTCQBAihl8yj5KQ8fhSVmqHLm6c/8liqJjV4P+KIrM8/7gqDV4x/Fi/CxVw4ncdT80Ya6o8KReKlJtCcC2uWgX77r7nDkPb+V92KoyacKjhJur1EF7DthcF75iCh8A1JzcqY8X5R/L4LCoRgx3296RddhW3XqVYRHzM7TWQ1kHZHPKmdOGB/K8e0ue80SqHKV2kzPT7OT6GFq+po9Tj2xBKr0u93xyUo00NwC01rcSphddB9vq1ryrJjxFgAKAANieEugRG5UjF3fuCwlPMelsd+5gnZnTjnEyuE0O/KdSUfSmAYCEqK7l6XG2pwW63F/K6VROcwNEQqrtGwCAt5jCBwAoi43q066DO/dXZVRO5Gd+SR3YzqnjaXzJ6ZfXMlXv0rfuaXKd3aUObEEqt7a4CjhOw1NMpkva+jl3Mq3179uujQRcIUABAMpiY8Ble4B1J+uSynIp099scrFe55kMnO9kcXzX87bTtrs0Wgmmss7HReXmvojwFIuiaLDFDYB7WSv3RxRFbVljRQtzeIspfACAMlxZarFtc+rTtICF/CvJdLNLy1P5Oi7XkZgBb+pBD5kBvtZ6ajGstJP7fG3BRZVl6ujfXedygzbn94l29q7a7QNOUIECABTt3kaVR6am2VyL0vNhICdT+WxWoaw2PAicjw0JXASdUq5lqRqt+t1OVppMd0svfueATRGgAABFslnlsTnwnBawEe8mbD4XF/sghcpmG/Wt9yiS5gu2p+9NypyGuuAGAKEJlcMUPgBAkWzuBWRz6pg3XeOEqZR8Tj2akxmos4HnM68ClKP1aWWu4Us+h12m56GqCFAAgKJ8kIXmttgcfJa6X9E8M+jUWt9brB4dW1qvA7tsB6hp2XtvqZcqFFBZTOEDABTB6r5KsvGorY1Rbzy9S24z8LhsZR4SmxUoG2xvAE1wAQpABQoA4JqLTWltNkbwtTJjntfH1KP5BNEpTxqDLHtvH7YNutLlMPV4GSzvIxUjQAEFIEABAFyZyponF53PbA4+fezMZlRy7YhUD4/lKw52mSoxifAzkfMTf5mwOQxs7yDbAWpicX0hgBUIUAAAF+4tN4yYZ2vwOfV1kbs5dxarJaW2MpfNYjsSmGxMvTyQrzh4XcjPmUiYMqH41vNAZaMJRRJr3ICCEKAAALZdFdBG2daangdpJV11tltlryXntSvBqaifb0LVmXyZ53AjneB8nNpmO9QSoICCEKAAALbcKaXOC5pGZGvxvely9y31KHLTWneljbWtJh/bODVfWuue7K3lU5Cy3diD6XtAQQhQAIBtmeB0yT5D9SbT9HqeBKd5OzLN7yJ1pDxWK1CsfwKKQ4ACAOR1IxvQFhqcpAkBcpw3F+u95P3oO2jJXXU2pzXepR4B4AwBCgCwqU+yrqSs5gsEqHwObXf201pfelbVAQDnCFAAgE09+tq5DsWQ/ZoGVJ3ycbAHFNP3gAIRoAAgDHmm6Bw6Wo9yyYad9SWD/4Gna51CYbuBREj7XwHBI0ABQACiKNq41basTfmeOrC9A9NpzdPW0HBIwtNtGW3RAcAXf+OdAIBqkml2145enOt9nlZhDVQ+W027JDwBwC8EKACoNldB50D2+ykDASqHbdatyZqnPuEJAAhQAFBpFa5CoVg92XQYAGqPAAUA1Ve1KhQb9hZIa23W353V5gUDwBoEKACoOKpQ2BLNQgAggQAFAPVQxbVQyG6a51zJe0u7cgBIoI05ANSAqUJpra8dTcViXyj/5d1otegK40S6BcbTNIdL9jhqz/3fu4Gt0bK9ETWNVYACEaAAoD4uHQWooveFWjSghmWy9qmI6tO1BKbbDToFLlwHJ8/5WEJV29eugXJDI/X4FghQQIEIUABQE46rUN2iqlBRFA0tDz7rIE8FyuXUzIl09utHUWQtEEdRdCvhyvzbJlB1lFLxV5VbsBOggAIRoACgXlxVoU7M3X8ZwIZkKoPrqsszZczVebkyAcdmcFomiqKBUmog+1iZQHju0ZquicXnwjo1oEAEKACokQLWQrVTj7pxb2nNi6lKPGyzyWwVaa2PHVRsTFg1ITvveqzcJKyZqlRPa/1U9M9f4sFm8An0BgYQJLrwAUD9uGoMcCJrUIpgs3pR1HMOybHl51paePKY7Qqc7fcMwBIEKAComYrsC2XzTjsBKs32YLxDeEqxfT64joGCEKAAoJ5Cr0LZHHzWYQ3UpmwGqBumli1EgAICRYACgBqqQBXK5pqlHenWBjfYI2wx2+vuuI6BghCgAKC+gq1CyXSwaepAfi5bdofoxNJznkonPMxxcA0rn65jrXXfBDrpgAhUCgEKAGqqAlUom9PCTrXW7KVjH+ueVrN9fry4jqUSZjp9/qmU+ofW2rSS7/I7hqogQAFAvYW8Fsr2upqiGmAAMRdrw3y4js/n/v9TpdRXpdR3rbXZCPucMIWQEaAAoMYCr0LZnhp2JvsfAUVxMb3xrMxwIj971RRQs3/bZwlTZl+6Hr93CA0BCgAQZBVKwt996sB2eq6eLzDP0TooVXLjjk1+ttlI+KNS6i8JU30aYSAEBCgAqDmqUK+Y0Dc//ahUgS/CX1WJKJyn59JFFaqU61jCT973/CBeN6W1fpQw1aUJBXxEgAIAqIDXQrm40/7ZlylFZhBp1smUMIi8Sz2Sky8VBTmHPu5H5apLYaHXsUzds/X7uCNh6mvF9mlj3VdFEKAAAHEVytqgeY6z1soOn/dtyetIdiU8ncmakTJClC2lV/QS4ekodbBk0ubdxTQ+JdeN8xAl53cgwce2KrXBZ7PjiiBAAQBirqpQrhe1u6hCmYHgoIzQkhjsnyUeLjpE2WyvXeq0SAkQQx/DU4KrNUs7rkOU43B6E0XRY+rRcBGgKoIABQB4FkXRrcMqlLO1UFEUmcHnJHVge2ZAOCx4GpQZYD0sGYweFXg3/iH1yHYuy5gWKcHtL1lf4zOXzUviEGW9ElxAOC2zGYYLBy7eBxSPAAUASAq1CuXqeR+4GnwmyZQ9M4j+tmYa1IlM7XPN9gav8SC+kPUsZmCvtb6Vdtnec9zIRcn5/2rOiY3fw8T16jKcTmR6Y9U4bdsujTeqFjy9Q4ACAPxGFWohq4PPJBmIXkrF52PqGxY7cz1AkuvAth3psNZzNRXRvD9ybv7yrQNgBkVsgHsi+y/lahcuwbS/4fWaV1VDgPVplfHniGkFL403qjTt0Utvnp6e6n4OAMA6rbXVD9coit6kHnREppF9c/TP/yF3262TAeGfBZyiGzO42+buuAyezqXD2KqK0yrXURQ5q4xprc3rO00dsGMq09Z6265xkTDWkWYlRYamuyiKrK5pSTQOKcpUqo23EormfzfNdbora3eOHTWJWMQ8r0Mf1j9JKHFRZdvqdyBx3XcW/J5eRVFURCCvLQIUADgQcoBSv57/raPBqOtBv6vnvchU1iQN469FAyEZ6BwnvtoWB2TOzqdMW/yaOmDfjQzgl57DuecVn8+2fJVVaXIRoEyF83vqQP14EwAK+EyJP0eeQ+yy6q/c2Epe+6ue07tl/w7sIEABgAMVCFChVqEOZSBe1J1yH3yQKYxWSVD5R0mv737BNKRdzzrpWQ9Q6td5N8HhInWgPrypPqlf70evgOmKthGgHGMNFAAgJeC1UA8FrSXxyVcXTS5kAOuyscEqR3KHPfnlcxtya6Tycl+Rl5PHpWety203VHGO8OQeAQoAsEyQHfmiKOrJtLA6cRKiahhGfVHXVtf38vvrk9DCiKtNmZFAgAIALBRqFUp0a3gX33qIKqC9NhaIoshUPT6lj1Ta1MfgKL8DIX2WBFcxCxEBCgCwSqhVqEcZjHE3dnvnnMfiSSWmTuH1XIKjj0Jqqe5kfSleI0ABAJYKuQolg7F2jQb/TppJSBg9Tx2Ac9JhsQ6V1GsX165FIW3oS4AqAAEKALBOkFUoVa8Q5SQ8xeTfZipfOdoVD1H3Lrc2sCGwqawEqAIQoAAAKzmuQjmvbFQ8RE1dh6eE85p3hyuFVACrGqLu5bWF4DKQzxACVAEIUACALFxVobqy35BTFQ1R5rW0i5r6VPGBvNcS597VjYwy3Mv161PL8qUC2iKBJhIFIEABANZyWIXaKWp9jYSow4oMQu9ks9FCB0uBD+RN4HybejQQ5tzLxr1fQn0NCWbN03Eo4SkWwhYJoZ3TUBGgAABZubr7el5EFUq9HoRepQ6GwYSAT+Y1lDVQCnQgH1c7gr87H0WRueHwPuBq6iff1zyt4XNjjypVKL1GgAIAZFKFKlQsiqJLqUaENB3NnPtjXzYaDWggf12V8BSLosh0hTsObMBsftfeerhR7kaYygpFgAIAbCj4KlTMDKjNNCLThEEpNUl9gz/Mc3svVSevFojLQP7Q0w5l5ry9M9WOKk5rMteCVALfe379xo1OjqsSYhMhyrfr/jb1CJwgQAEAMqtSFSpmmjBEUXToYZC6l4HnoQQVL8mUPjOt6Z0nFREzYL+S81b5AaW5Njy9ficyVfbQ8z2ecklc975UYScEqOK8eXp6qstrBYDCaK2tfrhGUfQm9WBJtNbmzus3Bz99KoOtUqsFWuuOrHM4TR10byqbdvZDHfxrrY8lDHckGBfFBE4zPWyw6hqy+Lt5JxUgr5R8/SppsjCoYmhaRqrn5/JV5DWv5KZFv07n2wcEKABwQEKGNb4Npm2/voThqsFvkWRQ1JGpOi7DQHzneOBzpWlTBZ2/ezl3/azTwyxeu48+T0lLnP/4PXB1/U7j69f817dppkXTWnflnLsMsHdyvgd1P99lIUABAJCB1vpQBqLxf80A9WjDc2cG/I8y4Hyo04BTKlPx+TuWr00G9ZP4nMleN0MGj9ktOP/mvwcb/jPz1++wSs05bJOw3k6c700/L+Jrfpg430zT8wABCgCALUm4Olzyr3hdqSibVEqOlz0NBozuranKPRBU7ZIwu6xpDp8XASBAAQAAAEBGdOEDAAAAgIwIUAAAAACQEQEKAAAAADIiQAEAAABARgQoAAAAAMiIAAUAAAAAGRGgAAAAACAjAhQAAAAAZESAAgAAAICMCFAAAAAAkBEBCgAAAAAyIkABAAAAQEYEKAAAAADIiAAFAAAAABkRoAAAAAAgIwIUAAAAAGREgAIAAACAjAhQAAAAAJARAQoAAAAAMiJAAQAAAEBGBCgAAAAAyIgAmFCvrwAAIABJREFUBQAAAAAZEaAAAAAAICMCFAAAAABkRIACAAAAgIwIUAAAAACQEQEKAAAAADIiQAEAAABARg1OFAAACIHWelcpda6UGkRRNORN24zW+lApdRj/j6Ioug3kqQNeIUABAACvJYKT+dpRSjHwz0hr3VFKdZVSp/P/C621+c/EBFKlVC+KogdPXwbglTdPT0+8IwAAwDtSMblUSp3NPbd3VE9W01ofK6X6Sqmjld/42hdzvqMoekwdAfAba6AAAIBXTHDSWpvB//cF4QlraK1NxemvDcOT8dFU96TiB2AJpvABgANaa5vl/Q9RFPVTj3pAa91WSn2z9EyoKtScXE9dQlN+Ep6+bvFPHEmIalOJAhYjQAGA/y5lKg5QSRKczHV+wjucn0zb2yY8xY5kXVQ7dQQAU/gAIAAHclcZqBQTnLTWt1LFJDxtz+aNlhM+d4DFCFAAEIZL3idUhRmYa62HBCd7pNvepmue1uFzB1iAAAUAYaAKheBJcHqQaWa2B/t15+Lz4UCCGYAEAhQAhIO7wQhWIjgd8C464Wq90nHqEaDmCFAAEA6qUAgZwckRaTu+4+ifp5EEMIcABQBhoQoFYB5VIqBABCgACAtVKAAASkSAAoDwUIUCkMSGt0CBCFAAEB6qUAB+i6Jo6PBsuPy3gSARoAAgTFShACTdOTobBChgDgEKAMJEFQpA0sDR2XD17wLBIkABQLioQgGI9ZVSU8tn4zqKItZXAXMIUAAQLqpQAJ5J0LF5U8WEsfPUowAIUAAQOKpQAJ5FUdRTSt1YOhtdqk/AYgQoAAgbVSgASebz4H7LM/IhiiLWPgFLEKAAIHxUoQA8M1WjKIqOlVJfcpwRM23vfRRF/dQRAL8RoAAgfFShALwSRZFZv/QuY3tzE5yulVKHVJ6A9RqcIwCohEvpwgUAz6IoulVKtbXWpiLVVkqZ/x4mzs6t7PN0y3onIDsCFABUw3MViqk3AOZFUTRkQ1zAHqbwAUB1sBYKAADHCFAAUB2mCkWIAgDAIQIUAFTLudZ6l/cUAAA3CFAAUC07JkTxngIA4AYBCgCqhyoUAACOEKAAoHqoQgEA4AgBCgCqiSoUAAAOEKAAoJqoQgEA4AAb6QJAdZkqVC+KokfeY/u01sdKKVPli/9rHMrXMg/ypRL/95D3CEAdyUyJ47nPzuRn6jyzIfSjfJn/+yGKoofUdzlGgAKA6oqrUOwNtQX5A9+WP+pt+SN/kPNfPEk98utnTGUwcGu+oii6TX0TAAROa92Wz9H4M3Vn289QrbX5z12Rn59vnp6eUg8CALajtfblw9UMzA9dVTjkj+G31IF83vkQHBKBqSP/zRuWtnWjlBqYrzIrVKaKKQOdbaUGPlu4lzvQhYmiqO3Z+XTO1mvOSmtt+/ffDKaDuYGktR6sqLzk4cXr11p35PO0kyMw5TFNfHYOXPwAKlAAUG1UoTKQ0BT/gT/15GmdyldPBlaXZUxVkcG+zfBjw5Fnz2cTPp5PXzxa/v07DmUas0wJtv3Z0089UhCttanUd+XvTxGhKcn8vDPzpbWemM9Qcy5sXgc0kQCA6qMj3xLmzqjW2gwy/qGU+upReEqKBwPfzXOVgQlQRbarBTtyUyQEXcvPcRpFUeEBynw+yWfqd6XURQnhaZ6ZQfDZrJXSWl/a+ltIgAKA6qMjX4L5A6q1NqHSVHP+lHASCvNch+b5B/ScgUxkwD+1fLbqGqAKDU/yuXopwcnHz9QdCXRDmVK4FQIUANRD7atQiT/wD3JHsqy1TdsyA4HPZr1I3d9TVJLtgf+p71VbGdDbrtQUFqBkLexQAorvzOf+n2Za9DafnwQoAKiH2lah5oKTD1NKbDmRaSlBNCQAMuo5OFG+V6FsP7/7KIqGqUcdkKYo3wK8IXUq1ahcn58EKADwm83pLLWrQmmtuxUMTknmNd0SolAV0ijlzvLLsT09zppEAxubXITQV+TGlAlpH1MHw2FC31/yd2IjBCgA8JvNNQG1qUKZKSXyx/1rRYNTEiEKVWN7+tmRx78ftqfvTR0043hFzuVD4N0wk77KLIXMCFAA4LdHy6GnLlWofoX+uGcRhyjWRKEKBg6aSfhahbJdfXK6b5yEp9sK3pi6kO6BmRCgAMBvbelMNbH0LOtShXI+hcVDO67vPANFkABg+1r2bh2UNLcIZu+nCoen2FnWShQBCgDCQBVqM3UNEie0OEdF2L4JcmCjfbVltp/PJIqi29SjFtQgPMUusqyJIkABQACiKBpYXFhd+SqULES/SR2oh0s220XopIvcveWX4VuAsj2t0EnlXW641SE8xb6uWzNHgAKAcFCF2kxdq1BmkLPRgmjAU7ano3V8+dyTAbrtdZqupu/VKTzFVu4TRYACgEDIHdlrS8+2DmuhXCxED8UZVShUgO1AsONRFcp29enaRfMI2eepTg15YgerbkQRoAAgLEs/0HOodBXK0UL0kLAWCkGT32FbN41ivgQo6933Uo9syWwHEfg+T9v6KOcgpZF6BADgLbO2R2ttBhRnFp5jXIWq8nSvvqVztYipbg1lP5QHOb5oAfdh4svFtJ1luoQoVIDt3+FTU52VdZKlkEH5gcWfPZF1stbIzTVnHf2WuJPP1Me5z1VjVz4/zeeo7fO3yqX8vFcIUAAQnkuLAwpTheq53DekTKYjldZ6YumP7b3c5TV/4G/znjMZmHQk4JykvsGeHdN1zPbACiiS5d/hWKfkrQ5sT99zEXTOCwgp8aa/g4yfU7+/R6YoxzeJXK7PMp1Nu7KdyG8EKAAIjFShvliaWlGXKtRF6tFsbhJ/4K2ETPl3zHPqyyCg7zBIdSxM7TmXu7/b+mbh34h9kiAbIlvncxFzh/7zgsdDt83v8CLdkgOU7el7VgOUfC65rF5P5W9OP+/nqlQQL2WN1rnjIHU+f47fPD09pb4LALAdrbWtD9e7KIpS0wekivFg8Q/GH3mmtMhUFFsD43cu9jCRwcD31IHlJjK4yv3HPcdzPHc08J1GUeRL1zGbAw4n10roLP8+mkHqm9SDJcjxO5zFW2nMUyjZY+irxZ95E0WR1UCmtXY59dnc/Lu0/dkq18jA4RTpV585NJEAgADJHx+bd1ArW4GSYJhlD607+SNp1kcUOq3R/Dyl1IfUge3trNvPBPCdo33dbE+jy8rr5hESRFyEp6l8vp67+Gw110gURccOmo7EXl0vBCgACFfPYpvuqre9XjXFJQ5O7TKrGjLH3kWISlUwgQCt+h3Oo/BufDJz4DR1IL/p/NocC1xM3TN/pwr5fI2iqOsoRJ0lu9YSoAAgUFShNrJoT6h7H4JTkgyGbN9ppwKF4EmTAZv7uh2YJiupR93yunmEBATbzzEOT4VNl3QYon5fLwQoAAgbVagM5vaEMufrg5nu4ek6Gtt3gNlQF1URehXKdjix3QijY7kRQ+HhKeFc1rPaRIACgCqgCrWRuLpz6GDaizUO1ntQgUJVWA8MRW0mLjenbDY4uHewl5XtmzeXJYWn+G+j7cD6e/olAQoAwkcVKgNTbTLdqgLZ88pmwHO5RwpQmA0awmS1U2AVyuvqk4OAdyfNcUojMwxsXi9xp0sCFACEjipUJVmdWljxBiGoF9vV46K68dn8OVPb3fccBMmyuhzOs/33jAAFABVCFapCJBTfW3xFvJ+oCtvNJE5cf97JVgIHqQP5WdvYO8Fmt85rB9MLc5EqlM3P0ucp0QQoAKgAqlCVFMJUQ6BQcw1hbHE9jc/22iIXU+Nstlf37e+HzaolAQoAKqZnsesQVajy+dghEPCB7QDhYu+jJJsBbWK7MUO8rseSO1+qTwk2P0ufK4kEKACoCLkza/POH1UoAN6RAGFzWtaBTLOzTvaastnIxUX1yeZr967DqVwv1lqam8DZSD0KAAiWac+ttb60NN/eVKEuPbyb6AUZcC1rgTwMpNsfECoTJL5afO5dR5UorzfPFTYrULanV9oytLgObZcABQDVc2lxYHHpUTelwsnUlmNpwhD/N9MfYa11/H/ey3qmW/nv0NMNfIGQDHwPULLHlM21RdeObszYmq597/GNo6HF9+KYAAUAFUMVKj9Z99WRO7K2/tjGe6ucxA9IuLqTUDUoa7NJIFRmoK61vjafUZZewo6ZbhdFkc0Kiu3mFK6qO7b2f/L5xpDVz1gCFABUE1WojOQucUfuPtvcSHKdE/m60FpPZHDUJ0wBmfUtBiglnwM2Q4rNz82J5XD3zPbaL8sNKWyy2RSJChQAVBFVqPWk2nQugxybi7zzMO/TR/Oltb7zcSE24BszFVZuPtha22I+685tTEOTz5eT1IH8XH0mLFvHmcdH+aq6XbrwAUB10ZFvAVNxknD5Xf7Ylx2e5p1I9fAidQTAPNtd6WxNu7M9fc9VgGK7ihwIUABQUaYKxb5Qr5m7y0qpB8IJUBm2p7XZmnZnsyHFjcMZAASoHAhQAFBtVKFkOo3W2ixw/uxhxQlAThIsbiyev5NtbxbJuiJb0woVU3r9Q4ACgAqjCvV7I8uh5fUIAPxhO2BsO/3OZvOIqYvmEQlUoHIgQAFA9dmcShJUFUprbQYyf1J1AqpLAoatG0XKwmemzQDluvpEgMqBAAUAFSeDiztLr/LMdttbV7TWfcsbbQLwl80qzUHezzmpeNu8YWO7SQYsIEABQD3YrBx5/wddKk8294cB4Dfbn0t5q0g2u+/d1WUT89AQoACgBsx+KRarUCdyl9VL8tyoPAE1IkHD1mecyhOgEpty20LzCE8RoACgPipfhZImFww6gHqy+bu/k+NGkc3pe1MHLdphCQEKAGrCchXqQKbJDVNHytWnYQRQT9J1dGrxxecJULYMoih65FL2EwEKAOrF6r5QPv2B11q3aVUO1J7Nqs2ZTMtbS6rfpxZ/Ns0j/PVAgAKAGnFUhfJFsBv9ArDGdvDIWlWyWX26j6KoqOo+Va7NPTRCe8YAgK2ZoPHN0mn0IrSUVH0yQfRBvh6XTGc0d6/jdsiH8nXMNEPADRM8tNb3SqkjSz+gm3FtVUh7PyUNLVfOaoEABQA1Y6pQWus7S4HjIPVIOWxuFrzMRKYHDaSSl1VqSpFMC2onvmwN9gD8qkLZ6sRpuo4ermonLntG2fwdphGO36hAAUBN2axClUrCiMs7qHey3muT0LSSrB0bxOFK1k905C42YQrYzsDyVgadNVMDbVafrgteW8oUvs0RoACgjqQKdVORqRvt1CN2mIpT12ZwWkbubpsBWk/uZp+zETCQjwkgWutri79D52sCVMh7Py2aepzXdU2qZ0MCFADU1zkBaikzEDgvo8ugLB7vaq1NqLpIfQOALPoWA5RpmHO8qLGDrL+0NZV5UsQNG4cOA3/+mdGFDwBqSqoe1xV49bYDlJlC02UPFiBcMpCfWHwBy6bpLXs8j8KrN5YDT222kSBAAUC9VaH1t801Q/cFNaQA4N6qaXebWhaUQp6+F7MWNLXWNs+HtwhQAFBjoVehpPmCTaVM2wPghM1AsjMfDmQfPFtbEtys6vTnmM2fS4ACANRCyFUomwEq9PUHABLkZsiNxXMyHw6qUH0ybH7uEaAAANVXobVQ20rt1wQgeDaDyfx6S1tNeKZRFJX5+WMzQO1IZa7SCFAAABVwFcpmBSrVYQtA2CSY2FrjcyDbDNhe61N262/bn30EKABA9QVchbIZoMpafwDALZsBJQ5ONrt/2mx2sTGZ6nhv8Z88kfbulUWAAgDEqtCRDwDmuZjGZ6sCdVdi84gk21MISw2FrhGgAADPAq1C2Zx6YrujHwAPyGfbnaVnYqoruxY3zy17+l7MdoA60lpXdksIAhQAIMn8wZsGdEZsthyv9JQToOZsBhVb1XrTPMKLABVF0dDyxsPGpYOtJnKz+VwIUACA32QufKWnXqzgTYCSheps6Lvc8dIjwAISVGzdHPqYeiQf3zp/2v7sN3tkDaRiVyr5TB1qra0EVgIUAGBeL6AqlM0K1IEP7XflOdxa3KCzighQyMOX6XIx325WuQh0R2W/TglP8WfqmdZ66+dDgAIAvBJSFUqmndjUK/NuqdbaTA36SnhaqxabdcI6nwLUvYPPr604XAd7ZqvysynpBjh/Q+rjtjfLCFAAgEVCqkLZbL9r/sjeFh2izM/TWps/8hepg1hkp8oL1OGGBBabnxfb8PUmlaug8xyiivxslRtS35bckPq6TYgiQAEAUgJbC2X7Lu5RkSFKgoC583uSOohVLuNNTR29L92y7prDKV8+13xb//QsiqJbix0L553JZ6vTKbim6qS1Hma4IZU7RBGgAADLhFKFuk09sr0jWXDsrLGEDNBNcPq85A4pVtuxPRiTSuClvC9fU9+AKhh48Ll2LTepfOVyT0Dz2fqX/J5ZvUlluuzJTY9v8nOyyBWiGqlHAACQKpQstvV9WpmLAKVkn5dvWmtzN7YXRdHWd4yljW5XvmztIxOK+w0GNVntyGDsSt6jjQelMojryNfp3GHrG5zK75SrO/C2B6SufreM8zLWAMnn2kCqIWXxurJpqlBa65sFvw82mb8r5xJ4enk3E078/na3qOKbEDXc5HokQAEAVulJO21vKyTmD6/W2sXgPHYim2dOJKyZr0x/bKU6En91ahiaklzecY8HYwN5fx5kKlKKvCeH8p601wy6XAzwj9f8TJ+4fJ5ltrbulxigJsuuTc+cy++Hy8/+HWkJ/1E+w28Tv78Lf/fk93dXntu6399NmNDYXvZz5xGgAABLBVSF6stUOJcOZND1PPDSWiuZCrToD+4x0/JSbh0PyHcWvD/b8nmaFXKSCsukpBsaoXQ4fZAmDK4/V2NH8vW8x5al399N7GwSolgDBQBYJ4S1UDY3ydzETlyhmvsiPKV51bI5i0AqBcinrCDjZfOIRaIo6jlsKOGjzOsqCVAAgJVkXYnXLaPlOQYzMKkpwgh8UsY6pJu8a31K1A1oSwsb4hB1uOrfIkABANaKosgMNiaen6nzmv2hD4qEXF/24MmiTnfea0eux5uCX3dwbfEl8NVt42oTogarugQSoAAAWblsbbu1wPauqquQBpCsf6q+Iq/HiY1OnmWQqawfQnzuW6ACBQDYXghVqCiKLgOrctRNSAEquDVb2IwEmqI+04KeYiyf/9epA9VkZjK0V22LQIACAGzC6yqU6DCVz08yIAllEBbaWhXkU1SoD746HkVRtwYhaiLhaeUNFAIUACCzQKpQD7I/CCHKT6GsVSNA1UMRAeouwOYRC1U8RJnZC8e0MQcAuOB9FUr+AHrdObCupAoVQiWTAFUDEmxcNwwJrnnEKhKiqrYm6mbdtL0kAhQAYCOBdOSLn+fbQCtRZkD3JfVoRcj+MkV3QNtIVSoGyMRlwJnKZ1GlyGt6V5FK/1UURZ2s4UkRoAAAOYVQQYgrUe3AGkt8iaKoXYMucF2P3xcakdSIhAFXQaCy+9NJd77jgFv+mxuBb6X50EYIUACAjYVShVKvQ5TvFR0zgHsfRVEtph7K3V5fwy0tzOvHVZWo0lsrmEqt3PD5FFg16irreqdFCFAAgLyCqEIpGaxLMHnnafAzi7IPQ90nJq9EiPJtUTotzOvHRdC5zztAD41Myz0M4EaV+az5w1SdNpmyN48ABQDIRapQQU3dMFNOoig6lAXQPgQpc/7emUXZ2/wxD5mEWzOd770n78mkytOusJisebNdDa3Vxt6JG1V/SFDxqSIVB6eujfWNBCgAwDaCqUIlmfCXCFJlTCG7luDUlnUEtSfVt2OZWlNGkDJh9oO5LnhPast24KllEJdpfV2pSH0qcZruRD5PrAWn2Junp6fUgwCA7Wit25ZO4aPvU0AsvtZhWVUYrfWhbMBr/ugfpb7BjhsZUA2yvE55ToepA/mUdm7z0lrH74e5vnYc/Zi7xHtSSNc9rbUJibupA/Xj3TWptd6VEG+D95/dRUp8xpqvE4c/2oQ1cwOk7/L8E6AAAEhIDKLa8t/dHH/w76QRgfkDfktFYzsS0rd5Pyayr9ODvCdD3hOgPPI7fSw3ieL/Hmz4hF59zhYZyglQAABktKYq9MDeQcVaV80hJAHhWTOrwYvPWQIUAAAAAGREEwkAAAAAyIgABQAAAAAZEaAAAAAAICMCFAAAAABkRIACAAAAgIwIUAAAAACQEQEKAAAAADIiQAEAAABARgQoAAAAAMiIAAUAAAAAGRGgAAAAACAjAhQAAAAAZESAAgAAAICMCFAAAAAAkBEBCgAAAAAyIkABAAAAQEYEKAAAAADIiAAFAAAAABkRoAAAAAAgIwIUAAAAAGREgAIAAACAjAhQAAAAAJARAQoAAAAAMiJAAQAAAEBGBCgAAAAAyIgABQAAAAAZEaAAAAAAICMCFAAAAABkRIACAAAAgIwIUAAAAACQEQEKAAAAADJqcKIAwK5Wc7arlDou+rSOxo3b1IMF2OL1PozGjYfUox5oNWdtH5/XCl6cSzlv31IH7JsqpYZKqUf5720R13+rOTM/4yR1QKm70bgRxDWz4jXE3o7GjWHq0QJluI7ej8aNQepRoCAEKACw73jNH38nWs1Z8p+9M4PqxODS5YAo7+u9Ukpdph71Q+Hv35Z8Ppcu7CRCwKlS6kKu/xul1GA0bvQr9Wrt6srnws6Sf7Vfxg2gmNyQWfX+3RCeUDam8AFANZnB5ZlS6rNS6q9Wc/bQas56rebskPcbFWbC1Fe53ru80WlSqVwVto9azdl56tHimOd2sOSnTSUAAqUiQAFAPZgByUel1PdWc9YnSKHiDiRIDVvNWWnVFF+Nxo2eVKmXuSzjM0Km7n1MHXjRHY0bj6lHgYIRoACgfs4kSK26Cw1UwZGZwko1aqGuVHQW2Vkzjc46mbq3amreF6buwResgQKA+rqQO74d7uqiABNZl7eNXQlFm9iRapRibdQLM5VPbqJ8Th385cRM5ZNqVRH6K9ZlTdZMOwQKRYACgHo7kTv0bUIUHOuPxg1rg2AJ/8dSSckSqkyIeqSK8cKEo1Zz1lnRlc9M5TNNOf7/9u7muG0kDQMwpop31UZgzwEXXKSNYDQRyBmsJgJpIpAUwVoZyBGslYEVwVoXXngZZbC+47DVq+baJsQGCP4Bjeepck2ZdMkEzEH11/3213vt8Bg/w0Xjje9E9xgUET4ATluiMzA4oW15KADmi1koov7esqdnyf6/pqNG+Tp03bs71hENsI4CCoBiGddxJxij0KY/nsP0R6IYKI6xt2foOnTl2/ezIRXde97lqiXsigIKgKXbOBsMoxT3OJ23FFG/jfCg5L06Vle+LtG9xiswAAooAJbCLLBVKEYtHhrdNvD2PW9K3ZOdr9x1jO7t8wBw6E0TCYDhuNvikyw31K+LwnR13RLngcELjSKqsv4UW/a/5SIM4DUm+C4UK1VZh2fQTePNV7vuypeK7j2J7jFkCiiAgdjFgCGed5M6yb/NSezIZ9P25u4M+gblNlFABR9aVkAmJ3x/Y6xuXVfDnXTla4nufRPdY+hE+AAyEveAhJWoT1tclf0hjF4c5D8mrsP3/G2p4mXrKF+H6N7tvtumw7YUUACZCbGk+WIWBkHPPa9Mm2dykWrP73v+hrjvKBUn3rYr3+dEdO/xgAf3Qm8KKIB89R3kGFiSi1QTgnWHx05ejKKmJmB6deWLhde6+y66x2gooAAyFfcxpdo5Q9Z0cdtKqpjZOMoXC67UHsFLTT0YCwUUQN4MIIGNdYzyfWi8ul6q616I7qXiljAoCigAABo6RPkeuhy+3RLde2lZ7YLBUUAB5K11cPMGq1bAUqq4aY3yie6RIwUUQKbizPC681xStBAmC11WR0jrEOW7aInypaJ7986cY4wUUAD5Ss0cpxjQkIuzxHWkomn8oG+UryW699yyMgWDpYACyFCH2Mw6LzqXkZHUyojv+WZSEzKNKJ/oHjlTQAFkpirrs5bDKlOS+xlgZBRQO9IjypeK7t2ZqGHMFFAAmQiFU1XWYdDy7557n8KZUR8br8IIVWV9XhTFu8Qn1zZ7Q12jfG3RvfhzYLRm/ukAhqEq6232Hq0brGziVqRmKzdVWd8c4e/93Ub8N6VWU5/mi5lmKf1cxkmat5zEwnTd8+hbSxQQRkEBBTAc6wYdhxAGlFafyEJciU2tPqWKKxJC9K4q6xDlWzdZkHqO3YrukQMRPgCeW/aKwGjE4ukfic8bImQKqC10iPK9xSQN2bACBTBtT6F4Et1j7GLzlIcO+/+uG6/QRyrKt0p0j6wooACm6X8NI2zmZszi2UPncXB+0eFS7uwX240OUb4fXdpzRk4UUADT9MU+EA7svCrrXRXsYbXp/YbdJj+ZMNitcD+rsr5s2W8WIpM6HpIVBRTANF3Ec1vudd/jQH5raTCwT6F4EiHbj68tBdRpaClv5Y+caCIBMG1XYTUq7h+BHP2peNqPeN5Tl+jkQ4xbQhYUUACcKqLIUGiQ8qvOb/tRlXWIUHaNRL7b4M/C4CmgACjiAZiKKHLwGA8XPte4YK8e4nOjq6sQ5cvzVjA1CigAlk5EbRihl1g0/VEUxd/mi9kH+232K0b3+uxn83whC5pIAAzEfDH7pc8niQOSs/jrcsPOZKtO4zk54jabe4rdDQ9tLKssu7w/y5/zVQOUw+oQ3fuzKIp/Nl59tYzyOYuLUVNAAYxcHEB+ib8+xpjM7RYdz26qsn4Qf9rYF22yk9yfPKSie/dhz1kssq4a774KUb7PVgkZMxE+gMyEgUnY/xFaN29xZbqWAT9pie69/LAydRt/v44oH6OmgALIVGzd/NTz6hRQwP91iO5dLuOU8b+pZ4iufIyaAgogb6lBTMq7OGACKDpE936K5MXf3zf+5He68jFaCiiAjMV9TM89r1BLc2CT6N4qUT6ypIACyF/fzdoKKJi4TaJ7q0T5yJUCCiB/bw5uADrYKLq3SpSPHCmgAABo2CK6t0r2se/uAAAClElEQVSUj6wooAAA+EmH6N71uujeKlE+cqOAAsifeAywqc+J6N7jfDH73Hg1QZSPnCigADIWYzHrIjht/mp5H8hQVdZhNeh0zZV9a1lNShHlIwsKKIC8XW9xdV8brwBZq8o6dN+8SVzj2q57bUT5yIUCCiBTHQZCKd/mi5kCCqbnIXHFG0f3VonykQMFFECGqrL+sMX5T0Xc/wBMyB6je6tE+Rg1BRRARkLhVJV1KJz+ldgA3kVqFhrIzD6je6tE+Ri7mX9BgGGIs799hJnasy2aRax6aTscc0duqrJODdj2Yr6Y/ZLT9UR388XMgJNtpCZNnraN7q0Kz5iqrEOU76rx5qsQ5ft8oGcRbEQBBTAcxxp8r0rNDAOZOWB0b9Vt/NnrVstDlO9sVytfsCsifAD86NGML0xHh+je7Xwx28uRBqJ8jJUCCoCll5bBDJCftujex8arOxSjgY+Jn3gVm+LAYCigAChiTOeDqAxMxxGje6su49+3jq58DIo9UACEgcu5c5+gt7PY/fKYrjf5f/iY0b1VYeKmKuvL2D30LSdxpcxKFIOggAKYtue48nSQgRJk6mSHXTD72nSF5qjRvVUhyleVdYjyXTTefHURony77gYIfYjwAUzXfVx5UjzBhAwourdKlI9RUEABTM+noih+nS9m1/Y8wbR0iO59PNakSoeufCctK2dwEAoogGl4iStOoXC6tOoE0xNXb1IRuOdjH8jcoSvfha58HJs9UAB5eiqKIszmho3tXzSIAOKZSu8SNyK1+nNI4XP81XLA7nsr6ByLAgpg90Kx8vsR7uvXIw0ojnW9+zS26xnKimLqu5DDqud1j2YNh9JlkuQhsQL1n6FMtMSufCFq+L7xJhxbURT/BQgE8yVHU9X6AAAAAElFTkSuQmCC;" vertex="1" parent="1">
          <mxGeometry x="190" y="1000" width="87.94" height="65.85" as="geometry" />
        </mxCell>
        <mxCell id="URRhDzllqDp2toMXEWSI-6" style="edgeStyle=orthogonalEdgeStyle;rounded=0;sketch=1;hachureGap=4;jiggle=2;curveFitting=1;orthogonalLoop=1;jettySize=auto;html=1;exitX=0.5;exitY=1;exitDx=0;exitDy=0;entryX=0;entryY=0.25;entryDx=0;entryDy=0;fontFamily=Architects Daughter;fontSource=https%3A%2F%2Ffonts.googleapis.com%2Fcss%3Ffamily%3DArchitects%2BDaughter;" edge="1" parent="1" source="URRhDzllqDp2toMXEWSI-5" target="URRhDzllqDp2toMXEWSI-2">
          <mxGeometry relative="1" as="geometry" />
        </mxCell>
        <mxCell id="URRhDzllqDp2toMXEWSI-9" style="edgeStyle=orthogonalEdgeStyle;rounded=0;sketch=1;hachureGap=4;jiggle=2;curveFitting=1;orthogonalLoop=1;jettySize=auto;html=1;exitX=1;exitY=0.5;exitDx=0;exitDy=0;entryX=0;entryY=0.5;entryDx=0;entryDy=0;fontFamily=Architects Daughter;fontSource=https%3A%2F%2Ffonts.googleapis.com%2Fcss%3Ffamily%3DArchitects%2BDaughter;" edge="1" parent="1" source="URRhDzllqDp2toMXEWSI-5" target="URRhDzllqDp2toMXEWSI-8">
          <mxGeometry relative="1" as="geometry" />
        </mxCell>
        <mxCell id="URRhDzllqDp2toMXEWSI-5" value="" style="shape=image;verticalLabelPosition=bottom;labelBackgroundColor=default;verticalAlign=top;aspect=fixed;imageAspect=0;image=data:image/jpeg,iVBORw0KGgoAAAANSUhEUgAABIQAAAQvCAYAAABmCTUbAAAACXBIWXMAAC4jAAAuIwF4pT92AAAKT2lDQ1BQaG90b3Nob3AgSUNDIHByb2ZpbGUAAHjanVNnVFPpFj333vRCS4iAlEtvUhUIIFJCi4AUkSYqIQkQSoghodkVUcERRUUEG8igiAOOjoCMFVEsDIoK2AfkIaKOg6OIisr74Xuja9a89+bN/rXXPues852zzwfACAyWSDNRNYAMqUIeEeCDx8TG4eQuQIEKJHAAEAizZCFz/SMBAPh+PDwrIsAHvgABeNMLCADATZvAMByH/w/qQplcAYCEAcB0kThLCIAUAEB6jkKmAEBGAYCdmCZTAKAEAGDLY2LjAFAtAGAnf+bTAICd+Jl7AQBblCEVAaCRACATZYhEAGg7AKzPVopFAFgwABRmS8Q5ANgtADBJV2ZIALC3AMDOEAuyAAgMADBRiIUpAAR7AGDIIyN4AISZABRG8lc88SuuEOcqAAB4mbI8uSQ5RYFbCC1xB1dXLh4ozkkXKxQ2YQJhmkAuwnmZGTKBNA/g88wAAKCRFRHgg/P9eM4Ors7ONo62Dl8t6r8G/yJiYuP+5c+rcEAAAOF0ftH+LC+zGoA7BoBt/qIl7gRoXgugdfeLZrIPQLUAoOnaV/Nw+H48PEWhkLnZ2eXk5NhKxEJbYcpXff5nwl/AV/1s+X48/Pf14L7iJIEyXYFHBPjgwsz0TKUcz5IJhGLc5o9H/LcL//wd0yLESWK5WCoU41EScY5EmozzMqUiiUKSKcUl0v9k4t8s+wM+3zUAsGo+AXuRLahdYwP2SycQWHTA4vcAAPK7b8HUKAgDgGiD4c93/+8//UegJQCAZkmScQAAXkQkLlTKsz/HCAAARKCBKrBBG/TBGCzABhzBBdzBC/xgNoRCJMTCQhBCCmSAHHJgKayCQiiGzbAdKmAv1EAdNMBRaIaTcA4uwlW4Dj1wD/phCJ7BKLyBCQRByAgTYSHaiAFiilgjjggXmYX4IcFIBBKLJCDJiBRRIkuRNUgxUopUIFVIHfI9cgI5h1xGupE7yAAygvyGvEcxlIGyUT3UDLVDuag3GoRGogvQZHQxmo8WoJvQcrQaPYw2oefQq2gP2o8+Q8cwwOgYBzPEbDAuxsNCsTgsCZNjy7EirAyrxhqwVqwDu4n1Y8+xdwQSgUXACTYEd0IgYR5BSFhMWE7YSKggHCQ0EdoJNwkDhFHCJyKTqEu0JroR+cQYYjIxh1hILCPWEo8TLxB7iEPENyQSiUMyJ7mQAkmxpFTSEtJG0m5SI+ksqZs0SBojk8naZGuyBzmULCAryIXkneTD5DPkG+Qh8lsKnWJAcaT4U+IoUspqShnlEOU05QZlmDJBVaOaUt2ooVQRNY9aQq2htlKvUYeoEzR1mjnNgxZJS6WtopXTGmgXaPdpr+h0uhHdlR5Ol9BX0svpR+iX6AP0dwwNhhWDx4hnKBmbGAcYZxl3GK+YTKYZ04sZx1QwNzHrmOeZD5lvVVgqtip8FZHKCpVKlSaVGyovVKmqpqreqgtV81XLVI+pXlN9rkZVM1PjqQnUlqtVqp1Q61MbU2epO6iHqmeob1Q/pH5Z/YkGWcNMw09DpFGgsV/jvMYgC2MZs3gsIWsNq4Z1gTXEJrHN2Xx2KruY/R27iz2qqaE5QzNKM1ezUvOUZj8H45hx+Jx0TgnnKKeX836K3hTvKeIpG6Y0TLkxZVxrqpaXllirSKtRq0frvTau7aedpr1Fu1n7gQ5Bx0onXCdHZ4/OBZ3nU9lT3acKpxZNPTr1ri6qa6UbobtEd79up+6Ynr5egJ5Mb6feeb3n+hx9L/1U/W36p/VHDFgGswwkBtsMzhg8xTVxbzwdL8fb8VFDXcNAQ6VhlWGX4YSRudE8o9VGjUYPjGnGXOMk423GbcajJgYmISZLTepN7ppSTbmmKaY7TDtMx83MzaLN1pk1mz0x1zLnm+eb15vft2BaeFostqi2uGVJsuRaplnutrxuhVo5WaVYVVpds0atna0l1rutu6cRp7lOk06rntZnw7Dxtsm2qbcZsOXYBtuutm22fWFnYhdnt8Wuw+6TvZN9un2N/T0HDYfZDqsdWh1+c7RyFDpWOt6azpzuP33F9JbpL2dYzxDP2DPjthPLKcRpnVOb00dnF2e5c4PziIuJS4LLLpc+Lpsbxt3IveRKdPVxXeF60vWdm7Obwu2o26/uNu5p7ofcn8w0nymeWTNz0MPIQ+BR5dE/C5+VMGvfrH5PQ0+BZ7XnIy9jL5FXrdewt6V3qvdh7xc+9j5yn+M+4zw33jLeWV/MN8C3yLfLT8Nvnl+F30N/I/9k/3r/0QCngCUBZwOJgUGBWwL7+Hp8Ib+OPzrbZfay2e1BjKC5QRVBj4KtguXBrSFoyOyQrSH355jOkc5pDoVQfujW0Adh5mGLw34MJ4WHhVeGP45wiFga0TGXNXfR3ENz30T6RJZE3ptnMU85ry1KNSo+qi5qPNo3ujS6P8YuZlnM1VidWElsSxw5LiquNm5svt/87fOH4p3iC+N7F5gvyF1weaHOwvSFpxapLhIsOpZATIhOOJTwQRAqqBaMJfITdyWOCnnCHcJnIi/RNtGI2ENcKh5O8kgqTXqS7JG8NXkkxTOlLOW5hCepkLxMDUzdmzqeFpp2IG0yPTq9MYOSkZBxQqohTZO2Z+pn5mZ2y6xlhbL+xW6Lty8elQfJa7OQrAVZLQq2QqboVFoo1yoHsmdlV2a/zYnKOZarnivN7cyzytuQN5zvn//tEsIS4ZK2pYZLVy0dWOa9rGo5sjxxedsK4xUFK4ZWBqw8uIq2Km3VT6vtV5eufr0mek1rgV7ByoLBtQFr6wtVCuWFfevc1+1dT1gvWd+1YfqGnRs+FYmKrhTbF5cVf9go3HjlG4dvyr+Z3JS0qavEuWTPZtJm6ebeLZ5bDpaql+aXDm4N2dq0Dd9WtO319kXbL5fNKNu7g7ZDuaO/PLi8ZafJzs07P1SkVPRU+lQ27tLdtWHX+G7R7ht7vPY07NXbW7z3/T7JvttVAVVN1WbVZftJ+7P3P66Jqun4lvttXa1ObXHtxwPSA/0HIw6217nU1R3SPVRSj9Yr60cOxx++/p3vdy0NNg1VjZzG4iNwRHnk6fcJ3/ceDTradox7rOEH0x92HWcdL2pCmvKaRptTmvtbYlu6T8w+0dbq3nr8R9sfD5w0PFl5SvNUyWna6YLTk2fyz4ydlZ19fi753GDborZ752PO32oPb++6EHTh0kX/i+c7vDvOXPK4dPKy2+UTV7hXmq86X23qdOo8/pPTT8e7nLuarrlca7nuer21e2b36RueN87d9L158Rb/1tWeOT3dvfN6b/fF9/XfFt1+cif9zsu72Xcn7q28T7xf9EDtQdlD3YfVP1v+3Njv3H9qwHeg89HcR/cGhYPP/pH1jw9DBY+Zj8uGDYbrnjg+OTniP3L96fynQ89kzyaeF/6i/suuFxYvfvjV69fO0ZjRoZfyl5O/bXyl/erA6xmv28bCxh6+yXgzMV70VvvtwXfcdx3vo98PT+R8IH8o/2j5sfVT0Kf7kxmTk/8EA5jz/GMzLdsAAAAgY0hSTQAAeiUAAICDAAD5/wAAgOkAAHUwAADqYAAAOpgAABdvkl/FRgAAQlhJREFUeNrs3X+YlXWd8PHvwBjjbvzUghU3EJAUbXWThjkzZ5DsUlMsbdke3NotrXRtda9Ya0N3Lx/RtpDajEq3NvLX7rbJY5S6K6ZdFT9m5gwT/mhTQJxBVMaVdGGAWoeAmecPoMf1kQFhzj3nnM/rdV1eKudw7jOf77kc5u19f++q3t7eBAAAAEAcg4wAAAAAIBZBCAAAACAYQQgAAAAgGEEIAAAAIBhBCAAAACAYQQgAAAAgGEEIAAAAIBhBCAAAACAYQQgAAAAgGEEIAAAAIBhBCAAAACAYQQgAAAAgGEEIAAAAIBhBCAAAACAYQQgAAAAgGEEIAAAAIBhBCAAAACAYQQgAAAAgGEEIAAAAIBhBCAAAACAYQQgAAAAgGEEIAAAAIBhBCAAAACAYQQgAAAAgGEEIAAAAIBhBCAAAACAYQQgAAAAgGEEIAAAAIBhBCAAAACAYQQgAAAAgGEEIAAAAIBhBCAAAACAYQQgAAAAgGEEIAAAAIBhBCAAAACAYQQgAAAAgGEEIAAAAIBhBCAAAACAYQQgAAAAgGEEIAAAAIBhBCAAAACAYQQgAAAAgGEEIAAAAIBhBCAAAACAYQQgAAAAgGEEIAAAAIBhBCAAAACAYQQgAAAAgGEEIAAAAIBhBCAAAACAYQQgAAAAgGEEIAAAAIBhBCAAAACAYQQgAAAAgGEEIAAAAIBhBCAAAACAYQQgAAAAgGEEIAAAAIBhBCAAAACAYQQgAAAAgGEEIAAAAIBhBCAAAACAYQQgAAAAgGEEIAAAAIBhBCAAAACAYQQgAAAAgGEEIAAAAIBhBCAAAACAYQQgAAAAgGEEIAAAAIBhBCAAAACAYQQgAAAAgGEEIAAAAIBhBCAAAACAYQQgAAAAgGEEIAAAAIBhBCAAAACAYQQgAAAAgGEEIAAAAIBhBCAAAACAYQQgAAAAgGEEIAAAAIBhBCAAAACAYQQgAAAAgGEEIAAAAIBhBCAAAACAYQQgAAAAgGEEIAAAAIBhBCAAAACAYQQgAAAAgGEEIAAAAIBhBCAAAACAYQQgAAAAgGEEIAAAAIBhBCAAAACAYQQgAAAAgGEEIAAAAIBhBCAAAACAYQQgAAAAgGEEIAAAAIJhqIwDgQHK5utNTSqenlMa/6i8ASldXSunx/X8vFFqXGQkAr6eqt7fXFABIKaWUy9WNTyldlFKakVK60EQAKsLPU0r3ppTuLRRaHzcOAFIShADCy+XqRqS9EWhOSuk0EwGoaM+mlO5MKd1ZKLRuNA6AuAQhgKD2nQ00J6V0SUppuIkAhHNXSmmhs4YAYhKEAILZd0bQnJTS9aYBQNobhuY5YwggFkEIIJBcru6itPdSAWcEAfBaNxQKrfOMASAGQQgggH1nBd2ZbBQNQN9+nlK6xGVkAJVvkBEAVLZ9t45/PIlBABzcaSmlZblc3SVGAVDZBCGACrbvD/SPpZTGmQYAh2h4SumOXK5uoVEAVC6XjAFUqH0x6A6TAOAI3FUotF5iDACVxxlCABVIDAKgn3w0l6u70xgAKo8gBFBhxCAA+pkoBFCBBCGACrLvtvJiEAD97aP2FAKoLPYQAqgQ++4mtizt3QwUAIrh0kKh9U5jACh/ghBABcjl6kakvTHoNNMAoIi2pZROLxRaNxoFQHlzyRhAZZiXxCAAim94SuleYwAof4IQQJnL5epmpJQ+ZRIAZOS0XK5ujjEAlDdBCKD8LTQCADI2b9/lygCUKUEIoIztu8W8S8UAyNrw5H9IAJQ1QQigvM0zAgAGyEdzubrxxgBQngQhgDK17+ygcSYBwACaZwQA5UkQAihfc4wAgAF2kb2EAMqTIARQhnK5utOTvYMAGHjDU0qXGANA+RGEAMqTP3wD4HsSAIdNEAIoTxcZAQAl4jSbSwOUH0EIoMzsu1zMZtIAlJKLjACgvAhCAOVnhhEA4HsTAEdCEALwh24A8L0JIBhBCKD8nG4EAJSY4fYRAigvghBA+bF/EAClaLwRAJQPQQigjORydTNMAYASdboRAJQPQQgAAOgPI4wAoHwIQgDlZbwRAFCiRhgBQPkQhADKy3gjAKBEnW4EAOVDEAIAAAAIRhACAAAACEYQAgAAAAhGEAIAAAAIRhACAAAACEYQAgAAAAhGEAIAAAAIRhACAAAACEYQAgAAAAhGEAIAAAAIptoIAKgQbUYAZKTWCAAod4IQAOWobeTwEV2TJ01qnzhhQsdJU05eN2z4iK5puVyL0QDF1L7+6cnPbGiftOn5Tce3t7dPXPfUupNe2Lx5TBKJACgzghAA5aJt5PARXeedc85D513wvn+fNPnE9UYCZG3S5BPXv/a/P1u3bBl175Ilf/zjn/zk3R0bn5mQxCEAykBVb2+vKQCUiVyubl5K6fpgX3bbxPEnbPjoRz/yz2e/97ylPgVAKWtf//TkW7721U+temT11BQvDC0vFFpn+BQAlAdnCAFQqoQgoOxMmnzi+oW33HJl8DAEQBlwlzEASk5NTc2KD33wfy3+l+9+90/EIKAc7Q9DN15//Q0jh4942EQAKDWCEAClpO240aPvX/SPiy77y6uvvtk4gHJ39nvPW/qdf/3XP5l2xtR/SO6GCEAJEYQAKBVt086YunrJvfddaMNooJKMHDVqy8Jbbrny8o99/LYkCgFQIuwhBEApaJt2xtTVC2+55UqjACrVpZdd9q2UUvrW7belZF8hAAaYIATAQBODgDBEIQBKhSAEwIASg4BoRCEASoE9hAAYMMeNHn3/9TfeeJ1JANFcetll35p2xtTVJgHAQBGEABgQNTU1Kz4795oFI0eN2mIaQETX33jjdceNHn2/SQAwEAQhAAZC2x+97/33TcvlWowCiGrkqFFbPjv3mgXJnccAGACCEACZO2706Bf/8uqrbzYJILppuVzLWdPPXGYSAGRNEAIga21XXHHFPxoDwF6fmTt3QU1NzQqTACBLghAAmZo4/oQNZ7/3vKUmAbDXyFGjtpxz1nt+bBIAZEkQAiBLbR+46KL7jAHgf/rg7IvvTvYSAiBDghAAmRk5fETXrNmz7zYJgP9p0uQT179jypQ1JgFAVgQhADLzh6ed9rgpALy+c88596HkLCEAMiIIAZCVthnvnrHcGABenzMoAciSIARAZmwmDdC3ieNP2GAKAGRBEALADzkAJeKUKVPWmgIAWRCEAPBDDkCJmDx58npTACALghAAmXjz7/7ur0wBoG/Hv+1tzyUbSwOQAUEIgEycNOXkdaYA0LdpuVyLKQCQBUEIAAAAIBhBCAAAACAYQQgAAAAgGEEIAAAAIBhBCAAAACAYQQgAAAAgGEEIAAAAIBhBCAAAACAYQQgAAAAgGEEIAAAAIBhBCAAAACAYQQgAAAAgGEEIAAAAIBhBCAAAACAYQQgAAAAgGEEIAAAAIBhBCAAAACAYQQgAAAAgGEEIAAAAIBhBCAAAACAYQQgAAAAgGEEIAAAAIBhBCAAAACAYQQgAAAAgGEEIAAAAIBhBCAAAACAYQQgAAAAgGEEIAAAAIBhBCAAAACAYQQgAAAAgGEEIAAAAIBhBCAAAACAYQQgAAAAgGEEIAAAAIBhBCAAAACAYQQgAAAAgGEEIAAAAIBhBCAAAACAYQQgAAAAgGEEIAAAAIBhBCAAAACAYQQgAAAAgGEEIAAAAIBhBCAAAACAYQQgAAAAgGEEIAAAAIBhBCAAAACAYQQgAAAAgGEEIAAAAIBhBCAAAACAYQQgAAAAgGEEIAAAAIBhBCAAAACAYQQgAAAAgGEEIAAAAIBhBCAAAACAYQQgAAAAgGEEIAAAAIBhBCAAAACAYQQgAAAAgGEEIAAAAIBhBCAAAACAYQQgAAAAgGEEIAAAAIBhBCAAAACAYQQgAAAAgGEEIAAAAIBhBCAAAACAYQQgAAAAgGEEIAAAAIBhBCAAAACAYQQgAAAAgGEEIAAAAIBhBCAAAACAYQQgAAAAgGEEIAAAAIBhBCAAAACAYQQgAAAAgGEEIAAAAIBhBCAAAACAYQQgAAAAgGEEIAAAAIBhBCAAAACAYQQgAAAAgGEEIAAAAIBhBCAAAACAYQQgAAAAgGEEIAAAAIBhBCAAAACAYQQgAAAAgGEEIAAAAIBhBCAAAACAYQQgAAAAgGEEIAAAAIBhBCAAAACAYQQgAAAAgGEEIAAAAIBhBCAAAACAYQQgAAAAgGEEIAAAAIBhBCAAAACAYQQgAAAAgGEEIAAAAIBhBCAAAACAYQQgAAAAgGEEIAAAAIBhBCAAAACAYQQgAAAAgGEEIAAAAIBhBCAAAACAYQQgAAAAgGEEIAAAAIBhBCAAAACAYQQgAAAAgGEEIAAAAIBhBCAAAACAYQQgAAAAgGEEIAAAAIBhBCAAAACAYQQgAAAAgGEEIAAAAIBhBCAAAACAYQQgAAAAgGEEIAAAAIBhBCAAAACAYQQgAAAAgGEEIAAAAIBhBCAAAACAYQQgAAAAgGEEIAAAAIBhBCAAAACAYQQgAAAAgGEEIAAAAIBhBCAAAACAYQQgAAAAgGEEIAAAAIBhBCAAAACAYQQgAAAAgGEEIAAAAIBhBCAAAACAYQQgAAAAgGEEIAAAAIBhBCAAAACAYQQgAAAAgGEEIAAAAIBhBCAAAACAYQQgAAAAgGEEIAAAAIBhBCAAAACAYQQgAAAAgGEEIAAAAIBhBCAAAACAYQQgAAAAgGEEIAAAAIBhBCAAAACAYQQgAAAAgGEEIAAAAIBhBCAAAACAYQQgAAAAgGEEIAAAAIBhBCAAAACAYQQgAAAAgGEEIAAAAIBhBCAAAACAYQQgAAAAgGEEIAAAAIBhBCAAAACAYQQgAAAAgGEEIAAAAIBhBCAAAACAYQQgAAAAgGEEIAAAAIBhBCAAAACAYQQgAAAAgGEEIAAAAIBhBCAAAACAYQQgAAAAgGEEIAAAAIBhBCAAAACAYQQgAAAAgGEEIAAAAIBhBCAAAACAYQQgAAAAgGEEIAAAAIBhBCAAAACAYQQgAAAAgGEEIAAAAIBhBCAAAACAYQQgAAAAgGEEIAAAAIBhBCAAAACAYQQgAAAAgGEEIAAAAIBhBCAAAACAYQQgAAAAgGEEIAAAAIBhBCAAAACAYQQgAAAAgGEEIAAAAIBhBCAAAACAYQQgAAAAgGEEIAAAAIBhBCAAAACAYQQgAAAAgGEEIAAAAIBhBCAAAACAYQQgAAAAgGEEIAAAAIBhBCAAAACAYQQgAAAAgGEEIAAAAIBhBCAAAACAYQQgAAAAgGEEIAAAAIBhBCAAAACAYQQgAAAAgGEEIAAAAIBhBCAAAACAYQQgAAAAgGEEIAAAAIBhBCAAAACAYQQgAAAAgGEEIAAAAIBhBCAAAACAYQQgAAAAgGEEIAAAAIBhBCAAAACAYQQgAAAAgGEEIAAAAIBhBCAAAACAYQQgAAAAgGEEIAAAAIBhBCAAAACAYQQgAAAAgGEEIAAAAIBhBCAAAACAYQQgAAAAgGEEIAAAAIBhBCAAAACAYQQgAAAAgGEEIAAAAIBhBCAAAACAYQQgAAAAgGEEIAAAAIBhBCAAAACAYQQgAAAAgGEEIAAAAIBhBCAAAACAYQQgAAAAgGEEIAAAAIBhBCAAAACAYQQgAAAAgGEEIAAAAIBhBCAAAACAYQQgAAAAgGEEIAAAAIBhBCAAAACAYQQgAAAAgGEEIAAAAIBhBCAAAACAYQQgAAAAgGEEIAAAAIBhBCAAAACAYQQgAAAAgGEEIAAAAIBhBCAAAACAYQQgAAAAgGEEIAAAAIBhBCAAAACAYQQgAAAAgGEEIAAAAIBhBCAAAACAYQQgAAAAgGEEIAAAAIBhBCAAAACAYQQgAAAAgGEEIAAAAIBhBCAAAACAYQQgAAAAgGEEIAAAAIBhBCAAAACAYQQgAAAAgGEEIAAAAIBhBCAAAACAYQQgAAAAgGEEIAAAAIBhBCAAAACAYQQgAAAAgGEEIAAAAIBhBCAAAACAYQQgAAAAgGEEIAAAAIBhBCAAAACAYQQgAAAAgGEEIAAAAIBhBCAAAACAYQQgAAAAgGEEIAAAAIBhBCAAAACAYQQgAAAAgGEEIAAAAIBhBCAAAACAYQQgAAAAgGEEIAAAAIBhBCAAAACAYQQgAAAAgGEEIAAAAIBhBCAAAACAYQQgAAAAgGEEIAAAAIBhBCAAAACAYQQgAAAAgGEEIAAAAIBhBCAAAACAYQQgAAAAgGEEIAAAAIBhBCAAAACAYQQgAAAAgGEEIAAAAIBhBCAAAACAYQQgAAAAgGEEIAAAAIBhBCAAAACAYQQgAAAAgGEEIAAAAIBhBCAAAACAYQQgAAAAgGEEIAAAAIBhBCAAAACAYQQgAAAAgGEEIAAAAIBhBCAAAACAYQQgAAAAgGEEIAAAAIBhBCAAAACAYQQgAAAAgGEEIAAAAIBhBCAAAACAYQQgAAAAgGEEIAAAAIBhBCAAAACAYQQgAAAAgGEEIAAAAIBhBCAAAACAYQQgAAAAgGEEIAAAAIBhBCAAAACAYQQgAAAAgGEEIAAAAIBhBCAAAACAYQQgAAAAgGEEIAAAAIBhBCAAAACAYQQgAAAAgGEEIAAAAIBhBCAAAACAYQQgAAAAgGEEIAAAAIBhBCAAAACAYQQgAAAAgGEEIAAAAIBhBCAAAACAYQQgAAAAgGEEIAAAAIBhBCAAAACAYQQgAAAAgGEEIAAAAIBhBCAAAACAYQQgAAAAgGEEIAAAAIBhBCAAAACAYQQgAAAAgGEEIAAAAIBhBCAAAACAYQQgAAAAgGEEIAAAAIBhBCAAAACAYQQgAAAAgGEEIAAAAIBhBCAAAACAYQQgAAAAgGEEIAAAAIBhBCAAAACAYQQgAAAAgGEEIAAAAIBhBCAAAACAYQQgAAAAgGEEIAAAAIBhBCAAAACAYQQgAAAAgGEEIAAAAIBhBCAAAACAYQQgAAAAgGEEIAAAAIBhBCAAAACAYQQgAAAAgGEEIAAAAIBhBCAAAACAYQQgAAAAgGEEIAAAAIBhBCAAAACAYQQgAAAAgGEEIAAAAIBhBCAAAACAYQQgAAAAgGEEIAAAAIBhBCAAAACAYQQgAAAAgGEEIAAAAIBhBCAAAACAYQQgAAAAgGEEIAAAAIBhBCAAAACAYQQgAAAAgGEEIAAAAIBhBCAAAACAYQQgAAAAgGEEIAAAAIBhBCAAAACAYQQgAAAAgGEEIAAAAIBhBCAAAACAYQQgAAAAgGEEIAAAAIBhBCAAAACAYQQgAAAAgGEEIAAAAIBhBCAAAACAYQQgAAAAgGEEIAAAAIBhBCAAAACAYQQgAAAAgGEEIAAAAIBhBCAAAACAYQQgAAAAgGEEIAAAAIBhBCAAAACAYQQgAAAAgGEEIAAAAIBhBCAAAACAYQQgAAAAgGEEIAAAAIBhBCAAAACAYQQgAAAAgGEEIAAAAIBhBCAAAACAYQQgAAAAgGEEIAAAAIBhBCAAAACAYQQgAAAAgGEEIAAAAIBhBCAAAACAYQQgAAAAgGEEIAAAAIBhBCAAAACAYQQgAAAAgGEEIAAAAIBhBCAAASsTWLVtGmQIAWRCEAMjE6p+tnmoKAAf5b2XbqrqUUq1JAFBsghAAmdi8efNoUwDo26bnNx1vCgBkQRACIBPPb3reDzkAB9He3j7RFADIgiAEQCZe2Lx5jL0xAPq27ql1J5kCAFkQhADISu29S5b8sTEAvL729U9PfmHz5jEmAUAWBCEAMlNoLeRMAeD1Pfjv/3ZBsqE0ABkRhADIzC/WrJnisjGA17dsxfIzTQGArAhCAGSp9pu33nqVMQD8Tz/64YPnu1wMgCwJQgBkamVzc4MpAPxPD/z7AzOTy8UAyJAgBECmtm7rGvH1m2++2iQA9vrRDx88f9Ujq6eaBABZEoQAyFrt9//t/gvtJQSw1113/dOfJWcHAZAxQQiAzHV3d0+f+9ef+bJJANF9/eabr+7Y+MwEkwAga4IQAAPiF2vWTFmyePHFJgFE1b7+6cnf/7f7L0zODgJgAAhCAAyU2lu++Y1PrioU6o0CiGbrli2j5n72M1/q7u6ebhoADARBCIAB093dPf2LC26aaz8hIJq5f/2ZL7+wefP7TQKAgSIIATCgXti8+f2f+Nild4hCQBRzrrrq1l+sWTPFJAAYSIIQAANOFAKimHPVVbfuu8W8fYMAGFCCEAAl4YXNm9//4Q996Lv2FAIq0dYtW0b96Z/8yXfFIABKhSAEQOn8wLSt65xr/uba+XcsWnS5aQCV4kc/fPD8D3/oQ9/t2PjMxUkMAqBEVBsBAKWku7t7+rduv62m0FrIfXbutfMnTT5xvakA5Wjrli2j/n7Bgrk/WbF8RhKCACgxghAApaj2F2vW1F7255dNOOes9/z4iiuvvGXkqFFbjAUoF3csWnT5PUuWzNq6resc0wCgFAlCAJSs7u7u6fcvfWD6wz/58Xvqa6e1XvrxT9zmjCGgVG3dsmXUv9x55yUPPvzwuVu3dY1IzgoCoIQJQgCUvO7u7uk/WbF8+k9WLJ9x3OjRL86Yfuby2lyudVou12I6wEBqX//05JXLl80otBZy+24lLwIBUBaqent7TQGgTORydfNSStebREoppbaamprusWN+74Vxb3vbc29+85t/nVJKU981dbXRAMWwbs3ak37161+/OaWUnlyz5uTOF//zuO7u7pokAu23vFBonWEMAOXBGUIAlKva7u7u1LHxmdSx8Znf/uL9Sx8wGQAAOAi3nQcAAAAIRhACAAAACEYQAgAAAAhGEAIAAAAIRhACAAAACEYQAgAAAAhGEAIAAAAIRhACAAAACKbaCACAgNpe59dqjQUAiEIQAgAqVdtxo0e/eMwxx2w5YfwJz0yePHn9sOHDtqeU0tTaaa0jR43asv+JP/rhg+fv/+fVP1s9dfPmzaOf3/T88S9s3jxm3y+LRQBARRGEAIBK0TZy+IiuyZMmtTc2Nq486+yzH3519OnL2e89b+nr/XNKe2PRsp8uO3PdU+tO2heIxCEAoOwJQgBAuWubdsbU1TMvmPnAa2NOfzj7vect3f+6qwqF+vvvvffClrZVdd3d3TVJHAIAypQgBACUpZqamhXnnPWeH19x5ZW3HOqZQEdqWi7XMi2Xa0kppTsWLbr8niVLurZu6xqRhCEAoMxU9fb2mgJAmcjl6uallK43CSIbiBDUl31haNbWbV3nWB2CW14otM4wBoDy4AwhAKBctL1jypQ1C770958uhRC036WXXfati2bN+t43b731qvuXPjAzOVsIACgDg4wAACh1NTU1Kz4z56++8q3bbr+0lGLQfiNHjdpy7XXX3bjw5q/81XGjR9+fXv+29gAAJcMZQgBAKWubOP6EDV+/9dYrjyQEPf3UUydt6OiY8Mjq1VP3/9ozG5854b9feeV3Tjl5ypP7f+3EyZPX//7b3vZcXX19y+EcZ1ou17Lk3vsu/Nu5cxf8ZMXylJwtBACUKEEIAChVbWdNP3PZ5xcsmPtGf+N/vfzysff94Ad/VCi05J7esGHCzp07D3hHsA0bN/6/f3lwaUr7zu6ZMH78xmnvql113syZS098+9vXvZHjf37Bgrl3LFp0+T/963e6u7u7p1tKAKDU2FQaoIzYVJpA2i7/2Mdvu/Syy771Rn7TPXffffHDDz907hNr105J/Xd2Tttxo0e/OHPmBQ9c+IEPfP+YY499+VB/46pCof6av7l2vihEEDaVBigjghBAGRGECOINx6DbFy26/J4l35vVtW3biFTEy7SGDBmy4pyz3vPjP/+Lv/iHQw1DohCBCEIAZcSm0gBAKXlDMeihpUvPP++95z606PbbPt61bds5qch79uzcuXP6vz249IZZfzxrydduvvnqQ/k903K5lpu+MP/ampqaFZYXACgVghAAUCoOOQb918svH/s3c+cumPe5G6/PIgS91s6dO6d/957/M/vDf3Lx4qefeuqkgz1fFAIASo0gBACUgrazpp+57FBiUGtLS/2f/umHv/PTFcs/mwb2Ll61GzZu/F+X/fnl/3j7okWXH+zJ03K5lquu+OQ3klvSAwAlwF3GAIABN3H8CRsO5W5ity9adPk/fedfPrxz586S2Y9n586d0xfdfltNe3v7xC8c5GuYNXv23evXr598/9IHUnJLegBgADlDCAAYUDU1NSu+fuutVx7sebcvWnT5ottv+3gpxaBXqf3piuUz5lx15a0He+K1111348TxJ2yw8gDAQBKEAICB1HbVFZ/8xshRo7b09aT9MSiV9lk1taseeWTqoUSheTfceL39hACAgSQIAQAD5h1TpqyZNXv23X09p0xi0H6HFIUmTT5x/R+97/33JfsJAQADRBACAAZETU3NigVf+vtP9/Wc1paW+n/6zr98OJXXfju1qx55ZOrBNpr+y6uvvvm40aNf9EkAAAaCIAQADIhzznrPj/u6VOy/Xn752BtuvOH6Et0z6GBqF91+28dbW1rq+3rSFVdc8Y/JWUIAwAAQhACAzNXU1Ky44sorb+nrOV/+0pf+umvbtnPK+Mus/dIX+77r2NnvPW+pDaYBgIEgCAEAmTvY2UEPLV16/k9XLJ9R7l/nC5s3j/nCjTf+776e89GPfuSfk7OEAICMCUIAQNbaDnZ20MKvffVTqbz2DTqQ2n97cOnMp5966qQDPeHs95631F5CAEDWBCEAIFPTzpi6uq+zg25ftOjyrm3bRlTQl1x769e/9pd9PeGCmRc84JMBAGRJEAIAstQ284KZfcaPe5Z8b1aqjLODfmvVI49M7essoYtmzfpectkYAJAhQQgAyMzI4SO6zn7veUsP9Pg9d999cYWdHbRf7R23337pAecyatSWd0yZssYnBADIiiAEAGRm8qRJ7X09/vDDD52bKuzsoP1aVrXW9fV4ri5X8AkBALIiCAEAmWlsbFx5oMf+6+WXj31i7doplfq179y5s+aeu++++ECPu2wMAMiSIAQAZKXtrLPPfvhAD973gx/8UarQs4P2qW1uWtl4oAdHjhq1xd3GAICsCEIAQCaOGz36xb7uLlYotOQqfQaPP/HEqX09/vvH//4mnxQAIAuCEACQiWOOOWZLX48/vWHDhEqfwc6dO2taW1rqD/T4xAkTOnxSAIAsCEIAQCZOGH/CMwd67Omnnjpp586dNQHGULvmyScPeJbQSVNOXueTAgBkQRACADIxefLk9Qd6bENHx4RU2fsH/daL//mfYw702AkTJrUnG0sDABkQhACATAwbPmz7gR57ZPXqqVHm8MzGZ0440GOTJp+43icFAMiCIAQAkKH/fuWV3zEFAGCgCUIAQBbaptZOazWGgxs5fESXKQAAxSYIAQCZ6OuW87/69a9/14T2GjVy5BZTAACKTRACAAbcf//6V282BQCA7AhCAMCAe+tbR282hb1eeeW/7TEEABSdIAQAZOJHP3zwfFM4uBc2bx5jCgBAsQlCAEAWao0AAKB0CEIAwIA7Y+rU1VG+1lNOnvLkgR7bumXLKJ8GACALghAAkInVP1s99UCPDR8xoiul1BZhDm9+85t/dcAZta2qS86mAgAyIAgBAJnYvHnz6AM9Vldf3xJkDG21dXWtB3pw0/ObjvdJAQCyIAgBAJl4ftPzfcaOCePHb6z0GQwZMqS7r/jV3t4+0ScFAMiCIAQAZOJgd8+a9q7aVZU+gxMnTNjQ1+PPPvfc23xSAIAsCEIAQGb6uvX8eTNnLk0Vvo9QLldf6Ovxjo3PTPApAQCyIAgBAFmpXfbTZWce6MET3/72dceNHv1iBX/9bRd+4APfP9CDSxYvvthHBADIiiAEAGTmsZ///PS+Hp8584IHKvVrn3bGGauPOfbYlw/0+MqVKxuTO4wBABkRhACAzGzd1jViVaFQf6DHL/zAB74/ZMiQFRX4pbedd/7MPmPXz5984lSfEAAgK4IQAJCl2vvvvffCAz14zLHHvnzOWe/5caV90RPGj9947vnnLz3Q40sWL764u7u7xscDAMiKIAQAZKqlbVVdX4//+V/8xT9U2FlCbR/5s4/c1dcTHnr4oXOTy8UAgAwJQgBAprq7u2vuWLTo8gM9fsyxx778kQ//6XdShdxxbNoZZ6zu6+yg9vVPT/7FmjVTfDIAgCwJQgBA1mrvWbJkVl9P+Nhll31rwvjxG8v9Cx0yZMiK6+bdcH1fz7nla1/9VHJ2EACQMUEIAMjc1m1dI/o6SyillObNu+H6Mr90rO3KKz75jb7uLNa+/unJqx5ZPdUnAgDImiAEAAyE2nuWLJm1dcuWUQd6wolvf/u6K6/45DdSeV461vbu6Wcu++DFF9/d15O+uGD+tcnZQQDAABCEAIABsXVb1znfvPXWq/p6zgcvvvju9513/gOpzKLQhPHjN35hwYK5fT3nRz988Hx7BwEAA0UQAgAGzP1LH5i5qlCo7+s5f/O///eN0844Y3Uqkyh03OjR93/t67dc2ddztm7ZMuorC+0dBAAMHEEIABhItV9ccNPcgz1p4S23XlkOUei40aPv/9a3b/t4X/sGpZTS3y9YMHfrtq5zLD8AMFAEIQBgQL2wefOYv507d8HBnrfwlluvfPf0M5el0oxCbRPGj/8/hxKDlixefPFPViyfYeUBgIEkCAEAA632JyuWzzjYXcdSSukLCxbMvexjH7+txO4+1vbu6Wcu+8537559sBi0qlCov+Wb3/hkcqkYADDABCGA8tJlBFSo2n/61+98+GD7CaWU0scuu+xbN31h/rXHjR59fxrgs4WGDBmy4upPzfnKwTaQTmnvvkFfXHDT3O7u7umWmwq10QgAyocgBFBeHjcCKlV3d/f0a/7m2vmHEoXq6utbltx734XvO+/8BwbobKG2aWec8Q9Lvrdk1sFuLZ/S3hj0iY9descLmze/30pTwTYaAUD5qOrt7TUFgDKRy9XNSCn91CSoZDU1NStu+sL8a6flci2H8vynn3rqpFu//rW/XPXII1NT8S/FapswfvzGj/zZR+469/zzlx7KbxCDCOSGQqF1njEAlAdBCKDM5HJ1/sNNxXujUSilvWHojttvv7RlVWvdzp07a1L/xqG2aWecsfq882c+cKghKCUxiHDeXSi0LjMGgPIgCAGUmVyuriulNNwkqHQ1NTUrrrrik9+YNXv23W/0995z990XNzetbHyqvX1S17ZtI9Ibj0NtQ4YM6T5xwoQNuVx94cIPfOD7B9sw+rVWFQr1X1xw01wxiEBOKBRaNxoDQHkQhADKTC5XtyyldKZJEETb+8+f+cC111134+G+wNNPPXXS4489dvrT69dPfmbjMyf89yuv/M6BnnvKyVOeHPN7v/filFNOeaKuvr7lcI+5ZPHii2/55jc+aQNpAtlWKLSOMAaA8iEIAZSZXK5uXkrpepMgkLaJ40/YMO+GG6+fNPnE9aX8Rrdu2TLq7xcsmPuTFctnJLeWJ5blhULrDGMAKB/uMgZQfu41AoKp7dj4zMWX/flli75+881Xl+qb/NEPHzz/wx/60Hd/smL5Z5MYhO9NAJQ4ZwgBlCH7CBFY23GjR794xRVX/OPZ7z1vaSm8ofb1T0/+4oL51/5izZopSQgirj8sFFofNwaA8iEIAZShXK7uzpTSR02CwNomjj9hw0c/+pF/Hqgw1L7+6cm3fO2rn1r1yOosbncPpezZQqF1vDEAlBdBCKAM5XJ1M1JKPzUJ2HvG0AUzL3jgolmzvjdy1KgtxT7gksWLL37o4YfOdUYQ/NYNhULrPGMAKC+CEECZyuXqNqaUxpkE/FbbO6ZMWZOryxX6Ow4tWbz44pUrVzb+/MknTu3u7q5JQhC8mtvNA5QhQQigTOVydZeklO4wCXhdbceNHv3i7x//+5smTpjQcdKUk9edMGFS+8HuUrZ1y5ZRq9tW1W16ftPx7e3tE5997rm3dWx8ZsK+h0Ug+P/dVSi0XmIMAOVHEAIoU7lc3YiU0sZkc2k4VG37/6GmpqZ77JjfeyGllLZs3Tpq67auEa96nvADh+7dhULrMmMAKD+CEEAZy+Xq5qWUrjcJAAbA8kKhdYYxAJSnQUYAUL72beL5rEkAMAAuMQKA8iUIAZS/OUYAQMa+aiNpgPImCAGUuUKh9d6U0n0mAUBGnk0pzTMGgPImCAFUhktSStuMAYAsvucUCq1dxgBQ3gQhgAqw7w/mF5kEAEV2g7uKAVQGQQigQuz7A/qlJgFAkdy172YGAFQAQQigghQKrXemlO4yCQD62c+TmxgAVBRBCKDCFAqtlyRRCID+8/OU0gz7BgFUFkEIoAKJQgD0EzEIoEIJQgAVal8UusEkADhM9yUxCKBiVfX29poCQAXL5eouSSktTCkNNw0ADtFXC4XWOcYAULkEIYAAcrm601NKd6aUTjMNAPqwLaV0SaHQeq9RAFQ2QQggkFyubl5K6XqTAOB13Jf2xqAuowCofIIQQDC5XN34tPdsoTNNA4CU0rNpbwhaZhQAcQhCAEHlcnUzUkrzkjAEENWzKaV5hULrnUYBEI8gBBDcvjOG5qWULko2ngaI4L6U0kJnBAHEJggB8Fu5XN1FaW8YmpFSGmciABVhW0ppWUrp3pTSvfYIAiAlQQiAA9h35tDp+/6ase+XT0/OIgIoZcv3/X1ZSmljSunxQqH1cWMB4LUEIQAAAIBgBhkBAAAAQCyCEAAAAEAwghAAAABAMIIQAAAAQDCCEAAAAEAwghAAAABAMIIQAAAAQDCCEAAAAEAwghAAAABAMIIQAAAAQDCCEAAAAEAwghAAAABAMIIQAAAAQDCCEAAAAEAwghAAAABAMIIQAAAAQDCCEAAAAEAwghAAAABAMIIQAAAAQDCCEAAAAEAwghAAAABAMIIQAAAAQDCCEAAAAEAwghAAAABAMIIQAAAAQDCCEAAAAEAwghAAAABAMIIQAAAAQDCCEAAAAEAwghAAAABAMIIQAAAAQDCCEAAAAEAwghAAAABAMIIQAAAAQDCCEAAAAEAwghAAAABAMIIQAAAAQDCCEAAAAEAwghAAAABAMIIQAAAAQDCCEAAAAEAwghAAAABAMIIQAAAAQDCCEAAAAEAwghAAAABAMIIQAAAAQDCCEAAAAEAwghAAAABAMIIQAAAAQDCCEAAAAEAwghAAAABAMIIQAAAAQDCCEAAAAEAwghAAAABAMIIQAAAAQDCCEAAAAEAwghAAAABAMIIQAAAAQDCCEAAAAEAwghAAAABAMIIQAAAAQDCCEAAAAEAwghAAAABAMIIQAAAAQDCCEAAAAEAwghAAAABAMIIQAAAAQDCCEAAAAEAwghAAAABAMIIQAAAAQDCCEAAAAEAwghAAAABAMIIQAAAAQDCCEAAAAEAwghAAAABAMIIQAAAAQDCCEAAAAEAwghAAAABAMIIQAAAAQDCCEAAAAEAwghAAAABAMIIQAAAAQDCCEAAAAEAwghAAAABAMIIQAAAAQDCCEAAAAEAwghAAAABAMIIQAAAAQDCCEAAAAEAwghAAAABAMIIQAAAAQDCCEAAAAEAwghAAAABAMIIQAAAAQDCCEAAAAEAwghAAAABAMIIQAAAAQDCCEAAAAEAwghAAAABAMIIQAAAAQDCCEAAAAEAwghAAAABAMIIQAAAAQDCCEAAAAEAwghAAAABAMIIQAAAAQDCCEAAAAEAwghAAAABAMIIQAAAAQDCCEAAAAEAwghAAAABAMIIQAAAAQDCCEAAAAEAwghAAAABAMIIQAAAAQDCCEAAAAEAwghAAAABAMIIQAAAAQDCCEAAAAEAwghAAAABAMIIQAAAAQDCCEAAAAEAwghAAAABAMIIQAAAAQDCCEAAAAEAwghAAAABAMIIQAAAAQDCCEAAAAEAwghAAAABAMIIQAAAAQDCCEAAAAEAwghAAAABAMIIQAAAAQDCCEAAAAEAwghAAAABAMIIQAAAAQDCCEAAAAEAwghAAAABAMIIQAAAAQDCCEAAAAEAwghAAAABAMIIQAAAAQDCCEAAAAEAwghAAAABAMIIQAAAAQDCCEAAAAEAw1UYAAEemob7+2y2FwsezOFZ9Lndbc0vLJ8ptRqdOOWXrk2vXjKiUNT/l5Cld+/95SE1N95A3vemplFKqGjSoUFVVtbmpuWmhNbAGAFDKBCEAOELd3TtnVuKxOLDXCStj9v39zJRSqqqq+srYsWN3j37r6JeHDBnSOnjQoLtXNjctNjlrAACloqq3t9cUAOAwNeYbxzU1N23M8pgN9Q2NTc1NTeU0p0o7O+VwDB06rPfkk07aUF1dfU9zS/O11iDeGgBAKbGHEAAcgT179izM+pg9PT2fNvnys2PH9qq2n7VNbCm0XHP88cfvqs/V/6Ax3zjOZKwBAAwEQQgAjsAvX3rp3AjHpH91dnZWF1oLF/38P/7jmfq63DITsQYAkDVBCAAOU2NDfnZHR/vRWR+3o6P96MaG/GwrUP527NheVVjVeubxxx+/K9+Qn2Mi1gAAsiIIAcBh2rV71zURj03/6+zsrG5uaf5K3bRpj5mGNQCALAhCAHCYNnV2njpQx16zdt1pVqDyrGprO/3UKadsta+NNQCAYhOEAOAwNNQ3zO/s7KweqOPv2LG9qqG+Yb6VqDxPrl0z4j9ffHGtIGENAKCYBCEAOAy7d+/+oPdAsXR0tB8tSFgDACgmQQgA3qDGfOO4tp+1TRzo99H2s7aJflitXPuDhElYAwAoBkEIAN6gnp4913kvZKGjo/1omxxbAwAoBkEIAN6gzb986UPeC1lZ1dZ2uv2irAEA9DdBCADegHxDPt/R0X50qbyfjo72o/MN+byVqWzPPvfsZ1weaA0AoD8JQgDwBvTs2fN33hNZ6+zsrN6ze/ddJmENAKC/CEIA8AY8t+n5Bu+JgfDEmjXTnaFiDQCgvwhCAHCI8g35OZ2dndWl9r46OzurGxvys61QZduxY3uVM1SsAQD0F0EIAA7Rrl27rirV9/abXbs+b4Uqn7PBrAEA9JdqIwCAg2vMN45bu27dhFJ9f6X83rKSm1a3vL9fs6e3Z/ivdvxqfPdvfjOkFDYT7+zsrG6ob5jf3NJ8rTWwBgBwJAQhADiUH0p79ly3Y8f2qlJ9fzt2bK9qqK//dnNLyyeirlFLa2FGsY+Rb8jP6dmz56Jfvvxy7UDFid27d38wpXStNbAGAHAkBCEAOATd3Ttneo80NTctTCktTGlvmOjauvX6J9euGZHle4h+Npg1AID+YQ8hADiIfEM+/+hjj44p9ff56GOPjnEHpOw0NTctfGLNkyPrc/U3DR06rDer4+7Ysb0q35CfYwWsAQAcCUEIAA6ip6fn0+XyXvfs2bPQimWruaX52j94xzumT5w46ZXMPpN79lxk8tYAAI6EIAQAB/Hc889dUC7v9ZcvvXSuFcteU3NT05jRo8/J6iyV7du3n2bq1gAAjoQgBAB9aGzIz+7s7Oz3PffGjh27uxjvt6Oj/ejGhvxsK5e9puampneceuqCLI6V9Z451sAaAFB5BCEA6MNvdu36fDFed9zb3nZXsd7zrt27rrFyA6O5pfnaU06e0pXFsYQ/awAAR0IQAoA+FOtuQoMGDf5csX5o3dTZeaqVGzgjRo68IYvj9PT2nm7a1gAADvvPo0YAAK+vob5h/o4d26v6+3UnTpz0ysqmlc8OGz58WTHed2dnZ3VDfcN8KzgwmpqbFhbrksBX6+3pyZm2NQCAwyUIAcABdHd3X1KM1z32mFFPpZTSoEGDvlys97579+4PWsGBM/a4sc8W+xg9vT3DTdoaAMDhEoQA4HU05hvHPfrYo2OK8dqDB1f/MKW9G+AW6zbZa9etm9CYbxxnJQfG4MGDf1HsY/xqx6/Gm7Q1AIDDJQgBwOvYs2fPwqJ98x006Jv7/3n/2UL9bceO7VU9PXuus5ID9AesQYOWm4I1AICS/l5pBADw//vlSy+dW4zXPeXkKV0rm1b+9lKWo6qPuqlYX8O2rm2zrCQAAK9HEAKA12hsyM/u6Gg/uhivPWzYsJ+/+t9XNjctLtbmt0+uXTMi35DPW9HsVVVV/cAUrAEAlDJBCABeY9fuXdcU7Rvv4MH3vvbXirn5bU9Pz6etaPZefRYY1gAASpEgBACvsamz89RivO7QocN6m5qbFr7216urq+8p1tfy3PPPXWBFs5dvyM8xBWsAAKVMEAKAV2mob5jf2dlZXYzXPnHSpM2v9+vNLc3XDh06rLcYx+zs7KxubMjPtrIAALyaIAQAr7J79+4PFuu1hwwZ0nqgxw4Ui/rDb3bt+ryVzVZvb+9oU7AGAFDKBCEA2Kcx3ziu7WdtE4v2TXfQoC8f6LGamiEPFOu4a9etm2B1s9Xb05Mr9jGG1NR0m7Q1AIDD/rOpEQDAXj09e64r1muPHTt2d1NzU9MBvyEPGvy5Yh17x47tVQ31DfOtcHZ2/uY3by/2MYa86U1PmbQ1AIDDJQgBwD6bf/nSh4r12sePHftEX4+vbFr57CknT+kq1vG7u7svscLZebq9veiXK1UNqmo3aWsAAIdLEAKAlFK+IZ/v6Gg/ulivP3hw9Q8P9pxhw4cvK9bxH33s0TGN+cZxVrr4Gurrv71jx/aqYh+nqmrQE6ZtDQDgcAlCAJBS6tmz5++K+frNLc3XHvSbch97DPXL11jES+L4f7Z1bZuVxXGampsWmrY1AIDDJQgBQErpuU3PNxTrtd/5h+988RB/uGyaOHHSK8V6H8W8JI69Guob5j+5ds2IYh+nmJ8Ta2ANAIhBEAIgvHxDfk5nZ2d1sV6/r9vNv9axx4wq2ia1HR3tR+cb8nkrXhyN+cZxv3jiiblZHKuYnxNrYA0AiEEQAiC8Xbt2XVXUb7Zv4FKwo6qPuqmY72X37l1ft+L9rzHfOO4/X3xxbRb71qR0aHtSWQNrAAB9qert7TUFAEL/EPnz//iPZ4r1Q+TEiZNeaW9/+nfeyO85/vjjdxXrjKWxY8fu3rRp01FZz/nUKadsLfZlPL29vVUD8RnKN+TzL27e/HAxNyV/taFDh/Vu375tkDUovzUAgFJSbQQARNbTs+e6Yp5RcDiXlYw9buyznZ2dE4vxfjo7O6vzDfk5NsM9co35xnF7du++64k1a6ZndVZKSimdfNJJG0zfGgDAkRKEAAitu3vnzGK+/uFcAlZdXX1PSumaYr2nfZfILbT6h6exIT971+5d16xZu+60LCPEfm866qi/tQbWAACOlEvGAAgr35DPN7c0ryzW6x/J5VnDhg3vKdYPukOHDus97Q/+4ISVTSufzWrW5XK50r5Nt6e++td69uy5qKe3Z/ivdvxq/HObNg0fiACx3yknT+l6Ys2TI61Bea4BAJQSZwgBEFZPT8+ni/n6Y48be9jB5cRJkzY/+tijY4rxvnbs2F7V07PnupTSJyppPauqqir+/3KNGDnyBmtgDQCgP9gMD4Cwnnv+uQuK+fr7Lv06LDU1Qx4o5nsr9qVy9L9TTp7SZe8nawAA/UUQAiCkxob87GLdySulvZdlNbc0X3vY36AHDf5cMb/+Rx97dMy+S3MoE85MsQYA0J8EIQBC2rV71zXFfP0jvQvRyqaVz55y8pSuYr7HYl8yR/+pfVdthzNTrAEA9CdBCICQ1qxdd1oxX7+6evCyI32NYcOHLyvme/zlSy+d65NQ+oYOHdb7pje96T0mYQ0AoD8JQgCE01DfML/Ydynqj0u+Bg0a9OVivseOjvajGxvys30iStsfvOMdV2d5RzisAQAxCEIAhNPd3X1JMV//nX/4zhf744fHpuampokTJ71SzPda7EvnODK5uty9LlOyBgBQDIIQAKE05hvHFet27vv15x3Cjj1m1FPFfK/FvnSOw1f7rtqOlkLLB0zCGgBAMQhCAISyZ8+ehcU+RlXVoDv767WOqj7qpmK+1x07tlc11DfM98koLbXvqu1Y1bZqkklYAwAoFkEIgFCKvZHyxImTXmlqbmrqr9db2dy0eOzYsbuL+Z537979QZ+M0iFEWAMAyIIgBEAY+YZ8vqOj/ehiHuOtb3nLQ/39mmOPG1vUzWzbftY2sTHfOM4nZODl6nL3ChHWAACyIAgBEMbu3bu+XuxjDB406O7+fs3q6up7iv2+e3r2XOcTMnDGjh27u6G+4a/sV2MNACArghAAYWzq7Dy12D9QrmxuWtzfr9vc0nzt0KHDeov53jf/8qUP+YQMjGm1tY+fMP6ESe5kZQ0AIEvVRgBABA31DfM7OzuL+n3v+LFjnyjWa584adLmYt4draOj/eh8Qz7fn/sf0bdTTp7SNWLkyPeZuTUAgIEgCAEQQhYbJxfzjmD7bmX/8WK+/549e/4upTTDp6W4at9V23HUUUfd4mwUawAAA0kQAqDiNeYbx7X9rG1iMY8xdOiw3mJcLrbfoEGDP5eKHISe2/R8g09LcUycOOmVt77lLQ8NHjx4zsqmlc+aiDUAgIEmCAFQ8bLYMPnkk07aUMzXX9m08tkz3nnGi8W8bKyzs7O6sSE/u5hhK4qhQ4f1njhp0uaamiEPVFUNutMlSdYAAEqNIARAxdvWtW1WsY/R9rO2iVVVVb3lPqvf7Nr1+ZSSIPQGnHLylK4hNTXdQ970pqeqBg0qVFVVPSA+WAMAKHWCEAAVLd+Qzz+5ds0Ikzg0a9etm1Cu7z03rW55MV9/0ODB977qX1cLDtYAAMqZIARARdu3UTKHaMeO7VUN9fXfbm5p+US5vfeW1sIMK2gNAIBDM8gIAKhkNkp+47q7d840BQCAyiYIAVCx8g35OZ2dnc6GfYMefezRMY35xnEmAQBQuQQhACrWrl27rjKFw7Nnz56FpgAAULkEIQAqVjlvkDzQfvnSS+eaAgBA5RKEAKhIDfX1396xY3uVSRyejo72oxsb8rNNAgCgMglCAFQkGyMfuV27d11jCgAAlUkQAqDi5Bvy+Ucfe3SMSRyZTZ2dp5oCAEBlEoQAqDg9PT2fNoUj19nZWd1Q3zDfJAAAKo8gBEDFee755y4whf6xe/fuD5oCAEDlEYQAqCiNDfnZnZ2d1SbRP9auWzehMd84ziQAACqLIARARbERcv/asWN7VU/PnutMAgCgsghCAFSUNWvXnWYK/Wtb17ZZpgAAUFkEIQAqRkN9w/wdO7ZXmUT/enLtmhH5hnzeJAAAKocgBEDF6O7uvsQUisOd2wAAKosgBEBFaMw3jnv0sUfHmERxuHMbAEBlEYQAqAh79uxZmMVxptXWPt7b21tVSn9NnDjplWJ/3Z2dndWNDfnZPmkAAJVBEAKgIvzypZfOzeI4R1UfdVOpfe1vfctbHsriOL/ZtevzPmkAAJVBEAKg7OUb8vmOjvaji32csWPH7l7Z3LS45L6ZDxr05SyOs3bdugk+bQAAlUEQAqDs7d696+tZHGfscWOfLcWvv6m5qWns2LG7i32cHTu2VzXUN8z3iQMAKH+CEABlb1Nn56lZHKe6uvqeUp3B8WPHPpHFcdzJDQCgMghCAJS1hvqG+Z2dndXFPs7QocN6m1uary3VOWS1t9Gjjz06pjHfOM4nDwCgvAlCAJS13bt3fzCL45x80kkbSnkOK5ubFmdx2VhKKfX07LnOJw8AoLwJQgCUrcZ847i2n7VNzOJY1dWDl5X6PLLa42jzL1/6kE8fAEB5E4QAKFtZnqkyaNDgz5X6PLLa46ijo/3ofEM+7xMIAFC+BCEAyta2rm2zsjjOO//wnS+ubFr5bKnPo7ml+dqhQ4f1ZnGsrO7sBgBAcQhCAJSlfEM+/+TaNSOyONaQIUNay2UuJ06atDmL42R1ZzcAAIpDEAKgLPXs2fN3mX2zHDToy+Uyl5qaIQ9kcZzOzs7qfEN+jk8iAEB5EoQAKEvPbXq+IYvjTJw46ZWm5qamsvnGnuFeR7t27brKJxEAoDwJQgCUnXxDfk5nZ2d1Fsd667HHtpXTbFY2rXz2lJOndGVxrLXr1k1ozDeO84kEACg/ghAAZSfLM1MGDx78jXKbz7Dhw5dlcZwdO7ZXZXmnNwAA+o8gBEDZWbtu3YQsjjN27NjdK5ubFpfdN/cM9zzq7t450ycSAKD8VPX29poCAAAAQCDOEAIAAAAIRhACAAAACEYQAgAAAAhGEAIAAAAIRhACAAAACEYQAgAAAAhGEAIAAAAIRhACAAAACEYQAgAAAAhGEAIAAAAIRhACAAAACEYQAgAAAAhGEAIAAAAIRhACAAAACEYQAgAAAAhGEAIAAAAIRhACAAAACEYQAgAAAAhGEAIAAAAIRhACAAAACEYQAgAAAAhGEAIAAAAIRhACAAAACEYQAgAAAAhGEAIAAAAIRhACAAAACEYQAgAAAAhGEAIAAAAIRhACAAAACEYQAgAAAAhGEAIAAAAIRhACAAAACEYQAgAAAAhGEAIAAAAIRhACAAAACEYQAgAAAAhGEAIAAAAIRhACAAAACEYQAgAAAAhGEAIAAAAIRhACAAAACEYQAgAAAAhGEAIAAAAIRhACAAAACEYQAgAAAAhGEAIAAAAIRhACAAAACEYQAgAAAAhGEAIAAAAIRhACAAAACEYQAgAAAAhGEAIAAAAIRhACAAAACEYQAgAAAAhGEAIAAAAIRhACAAAACEYQAgAAAAhGEAIAAAAIRhACAAAACEYQAgAAAAhGEAIAAAAIRhACAAAACEYQAgAAAAhGEAIAAAAIRhACAAAACEYQAgAAAAjm/w4AFvCnS4L7bKMAAAAASUVORK5CYII=;" vertex="1" parent="1">
          <mxGeometry x="40" y="750" width="136" height="126" as="geometry" />
        </mxCell>
        <mxCell id="URRhDzllqDp2toMXEWSI-7" value="" style="shape=image;verticalLabelPosition=bottom;labelBackgroundColor=default;verticalAlign=top;aspect=fixed;imageAspect=0;image=data:image/jpeg,/9j/4AAQSkZJRgABAQAAAQABAAD/2wBDAAEBAQEBAQEBAQEBAQEBAQEBAQEBAQEBAQEBAQEBAQEBAQEBAQEBAQEBAQEBAQEBAQEBAQEBAQEBAQEBAQEBAQH/2wBDAQEBAQEBAQEBAQEBAQEBAQEBAQEBAQEBAQEBAQEBAQEBAQEBAQEBAQEBAQEBAQEBAQEBAQEBAQEBAQEBAQEBAQH/wAARCAF9AzQDASIAAhEBAxEB/8QAHwAAAQUBAQEBAQEAAAAAAAAAAAECAwQFBgcICQoL/8QAtRAAAgEDAwIEAwUFBAQAAAF9AQIDAAQRBRIhMUEGE1FhByJxFDKBkaEII0KxwRVS0fAkM2JyggkKFhcYGRolJicoKSo0NTY3ODk6Q0RFRkdISUpTVFVWV1hZWmNkZWZnaGlqc3R1dnd4eXqDhIWGh4iJipKTlJWWl5iZmqKjpKWmp6ipqrKztLW2t7i5usLDxMXGx8jJytLT1NXW19jZ2uHi4+Tl5ufo6erx8vP09fb3+Pn6/8QAHwEAAwEBAQEBAQEBAQAAAAAAAAECAwQFBgcICQoL/8QAtREAAgECBAQDBAcFBAQAAQJ3AAECAxEEBSExBhJBUQdhcRMiMoEIFEKRobHBCSMzUvAVYnLRChYkNOEl8RcYGRomJygpKjU2Nzg5OkNERUZHSElKU1RVVldYWVpjZGVmZ2hpanN0dXZ3eHl6goOEhYaHiImKkpOUlZaXmJmaoqOkpaanqKmqsrO0tba3uLm6wsPExcbHyMnK0tPU1dbX2Nna4uPk5ebn6Onq8vP09fb3+Pn6/9oADAMBAAIRAxEAPwD+7Ik5PJ6nufWkyfU/maG6n6n+dJQAuT6n8zRk+p/M0lFAC5PqfzNGT6n8zSUUALk+p/M0ZPqfzNJRQAuT6n8zRk+p/M0lFAC5PqfzNGT6n8zSUUALk+p/M0ZPqfzNJRQAuT6n8zRk+p/M0lFAC5PqfzNGT6n8zSUUALk+p/M0ZPqfzNJRQAuT6n8zRk+p/M0lFAC5PqfzNGT6n8zSUUALk+p/M0ZPqfzNJRQAuT6n8zRk+p/M0lFAC5PqfzNGT6n8zSUUALk+p/M0ZPqfzNJRQAuT6n8zRk+p/M0lFAC5PqfzNGT6n8zSUUALk+p/M0ZPqfzNJRQAuT6n8zRk+p/M0lFAC5PqfzNGT6n8zSUUALk+p/M0ZPqfzNJRQAuT6n8zRk+p/M0lFAC5PqfzNGT6n8zSUUALk+p/M0ZPqfzNJRQAuT6n8zRk+p/M0lFAC5PqfzNGT6n8zSUUALk+p/M0ZPqfzNJRQAuT6n8zRk+p/M0lFAC5PqfzNGT6n8zSUUALk+p/M0ZPqfzNJRQAuT6n8zRk+p/M0lFAC5PqfzNGT6n8zSUUALk+p/M0ZPqfzNJRQAuT6n8zRk+p/M0lFAC5PqfzNGT6n8zSUUALk+p/M0ZPqfzNJRQAuT6n8zRk+p/M0lFAC5PqfzNGT6n8zSUUALk+p/M0ZPqfzNJRQAuT6n8zRk+p/M0lFAC5PqfzNGT6n8zSUUALk+p/M0ZPqfzNJRQAuT6n8zRk+p/M0lFAC5PqfzNGT6n8zSUUALk+p/M0ZPqfzNJRQAuT6n8zRk+p/M0lFAC5PqfzNGT6n8zSUUALk+p/M0ZPqfzNJRQAuT6n8zRk+p/M0lFAC5PqfzNGT6n8zSUUASoSQcnPP+FFCdD9f6CigCNup+p/nSUrdT9T/OkoAKKKKACiiigAooooAKKKKACiiigAooooAKKKKACiiigAooooAKKKKACiiigAooooAKKKKACiiigAooooAKKKKACiiigAooooAKKKKACiiigAooooAKKKKACiiigAooooAKKKKACiiigAooooAKKKKACiiigAooooAKKKKACiiigAooooAKKKKACiiigAooooAKKKKACiiigAooooAKKKKACiiigAooooAKKKKACiiigAooooAKKKKACiiigAooooAKKKKACiiigCVOh+v9BRQnQ/X+gooAjbqfqf50lK3U/U/wA6SgAooooAKKKKACiiigAooooAKKKKACiiigAooooAKKKKACiiigAooooAKKKKACiiigAooooAKKKKACiiigAooooAKKKKACiiigAooooAKKKKACivn79pf9ozwL+zB8L9U+JHji5G4i+0rwjovl6pnxX4zGhaxrWieFhfaXpGtf2KNZOjXFsda1Cz/szTiRLdScxxyfzl/tIf8FTPj18dLJdB8GRf8KN8NWuu6brum3XgPxV4rtvH5+yaPd6dd6RrXjHTdT0Ox1XRb29v7jUzYw+GNN8uS20qOSS4ksHubr9Q4B8JOLfEG2KyzDU8Hk0a8qFfOsbONPDRqQS54YejzLE4ycOb3/q9OVOm04VKsKnLCX87+NX0nPDHwQ5su4gzCrmnFlTCQxmE4TyinOtmFShU5vZVcdivZywOVUqvL+5+vVqdevGUamHw9WiqlWn/AFa0V/Eh/wANUftP/wDRx3x1/wDDr+Of/l5Xe/C/9uX9qH4YeOtE8cD4veO/H/8AYv8AaP8AxSXxK8b+OfFHgvVf7Q0u90v/AInGh/8ACT2X237F9t/tCw/0mP7PqVrZ3Pz+Tsb9VxP0WOJqWHr1MPxJk2Jr06NSdHDfV8XR+sVYwcqdH207wpe1mlD2k04w5uaWiZ/NeA/aP+H2Ix2DoY3gDirL8FWxWHpYvH/X8sxf1LDVKsIV8X9VoqNXE/V6TlW9hSaqVuT2cGpSTP7MqK/BX9nv/gsxLrXibTPDX7Rngvwp4U0XUL/VZL/4leD5fFUemeH9Mt9DludKtZ/A4sPGut6xe32t2osJL6z1y1hhh1S3mfT0j0+4mu/2I+Cvx9+E37Q3hm+8YfCDxWvi3w9p2uXPhu8v/wCyNe0NotZs7DTtTubQWfiLTNJvpRHZarYzfaIrZ7VvOMaTNJFMkf4nxb4bcacEzl/b+R4qhhFGlJZph4/XMpkq06lOlB5jhvaYalXnOnO2FxE6OKUeSo6Cp1aU5/114Z+PnhP4uUof6lcX5bjMylOvCXDuPn/ZXEsPqtGhXxFWOR490cficHSp4ik5ZjgaWKy1z9rRji5VsPiKdL2Kiiivhj9iCiiigAoopGZUBZ2VVHVmIUDJwMk4AySB9TigNtxaK/L/APaV/wCCqHwM+CI1TQvAqD4ufEjw346vPBnizwKH8U+CBoQ0n+2LXW9SHiXU/BGp6LqY03WtNtdK+zafLMLz7f8AbbW5ktrZ2f8AFb9oj/gpX+0d8d9U0qbRNfv/AIKaL4fv/Ecmk6f8K/FPjPw9qeo6ZrU9g1jaeM9VtfEENr4kvdEttNjitL+30jRoPOvNUni0+2S9W3g/Y+EPA3jritUMTVwDyDKq6nKOYZwvYVJJU3OnKllrlHMKlOtJ01TrOhToThU9rTqVIxkfyh4p/TK8F/DR4zL6Gdx414lwc6MJ5HwtL65RhKWIhSxEMRn8ac8joV8JD286+EjjK2MpVaDw1fD0Kk4s/rpor+IoftV/tQcZ/aO+Op9f+Lr+OBn/AMrdb/hT9sn9qHwr4p8OeKB8dvix4i/4RzXtJ1z/AIR/xR8SPHOreGtcGlX8F9/ZHiDSx4ht/wC0dF1HyPsep2XnxfarKaeDzE8zcPv6n0XOIY06kqfE+T1KkYSlCn9UxkPaTUbxhzyfLDml7vM01Hd6aH4bQ/aRcB1K9GnX8O+KsPRnVpwrYj+0sqq+wpSmlUreyhFTq+zg3P2cWpTtyppu5/atRX4wfsh/8FaNN+MPjXw98Lvjb4T0LwF4j8QeXpWieL/Dl14jvdE8UeM9Y8T6bpPhnwtZ+FBo+uXvh8Xljqha41rVvFtzpkdzpc000llFfwwWv7PAggEEEEAgg5BB5BBHBBHII61+CcVcH8Q8F5iss4iy+eCxE4Orh6inTr4bF0FJw9thcTRlOlVhde9HmjWpNqNelSm+U/t3w08VuBPF3IXxFwHnlLOMDSqxw2Ooyo18HmGWYx041XhMxwGLp0sTh6qjL3KnJPC4lRlUweIxFFKo1ooor5g/RAooooAKKKKACiiigAooooAKKKKACiiigAooooAKKKKACiiigAooooAKKKKACiiigAooooAKKKKACiiigAooooAKKKKACiiigAooooAKKKKAJU6H6/0FFCdD9f6CigCNup+p/nSUrdT9T/OkoAKKKKACiiigAooooAKKKKACiiigAooooAKKKKACiiigAooooAKKKKACiiigAooooAKKKKACiiigAooooAKKKKACiiigAooooAKKKKACiivk/wDbY+NHhn4I/s4/EnXNd8W3/gzWfFHhTxb4J+Hmr6XDrh1I/EbWfBviO58K2+n32g2txc6Nem502W4tdZuJLGz0+e3SWW/tn8pj6OU5Zis5zPAZTgqdSriswxdDCUYUqVSvPmrVIwc1SpRlUnGnFupNRTahGT0SbXhcT8QZdwpw9nXEubV8PhsuyPLcXmWKq4nE0MHR5MLRlUjSlicTKFClOvNQoUnUkk6tSEVdySf87n/BSb9qDxR8fPjZrnw+1fw7oeg+GfgJ46+I3gzwsbB7+51nVSmpaZoWsanr19cXC2Uxvbzwkt/plrYaVYHS7W/k0+5udVkh+3y/N/7NX7MvxO/aj8fW3hD4f6LfS6Lp1/oLePPGEUNk+m+B/DuratDp8+s3Y1LU9GtdSvbe1N9qFh4btNQXWdah0vUP7OgkSzu5rfwe/wBT1TX9SvtZ1zU77V9a1u/udS1fWNUu59Q1LU9T1K4e5vdR1C9upJLm9vby5mkuLq5uJnnuJpHklkaRmY/2c/skfsx+F/2WvhNo3gTSm0LXfEuy7fxV8QbDwlY+Fta8Z+Zruu6xoo14QXeqXt7/AMI9Za6+j6ab/V7/AMi2ic2wtYpzbp/fPH/FuC8EeAcjyPIMLho5tiKM8Bk9B08RUwlOdBU6+cZtVc3L2jjiMXGpGjWxCq1sXjqc3CtQpYlR/wAVPBTwxzb6XvjXxhxhxpmGPnwzgcXSzninGxxGBoZpXpYyVbCcLcM4aNKEfYKpgMsnh54rC4J4fCZblFeiquGxmIwEqnwN4W/4Ip/Am00Kxt/GnxV+LGv+JY/tP9o6t4al8K+FdFut11O9p9j0LUvD3i69sfJsmtrefzvEF/8AaLmKa6j+zRzpaQcB4p/4IieG7jW7+58FftAa9ovhxxAdM0fxN4DsPFGtW5SzgS5W81/TvE/hKyvfPvluJ7cxeH7AW1tNDayfaZIHu5/3aor+S6Pjf4p0MRVxMOL8ZKpW5+eFbCZXiMOvaTU5eywtfA1MNRs0lD2NKn7ODdOnywk4v/TXF/RB+jhjMDh8vq+F+VU6GF9l7OrhMz4iwOOl7GjKjD6xmWDzihmGL5oScqv1vE1vb1lGvX9pWjGov4n/AIvfslftIfAmG4vvij8IvFWg6HaWNnqN54os7aDxJ4SsLfUNSfSLFdT8VeGLnWfDumXtzqAjtk02/wBTt9QD3diTbbL6zafzD4WfEfxR8HviH4Q+Jvgi+az8ReDNdsde09GudQgsb42soN1pOqrpl7p95caNrVkZ9I1uyivLc6hpN5d2MkqxztX9x/inwn4W8caFfeF/GnhvQvFvhrU/s/8AaPh/xLpNhrmi3/2O6gvrT7ZpepwXNlc/Zr22tru386B/JuYIZ49ssSMv4h/ta/8ABInSb7T/ABX8Rv2bNQ12bxpf69qOu/8ACpb2PwdZeGr7/hIfEenv/ZHg7Ud/gzTfBOi+FNMu9Yurax1E68byys7DTLSW0nj8y6/ovgf6RWRcSwlkfH+DwWT1swbwLxlGFaWQ4mjioRoOljVXqYipgKc5Tqwr18RWnhKVKcJ1q1KnGtUh/CPi/wDQU4x8P61PjHwSzPNuKMNkkYZusrxNXCx4ywGKy2tPGRxGUywdDBUM5rUY0sPVwmDweFp5niMRSq0sLhcTiJ4WhWP2Zf8AgsPf+NPHfhnwH+0F4N8DeDdP8Ta7d2c3xQ0PWNZ0Lw14ZtJdLP8AYkGr+H9Wi8TyubzX4lsb7xBP4p0nSdMstTivr6C1tNKvLu4/czSdW0vXtL03XND1Kx1jRdYsbTVNJ1bS7uC/03U9Nv4I7qx1DT761kltryyvLaWK4tbq3lkhnhkSWJ2RlY/wwfEr4X/EL4QeKLrwT8UPB2u+CfEtqJn/ALO12yktvttrBfXmm/2rpF1hrLWtFuL3T72Gx1vSLi90nUPs0sljeTxLvr7o/Yl/4KD/ABL/AGe/GWieF/H/AIiv/Gnwb12+8H+HNbTxfrfi7W5/hl4T0ZL/AEqK98AWsN5qdtpNlpVtqcF9qeh2Xh2+bWrDQLHSLD+zpvJuofO8SvADKc1wH+snhpDDUpQwft5ZNhcRLE4LN4qbmq+V151q0KeJnRm4xoU6iwldUKUaMKdepUqVPc+j/wDTa4l4bzp8BeP9XMMRTqZosHT4qzLA08Bm/DNSdOFF4LiPB08NhKtfAUcTTU6mLrYeWZ4R4vEVMVWr4ShRpUP6x6K4/wAA+PvB3xR8HaB4/wDAGv2Pifwh4nsU1HRda053NvdW5d4ZY5IpkiubO9s7mKey1HTr2C3v9N1C3ubC/tra8tp4I/h/9uT9vrwf+yr4dGi+FZPC3j34x6nez6UngZ/ELx3Pg63n8PTana+KfFllpdreXMNpDc3nh1rXw/fXvhvUPElhqktzo+pJDY3dzB/JuS8MZ7n+d0+Hcsy3E1s3nWqUJ4OdN0KmGlQk44iWM9t7NYSGGaaxEsQ6apSXJK02ov8A0w4t8RODOCOEK/HfEef4DB8LUcJQxlLNadaOLo5hSxkI1MDHK1hfbSzOrj4ThLBU8Eq0sRCSq070lKcfcP2l/wBrf4O/sweFtV1Hxx4r0L/hNP7CvdS8JfDr+0Zv+El8VX/2DWZtDtfsWl6frWpaLoutalotzo3/AAluoaV/YGn3v7q6uvO2QSfzj/tb/wDBSb4p/tVeGLz4dDwtonw4+G0+u6Nro0zR9X13UPE2oDSbCRDpHiXXhd6Xo2u6LLrM512Gy/4ROw+y3mn6I5kmudM+13Pwl41+IHjz4k6tD4g+I3jXxV451q2sk0211Xxf4g1XxHqFrpkVxc3cWnW95rF3e3UNjDc3t3PFaJKIY5bmeRUDzSFvrz9lL9gD41ftRXPh3xBBpd/4L+DWsX+u6defFS6ttHvobWfRdOu5lk0vwvfeItA1vxDZXOtw2/hx9S0lJ9Ps9RkvVkuHm0jULeL+1+F/CvgLwpy2nxNxZjsHic0wM/rH9sZhVnSwmExFKEq0KGT4BNSxGLlGjKpQh7LF5lWqRlDCxXM6Uv8AILxG+kt43fSYz+t4eeF2T5rl3DecUngXwtkmFo4nM8zwOJq08HWxnFWdShOOByyE8XCjjKyxWWZFhaE6dbMptwVeHxp4Y8LeJvG+vWfhnwZ4d13xf4n1M3J0/QPDelX+u65qDWtrPf3htNM02C6vro29lbXN5cmGF/KtoJ55NscbsP1L/Z3/AOCR3xr+K+l6prHxb1K++Alp9h8Oaj4Ti1Pw9pHi3U/EdvrMF/c38eo6NZ+NtH1bwle6JHDpi3Wna/ZW9+0+pPby21tcafcxD9yf2a/2HfgN+y/ZY8GaAPE/iWLXdR13T/iB460vwpq3j3RTqmjWmhXek6J4m03w3o19p2iPZW9ziwiYkvquqiSaSO8eMfYFfmnHP0lMyxNStgeBcPTy/C2ppZ3j8NDEZhKcK3POWFweI9pgqNKpSjCjJYzD4qpyzruEac/Y1af9C+DX7Pnh3AYfC5z4zY3EZ7mblXlPhHJswq4LI4UquFVGlTzLNcF7DNsXiMPiJ1cVB5Xj8voudLCKrPEUXisNV/FLwV/wRM+Dlhpc8PxE+MHxK8Ua01/LJbX/AIPs/DfgjTYtNa3tlhtJ9K1iw8eXM97HcpdzPfx6vbwSQz28C6fE9tJcXPkH7UH/AAR90HwT8Mda8bfs8eJfiT4v8U+F7GbUbn4f+IYNA8R6l4vtxfaYs0fh670ez8JyWF7pOk/21qZ05NN8RX/iOeGz0rSbaC+eNLv+gyivy7B+N/iVhs0w+ZV+JMRjo0cTTr1svr0MHDL8XTi0quGqYbD4alTpUq9Pmpylh1Rq0nL2tCdKtGFSP9H5r9Dv6PWYcOY7h/CeH2X5PPE4Ctg8JneBxeaVM8y2vOMvq+Y4fMMZj8TWxGKwlfkrxjjpYrD4lU/q2Mo4jCVKtCf8DWq6VqmianqOi63p1/ouuaLf3ematpOp2lxp+qaVqmn3Elre6ff2V0kV1ZX1ndRSQXNtcRxz288bxyojqyj+pb/glf8AtU6t8fPhPefDTWvCNlod5+z54V+HHg+PxBp+qXFxB4q065tPEWlaRPLpFzamXSb6w0nwnZR6lKNW1GHVdQuLm9toNKtzFYR/kJ/wVP8Agz4m+HX7U3i/x7P4SsPDngD4tX0GqeCr/TptDjt/EGp6N4T8Hr481CTStMunv7G+l8U6tcXWo3er2NlNq9/e3OoxveGaa4PQf8ElfjL4a+FP7R+q6L4y8W3+gaL8UfClp4J0HSI4dcvtM8RfEfUfGXha18IW93Y6Ta3ltFexW154gt7DWdVit7PTINQ1CJr+1S/lWb+pfEjCYLxK8HocQ4TCQxmYQyrBZ/lawdStjKmBxnNhnm+DgsHNqvWoUI4/LsTSrQqRw9enOVWlTr4dSpf5tfR/zPOPo9/StrcBZpmdbK8jrcSZvwRxDLNaOGyujm+Vyhjlwtm1WWaUoywmGxeMlk2eYDE4WrQnjcHiKdPD162ExzhX/qqooor+AT/cMKKKKACiiigAooooAKKKKACiiigAooooAKKKKACiiigAooooAKKKKACiiigAooooAKKKKACiiigAooooAKKKKACiiigAooooAKKKKACiiigCVOh+v9BRQnQ/X+gooAjbqfqf50lK3U/U/wA6SgAooooAKKKKACiiigAooooAKKKKACiiigAooooAKKKKACiiigAooooAKKKKACiiigAooooAKKKKACiiigAooooAKKKKACiiigAooooAK/FL/gtp400qy+Dfwh+Hc1vfPrXij4kXvjCwuY4oDpsWm+CPDd/o+qwXczXKXMd7Pc+PNIexjitJoJYLfUGuLi2eK3juv2tr8A/+C5Gd/wCzJj/qr+fp/wAWzr9a8C8NSxfitwjSrJuEMRmOJik3F+1weTZji6LbX2VWoQcl9qN49T+ZPpj5hict+jb4nYjCuEalXBZDgJucVNfV804syHLcWkm1abwuLrKnPeE3Gau42Px7/Zq0vTNc/aM+AGh61p9jq+j6x8Zfhlpmq6TqdpBfadqem33jLRrW9sL+yuo5ba7s7u2llt7m2njkhnhkeORGRmB/t/AAAAAAAAAAwABwAAOAAOAB0r+I79lf/k6P9nD/ALLl8Kf/AFOtCr+3Kv1P6VcpPPuE4OT5Y5Rj5KN3yqU8bBSko7JyUIKTWrUYp/Cj+cv2bUKa4L8TKihBVZcUZPCdVRiqk6dPKasqcJTtzShTlUqyhFtxjKpUcUnOTZRRRX8pH+lAUUUUAfKH7TX7G3wV/aj0y4n8deGLEePrDwprvhzwZ8QI31iHU/DFxqcEzaZfXVno2taFH4ostB1aX+1rDRNduLiwjnl1CO3FqNV1B5/5TP2nf2a/Hn7LnxO1n4f+L7W/1DRY76aLwh49XQtV0jw7430xLHTNRN1o0+oQi2uL3TbbWdOtPEdjp99qcOiay8+nnULyNIbu4/tir8YP+Cu3xr+Atv8ACq5+EGqWOheLvjbqbQjwrfadbeE9c1n4UGx8QeAvEOtjXbmfUl8T+CT408MlYdOFhYOfEFvbvHc7bKIS1/RvgH4h8V5bxLlvCdOOPz3IMxn9Xll7nKssjhKpGdTNcJOpzfVcJhU6lXGYaE6eHrQqVJxg8W6Tl/B301vA7w0z3w/z/wATcRUyXg3jTIaTxsM9VGGFlxfWhRdKjw5mVKhyPMs0zHko4fKsdOlXx2Gq0aFKdaOWLEqH4efCX9rP9pL4GW0Wn/C/4v8Aivw/ottYX2m2Xhq7uLfxH4U0631LUV1a9k0vwp4mt9X8O6ZfXGoiS6fU7DTbfUA91fBblUvrxZ/D/FPirxT4216+8UeNPEeu+L/E+qNbjUNf8R6pe61rWoNa20NjaC61HUJrm8uPs9nbW9nbiWZxDawQW8QWOJEGMjAgDoQAOT3+vfpXefCzW/DPhf4p/DXxR420geIPBnhzx74S1zxZoRsLHUxrPhvStesL7W9LbTtTlg02/F/psFxafY7+aKyuRL5N1IkLu4/t2plWWYGeYZzl2T4JZnXw9WeJr4TCYahmGZOnzVoYerio041asp1b8qrTlH2s+Z66n+PEeIOIM/oZFwtnPFmby4cweOw9LAYPNc1zHGZHkMcQ6WEq43C5bVr1MNhIUMMl7R4WjTm8PS9nH3Uon7RfsHf8EtdG8UeGoPit+1FoN7PZ+IbHXdN0b4Na1p3jPwbr+gz2WuWVtYeKdf1G21fw1qlreXEel61HaeH20680660XVtL1o6k08os7b97PCvhLwt4G0Gw8LeC/Dmh+EvDWli4Gm+H/AA3pVjoujWH2u6nvrr7JpunQW9nbm5vbm4u7gxQqZrqeaeUtLK7s3wn4t8K+OdAsPE/grxFoXivw1qSzDTtc8N6rYa1o939kuJbO6S11HTLi5sp2tLu3ntLhYZn8i5glgfbJGyjo6/zM44444m40zbFYjPsVioUqeKqvDZJKpVp4LKeWUqaoUsHJQhGvSgvY1sRUpLF1nFuvOUtF/wBC3g34N+HfhHwxl2B4IyzLauIxGW4VZhxdCjh6+b8TOdOnWljcTmsXWq1MFiqv+1YXAUMQ8twkaiWDowh70iiiiviD9iCiiigD8Yf+C2HhbQrv4DfC3xrPYmTxLoHxXj8N6TqIuLtTa6L4p8KeIdS16z+yJOtlN9uvPCPh+bz7i3lubf7B5drNBFc3aT/z8fBPxnpfw6+M/wAIviDrcF9daN4H+JXgfxdq1tpkcE2oz6b4d8SaZq17DYRXVxZ20t5Jb2kiW0c91bQvMUWSeJC0i/0Tf8FqTj9l3wIf+q6eGv8A1BfiMa/mOjGZIOn+th6+m5c1/f8A4A0lj/CmjgsTOrUoVcbnuD5Od3p4bEVX7SnRbv7NOVatUSjaKq1J1Lc0pN/4d/TfrvJfpNVs3y+lQoY6hlXBma+0VGFq+OwWHpqhXxSSi8RONPCYag3Ubk6FClR5vZwhGP8AfcjiREcZAdVcA9cMARnBIzg84J+tOqG3/wCPeD/rjF/6AtTV/AL0bXZs/wBw4u8Yt7tJv5oKKKKQwooooAKKKKACiiigAooooAKKKKACiiigAooooAKKKKACiiigAooooAKKKKACiiigAooooAKKKKACiiigAooooAKKKKACiiigAooooAlTofr/AEFFCdD9f6CigCNup+p/nSUrdT9T/OkoAKKKKACiiigAooooAKKKKACiiigAooooAKKKKACiiigAooooAKKKKACiiigAooooAKKKKACiiigAooooAKKKKACiiigAooooAKKKKACvwy/4LeeCtUv/AAJ8CPiJDPYrovhfxZ4u8H39tJLONTl1PxtpWk6xpU9pCts1tJZQW3gPV47+Sa7gminudPWC3uUluJLb9za/IP8A4LTBj+y94F2qzY+OfhsnAJ2qPA3xFyxx0UDqTwOM1+o+C2Kq4TxR4Pq0nFSnmNXDScldeyxmBxeErK11aTo15qL+zJqWtj+dPpa5fh8y+jp4p4fEqcqdLIsNmEFCThL6xlec5ZmWEbaTvCOKwlF1I7TgpQdlJs/An9lcZ/ah/Zwb/qufwo4/7nnQj1r+3Kv4Rfh34x1T4d+PfA3xB0SCxuta8DeLPDni7SbbU455tNuNS8O6tZ6tZw38Vtc2dzJZy3NpGlzHBdW0zwl1iniciRf7tonMkUbnALxo5A6ZZQTjJJxk8ZJ+tfsX0rcNVjm/B+Maj7Cvl2a4am1K8nVwuJwlWqpR6RUMZR5X9puS+yfyv+zXzDDVOGfFPKouf1vCZ7w3mFZOLUFhsxy/MsNhnGe0purleL547wSg38aJKKKK/kw/0zCiivDv2lPjBa/Ab4FfE/4rz3GnwXvhHwnqN54fj1Wz1G/0698WXappnhDTL+00lo9QkstU8UX2kaddvDPaLbwXTz3F9Y28ct3D14DBYnMsdg8uwdN1sXj8Vh8FhaUU3KpiMVVhQo00optudScYqyb10TPMzrN8Bw/k+a59mteGFyvJctx2bZjiakoxhh8Dl2Gq4vF1pSnKEFGlQo1JtylGNlrJLU8w/be/aOs/2bvgF458U6Zr2g2HxKvtBuLH4b6LqGtaNY61f6zf6jpWgS69oejarbaifEQ8FHXrbxNqOnJpd5bT21kLW/e0trprmP8Ajr8VeJte8b+KfEfjXxTfNq3ijxdruqeI9f1AW9tam/1rXL6fUNSultLGC2s7f7TeXMsgtrO2gtodwit4I4lSNfTvj7+0J8Tv2l/HjfEX4rapY6hrUNi+j6PaaXpdlpOl6D4dXVdU1iy0HT4LWIXNxaadc6xex215q93qmsywGJb7VLx41kr76/4JzfsIfE74nePfhR+0X4hisNC+DXhjxXa+L9Jvhr1iPEHi7UfCGq60llBo2lW1lrZhsdP8aeG7Cz8SReIh4emu9GuZ30Ge5mZbi3/vPg3hvJfAzgnMM24jxmWyznFe0rYvExnGlLE4iOGdTBcO5bWqQ9viU5YerVgoUOepWqYjEypeww8XT/xP8WvEHi/6ZnjBkfCvAOV59DhLLXQwuWYCVKeIhl+CqY+GHzfjziDC0KrweAcYY7D4epKri/ZUMLRwWCp4j65jJxrH7Mf/AASb+IHx9+GWj/FPxb8SLH4WaR4ssYtT8IaNJ4O1fxB4ivNON7qlob7XLHUNQ8I2+k2WoW9pp+r+HbrTrzXoda0bVYb8mzQQrc/Df7Qv7NnxR/Zj8c3XgX4k6USqmIaN4w0ux11fBfizdpelapejwtres6Pow1htGGs2lhrK20Df2fqSy2shIEckn9t4AAAAAAAAAGAAOAABwABwAOlfOH7Vv7PPhr9pf4NeJ/h9relWGpa5Bp+s6z8OrnU9V1rSNP0L4jL4b1vSPC2u38+hSrcz2Wn3Wru91aXNtqdlLCzPNpl28USD8i4W+knxHDiudXiSNCtwtmOJ9ksuw9DC06uRUalS1Gvh8ZGlh62N+rxa+tLG1Je3ip1KX1eXLB/1b4ifQB4Dl4ZUcJwBPF4XxGyLL44ieeY3GZlXw3GOMoUObF4XHZXPFY3C5T9dqRm8ueU0IPCVHSoYn67Bzqn81f7DH7efij9kjV7jwzrWnX3jH4N+IdQmvtU8J6Y+iadqWj+ItWuvDNlfeNNPv7nR59R1e7svD2hy2Nv4XuNc0fR76e5WeS8sZ1a5P9cEUqTRpLGQySKHUgg8EZ6qSMjocE4IIzX8KnxN+GHjn4N+ONd+GnxL0UeH/Gnhs6eNY0gahpeqi0Gq6XZa1YEX+jXmoadOLjTNRsrkC3u5TEJvJnEc8ckSfsr/AMEkf2vfFK+K9J/ZR8ZahoX/AAhX9heMtX+GtxJpF/8A8JL/AMJJ9utvE974ZbVrGX+zP7F/s3/hNvEYn1ux+2i9xYRa35P9maVX2/j14YYHPspfiLwpHBSrUcJPMs7lg26lHO8qnh6dajm+Gq0J1MPUq4WjB1KlSnStjsJiHiamJX1SEa35H9C/6RGccGcSrwJ8S6mbU8Ji8xo5DwhDNYxw+K4S4kp46tg8Twvj8PjKNHHUcNmGJrKhRo18TzZRmWCjgKGXy/tOpLCf0NUUUV/E5/rkFFFFAH5Af8Fqf+TXPAvt8dPDR+v/ABQ3xFH9a/mc0fS9T13WNF0PRNOvtY1nWNU0/TNK0rTLWe+1HUtRvbmK2srCwsrWOW5vLy7uZY7e2treOSaeaRI40Z2VT/Qp/wAFvfGmqWXgT4EfDqK3sW0TxT4s8W+MNQupIpzqcOpeCNK0nR9KgtJluUto7K4tvHmrvfxzWk80k9vp7QXFskVxHc/ix+ymrH9qH9nHarNt+OfwqJCgnao8c6FlmwDhRnkk4HUn1/v7wMdfK/CClmMoU5rn4izPDQcmlUhha+IpctRpXhzV8HVhZXfLaS1Z/h79MuOF4l+lXVyCFWtS/d8B8PY6rGmnOhWzHB4DEupQUvdq8mDzXD1It2i6nPTfwSZ/bhACIIQQQRFGCCMEEIoIIPIIPBB6VLRRX8AvVt9z/cFKyS7JL7gooooGFFFFABRRRQAUUUUAFFFFABRRRQAUUUUAFFFFABRRRQAUUUUAFFFFABRRRQAUUUUAFFFFABRRRQAUUUUAFFFFABRRRQAUUUUAFFFFAEqdD9f6CihOh+v9BRQBG3U/U/zpKVup+p/nSUAFFFFABRRRQAUUUUAFFFFABRRRQAUUUUAFFFFABRRRQAUUUUAFFFFABRRRQAUUUUAFFFFABRRRQAUUUUAFFFFABRRRQAUUUUAFFFFABXz/APtXoH/Zf/aKGwOw+B3xVZBt3EOPA2u7SowTuyflwM5OB1rvfih8VvAPwZ8Ea38RfiRr8fh7wf4dOnjWNVFjqerNZnVNVstFsR/Z2iWeo6pOZtS1C0tiLeym8rzTLN5cEcsifmL8VP8AgsX+ztoVn4y0f4ZaZ468b+I7bQb4eDPEknhO2tvh/qfiOfRjPpI1SDWfE/hjxiui2mryxWOuAaHZXrR2962m/aImtbqb7fgvhLi3PcxwOY8P8O5lm1DAZlhalTEUaFSngY1sLXwteeHq5hKm8NSqqFWjOcOadanRqKt7GUFc/IPFjxO8MeDsjzjIuN+O8g4ZxudZBmFGhgcVjMPXzqeFzHCZhg6WOw2R060cficO6uHxVKjWcKOEq4qhLCPFU6zSX8yMTOiq5GHTnDA8MhPDDIPBGCMg9uK/tF/Yz+NviL9oD9m74c/FrxrbeHtK8TeKV8TrqNj4divLLR4BoXjHxB4ds/sltqeparexmSx0m2luPOv5w9zJM8flRMkSfx0+PfGeqfEbxz4y+IOt29hZ6z458VeIPF+rWmlRTwaZbaj4k1a71i9t9Ogubm8uIbGG5vJI7WKe7uZkgVFlnlcNI3IqZEwBPIqgnCh2VRk5OAGGMnk+5ya/vrxO8MqfihkuTYTE4ylkWZ5bili44xYR5tKjTxGFlTx+W00sVlylTrYiOEqyxF7yeBp2pRVRuP8Aip9Hn6QeI+jtxZxTmWX5XiOM+H8+y6WVzyqWZrhqGLxGBzGFfJs+rt5bnsoYjC4KWZ4engeW1NZxX5sTJ0Uqn9lPxP8A29v2Ufg3451r4b/Eb4pr4f8AGXh7+z/7X0hfB3j3Vxaf2rpdlrNhjUNE8L6jplx5+m6jZ3H+jXs3lGXyZdk8ckafOfjX/gsD+yN4W1SDT9Cf4k/Ea0msIruTW/B3g+Gz021uJJ7mFtMni8dax4M1Zr2GOCK5ke30ufTzBd26xX0lwtzBb/ywPIhYs53OerEbmOBgZY9eAAOemO1OXJUOkUrKejJEzKcEg4IGDggg88HI618Jl30YOAsLDDyzHMuIsyrxoQhib4vBYLB18TyRVWtQoUMC8Vh6cqilOjQnj8Q6UJKFStXcfaS/ZM9/aIeM+Y1sbDIsg4GyDB1MbVq5fbLM1zbNcLgPbTlhsJi8Zi84jl+OrxoOnSxWMpZLgY4irGVahhcHGaow/ot+KX/BaX4Y/wDCC63/AMKX8B+O/wDhZP8AxLv+Ec/4WV4a0L/hC/8AkK2P9qjWf+Ea+I39tf8AIF/tH7B9j4/tL7H55+zedX47ftS/ti/Fz9rvVPCV/wDEyDwrpNl4KsNRtND0Lwdpd5p2lx3Gs3FrPq+p3Emq6prerXN7fpp2k2zpLqZsLeHTLdrKxtrie/nvPlcyqcqNwYEgggqwIPIIPII6EVueFfDGu+N/FPhzwX4XsTqnibxbrmleG/D+mi4tbQ3+s61fQadptobq+ntrO2FxeXMMRuLu4gtYQxkuJooleRfv+G/C3gLgWo8wyrK6cMZhXiMRHN8yr/WcVg6VXDKjiFTxNXlhQoLDxqcztFwjVrtzUakkfg3iN9JHxq8ZKK4e4h4ixFbK8yjgMBU4XyDBrAZdm2Iw+YPF4F18vwqqVMbjZY2eH9nHmkqlTDYNRpOpRpyMAruBX1Ffo38Bf+Cm3x8/Z4+FPhb4P+C/Cfwo1Pw34S/tn+zr3xLoviu71qb+3Nf1TxFdfbLjTfGmk2Unl3urXEUHk6fBttkhSTzJFeV+w8E/8Eg/2vPFGlz6hrcXw2+HN3DfS2iaL4w8XzXupXcEcFtKmpwy+BdI8Z6StlNJPLbRR3GqQX4ntLhpbGO3a2muOx/4cv8A7Un/AEPPwK/8KPx3/wDO7rzeIONPBjPsOsq4l4h4ZzfDYbFwxUKFTESxWHhiqdKrRhWp1cMpUqko0sRWgpU6k4WqTWrTt9LwB4Q/Sy4GxkuJeAuB/EDhnMMwy2pl9XGYfAU8vx1TLq+Jw2KqYTEYXMXDE0IzxOCwtWVOth6VXmowdlG9z/h9B+1J/wBCN8Cv/Cc8d/8AzxKT/h9B+1J/0IvwL/8ACc8df/PFpf8Ahy/+1J/0PPwK/wDCj8d//O7o/wCHL/7Un/Q8/Ar/AMKPx3/87uvkf+OZP+qO/wDLvy/4H4+Z+r/8fCv+rp/+Yvy+f/Du/U/OH47fGTxX+0L8WPFPxg8aWOhaZ4k8Xf2L/aNl4atr600WD+w9A0vw7afY7fUtS1a9j8yz0m3ln86/uN908zx+VEUij8pO9SrxMUlRgyOpwysORg/45HUEEE1+un/Dl/8Aak/6Hn4Ff+FH47/+d3XyF+0j+xH+0B+yzZjXfiXoehXHgufXdN8N6Z438M+IbDUtF1fWdT0e61mO0s9Oun0/xZbiCHT9Stp7jVPDmn232qwlWGaaGeymuv1Lh3j3w4xjwHDvDvEmRzdHDUcFluWUcSqTeHw1OnQoYTCwxCputKnSjCEKFN1KzhCUlFxhOUf5x478F/HnKY51x3x3wFxfRhi8fi82z/iDFYB4iMcbj61bG4zMsyq4J1lhKdbETqVK2Mrxo4WFepCnKpCpVpQl9zfBf/gst8W9K8R+EdN+OPhjwnrnw+07T5LHxXrXgrwxeRfEbVp7XQrqDTtStor3xtpXhCO9vtdjsLnWI4dM0+wWzkvxptlasLaCP7P/AOH0v7L/AP0Ifx1/8JrwL/8APGr+ZMkAZ7YzTVcv9yOVxnBKRswBxnBKg8gEEjtkZr5nN/ALwyzbFLFyyarltqapuhlOLngcLKXtKlR1XRjGcFVk6vI3HliqcKcIxSir/oPC/wBNX6QnDOXSyynxXh8/i67rxxfEuWUc5zGnH2FCgsPDF1JU6jw8FQ9qo1OebrVa9WdSUqjt/W5pX/BVH9iPUNK03ULz4r32hXV9Y2l3c6LqngD4gS6npFxcwRzTaZqEuj+GdV0mS9sZHa2un0zU9R095onazvrq3Mc7/dXhTxh4b8beF/DvjLwzqkWpeHPFmh6V4k0DUDHPZm+0bW7GDUtMuzaX8Vte2pubK5hmNveW0FzDv8ueGKVWRf4OHZUbbIjIxGcSIVJGTzgjJGQecdQfSnmZioVZpFGMKFdxhQMAAAjAAxgdh2xX59m/0V+G8RGm8h4mzjLJ+0nKq8yw+DzijKk17lOhDDrJ6lJwle9SrXxPNC0XDmvN/t/C/wC0g4/wNSuuMvD7hXiCj9XpU8Ksgx2acK4qGJjJe1r4ytjpcVUMTCrBaUcPg8AqdRuSqOFqS/Y3/gsn8bPCnjv4r+B/hDo9lrkPiP4J/wDCRHxTf3tvp6aHqH/CwtB+HviLRv7BubbUrq9uvs1nayQ6l9usNO8m6Kpbfa4yZRg/8EXdj/tR+OVZVbZ8DfEbjcAdrL46+HQDDOcEZ4IwR24r8iSMMzFmZjjLMdzEAADk5J4x3r7p/wCCfH7TXgT9k/4zeJviN8QtI8Wazous/DfV/B9tbeD7LSb/AFJNSv8AxJ4T1iGeeHWNa0K2WyW20K7jkkS7kmE8luq27o8kkX3ec8DVsl8Hsx4GyCGIzXF4fI62Fw6jDkr4/G18V9cxlWnRlVmqMcRi6uIrU8O61RUKc1RVWooKT/C+EfGTDcY/SwyLxi41q4LhrLcbxjhcxxjq1XUwmS5RgMtWVZXhq+Khh6LxUsFluFwWFr41YWhLGV6c8U8PRdZ04/2D0V8AfCz/AIKa/sj/ABVu/B+h6f4113w14y8b67ZeG9H8E+JvBviRNZj1nVdY/sXSLO91LQdP17wlANUnktbiC4TxJLa29rdwtqE1nMlzBb/fysrgMjKynOGUhgcHBwRkHBBB9xiv8/c64dz7hyvHC59k+ZZPXqe0dKGY4OvhPbxpTdOdTDyrQjDEUlNcvtqEqlKWjjNppv8A3L4T464M47wU8x4M4pyDijB0fYLEVsjzXB5l9TniKSr0aGOp4atUq4HEypNTeFxkKGJhqp0oyjJJaKKK8Y+qCiiigAooooAKKKKACiiigAooooAKKKKACiiigAooooAKKKKACiiigAooooAKKKKACiiigAooooAKKKKACiiigAooooAKKKKACiiigCVOh+v9BRQnQ/X+gooAjbqfqf50lK3U/U/zpKACiiigAooooAKKKKACiiigAooooAKKKKACiiigAooooAKKKKACiiigAooooAKKKKACiiigAooooAKKKKACiiigAooooAKKQkAEkgAAkknAAHJJJ4AA5JPSvxT/AGyf+CsMXwo8YwfD/wDZysvh18Tpbaw0vUdf+IN1rGpeIvC1tc3seqG78L6XZ+HZ9GttQ1C1tjoOpP4hsPFmoWFrJc3uh3GmDU7W5ez+q4R4M4h44zN5Vw7gZYvEQputiKs5xo4XCUU7e1xOJqWp0lKXu04tupVl7tKE2ml+ceJ3ixwN4QcPriTjrOIZZgqteOEwWHpUqmLzLM8XJc31fL8BQUq+JlTh+8r1Eo0MNTtUxFWlGUW/vz4o/ty/so/B3U/7E8cfGnwpBriXusaZd6P4f/tPxrqWkapoM0Vtqem+IbPwXp/iC48N3tvdTC2Ftr0WnzTTw3kdukr2N4sP4F/GX/grP+0f8VvDni/wZoemeFPhfoevahDJo3iDwVc+M9N+I2gaXY67batYW1v4vtvFVnbSXs9rZxaVrN7B4f0+HUrO4v0j0+xS6WKH8x9W1PUdc1XVNf17UbzVta1rULzVtX1XU7ue91DUdT1G4kur6/vr26kmubu7u7qWWe5ubiWSaeWR5JXd2LH7p/Zl/wCCd/x//aI1Dw1qt/4Z1z4bfCfX/tTy/E3XNK09jDaHw4dd0XVNI8I6tr/hrX/E2i69LcaVY2Ot6PHPpLfb5bmO8nXT7yKP+0sl8IfC/wAL8DLPuLcdh8fXoxoYn65n9TDxwuHxWBdXFOOT5fSpQrYmvVfIlhX/AGjisTKhShh6UXVnRqf5K8WfSg+kV9InOYcGeGeT47JcFip4zA/2TwVQxs8xx2X5zHD5cqnFWeYmvVw2BweGTrS/tCm8iy7L4YzEVcdiakcNRxdD4Y1bV9V1zUtS1nXtX1LWtX1m/utT1bVNWvrm/wBQ1PUr6d7u9v7+8upZbi7vLu5kkuLm5nkkmmndpZHZ2LH2rwr+y3+0p42PhuTwt8Bvivqlh4t/slvD+uf8IN4hs/DV/aa55B0vVP8AhJr7T7bQLbRLmK5huv7bvNSt9Jhsn+2z3kdorTL/AESfBr/gkn+zn8LPE3hLxnrureLfihrXh+wmj1bQfG1r4N1H4ceItSvtDutJvru48HXXha8uYrKK5vJNV0ewuPEF/Npl5b2DS6hfvatLN+nuk6Tpeg6Xpuh6Hptjo+i6PY2ml6TpOl2kFhpumabYQR2tjp+n2NrHFbWdlZ20UVva2tvFHDBDGkUSKiqo+a4r+k7lOAlRw3BOUxzSEabVTFZnTr4DC07e0p06VDC0+SvJQUKVS83Si6c1TShODt+geGn7PLibOoYvMPFziafDladeLw+W8P18HnOY11JUK9fEYzMayrYKnKpKriKCjTWJnCvQdeTrUqsL/wAT/wAcP2Y/jn+ze3hhfjP4IHg7/hMjrH/CO/8AFReF9eOof2D/AGZ/av8AyLWtax9l+y/2xp3/AB+fZ/O+0fuPM8qby+N+DHgvTfiP8Z/hH8PtbmvrfRPHXxL8D+ENXuNMkt4dQt9M8R+JNN0i+msZbq2vLaO8jtruV7Z7i0uYVlCGWCZA0bf0q/8ABW34NeJvin+zlpWu+DPCVhr+tfC/xZd+Nde1eSbQ7HUvDnw407wb4pu/GNzaX2rXVncy2UtzZeH7i/0bSpbi81Oaw0+VbC6ewiMP8uWkarqWh6rpOu6NqV9o+r6LqVjq2l6tpd1cWOpaZqGnXMd1aX+n3tq8d1aXlncRR3Ftc28iTwzRpJE6uqmv1nwx44xviRwNWzKrUy/BcQJ5lgMVDLnONHBYlussvxCw1TE4rE0IyoToVUq1WUqtSnVqU7U3GMf5n+kH4QZT4CeMeFyDDUM7zfglrIM6y2rnypPFZtgFHCyzvAyx+HwOWZfjJQxlPGYeU8Jh6cMPQr4ejiG68KlSf9rK/snfsuqqqf2c/ga20AZf4U+BWY4GMsf7C5Y9Se5Jq3468a/AX9lD4YR6x4kfwd8Jvhvo94mmaVp2kaBHY6aNV1q7ubxdO0Hwx4Z06S6vLy8upL/Vbu10fTJplt49U1i7VLW1vruLs/hT8UPBHxm8A+H/AIkfDnWz4j8HeIo74aTrJ0/VNLN42k6leaLqObHWrLT9ShMGp6de25NzaReb5XnRGSGSOR/wH/4LGftI3niHx3pv7MekjQrvw14KHhTx54mvP7N1mDxLpvj660vxPHBo39oXF3Fo93osng7xPomqkWOmXMi3l75T6qskFzYw/wARcEcM8Qce8Y4bhLOcbniw+Dr18RnlHE4rErFZdQwFRYbGN0sdGvDDYynWqxwi+sUHKnWq+zlByfs5f67+MXiLwR4JeFGYeJ/CuU8HPHZpgcJgeDcVgMvwEsuz7G51QePyqCxWTzwlbH5VXw2Flmc3g8YoV8LhVXhVjTiq8Px2+IHjHUfiL4+8cfETWYLC11Xxz4t8ReLtSttLhnt9Mt77xFq13q93Dp8F1cXdzDZxz3kiWsVxdXE0cIRJJ5XBkb9xv+CTP7GAM2nftU+Pl8deG/Emga9f2nw18MX2jf2FouueG9c8CiCXxlPPq2ny3viPRtas/GDL4eutFfTLK3utEmuTf6vHc/ZrL8mP2Uv2etT/AGofjb4b+Edhqd74fs9Sstc1fXPFNr4cn8T23hrTNE0m7vY73VNPhv8AS4o7HUNWj0zw+t1dalZwJf6zYxBpriaC1n/tT0bR9M8PaRpeg6Jp9jpOjaLp1lpOlaXplpBYadp2nafbR2llY2FjbJHbWdnaW0UcFta28aQwQokUSKiqB/RH0guPVw3k+E4FyOqqGLzbASjmSpKSeDyK31SjhVKdKVNrMowxNCcadRV6WHw8nUUIYmk6v8F/QX8En4gcV5n40cY4aWMy3hnO4T4feJlBwzXjNS/tTFZlKnTxEMRGXD862XYyjVrUHg8RjsbBUXWrYDExw+lRRXP+KfFnhbwPoV94n8aeI9C8JeG9M+zf2j4g8S6tYaHoth9suoLG0+2apqU9tZW32m9uba0t/OmTzrmeGCPdLKit/E9OnUrVIUqUJ1atWcadOnTjKdSpUnJRhCEIpynOcmoxjFOUpNJJtn+wNevQwtCticVWpYbDYelUr4jEV6kKNChQpQdSrWrVako06VKlCMp1Kk5RhCEXKTSTZ0FFfCGq/wDBTH9iPRtV1LR7v44WM13pV/d6dcy6X4P+IOtabLcWU8ltM+n6zo/hS+0nVbJ5I2a11HTL27sL2Apc2dzPbyRyt6B8MP25P2UPjDqjaH4F+NfhS51pr/SNLs9I8QjU/BGp6xqeuzzWul6f4esfGun+H7rxHe3NzCbf7LoUWoTQzTWkVwkT3tos30mI4J4ywuFnjcVwlxLhsHThGpPF18izSjhoU58vLOdephY04wlzR5ZSkk+ZWeqPgMF4veE+Z5jTyjLvE7w+x+a1qs6FHLcHxnw7isfVrU1Jzo08HRzGeInVgoTcqcabnFRldKzt9X1478fPgn4W/aJ+FHin4P8AjO/1zTPDniz+xzf3/hu4sbXWrdtE17TPENo1lcalp2q2cfmXmlW8Vx5tjMXtJJ44zFI6zJ7FRXg4LGYrLsZhMwwNeeGxuBxNDGYTEU2lUoYnDVY1qFaDaa56VWEZxumrxV01ofaZtlWXZ7leZZJm+EpY/Ks4wGLyzM8DXTdDGZfj8PUwuMwtZRcZOliMPVqUqijKLcZuzT1P4b/jn8HvE/wI+KPi74Z+KNO122Gg65rll4e1jXfD1/4aPjHw1pmu6noul+MdJsb4yiXRtdGlzXNldWd3f2LlZYoL25ETOf1k/wCCSX7VHwt+FmhfED4NfFnxl4Q8DW2t+K7Hxf4F1HxEl3psOp6nf6BdWfi231bxRdsfDGk2VhZeFPDZ0iLVZ9Inu9Q1K7tbW41O4uLa1tvu7/gqb+zj/wALh+AF54x8GeDBrvxX8C654VvtPk8OeCP+Ek8e+J/DTahf6Fd+D7S/02Jtfg0Wwl8XXPjG4t4Vv7JH0WaSSwjad9Qtf5UDuyjhR5kThirA8MhztYcHqMEZB6jg5x/oNw9j8r8fPDHEZfmtSrgcbCvQwmZSwc6TxOEzTAfV8VQx1KnUpOn7DGxtzQ9moTpVMVh6dWjVg50f8P8AjjJeIvoV/SFwOdcN0cPnGUVMHi80yCnmlPFLAZlw9nKxuXY3JsTWoYpV/rmVSi1Co68qtLEUcux2IoYnD1o08V/c14x+B/wW+I+p2+ueP/hL8NPHOsW1hFptrq/izwP4Z8R6jBpsU1xdQ2MF9q2m3lxHZR3F5dXEdtHKIFmuZ5VQPNIzfln/AMFP/wBj34DaR+zhrvxg8F+B9D+HHiX4W/2b/Ztl8O/DvhTwnoviT/hM/Gfgvw7d/wDCX2+meH473Vv7JspLiXQ/J1Cy+w3N3dvJ9oineI/od+yj+0H4Z/aU+C/hb4gaFqljqOs2+naNofxCttM0rW9J07QviLF4a0LV/FOgWEOuxLc3FnptzrESW13b3Wp2csLosWp3jxyyV+af/BYb9pX/AIR/wPpH7PHhTVfAut/8LAN8Pinpn2z+0fGngz/hGNU+H/jDwYfsdhrMP/CP/wBv+bPP/wAT7Sbr+09Nj8zTfI2NcH+VvDPD8a4TxO4f4do4rNcLiMpzqEczwFXE4qnh6GWYGbnm9OrQqXpQo18BGvRpKdOMas8RRhTlGdanI/0d+kLj/CPMvo68dceYzLeGsywPE3CNSXD+c4bAZbXx2N4hzilChwxWw+Nw/wDtFXFYPO54LE4mVPEVZYWlgsVVxEZ0cLXgfzkBtsYJznH4/wCcV9Xz/sR/tYW/gPwp8S7T4I+K/EPg/wAbWGiap4cvfBzaZ411O903xDpJ1vStQn8OeE7/AFnxHptjcacFkkutT0mzgtJ5bezu3gvLmCCTnf2S/AGqfEn9o74OaBZ+Cb7x3o1r8SfAWq+N9Jt/D0/iXTbfwPD4y0G08Q6h4msY7S8tovDEVterb6xdanENMSG5WK8cJKFf+1fSdJ0vQdL03Q9D02w0fRdHsLTS9I0jS7SCw03S9NsII7Wx0/T7G1jitrOys7aKK3tbW3ijgggjSKJFRVUf034u+MGN8OMfkuAynAZfmOJxtKti8fHHSqtU8LGSp0qVL6tiKVShiKk/3nta1OtTlSTUafNeS/zs+ir9FbJ/HnI+Ls+4mzvPMiwWVYjDZXktTKKWGi62Y1ILEYjE4j6/gsRRxuCo0f3EqGFr4StDENOdfl9x/wAKXjTwB46+HGq22ifEPwX4r8B65c2MWq2mk+L/AA/q3hrVJ9OluLm1g1G3stYtLO6ks5Lqzu4IrpIjC09rcRq5eGQL7b8Cv2vPj3+z3r3hfU/BnjvX9U8OeEv7Z/s74Z+J/Efiy9+Gc/8AbdpqkF19t8Jad4g0mzk8u81a41u38l4Nmtxw6g/myKwf+uH4w/s5/Bv456Vrln8Q/APhXV9a1nwnqXg+28bT+GfDd9438N6ZfwahHDP4Y8RaxpGp3Ok3uk3Op3ep6PIiyQ2OqSG8W3Z2kD/it8d/+CMmqeHtD8U+JvgH8Qdd8bX9r/Y3/CLfC/xNpXh221rUfPutLsda+2fEG48ReGNAT7JFLqmuW+/w1Zbra3h0hftF2wvZvM4d8efD7jbBLJuOsDhsorYvlwtSlmFCpjMmxFTFJ4WThjI0pvLocmInGWKxksPToUvbVamKpRV39bxz9DDxv8Ic3lxZ4O5tmHFGEyx1Mxo4jI8XSyvirB0Muksxpwq5VLE0f7dqurgqU4ZdlUMdXxmJ+q4ehl2KqSaj67+zd/wWM8KeK746B+0n4e0L4YfZND1G+f4geG28Waxoms62utWkOmaFZ+CrDQfEms6OH0W7nuLjU7zxJqFq1xpEzbbYajb2tt+xXgn4h+AviVpU+u/Dvxr4U8daLbX0mmXOreEPEGleI9OttSht7a6m0+4vNIuru3hvora8tLiW0lkW4jhubeR41SWMt/Ej8W/g58S/gX4xn8AfFvwle+DvFMNhZ6olhdz2V7b3mmagjNa6hpmqaXdX2k6rZPJHcWslzpt9dQQX9ne6dO8d9Y3dvD73+yz+3H8Zf2RdL8W6J8ObPwp4h0Txff6Xqt3o/jeHxJqWnaVqWnQ3VrPqGhWWj+JdCtbG+1i1ntLfWLt4bma9h0fRo2ZY7CNT5PHP0eOH88y9594bV6VHEYtUK+Gy6GYU8RkGNoVqlPnxGCxk3Xnh17KdSvCMMTWwk1GFLD08PFJS+n8Hfpz8ccH55Hgvx9weIxWBy2eMweYZ5WyTEYHjXJ8XhMPWVHA5vlVKOEo42X1mlQwlWdXAYXM6MqlXEY2vjJuUqf8AZJRXzf8AsyftQfDP9qPwDa+LfAmtWEut6dYaCvj3wjFLfNqPgjxHq2kwahcaNdf2lpukXWo2NvdG+0+w8RWtguj61Npeof2dcSPZ3cVv9IV/GuZZbj8nx2KyzNMJXwOPwdV0cVhMTTlSrUaiSklKEknaUJRnTmrwqU5QqU5ShKMn/q1kHEGScVZNl/EPDmaYLOckzXDxxWX5ll9eGIwuKoycoN06kG0p06kJ0a9KXLVoV6dShWhTrU5wiUUUVwnsBRRRQAUUUUAFFFFABRRRQAUUUUAFFFFABRRRQAUUUUAFFFFABRRRQAUUUUAFFFFABRRRQAUUUUAFFFFABRRRQAUUUUASp0P1/oKKE6H6/wBBRQBG3U/U/wA6Slbqfqf50lABRRRQAUUUUAFFFFABRRRQAUUUUAFFFFABRRRQAUUUUAFFFFABRRRQAUUUUAFFFFABRRRQAUUUUAFFFFABRRRQAUUV578W/HB+Gfwr+JPxGGnHWD4C8B+LfGQ0kXn9nnUz4Z0G/wBZFgL8W14bI3Zs/s4uhaXP2fzPN+zzbPLbfDYeri8Th8Jh489fFV6WHow5ox56tapGnTjzTcYR5pyiuaUoxV7yaV2cmPx2GyzA43MsbU9jg8vwmJx2Lq8k6nssNhKM69ep7OlGdWfJSpzlyU4TnK3LCMpNJ/jN/wAFS/27PFHgvXbz9mj4QavrnhPxHpo8K6747+IPhzXL7RNYsVvLS/1ZfAloo0a2vLYXVjdeEfEVx4k8P+JV862uJvDlxE0cmrW5/Azwx4V8UeNddsfC3gvw7rni7xRqpuDp2g+HdLvdb1rUWtbae+uza6dp8NzeXJtrK2uLy4McLCG2gmuJSsUUjK/xP4s8T+Oddv8AxV4y8Q654r8Sau8Bv9c8R6rfa5rV99mtoLGyju9T1Ka4vbr7LZW1tZW4llfyra3hgjCxxoi/0m/8Es/2OtO+Gfw6s/jX8U/hv/Y/xs1fXPFcXhq58SWniOw8UeEPBUsVhoC2N34a12GysdC1nULzStevLfVbLTpNSuvC2vwwf2ubHU7vT0/0JxOI4e+j94cYdUsLRxWb1oUqMlScI1M74hnhm6uKryq1KeI/s6hUjKTjTVSWEwjhSp03VqXn/hvgMHx19N3x5xrxGY4vLuGMJVxOMpvExqVMNwfwPSzCEMPl+Ep4ejWwTz7F4epCMZVvYwzTMo1sRXrRw9HlpL+xz/wSw+Hfwts7Txz8edN0T4p+M9Y0Lw1qFp4N8TeHkfRvhvrV1o2pR+LdCvbSLxRr/hTx6fP1aCzg1HUdIa3s7rQ4dV0lIZ7hJYf1t0nSdL0HS9N0PQ9NsNH0XR7C00vSNI0u0gsNN0vTbCCO1sdP0+xtY4razsrO2iit7W1t4o4III0iiRUVVGhRX8K8U8YcRcZZjVzPiHM8Rjq1SSdOi5OngsJCMeSFHBYOny4fDU4R39lTU6s5TrV51a9WrVn/ALI+HPhZwJ4UZDh+H+B+H8Fk+EowksRi401WzbM61Sfta2KzXNaynjsfXqVLOPt60qWGpQo4TB0sNgsNhsPRKKKK+ZP0I5zxh4W0Xxx4S8T+C/Elj/afh7xb4f1jw1runfaLmz+36Rrmn3GmajZ/a7Ke2vLb7TZ3M0P2i1uILiHf5kM0ciq6/wAOvxP+GHjb4NeO9f8Ahp8RtEHh3xh4cex/tXRv7S0zVjZx6tptnrWnf6fo17qOnTCfS9RsrkCC8laLzvKm2TpJGn91tfz7f8Fl/wBnnw5oQ8GftHeGdKsrDWvFfiqXwh8TL99U1251LxBqDeFdPXwPcW2lXEl1odjYaNongvW7TUJbAaVNLNdac80GovJNcWn9I/Rr40WR8V4nhfFt/UeKqcI4adpS+r5xgIVquGu5YinTpUMZhp4rD1pQw9evVxUMtgnSowrTX8DfT98J5cYeGuA8Q8sjH+2PDevWnjqfNCDxvC+dVsJhseoxhgq1fFYvK8wpZdjcLCpjcHg8Nl1TP6rjiMXVw1J/Fnwa/wCCknxX+Bf7Mmo/AHwZpxtfElprlzf+AfiaLvQpT4I0TUta03XdW0IeEdR8H6nZ+IDfXp8UMNT1XVTdWv8AwkmLdUj0iyir4I8UeK/FXjfW77xP4z8Ra74u8T6qbf8AtDXvEeq32t61qDW1tBY2a3WpahNc3lz9ms7e2s7ZZJXENtBDbxBYokQZDKGGcAnqD79jX3J/wTp/Z68PftH/ALSmleFfG+lWWt+APDPhbxL4x8ZaNd6prmjTarYWttDoOlW+mXugSWt6L618UeIvD+pPE2o6dC+n2V95k8xCWV3/AF1j8DwnwDhOKOLqeVYfBzrrG55neLwtGM8wx9bkjUq0qdWvVjZ4mtTi6ODVahgvrtaddxp1cRXrS/y1y3OPE7xtzfw38LMRxLjc1oYWeU8H8H5ZmOJqUckyTC+1lh8Pia+HwWHmpRy/CVpxxOaTwuNzVZVhaWDjUr4fB4PC0/32/wCCdH7Jmlfs5/BnR9e1uxsL/wCJnxDsLDxdqusan4Ht/DXjbwfpfirw34Ru734XX9/dXF9rc9joOt6RJcXNvcS6bBJqbPLLotpcwlm/RCkVQiqijCqoVRknAUYAyck4A6kk+tLX+Z3EOfZjxNnOPzzNK0q+Mx9edao2oqNOLdqdGnGEYQhTow5YQjCEVZczXNKTf/QtwLwXkXh5wnknB/DmEhg8qyTA0cJRhHnc61SMV7fF16lWdWrVxGKrc9arOpUnK8uSLUIQjH5A/bf/AGjrT9m34AeOfFWma7oVj8Sb/QrjT/hto1/rOjWOtahrV9qGk6BNrug6Pq1tqP8Awkf/AAhP/CQWvibUtNj0u8tp7azS1v2tLa7NzH/KR8T/ANqX9or40DWofiX8YfHPiPSvEY0/+2fC39tXGleC7z+yvsTafnwVop07wnAYJ9Os77/RtGh8zU4v7Sl8y/eS5b6t/wCCpfx+0r43/tHyaL4dfxZbaL8GrHW/hlqOkeIGgh0xfHGheMvEdr4n13w9Y2eralbCy1i2g0K3OpTRafqd/BpNpFfWcaWVqo/Niv7r8E/DnLuGuFMBmmZZbha3EObOOZ1MTi8HQnjMuoVFRlg8Fhq04zqUqcI0KeMlKnKEp4is5NtUqPJ/i59MHx9z/wAQPE3O+GuHuIMywfAnDEZcO0MvyvNsbSyvPsZR+swzXOMwwlKdGhiK9Wpi8RlVOFeFWFLAYWMIqMsTi1UQKF6ACr2lanqWharp2u6JqF9o+t6Pf2mqaTq+l3dxYanpep2E8d1Y6hp99ayRXNne2dzFFcWt1byRzQTxpLG6uqsKVFfuUoxlGUZRjKMk4yjJKUZRas4yi01KLTaaaaadmrH8ZU6lSjUhVpTnSq05xqU6lOUoVKc4NShOE4tShOMkpRlFpxaTTTR+qn7IP/BT34y/C/xz4a8NfG/xlrvxN+E98YfD1zP4lvILnW/CDa54o027v/Hd74jTwzr/AI58X/8ACPaW+sxweG7nU5Bc2txDaWUtutjYwp/U2rB1V1OVZQynBGQwyDg4IyD0IB9a/gQ5yCDhhyrDgqR0IPUEHBBGDkV/Wh/wSw+Mnij4x/sr2c/jK/1zXfEfgXxz4r8E6h4p8SeIb7xLrPicE2HjC01G7vdSQ3sAsbLxdbeH7e0mu7/y7XRYZY7iOKZLO1/j/wCkV4dZVl2BwPGWRYDB5a1i/qGeYfB0qeGpYiWLTng8fHD0/Z0Y1o1adaji5UoOriJYihVnF+yrVX/qx9Anx84l4gzfOPCbjTOs0z9rK/7a4PzDNMRXzDFYKlljhQzTJKuNrutip4WeGr4XF5ZCvVWHwMMDjcNTmvrOFoL9HyAQQQCCCCCMgg8EEHggjgg9a/kL/wCCin7Mh/Zr+Pl8dMlNz4M+Kh8QfEHw21j4SPhfw34bOp+LNcM/w90U295e6bfnwhpraJ5z2X9nmCy1bTN+kWEM9r539etfD37d/wCyLp37V/wnk0vSrHQ1+LHhcBvhn4k8R6z4j0zR/D51bXvDNz4uF3b6DHfxXx1XQNCksbYX+iap5F0YWtvsTSS3Sfk/gpx7HgXjLDVMdiJ0chzjly7OeWFKcaUZ88cDjqjqcsoUsDiqkauInSmqkcJLESjTrzUKM/6i+lv4L1PGPwqx9DJsDSxfGnCvtM94UU6mJp1MROm6Ms4yihGgpwq4nN8tw88PgaWIoyozzOngYVK2DpSq4ul/P1/wT1/a11T9nL4w6Honi/4kX3hP9n7xDfa3qvxE0iTSJ/EOmvqcHg/W7XQdQtLGy0jWdb029uNbGg299deHIrSfUYbPT4tZe50/TohB83/tSfE//hc37RXxj+JcWt/8JFpXiPx1rf8Awi+sf2d/ZX2vwVpNy2i+Cf8AQGstOng8jwnp2jW+b6zi1OTyfN1PffvcyP4zquk6noeqapoOu6de6TrWiaheaTq+lalaz2Oo6bqen3ElrfWN9ZXUcVzaXdpcxSQXFtcRRzQzRvHKiurKNvwD4J1X4j+PPBfw60Gaytda8d+KtA8H6Pc6m9xDplvqXiPVLTSLO41Ca1try5isYbi8jku5be0upo4FkaO3lcLG397S4a4fy/iHMOO6MKeHx2NyOngMfiKUMLDC1MHhq08dPH1J0sPHEVMVWh7GniMRUxNSFXC4PBU/Zp0Iyf8AifX8QOOc84FyHwYr1cRjsnyrjGvnOTYDEVsyq5hQzbMMJRyalk1GlicdLAYbLsNWliq+DwVLAUKmHzHNs1rOu/rtWB+8n/BGH4Da7oFj8Qvj74m8L/ZbDxroeleGvhf4q/tq1n/tLRLXxH4ht/iDZf2LY6pLLaeX4g8MeGk+0a5pdtct9izpEzWlxemb93a8P/Zs+ENt8BvgT8L/AITQwWEN14P8Kafaa82l3upahpt34svQ+q+MNT0+61ZY797LVfFN9q+pWqTW9okEF0kEFjY28cVpD7hX+cPiNxRPjDjTPs95ovDV8bPD5coc6hHLMClhMA1GdauoVK2Go08TiVTmqM8XWr1aUKcJqEf98vAPw5o+FXhHwTwYqc4Y/BZRSx2fSq+xlVnxFnDeaZ3GVWlhcG6tHC5hiq2AwEq9F4mnlmEwWHr1a1Si6syiiiviD9hPDvi/+zZ8C/jza3EPxW+GPhTxdez6fZ6VH4gu9OW08WWOnWGotqtpY6Z4v0t7HxRpdlHfyTzSWmnavawXCXd7bzpJb313FN/L3+2X+wL8Rf2S73TNSsbjXfid8NLzQ4tQ1P4kWPhCXR9G8Naw+tHSX0DXo7XW/Eh0rcLvQn03U9XutOttZudWew01bi5068Cf161z3irwl4W8c6Df+FvGnhzQ/FvhrVBbjUvD/iTSrHWtGv8A7JdQX1r9r03UYLizuDbXttb3duZYWMN1BDPEVliR1/V/Dbxb4j8PsfSjDEV8y4dq1Kax+R4ir7Sl7KKlB1sulV5/qGKhGbkvYOnRxLhSp4uFSNKjKl/NXj79GPgTxvybE1amBwWQcdYehXeTcX4LDKjiHXnKFVYXPaeG9ms5y6tUpqD+txr4vL1WxFbLKtCpiMVDE/xXfs6/tFfET9mr4h6F458Da7rsGlW+uaNqHjHwdYa1Jpui+PdF02S5judB122kttR0yfz9N1HVrPTdSvNJ1C60C61B9V0pYr+GKVf68v2af2i/A37T3wu0r4k+B7j/AJ8tJ8W6P5Wq/wDFK+NP7C0bWtc8K/b9U0jRf7a/sX+2ra2/trT7P+zNQ/1trJ9+OP8Alc/bg/Zb8Q/sufGfVdGuNOsLbwB44v8AxJ4o+GEujS6/qGmWXhRvEmp2+m+FbzV9d0+1e58TeHdJGkNrlnDeaubSDU9KuJtSuDfRyP8AXX/BIP8AaH1PwL8YLr9n2bS77WNE+M9+2qafeSeI57XTPBWp+DvCHi3WdTv7Xw49hd2uoXviu3sdI0q9uob3SZ0i0nTjO9+lrbW8P9K+M/CGReIPAi8RuHKMK+Z4HLYZlDF0KlCi8dk1CXNmNHHc0vZ1q+V0I4irBKr9YjPDVcLRlWc6VGX8AfRQ8UOMvA/xkfgRx5iq2D4eznPqmQVMsxlDGYqOUcWY2KhkWKynkg6+FwnEWLqYHDVXLDrB1KeYYbMcVHCRp18VD+mmiiiv4TP9lAooooAKKKKACiiigAooooAKKKKACiiigAooooAKKKKACiiigAooooAKKKKACiiigAooooAKKKKACiiigAooooAKKKKAJU6H6/0FFCdD9f6CigCNup+p/nSUrdT9T/OkoAKKKKACiiigAooooAKKKKACiiigAooooAKKKKACiiigAooooAKKKKACiiigAooooAKKKKACiiigAooooAKKKKACviD/AIKG6N8YtY/Ze+IX/Cn/ABVoXhb+y9D8U6v8Tf7ct4Z/+Eh+E1n4F8Wf8Jf4Z0nztA17yda1TzNP+wzxf2PLH5EuzW7HJ837frm/GPhfRfG/hHxR4M8SWJ1Pw74s8Paz4b13TRPdWpv9H1vTrjTdSsxc2M1ve25ubO5mhE1pcQXMW/fBLHIquPZ4ezOOS57lGbToUcTDL8wwuKnQxGHpYqlUp0qsZTTw9ZqlUmoJypKbio1VCXNFxTXyvHPD1Tizg7ibhqljMXl9bO8kzDLqOMwWOxOW4ihXxGHnCjOOOwaliaFN1eSOIdGM5zw8qtPkmpuL/g4iOGtmyFVZo2Yk8ABwcknoABkk4GOTX943g/xX4X8b+G9L8TeDfEWh+LPDmpRSDT9f8N6rY63o18bOeWwuxaanps9zZ3Jtb22ubO4EMz+Tc280Em2WJ1X+FrxR4T8T+CNe1Hwt4y8Na74R8Q6Y8X23w/4l0q/0TWbGK7givLI3Wm6nBbXsAubK4t7q3aaJfOt5op42eORXP7ff8Egv2qPGFz4hX9lnxTqXhKLwJo3hPxf4o8ASXsSad4rl12bxBo+qXfhXTbsX9va6zZC21Pxd4ne1l0u912NUvZhqS6NpyWlt/bv0jeEMRxTwnlvE+V16dZcLxx2NrUozjKlicozKjhZ4jFUJ04z9pUoTwWEnTjGUaU8PWxFRzvThGX+Qf0DvFHBeHPiZn/h9xFg6+Fl4izyjKcLiJ0ZwxOA4nyLFZhSwOXY2jWnReHw+Mp5tmVKvUnCeIo47D4LDqio160qf9BlFFFfwSf7TBRRRQAV8Pf8ABQ/41eE/gz+y98QB4q0/W9QPxS0PxT8IvDq6Ja6fdGz8TeMfAvisaXqGqi/1HTjBo1sbCYX11Z/bb2EyReRYXG9tv3DX80n/AAWV+NXhfxz8V/BHwe0qw1+38R/BI+IW8VXt/bWMWh6gfiDoHw98RaIdCuLfUrm8uja2VvLDqJv9P07yLlwlt9qiYyj9O8H+F/8AWzj/ACTAVadaWBwc6mbZjUo6Ohhsuh7WjKclKLhCtmDwWD51zOM8TF8kkmj+d/pU+I3/ABDHwR4vzvD18JTzjNKOH4ZyGhi9Y4zMM9rLDYmnSg6dSNWrhMlWbZoqUuRVKeX1IqrTlaa/HAZ2e+0/y4r+k3/gi34q8K/8KK8eeCf+Eh0H/hN/+FreJfE3/CKf2rYf8JP/AMIx/wAIr8OtM/t7+xfP/tT+w/7T/wBA/tL7N9h+3f6N53n/ACV/NcJFGF/A/Unj2+v/ANbn6+/Yg/aOtP2XP2gNC+JOuDXbjwbd6L4g8L+NtL8N6do+pazq+japYNc6ZZ2ia1dafBAIPFun+G9TuLi31LT7r7Np80KyzwzTWVz/AHZ4u8K4njPgHOMrwPPLH0acc0wVClFSli8Xl0Z14YJXTtPErmpU9r1ZU1KUItzj/jX9F3xKy/wr8aOFOJM4jRjk+Lqz4ezbGV5ONPKsvzyVLB182laUb08vvHEV78zWGhWlCnVqRhTn/ZhRTI5FljjlQ5SRFkU8HKuoZTkEjoR0JHoSKfX+Yu25/wBDaaaTWqaun3TP4iv2qsf8NQftHY/6Lr8WM/X/AITnXM14JX6zf8Fc/wBnnw58IPjL4U+IvgzSbLSND+Mtj4r1nxBbxaprupalffEay8Sy6v4v1+8i1aS7tdOstWt/F/h6PT7TSryKzSey1BE0ywRYpLv8metf6l8CZ1guIODuHc1y/wBp9Vr5XhqMY1YwjUhVwUfqOJpzjTnUgpQxOGqw92ctruzul/zZeNnCOb8DeLHHnDWdqh/aGD4ixuLnPDTq1MPVw2cSjnOArUZ1qOHqShVwOYYaouajBpyaV0lJlFFFfWn5aFf05f8ABFf/AJNe8d9P+S6eJeh/6kb4ddfQ+1fzHKpd0jX78jrGg5PzOwVeACcbiBwCfY1/Zb+wx+zfd/sufs/aH8OdcOhT+M7zW/EHijxtqnhvUdY1LRtY1rVL9rbTby0fWrXT54DB4S07w3pdxb2+mWFqLrT5plhmmmmvbr+efpKZrgsJwLh8qrVbY/Ns3wssFQVnKdHL+atjK8ryVqNH2lClKUVKXtcTRjy8rnOH95fs9uGM4zPxnzDiXC4ZvJeGOFsxp5tjZcyp08VnkqeEyvBQcYy5sVi/YY3E04T5IfVsvxc3UVSFOnV+wqQkAEkgAAkknAAHJJJ4AA5JPSlr83v+ClH7XV/+zH8KLDRPBt5rui/Fj4mLdj4f+JNP0bw5rWjaIvhTXvCE/ij+3oPEMtxGg1LQNZurHTTBomr7rl5Hc2LxRXS/xRw5w/mPFOeZbw/lUITx2Z4mNCj7RyjRpRUZVK+JryhCpOOHwtCFXE4iUKdScaNKcoU6kkoP/X7j/jjIfDbg7iDjjiatUo5Lw7gJ43FKhGnPFYmo5woYPAYOnVq0KNTHZlja2HwGBp1q9CjUxeJowq16NNyqx/mf/aS1XTdd/aO+P+t6LqNlrGjax8ZviZqek6tpl3BfabqWm33jLWbmyv7C9tZJba7s7u2lintrmCSSGeF0lid0ZWPr/wDwT88a6T4B/bJ+A+u61Be3Nle+K7jwjGlhFbzTR6n490PVvA+jXMq3NzaxJY2mr+IbG51GVZWmgsIrma3gurhI7eX4yDnfk5eSRiSFAy7ucngAdTnAUegAxUhyVPBVhnAyQyOucdMFWU/iD7iv9SsTkdDMOFsVwvVrTjh8VkVbIZ11G9RUK2XvASr8sZQTmoSc+VSheWilHdf84mVcaYvKfETLvEWhhKTx2W8aYTjOlgudqhLF4TO6edwwvtJwqtU3Vpqlzyp1GovmdOXwv++oEEAggggEEHIIPIII4II5BHWlr4v/AOCefjjVPiB+xt8Cdb1mLT4L+w8K3PhBYtOSeOI6d4B17V/A2jTzJc3N3Mb670jw7ZXOoy+YsM+oS3UttBbW7x20X2hX+V2eZXVyPOs3yWvONStlGZ4/LK1SK5Y1KmAxVXCznGPNO0ZypOSSnJJO3NLd/wDSTwfxHhuMOE+GOLcHSlQwnE/D2TcQ4ahOTnOhQznLsNmNKjObhTcp0oYmMJSdOm3KLbhC/KiiiivLPogoorm/Fvi/wv4E0C/8T+MvEmg+E/D+mpE17rniXVrHRNHs2ubiGztBd6jqVxa2kH2m9uba0hEkyGW5uIYI8yyop0pUqlepTo0ac6tWrONOlSpxlOpUqTajCEIRTlOcpNKMYpyk2kk2zHEYihhMPXxWKrUsNhsNSqV8RiK9SFGhQo0oOpVrVqtSUadOlThGU51JyjCEU5SaSbPwZ/4Lg6tpc2sfs4aHDqNhLrWn2XxO1TUNJju4H1Oy0zVp/A1rpeoXVirm5t7LUrnRtWt7G6liSG7n0vUIoHd7O4Ef5Tfsi6Vqus/tV/s6WmjadqGqXkPxl+Hmpy22m2txeXEWmaN4o03V9av5IrZJJEsdL0eyvtS1K5ZRBZ6da3V3cvHbwyyLh/H79oH4mftKeP5/iJ8U9VsNS1eC0l0XRbfS9KsdJ03Q/DkWr6tq+n6Dp8drEtxc2WnXGsXqWt5q91qesSwui32p3joslfpt/wAEcPgBp3jP4ieKvj5r0Xi2wu/hJe6bpngS5tUgtvCevX/i7wz4x0jxbY6lNd6VcSaleaJpOoaLeR2+lapYTae+qWVxqC3FveW0bf6JQwz8JvA7EYHOatGvi8syTM8PJUJSq0auaZ7jMW8NhqUnCjUnRjjMyp0qlRU04UYVKzjKMG3/AIUVcevpL/TCwWccKYbFYPLeIuL+HsdTljYU8Pi8Lw9wblWWRzDMMRCNXFUKWKnlfD+IxNCg68oVcXVoYVSjOqor+kmiiiv86T/d0KKKKACiiigAooooAKKKKACiiigAooooAKKKKACiiigAooooAKKKKACiiigAooooAKKKKACiiigAooooAKKKKACiiigCVOh+v9BRQnQ/X+gooAjbqfqf50lK3U/U/wA6SgAooooAKKKKACiiigAooooAKKKKACiiigAooooAKKKKACiiigAooooAKKKKACiiigAooooAKKKKACiiigAooooAKKKKAPyQ/wCCmP7CXiT9ou20v4vfCaK+1v4t+G9P0HwlL4Rutd0PRtD1bwRa6h4k1C7uNNOp2Von/CUWuqeILa5eTUvE+n6ZJoNjewwW82qC0huv5hkeWKTGXguIX5H3JI3Q9R+P1DD1U1/fRX5f/tw/8E4PCv7TV3rXxP8ABGo/8Ix8bG0Hw9oemJd3en6N4A1s6XrKtd6t4wGm+ENY8S3+tjwzcXOk2N9FfABNL8PWUscdjZyE/wBSeC3jjT4do4bhHi6UVkcHCllWbpTdTK/aVFB4XG00pQq5cuf2sK8VSqYNQre0WKp1YfVv85/pafQ9r8d4zHeJ/hhCf+uFVVMTxJww5Uo0OIXQoSqRzLKa0pQqYfPH7L6vVwdR16GayqYV0JZdWw1Z4/4z/Yv/AOCslzYT6/4W/bC8W31/BfXtnc+D/H+meCNOSDRLaPTdROraX4otPB0FpdS2UlxZaRF4ek0jwjqmofb9T1M6xfJpsdq9j+9XhLxZ4f8AHXhjw94y8K6guq+HPFWh6T4k0LUFgubU3uja5Yw6lpd21pew217aG5s7iKb7PeW1vdQ7jHPDHKrov8SPxp+BXxV/Z58T2Pgv4x+Fh4T8R6nolv4jsLBdY0LW1uNGur7UNNgvFu/D+p6rZoZLzSr6I28s8d0ghDyQLFNE7nwe+OfxU+BPifTfE/w18Y6/ogtdc8O65qvh6117X9O8M+Lx4avjfWGj+L9L0bVNM/tzRJBLd2d1Y3Ey77K/voIpIRcyMf0PjX6P3DHGNOXEnAeaYLK6mNpxr0cLgYYXEcM4+MKcaUXgHgXTjgHUcHKpVozxOFnVTSw9GUqlU/C/CT6bviH4V1YcBeM3D2b8RUMpr1MJicxzermWB8QMnqVq0sROGdLOFXqZxDDRqqFHD4qll+YUsPJXxuKhSoYY/uQor8Qv2bv+CxngnXbM6R+0/po8E+JbvXdSNn4m8B+FNVuvAGm+GYNGtLjT/wC2oZPE/ifxi+t3esRanYkaVol7ZLHc6S0v2eIX1zD+zXhHxb4e8deGPDvjHwrqKap4d8V6FpXiXQb9Ybm1a+0XW7G31HTLw2d7DbX1r9os7qCU295bW9zCX8ueGKVWQfyNxXwLxTwVivq3EOU4nBwnN06GNVOdTLsXKKbawuOjH2FaSSblTUlVjG0pQUZRk/8AT3w18ZPDjxby/wCv8DcTYDNKtOlGtjcolWpUM9y2E3GMZZjlE6n1zDU5ylGEK7pyw06nNShWlVp1IQofEXxrpvw2+H/jj4h6zDfXOkeBfCPiPxhqlvpkVvPqM+n+G9IvNYvIbCG6uLS2lvJLezkS2juLq2geYoss8SFnX+H/AOKPxR8cfGfx1r/xK+I+tf8ACQ+MPEbWB1TVzp+l6U13HpWmWejacDYaLZafpkBt9M0+ztj9ntIzKYfOlMk0kkj/ANGn/BZH4qXngr4DeBfBfh/xjrvhnxL8QPHV2l1p2h32s6Z/wk3gDS/Cut6Z4x0vV7vTvKsrvRXvPFHhiG+0TU7kx6n9pikjs7qOyuXt/wCazwl4Y1vxr4r8L+DPDNj/AGn4i8WeIdF8N6FpxuLW1F/q+t6hb6bp1k1zfTW1lbi6u7mGEzXdxBbRb988scas6/1d9GzhrDZXwxmfGGLhQjWzerUw9DF1qSp1MLleV1KscUoYmrFKOGxGLg54iVKoqU54Kkq954WPJ/mR+0F8QsfxJ4icN+FGV1cZUwvC9DD47G5bhMRKvRzHiLiOhhp5a6uX4aUnUzDBZbVVHAwxFKWKpUs2xLwnLSzGoqv7g/sJ/wDBOf4MfH39k5fHfxX0y+Hi3x74p8QXng3xl4P8T6vY+IPD3hXQNSstAGlz6ZqEVz4ON5da/wCHfE3myXWg60zaNrEEkd/bXohXTfxh+KPwu8b/AAc8c6/8M/iPop8PeMfDjWA1bSDqGl6qbVNU0yy1rTSb/RbzUNNnNxpeoWVyfs93L5Rm8mURzRyRJ/cV4R8JeGfA3h3TfC3g7w5ofhLw7pccosPD/hvSrDRdGsGu7ia+vfsmm6ZBb2Vubm+ubm7uDDCvnXU808haSV3b8Gv+Cvv7LPjG88Rv+1R4a0/wongXR/CfhDwv8QUs5ksPFk2uy+INX0uz8U6natY29trNkLbUvCHhdLqPVL3XIkjsoDpq6Npr3dr43hJ4y47NvEXPMuzvMZxyLinF16uQ4fMsTOpPKsb9aVPK8swc5VfYU4YzC1Xh61ClT5a+OpYapQ9k5V41/tvpM/RQybhbwG4OzvhHIqVXjHw4yrBYbjTMMgy+jRhxJlSy6VbiPiHN6dPDLF4ipleYYf69hcdiK6qYPKK+OoYz6zGnhZ4P6N/4Jcftqf8AC5vDVh+zx4q0P7D41+F3ge2Hh/VNE077P4bvvhx4MsPBXhHTP7WvL/xJqWqXPjW41HULi4v/ALJpNlo8likcsP2eZXgf9fK/hw+BPxp8T/s9fFbwr8YfBdloep+IvCZ1cWNl4itr670e4TW9C1Pw/efbLfTdR0m8lMdjqtxNbCPUIAl1HBJJ5sSvE/8Aa58OvG+l/EvwB4K+IeiQ3ltpHjnwp4e8Xaba6gkEWoWtj4j0iz1i0ttQhtbm9t4b2G3vI0uYoLu5ijmDrHPMgWRvz76QXh7S4S4ko51lWGVHI+IVUq8sJXjhs3hOc8dQUHKUo0q1OdHE0ZWjFynXppL2PNP9x+hB44YjxN4BxfCXEePli+MOBZUMP7SpTUZY/harSpUcoxjqRpwhPEYWtSxWX4qF5zjClg68pf7UqdLB+NHwf8GfHr4Z+K/hR4/t72fwx4usYrS9k0y8bT9Usri0vbXVNM1PTbtVkSO90vVbGx1G2S6gu7C4mtUg1GxvrGS4tJv5l/2jv+CWn7QHwZPjLxj4QstD8dfCfQv+E38SR6hZeKtPXxN4X8A+GvN1Kwu/GFprlj4Siv8AW59AVpri38H22sxvfWF/HHDAstgl1/VzSEAgggEEEEEZBB4IIPBBHBB618NwD4pcT+Hs6lPKqlDFZXia6xGLynHRqTwtWo4wp1K1F06lOeGxM6VOnD28G0/Y0VVp1acPZy/XvG76Nvh147UcPX4noY3LeIsvwcsFlnE+TTw9HM8PQVSriKGExaxGHxFHMMupYitXqrB1oxcfrOKeGr4avVVeH8CYinPS3uD/ANsZP/ia9c+C/wABPiz+0J4ovfBnwj8JyeKPEenaJceI72wl1XRNBWDRbS/07Tbi9N34i1LSbOXyrzVrCL7PDcSXbicyRwPHFKyf3F/Z7f8A54Q/9+k/+JpyRRRnKRxoSMEoiqSODjIAOMgHHsK/asZ9KjFzw1aGA4Lw2GxkoNYevi88q43DUql1aVbC0crwFWvBK94QxmHbdn7RWs/5Ayr9mplVHMcJVzvxcx+YZTCspY7BZZwdh8ozDEULO9PC5liuI86w+Dqt8rVarlWNgkmvYNtSj+On7G3/AASl8NfCLU7H4ifH64sfGfxN8M+KrfWfBVn4R8T62PBGjR6RP4d1jw/rtxA+heF9ZvPE9hrmn6rHLaXl5qHhi40u4t1n0y6ucyQ/sfRRX848U8XZ/wAZ5k804gx9TGV1FwoUruGFwlJtN0sHh+Z08PTlJc8owV5z96bk9T+//Dbwu4I8JuH4cN8D5LQyrA80auLxFoVcyzTERTjHFZrj3CNbHYiEH7OnOs2qVNclOMI3TjllSGN5ZCFSNS7EkDgDPViBk9BkjJIGa/ie/aq/aD8UftK/GjxT8Qdf1W+1HRbbUta0P4d2up6Xomk6joXw7j8S65q3hjQb+HQYhbXF7p1rq7x3V5cXWp3s0xZZtTvEiicftx/wV9/ai0vwt4Ak/Zd0vTL+XxV8RLLwl4u1zWLi0gfQ7PwTY+JdYuUt9Nv7fW4NQt/FJ8UeDdLWWK60W60w6FcXyi4W+lga3/n3+GPwv8c/Gfxzofwz+GuijxB4z8Sf2iNH0k6jpmlC5GlaXe6zfk3+sXun6dAINN0+8uT593GZPJMUIkneOJ/6t+jvwZQyLIsy4/z36thXjqM45bWxkaFKGX5LhKcq2NzSWNq1GqFHGSk6dS6oRo4fAyqVatSnXcaP+Zf08vFrFcZ8YcP+CPBjx+ZLKMXTnn+Dymri8RVzvi3M8RSwuU8OLKMPQUsZisqjCnWw6jLGSxWOzmFGhh6FbBKpiv1Z/wCCTP7InhX4wa7rHx9+IFjrk2nfCbxz4YX4cx2Gs2Fnomr+MtItbvXNVGv2EMcmvzf8IxNd+CtZ04R3WlaZe3Nw9rd/2zaJqGnxfDH7b/grVfh9+11+0BoOsS2M1xf/ABI13xfbSac9xJajTPHsq+OdHty9zbWj/bbTSfEVlbalEkTwQahFcQ2091bpHcy/1p/s4/B/S/gZ8Gfh/wDD200Lwpout6R4T8LweN7jwhp1vYab4j8cWPhrSNH8ReJZ5orDTbjVr7VbrTFeXWNStU1O+hjt2u9rqET4Q/4K6fBTwr42/Zzu/jFql9rlt4m+CnkHwxZ6fcWEOjaj/wALB8ZeAvDmsf8ACQQT6bc3139ksbZJNM+w6hp3kXLO1x9qiIhHhcG+M1TH+NGJrYt1q2RcSTocK5TRVSUo5aniaFPLMTRpqNSNSGOx0G8ZaVK7x7xTmoYSGGl914ofROoZF9ErLcHliwuF4z4Co4vxI4oxU8PGnV4gf1DF1+IMBi67qUJUauT5RUgsscoYqyyVZdCk62Z1cfD81v8Agkf+0P4c+EPxo8WfDrxnq1jpGh/Gax8KaN4fuJdL13UtRvviPZeJYtI8IaBZy6VFd2mm2WrW3i/xBJqF3qlpFZpPZaez6pYoksd3/URX8LvwX8aaV8OPjF8JfiNrlvfXejeBPiR4I8YavbaXFBNqdxpvhvxHpusX0Gnw3VzZ2st9LbWcsdrHcXdtA85jWS4hQmRf7b/h/wCOdH+I/gHwV8RdFjvLPRPHfhXw/wCLtIt9WW2t9Rt9P8R6Va6vZW2oRW11eWsV/Db3SR3cVveXUMc6SLFPMiiRvI+k7wxDL+J8u4lw1CuoZ/hVRx9duDwzx+Ap0sPQhTUYRmqssFTpupzyqKSpxceWzT+t/Z5eIdXO/DzPfD/H43BSq8F5lLFZLg4qssfHJc6r18di6uIlOrOjLDQzfEV40HSp0XCVapGaqNqUezor4P8A2hP+CjX7Nf7OXiTU/BHirVPFXibx7ol/pVnrfg7wZ4auLrUdKt9Z0SPX7PU59V1+fw74WubI2N1p4lTTvEF7qCT6hBH9hIhvWtPxY/a6/wCCofxT+NWoXvhf4Nahrnws+Gllruja54d1/SrrXPBvxXvVt/Dclhq2j+J9S8N+NtS0W40S41rUtRu4bGzgQSw2WiTzyi5t5lf844N8GeOeMa2EnSyvEZRlOLoRxUM5zWhVw+EnhZ+ydOth4SUa2LVaFaFXDulHkr0VKrTqSirv948VvpX+D3hXhszo4jiPBcT8S5bjJ5dW4U4cxeHx2Z0swpfWI18Nj6tOU8LlssJVwtXDYxYmp7bCYp08PXoQqTtH91f2kf25fgB+y7cnQ/iHrms3fjWfQdP8SaT4K8NeH9Q1TV9Y0jUdXu9Fiu7XUrhdP8KQCC40/Uri5t9S8SafdC1sJmhhmmms4bn+WL9ob9qv41ftQapp1/8AFvxHaanY+HtQ8RXnhPQtM0TSNG0zw1a+JLmwnvNMs3sbRNVv7SGPStMtrV9f1PWb+OKzVnvZZ5rmef5zy7OPMaWeVskE75XPJY4JLMeSzHk8kn1r9Vf2TP8Aglv8WPjLqnhPxn8XrIeBvgjreiab4lhvtM8VaC3jPxTo3iPw9qGp+HbrwxZWlh4tsrEQ3p0OXXLbxbbaLcrpl/JHZQzX0cyWn9Y8PcDeHPgbltTiDO8zw+Lzf2U5U81zOnhIY2dWlQqwq4XhrAPnxFCpiaVedOtSoYjE4irCbjXxCwycYf5o8ceMfjv9MPP8PwTwhw/jcs4YeIpwrcOcPV80q5VTwuJxmFq4fMOP86/dYHGYfL8Tg6VfC4nF4LLsDh6tNSweBeOkp1fmD9j79kjx3+1p8RLTR9EsTF8OvDWveGx8VvFCazpel3Xh7w3q8mo3DjSob2PULy+1vVLLQ9VstF+yaHqtlbas1k+tfY9Nkkul/sE+HngjSfhp4C8F/DzQZr250XwN4V8P+EdKutTe3l1K60/w5pNpo9lc6jNaW1lbTX81tZxPdywWltDJOXaOCFCsap4H+HXgH4Z6VNofw78FeFPA2j3V6+pXWl+EfD2k+HLC71KSC3tZdRubPR7Sytp76W3tLWCW6kiaZ4reGNnKRIq9lX8oeKvirmHiVmVFrD/2dkWX/wDIsy1yVSsqk6cVXxWNrJuFXE1J88YKlGlSpYdUqXLUqRqV6v8ApX9Gz6N2R+AOQYpPGrPeM88VuIM/jTdDCvD0q854PLMqwsoqrh8Bh6fsp1XiauIxGJxzxGJ9pQw9Shg8MUUUV+TH9MhRRRQAUUUUAFFFFABRRRQAUUUUAFFFFABRRRQAUUUUAFFFFABRRRQAUUUUAFFFFABRRRQAUUUUAFFFFABRRRQAUUUUASp0P1/oKKE6H6/0FFAEbdT9T/OkpW6n6n+dJQAUUUUAFFFFABRRRQAUUUUAFFFFABRRRQAUUUUAFFFFABRRRQAUUUUAFFFFABRRRQAUUUUAFFFFABRRRQAUUUUAFFFFABRRRQB5747+Evwt+KI07/hZPw58DePm0dbxNHfxl4U0LxM+kjUBb/bv7MbWrC9Nibv7JaG5+z+X55trcyh/Jj2/hx+0L/wRoXQvDmreJv2cvGnirxVrNjZaWtj8M/F8XhVtQ8Qanca5Hb6rdW/jhr/wXomi2Njod0b+LT7zQ7uaWbS54U1CR9Rt4bX+gmivueD/ABG4v4Hrwq5Bm1WlhvaUZ18txMVistxVOjVnVdCrhqt/ZU6rq1o1J4SeGxNq050q9Ory1I/j3ij4DeF3jBg6tDjThnDYjMPYYulg+IMvlLLc/wAur4rD0cOsbh8fhuVYmvho4XCTw9HNKOY4C+FpUq+Dr4b2lCp/Bl4r8L6/4J8T+I/B3ivS30zxD4S1zVfDfiCxMlveJp+taLfz6ZqVmL2ymubG6Fve280AuLO4ntptokt5pY3R20vBnxB8e/DrU59a+Hvjnxd4G1i5sZNLuNU8H+JNX8OahNpss1vcyafLeaRd2lxJZSXFnaTvatIYXmtoJGQvCjL/AHMeKPB3hLxtot94b8ZeF/D3izw9qZgOo6F4k0bTtb0i/NrdQ31sbzTdSt7mzuTb3tvb3cJmhfyrmCKdNskaMPx0/aZ/4JW/s5+H/AXx8+Nmha58StG1rR/CnxN+Juk+FtL1HwbYeCNL1Ow0nWvE9joWnaNa+B4rmz8MWdzFFYWum2+oxzW+mRpbRXiOomH9X8L/AEkeGuInDKuKchrZZXxc8NhIKi45zgMdWrzpUrTpTw+HnhoSrScvZ1Y4iEIKH76pK9v80vEX6A3iBwLGrxH4dcaYXiDB5bSx+Z154qM+Fc5yjC4KliMTzUsTRx2NpY+rDC04Q9vh5YGpWrOq1hKFPkUv5+vHPxT+KHxMbTT8SfiR47+IP9ifbP7GHjXxXrvicaT/AGj9lN//AGd/bV/e/Yvtv2Kz+1fZvL+0fZLbzd3kx7dz4A+JtF8E/Hv4J+NPE17/AGb4a8I/Fj4e+JfEOo/Z7q7+waLofizStT1S8+y2MNze3ItrK2mmMFpbz3M2zZBDLKVQ+RoSygnOTnOee59a9i8J/AH47+N9Ds/E3g34K/FfxX4a1L7R/ZviDw38PfFuuaLqH2O6nsbv7HqmmaRc2Vz9mvba4tJ/JnfybmCaB9skbqv77jKOT4bLq+AxNXB5RluKo4nApqeFy+jT+t063PHD+0UaEK0lKrUjHkd5Kc3CSUr/AMMZJi+Ksy4mweeYDDZrxRn2WYvA5y+ejmOd4qr/AGVXwv1epjfYyqYyeFpyp4XDTk6sOWnKnRhVpt07f1JH/gqJ+w0Ovxs/8x58Uv8A5iq+mfDfir4MftP/AAntde0oeHviV8KvGy3S28Pibw5JLpGrnQNdns3a88N+LdMtp2Ona/ozyW/2/TY8XNlDe2xKiCc/xL+KfC/iLwRrt74X8aeHdb8JeJNM+zf2j4f8TaRf6HrVh9stYL60+2aXqdvbXtr9psrm3u4POhTzbaeGePdFKjNipMVAVJSoGQFVyoGTk4AI6kknA65Nfz5jPov8MVsPhcTw1xbnuAxSrUcVRx+LWX5vh5UFCVSnLCwwFLJakKzqOhWo4uOMqQjCElGjKVSFWn/eGV/tEvEPDY3Mcv8AEHwz4NzvLZYXGZdislyx51wxjaeNdWnRrUswq5ziOLKNXDQoRxmFxeWVMro1Z1atOUsVThQq4fEdv8U/BafDX4p/Er4brqQ1pPAfjzxb4PXV1sxYJqi+Gtev9HXUFsRc3gs1vBZ/aBai7uhB5giFxKF8xv1J/wCCWP7aEHwh8UaT+zT4o0Cyk8K/Fj4jx3Wj+M0u9STUvD/ivXtDtNAsNKutLtdO1SPWLHxBq2keFtIsGjbRE0Ga+1DUtTvbyxYLYfj5hNxfI3HJJz1JOST6knJJPrWhpeqanomp6brmialf6PrOj31pqmkavpV3PYalpep2E8d1Y6hp99avFc2d7Z3MUVxa3VvLHNBNGksTq6gj944p4RwXF/CuJ4azyX1yVfBwgsbaWGnDM6NG2HzOnChJKnOniksR7D95QkuajUp1aMpQl/Gnhx4oZt4XeJGX8f8ACEHlUMHmtWpPKW4ZhSq8PYvFJ47h+tVxkObEUq+XN4H64/YYyM1DGUK+GxUKdan/AHt0V/Eaf2pv2oCQf+GkPjsMdh8V/HOD9f8Aiec19g/C3/grD+0/8MPAuieB/I8EfED+xP7R/wCKt+JMXjnxP401X+0NVvtU/wCJxrf/AAnVl9t+xfbf7PsP9Gj+z6ba2dr8/k72/j7NPou8Y4TDwqZZnGTZtXlWjCeGvXwHJScJylW9tiIyhLlnGFP2aXM/acy92Lv/AKk8OftFPCvM8dVocQcL8VcM4KGFnVpY+2Ezr2uJjVowhhPquCdOrT9pSnWre3k3Tj7D2bXNVg1/VjRX8x3/AA+g/af/AOhG+B3/AITnjn/54lH/AA+g/af/AOhG+B3/AITnjn/54leD/wAS3eJv/QLk3/h3pf8Ays+1/wCJ+Po9f9DHir/xGMT/APLz+nGvn79qT46f8M2fAvxt8Zx4aHjBvCH/AAj4Tw62sf2D/aLa94n0Xw5/yFP7N1Y2/wBkGrm+KiwnM4tjBmHzPPj/AJTvil+3J+1B8UPHWt+OP+FvePfh/wD20dOP/CJfDXxz458MeC9K/s7SrLS/+JPon/CTXv2IXv2L+0L/AP0mT7RqV1eXXyedsXw7xp8avjJ8RtLh0L4hfFr4l+O9Ftr6LU7fSPGHjfxJ4k02DUoIbi2hv4bHV9SvLaO8it7q6gjuUjWZIrmeNXCSuG+4yP6L+aUcXk+Mz/O8rqYONfBYnNspo0sbKrVownSq43LoYulUoJOpH2mF+t0akHG/tqWqin+M8bftFuG6uU8VZXwVwjxFQzergs4wHC/EuKxOUxw+HxlSlXw2U59WyzFYbFtwoVJUcxeW4qjWVRwWDxHuynNc/wDELxrqnxJ8e+NfiNrsFlba1468U+IPF+qWumpcR6daah4j1a71m9ttPjuri8uYrGG5vJY7WOa6uJUhCiSaV9zt+8P/AARa+EHhObwb8SvjhrVp4f1XxMnjq28F+FZtS0DTptb8GjQPDBvNZ1LQfEVzJNe2Q8VWfj1NL1K1sIbENbaMq3NzfRXYgtP58RgnBI9xkdPx9qsJJ5Q2pIUBOcK5UE4AJwCBnAH6V/SnGfBlXi7hLE8K5fm0uHaGJWDoSxNHB/XV9RwlSnU+pKj9awc1TqqjTpzlHERbpxdKaqU6lSEv8+fB3xVw/hl4n4DxNzzhmHHOMwEs1xlLA4rNP7JbzjM6Fais2lill2Z05YjDPE4itShUwNSMa84YilKjiKFGrD+wjxX/AMFHv2NfBPijxF4M8TfGAad4k8J65qvhvXtPHgX4j3gsdZ0S+n03U7MXlj4RubG6Fve200IuLO5uLWbZ5kE0sTK7fCX7bv8AwU2/Z68WfCbW/hV8MNJsfjhafE/wp4w8P67f6jbeIfClv8P9SFnYL4S8QppXi3wK0fiK9tdWuZNc04WN1Yz6Zf8Ah22nW7t7ie1uIv532eLJZipJJJYjJJJySTgkknknv1r2/Sv2bP2itd0rTdc0L4C/GXWdF1iwtNU0jVtK+GXjS/03U9Mv4I7qx1DT7210WW2vLK8tpYri1ubeWSCeCRJYpGRlY/mWV/R98N+FcflWb5lneb1q+CrU69Knmmb5fl2AxGOoQ54VYLDYTBY2PsMQoYujSpZg3GVOnCvKvR9pCr/SHEX03/HzxIyXiPhfIeEuGMNhM2wlfB4mvw9wxnWeZzgcoxlV062HqvH5lm2VVPrmCdTLcVicRkajOnXr1cHTweJ9hUw/iKjMYU8ZXH511914+8fX3g/Svh9f+OfF954C0G9fUtE8FXXiPV5/CmkajI99JJfab4flvH0qxu3fVNSd7i2tYpmbULxi+bmbfm+JfDPijwXr194W8Z+G9d8JeJdM+z/2j4f8S6Tf6HrVh9stIb60+26XqdvbXtt9psrm2u7fzoU822uIZ490UiMfsr/gn5+zD4D/AGsPjP4l+HfxE1bxZo2i6N8N9X8X21z4PvtK0/UpNSsPEvhTR4YZptY0XXbZrJrbXbt5I47SOYzxwMtwqJIkn7fn+c5Nk+R4jiTM1TxGWZXRjmaxFGjTxkoQsoQxOES5lKbhWfs6lKSbpzlyy5ZO/wDIXBfCvFfFPF+B4D4e9tguIeI8XPh54LFYqtlUKlXndStl+ZuXI6dKNbCp1qGJpuMa1GHPTU4Ll+GuXLbVeeTG44DSuQMDJIDMQOFz24HFfev7MP8AwTv+O/7SJ8E+KTpx8F/Bnxh/wkOfii1x4Y1xtOGhDW7AZ8Fnxbo3ia6+1+JNIGhDMFv5IuP7THm2Ue+T+mP9nv8AZQ+C/wCzX4Z0vQvh/wCFtOuNZ06x1XTLn4ha5o3hqX4ja7pura3Lrs1hr/inSdC0e51Kzt7lrW3tLZ4khis9M0yJkd7OOWvpFVVAFRVVRnCqAoGTk4AwBkkk+5zX8ocX/SixdWGMwPBmS08G3Uq0aGe5rV+s1Xh3Tr0o4jDZSqNKlh8SpvD4nDyxmIxtCChOhicBWU7w/wBLvDD9nVlmGrZXnHivxbXzRKhhcVjeDuHMP9Qw6x0a2DxFTAZhxLPE4jE43L5Uo4zL8bTyrA5TjKrq08VgM5wrpJVPzg/ZG/4JrfC39ljxRZ/EaTxVrnxH+JEGhazoR1TWdJ0HT/DNh/a1/FINX8NaAbTVdZ0HWotGgGgz33/CW332qzv9bTyobfU/slv+j4AAAAAAAAAGAAOAABwABwAOlLRX8w8Q8SZ5xVmM824gzGtmeYVIKm8RWVOHLSjKc4UaVKjClRo0YSqTcKVGnCnDmajFLQ/0N4H4B4P8Nsho8M8EZFhOH8ko1Z144LCyxFV1MTUp0qVXFYnE4utiMXi8VVhQpRq4nE16tar7OLqTk9Qooorwz7AKKKKACiiigAooooAKKKKACiiigAooooAKKKKACiiigAooooAKKKKACiiigAooooAKKKKACiiigAooooAKKKKACiiigAooooAlTofr/QUUJ0P1/oKKAI26n6n+dJSt1P1P86SgAooooAKKKKACiiigAooooAKKKKACiiigAooooAKKKKACiiigAooooAKKKKACiiigAooooAKKKKACiiigAooooAKKKKACiiigAooooAK+YP2z/Fnhbwp+y78dP+Eo8SaF4cHiP4U/EfwvoH9u6tYaT/bniXVvAviL+y/D+kfbp4P7R1rUfIm+w6Xaede3Xky+RC+xsfT9fkB/wWpGf2XfAh9Pjp4aI4zz/wAIN8RRx7819l4eZXTzrjjhfLKtWdCnic4wnNVpxjKcfYz+sK0Ze6+aVJRd9k21rY/JvHbiWvwh4O+I3EWGw1LGVsu4VzPkw9ec6dKp9bprAy5p005x5IYmVSPKneUUno2fzGwpvEcZO3eVXOM43EDOOM4z0yPTNf23fssfA8/s4fAjwL8Gz4m/4TA+EU19/wDhIjpH9hf2h/wkHijWvE2P7L/tLV/s32T+2fsWf7Qn877P9o/deb5Mf8aPwl8E/wDCy/il8NPhz/af9jf8J9478JeDf7XNp/aH9l/8JLrtho/9ofYftNl9sNn9s+0fZftdr5/l+V9oh3eYv910aeXHHHnOxFTOMZ2qFzjJxnGcZOPWv6R+lLm9aOH4SyKniLUK9bM82xuF9lF81XDQw2Dy3Ee3lT51yRxWa0/ZUqyjL2nPXptxw8o/5/fs2OF8LUxvihxpiMDfG4TDcP8ADGVZl9ZmvZ4bH1cfmuf4L6pCuqcva1cu4brvEYjDSnD2KpYOvCNTHU5+ReKf2e/gL4412+8UeNPgr8KPFviXU/s/9o+IPEvw98J65rV/9jtYLG0+2apqek3N7c/ZrK2trS386d/JtoIYI9sUSKvmHjX9hj9kTx9pdvo+ufs//DextLa/i1GOXwfoUXw/1NriKC5tljn1nwK3h3VrmyMd1K0mnXF7Lp8sy29xLbPcWttLF9X0V/K2F4k4iwLoPBZ9nWDeGjCOGeFzTHYd4eNOKjTjR9lXh7KMIpRhGHKoxSikkrH+l2ZcA8C5xHGRzfgvhPNI5hKrPHxzHh3KMasbOtP2taeLWJwdT6zOrUbqVJVueVSbc5Ny1PgH/h13+w2P+aJ/+ZD+KR/n41r8Zf27P+Cb2v8A7OFhrPxf+HepnxP8Jpde13UNb002tpo4+FGiap4j0bTPBGg/a9Y8Yavr/jX7RNr40j+0rbTxcxf2X9u1NEF5vi/qYrj/AB/4B8HfFHwdr/gDx/oFh4n8IeJ7B9O1vRNRRzb3duXSaKSOWF4rmzvbO5igvdO1Gynt7/Tb+3tr+wuba8toJ4/0Pgvxn424Zz3BY7MOIc5z3KZV6NPNstzXG4jNlXwDnbEfU/r2IcsLjadOUquFrUK+HjLEU6MMU62F9rQn+F+LP0T/AAi8QeDc1yfJOB+FeDuJYYPF1uGs+4bynA8NSwedKkpYJ5p/Y+BjDMcprVqdPD5hhsZg8bOGCrYmplywuY/V8XR/hEYnYWXrjI7/AONfrj+y7/wSsl/aT+Bngj40H46nwafGP/CRZ8Of8K4Gvf2f/YPirW/DX/IV/wCE40f7T9qGj/bP+Qdb+R9o+z/vfK86T51/b/8A2U7b9lH4zQ6L4fnvr7wB4+sdU8X+EJpdF1Gx03w/bzeJNYtj4AtNY1DVtak8SXvhLSU0Jr/U5r2PUJoNX064vrG3N1DJcH7Hn7c/xO/Zf8Y+GbPUfEfivxN8DYr9k8UfDOG8sryCHTLpNZL3fhKLXILqPQL2y1bXJvEtxYaJeeHofFOoWkNlrWoRxSi8tf7Y4nzPibi3gPCZ/wCFOc0cJjq6hmmHlicHh6lTMcDRw+LjiMohSx+ExVHD4+eK9lGE6kIQ+sYZ0Z4mlQqzrL/I3w74e8PfDPxmzTgn6SfCuKzLKME6nDuOhl+aY+hRyHOMVjcrq4LiWtiMlzLLcXjsmo5a8RUrU6FatWeCxyxVPL8Ti8PSwr/Qv/hx0/8A0c0f/DQ//jLpD/wQ5kPT9psjn/okP/4y6/br4VfEvwt8Y/h14O+J/gu6+1+GvGuhWOuadvmsJ7uy+1Rj7XpGqf2ZeahZW+taLerc6RrdjDe3P9n6tZXljJK0tu9fOH7cv7U/h/8AZc+DOqatLqN/a+PvHGn+JPC/wxi0aHQNQ1Sx8WN4a1O403xVd6Rrt/arc+GfDmrDSF1y7hs9XW1n1PSrefTrgX8cb/yLl3i7435pntDhvC8QVnm9fGyy/wCqSyLh+NSliKU5QrxrRWTylBYb2dSdd8rcIU6krNpp/wCnuffRg+iBw3wbjOPsy4Kw0eFsFlFPPHmlPjPjiVDE4DEUqdXBTws58Uwp1ZZg6+HpYJOcY1quIow5oqd1/MN+2L+zbp/7KXxatvhVp/xOsfifdp4U0nxBrd9aaNb6BceH9S1W71NYvD2p6XD4g8RPbXo0m10vXEN1dW002n63ZTraLbyQXFx85+GvCvinxxrlj4W8FeHdc8W+J9VNwNN8P+G9Kvtb1q/Nraz312bTTdOguby4FrZW1xeXBihYQ2sE1xKUiidwvibxV4q8b67feKPGniLXPF3ijVTb/wBo6/4i1W/1vWtRNrawWNot1qOozXN5c/ZrO2t7O2WSV/JtoIbeILFGiL/Qr/wSy/YX8UfDG9tP2lfinANH8SaxoXirw54a+GviTwZfWPijwgJdYsNPXxZd3+uiyvdC1nULHS9e063sLHSJBc+FtfhuxrjRandaan9a8UcYy8OeCKGYcTZpQzfiClglhqEpUVhY55nnsJTcaWGwdGMcPhVUTdWpGlSp0qEYc84VakOb/Lvw68K4/SA8Y8Vknh9w5jeF+Ba2bvMMbTp4qeYz4P4OeMp0VOvj81xdSWMzJ0Wo0KM8Tia2Jxk6jo0quGoVXDv/ANmf/gk38DfD/wALdJP7Q/hU/ED4k62LLX9SzrPinwsfBn9o6Doxu/AhHhDx1Lo2vHw/rUWrZ8RwiI6l9qwkKW0EGfqDwv8A8E4P2K/CGu2PiLSvgXod3qGn/afIg8S674v8Y6K/2q1ns5ftnhzxb4h1rw/qG2G4keD7dplx9luVhvLbyru3gmj+36K/gnNPEzj7N8TjcRieLuIKUMdOrKrgsHm+YYPLoU6qcZYejgaGIhhqWHUH7NUo0+Vxvz88pSlL/bXhv6Pngpwtl2UYDLvDHgivUyWjhoYXNc04YyTNM8q18K4zhjsXnGNwNbH4jHSrRVd4mdbmhUt7FUqcKcIeAf8ADKH7Lv8A0bl8DP8Aw1HgX/5RV7fpOk6XoOl6boeh6bYaPouj2FppekaRpdpBYabpem2EEdrY6fp9jaxxW1nZWdtFFb2trbxRwQQRpFEioqqNCivk8XmeZY+MIY7MMdjYU25U44vF18RGEmrOUI1qk1FtaNxSbWmx+mZbw9kGTVKtXJ8jyfKataCp1qmW5ZgsDUrQi+aMKs8LQpSqQjL3lGbaT1Sufzy/8FtfCnhbR/EHwG8T6V4c0LTPEni3/hZR8VeILDSbGz1rxJ/YVr8NrHRf7e1O3gjvdX/smyke0037fPP9htnaC28uNip/Ob9hv4o+Ofhf+1F8IT4H1v8AsQ/EHx34H+Gvi4/2dpWof2t4L8T+OvDH9t6N/wATSxvfsX237Hbf6fp/2XUrfy/9FvIdz7v2l/4LWaVpcv7OXw41yXTbGXWtP+M2laVYavJaQPqdlpur+DfGd1qun2l80Zubey1K50bSLi/tYZUhu59L0+WdJHs7do/5wPCnibXPBXinwr4y8M3v9neI/CfiHRfEeg6j9ntbv7DrOi6hb6jpt59lvobmzuPs15bQy+RdW89vLt2TRSRllP8AfXg1CPE3glh8nr0qeJaw/EGTOOYJYjDVJSxmLr4TnjONVrD4eOJw9OEeSTpLDp04WjCK/wAUvpWVp+H30u8bxTgsRXwEfr3BHFSlkblgcdQpwyvK8LmapVKNTDJ4zH1MBjq9aoq1JYiWNl9Yq81StN/3m0VHCxeGJ2OWaKNmOAMllBJwMAZJ6AAelSV/nu9G12P9xE7pNdUn94UUUUDCiiigAooooAKKKKACiiigAooooAKKKKACiiigAooooAKKKKACiiigAooooAKKKKACiiigAooooAKKKKACiiigAooooAKKKKACiiigCVOh+v8AQUUJ0P1/oKKAI26n6n+dJSt1P1P86SgAooooAKKKKACiiigAooooAKKKKACiiigAooooAKKKKACiiigAooooAKKKKACiiigAooooAKKKKACiiigAooooAKKKKACiiigAooooAK/BH/guLq2qQ6Z+zjocWpX8Wi6hffE/VL/SI7u4TTb3U9Ig8C2ulahd2KyC2uL3TbbWdXt7C5miea0h1TUI4HjS8uFk/e6vwB/4LlHDfsy+/wDwt8f+qzr9d8CIxl4q8KqUVJJ5zJKSUkpR4fzWUJWaavGajKL3jJKUWmkz+WvpqVJ0/oz+JUqc505OHCdNyhJxbhV444ap1YNxabhUpzlTqRek4SlGScZNP8h/2VTj9qL9nD/suvwpH5+OdCFf27V/ET+yqM/tRfs4f9l1+FB/LxzoVf27V+lfSmVs+4U88mxj/wDLyJ/P37Nq3+o/iV3/ANa8pv6f2RK36hRRRX8sH+kwUUUUAeAftG/s4/Dr9pX4da74J8b6DoVxq1xoWs2Hg7xjf6NHqWteAta1KO2kttd0G5judO1KDyNS07SbzUtNs9W0+21+209dK1VprCaWJv43vjP8M9V+DHxX+IPwp1oajJdeB/FeteHoNR1LR7jQptd0yxvJE0fxFFpdzLcvbWXiHSWstb08LdXkElhf2s1vd3UEsU8n90Ffl7/wVQ8N/s4al8BNV8R/GG4SL4j+GND17/hSlvpfia10vxZc+JdYv/C1ndf2Z4cvdVtLTxPosV2nh1/Gfmabqt5o/hX+0L3SvsWoPbzt/QvgL4mZjwxnuH4XxNDMc2yTPsVTw9DB4RqtVyzMK81GOOw+HnG88PN8scfShXoQp0efG2rVaHsa38N/TR+j7kPiHwdjvEbA4zI+GeLeDMuxGOxubZmp4XDcQ5Hg6UpzyfH42lU5aWNormnkuJq4TGVKuK9llDlhsNjPrWF/Ej9jj9vn4kfsl3erabdQa58Tfhte6DcafpPw3v8AxhJo+i+GdcfWBq0Wv6DJd6H4lGk7jd66upaXpNrp1rrV1qy3+qPcXOnWZT5k+MHx7+MPx91+PxJ8XvH2u+M762Mv9mWuoTQ22i6GtxbafZ3S6F4e06Gx0DQ/t0Olae2pHSNMsjqdzbJeX/n3bSTN5QhLICR1A6j2B/z9K9M+C2meEdY+M/wi0jx/JYw+A9T+JfgfT/Gkup6k+jafH4Vu/Eum2+vPf6vHdWT6XZJpcl01zqCXlo9nCHuFuYTGJF/tWrwzwzlOY5txjhsjwqzvEYR1cbjsNh4zx2Ip4WjVbjhlOXJRr4iEnCvOgqM8dJUVi51vY0XD/IuPH/iFxVw/wx4WY3jLMpcIYPM4YfKcmx2OnRybB1szxeFhCpj5U4OrisFgKsIVcFTxrxdHJ4SxUsro4b61iY1vvf8AYO/4JzeJf2k00P4v+ONVs/DXwf0vxatvJod7pviBtf8AiHD4d1LRLjV9P014JNBtrLwxrFtPrOgP4u0zxBe3+ma3pd7ZxaRJLbyT2/8AVOqhFVFGFVQqjJOAowBk5JwB1JJ9ajgEIhjFv5fkBQIvKKmPaOBtKkgj3BOTkkk5qWv85fEPxEzrxDzaONzJLDYHByxEMoyqEoTp5dQxEqbqxdeNGjLE4ir7Gj7fE1KcZVHShGMKdOEKcf8AefwI8B+EfAjhieTcP82PzjNYYGrxRxJWhUo18+xuBp1oUKscJPE4unl+Cw7xWKeDwFCtUhRWIqyqVq9apUrTKKKK/Pz9xCiiigD8f/8AgtScfsu+AzjOPjr4a9v+ZF+I1fzMQ4ZoMj/lpCcf8CX/AB/rX9M//BaoZ/Zd8BgHH/F9fDX/AKgvxG/z/nFfzLw4DQAnGXiH/jy/0Br/AEM+jf8A8mxw/wD2OM3/APTlM/wz+nr/AMpD4/8A7Jfhb/1HrH98Vv8A8e8H/XGL/wBAWpqht/8Aj3g/64xf+gLU1f56S3fq/wAz/cqHwR/wx/JBRRRSKCiiigAooooAKKKKACiiigAooooAKKKKACiiigAooooAKKKKACiiigAooooAKKKKACiiigAooooAKKKKACiiigAooooAKKKKACiiigCVOh+v9BRQnQ/X+gooAjbqfqf50lK3U/U/zpKACiiigAooooAKKKKACiiigAooooAKKKKACiiigAooooAKKKKACiiigAooooAKKKKACiiigAooooAKKKKACiiigAooooAKKKKACiiigAr8YP8Agtj4X0G7+A3ws8aXNj5niXQPivH4a0nUftF2v2XRfFPhTxDqevWf2RJ1spvt154R8PzefcW0tzb/AGDy7WaCO5u0n/Z+vl/9sL4C6F+0P8BfHHgvUfC3/CW+JNM0LxF4l+Gem/2zdaH5PxOs/CfiDTPCF59rh1TSbKTy73Vnh8jW7l9Ebz/M1CFoow8f2vhznmH4b444azrF1K1LC4LMqf1mdCcITWHxEKmFrc0qlWjTVF068liPaVYwdB1FLmTcX+Q+PnBuN4/8HPEHhHLKGFxOZZtkFb+z6OMpVa1KeNwNehmWF5KdDDYuvLFRrYOEsD7HD1KqxqoOnyTSnH+Qz9nvxLofgv48/BPxl4mvf7O8O+E/it8PfEmvaj9nurv7Do2i+KtJ1HUrz7LYw3N5c/ZrO3mm8i1t57iXZ5cMMkrKh/uSVg6q6nKsoZTgjIYZBwcEZB6EA+tfwXeJ/DOv+BfE/iLwZ4ls/wCy/E/hHXdU8N6/p/2i0vP7P1zQb+fTtStPtVlNdWN19lvrWaHz7W4uLWbZvhlljZXP9aP/AATo/ahX9o/4F6ZH4q8bDxh8Z/Bq3Q+KK/8ACP8A9gnT11vxT4sXwZj7Bouj+HLsXHhrSLYE6F9p8kwD+0jHezN5n9KfSa4dxGPyzh3jDAt4rBYBVcvx8qPPWhTw+YuliMtx8JUaM6UcJOrCrhq2JrYmEJVsVltKhCpKvKS/z4/Z2ceYHJOIOPfCrOo/2dnOcvDZ9k1PFqlhKtfHZFDEYHPsmqQxWLpYqpmdLDVcNj8Ll+FwFWrDB5bn+JxlWlTwcIv9AaKKK/jY/wBZQorz34pfFXwF8F/BGtfEb4la8vhzwd4eGnHV9WNhqeqtajVdUstFsCNO0Wy1HVLgT6lqFpbZtrKby/NMsvlwRyyJ+Gv7WH/BYC61C3t/DP7Jj3+jSJf61Z+IPiD4w8H6bLPLb2GpaS+gan4Bs9Q1jUrYWWs21vrUepR+M/CEeoRWF7Ym3sdN1NJXtvuODvDvivjrEQpZFltWWD9vLD4jOMVCtRyfB1IUo1pwxONjRqr2kac6cnQowrYhqrRtSaqwb/HvFfx38M/BrL62J4z4gw9PM44OnjsHwtl1XC4vinNMPVxEsJSq4DKKmJw83QqV6deEcZiquFwKeGxSliU8PVUf0M/bN/b/APhx+ycW8FT2OueIPix4h8D614j8IabY6NFf+GtLvT9v03wtdeMru513w9L/AGPqev2F3Dc22gXN/q8Nlpl9JPDZNPpj3n8rXxm+LfjH48fEzxX8WfiDcWU/ifxdfRXl7Hptolhpdjb2dla6XpmmadaK8jx2Wl6VY2OnWz3Nxd6hcQ2kdxqN9fX8lxdzcl4r8Ua9448U+IfGfim+bVvE/i3XNV8Ra7qH2e2tjf6zrl/calqV0lnZQ21nai5vbqeZbaztoLWEyGO3hjjCoP1I/Y3/AOCX/wAUPip4n8B/EH41eHrHQvgPfWOieL3tP+Euso/Efj7w/rmiXmr6HBo8Hhv+2brTbOe6Gix+JItau/Cmsw6Pqk6aPOmqxPJZf2fw3wtwP4G8P1M4zbH4b+2KuBqU8bmVadKGMzOpDlxFXLMjwlWcKk4TqQoqOGpy5qjpUcRipQUZTh/kdx/4keMn0y+OKHCnCuTZguE8LnNCvlOQYWjiamU8P0K3NgMPxBxjmWGo1qFOrSo1cXOpj68FDDxxOKwWXU60p06db5D/AGWv2O/i9+1xqfi2w+GkvhfSLLwVp+m3ut634w1S80zTUn1qa5i0fTLaPTNM1nVLq91GLTtUuopI9N/s63g02db2/tZ7iwhvPF/ih8MPHPwZ8c638NfiZof/AAjvjLw99g/tbSvt+m6oluNT0yy1mxKaho95f6bcCbTdRsrg/ZruUxed5M4jnSWJP7jPCXhPw/4F8MeHvBvhXT10rw54V0PSfDehaes9zdGy0bQ7GHTdLtGu72a5vbs21nbxQ/aLy5uLqbaZJ5pJWd2+b/2qf2NvhN+11pfhSy+I8/inSdQ8FXup3mga54Q1W003UoodZt7WHVdMuo9T0vW9LurC/k07SbmR5NMbULeXTIFsb62gnv4Lz83yT6T9SfFVb+2sphheDsRBUsPDDqWIzfLalKmnDF1akXTo42GLqxnHEYRUqbwsK1KVDEVnhKscf/Q/FX7OyhhvDTBR4T4mq5l4q4Cr9Yx9XHShgOFs/o4jEWq5ZhsPNV8TlFXLcLKnLA5lPEYiOYVsNiYYzA4WOZYeeTfzm/sp/wDBRX42/s4XHgjwRearY+JPgbol+tnqXg+88NaTdanpOhax4qTX/FGqeGtVspfD+sXXiYRXWsjSI/EGvXuiRy6gY7mxMUVo9r/VF8Lfir4D+NHgfRPiN8NtdXxF4P8AES6g2k6obDUtLe5Gl6peaNf7tP1izsNSt/s+pafd22bi0iEvlCWEyQSRSv8AxpftJfs5fET9ln4in4bfEr+xrjUbnRdP8RaRq/hzUJNS0XWNF1KS7tYrq1lubTTtQgeHUNO1PTLm21LTdPuftWnzTwQzafNZXly39nD9o/4j/stfEP8A4WT8Mjot1qU+hal4b1PSPEthNqWh6vo2pS2t3JaXcNrd6fqNuYdTsNN1SC50vUdPuvtNjFDNNNYT3tnd/deI3g5w74k5ZS4r4Jr5dgs3xVKrj6WIwdKhDK+I1iVOvJ42dGNOVHMK1d839oydSSm69PG4epOarYb8f8B/pVcd+AXEGI8N/FzB55mvDGXYnDZLicFmuIxlXiLgKWAdHCQjlVPEzrQxOSYXBRcf7ChGlCVKODxGU42hRpSwmP8A7caK/PD9lD/goz8FP2jYvBPgi+1S98NfHDW7EWmpeDrrw1q9rpeqa7o/hVNf8Uan4Z1W0m8Q6RbeGBLa6yNHTxDr9lrkkOnmO5sRLNatd/oajpIMo6uAcEowYA8HGQSM4IOPcV/EOf8ADmd8L5hUyvPstxeWY2mnONPFUalJV6HtKlKOKw05xUcRhalSlUjSxFJypTlTnFS5oSS/1+4K474R8RMjocRcGZ/lvEGVVpKlOvl2Lo4iWDxfsKGJqZfmFKlOdTA5jQo4nD1MRgsTGniKUK1KcoclWnKTqKKQkAEkgAAkknAAHJJJ4AA5JPSvEPrT8U/+C2fjXS7H4N/CH4dy29+2teKPiRe+MLC5jigOmQ6b4I8N3+j6rDdzNcrcpez3PjzSJLCOG0nhkht9Qae4tnit47n8Dfgt4N0v4i/GX4RfD7W7i+tdH8cfEvwP4R1W40ySCHUoNO8ReJNM0i9msJbm3vLaK8itryV7aS4tLmFJgjSQSoCjfZP/AAU5+PGufFz9pzxl4Oj8U/2/8OvhFrl34c8F6eNGtNNGga0+ieGdN+ItoLw6XYavqgbxj4evYftGpXOoW2LXzNGm/s2eJ5fQP+CSnwI0H4ufHvxB4y8X+Fxr/hr4QaHofiXR9S/tm70z/hH/AInP4r0jU/A94bTTtUsL3U82Xh7xTN9nuba/0QfZPL1SESz2KS/6FcGU34Z+BUMxzOU6GIjk+Lzuq8PL99SxOe1ObK6UYYxYTkxdKGKy+hXw7do4yFaFGVa8HU/w38Vq3/Ewf0yKuR8PUqWMwE+Kct4TwyxsL4XE5dwbQjT4ixVWrlTzN1ssxNbLs7xmDxkE3PKquFrYmnhEq0aH9SiII0RBkhFVAT1woAGcADOBzgD6U6iiv89T/chKystlogooooAKKKKACiiigAooooAKKKKACiiigAooooAKKKKACiiigAooooAKKKKACiiigAooooAKKKKACiiigAooooAKKKKACiiigAooooAKKKKAJU6H6/0FFCdD9f6CigCNup+p/nSUrdT9T/OkoAKKKKACiiigAooooAKKKKACiiigAooooAKKKKACiiigAooooAKKKKACiiigAooooAKKKKACiiigAooooAKKKKACiiigAooooAKKKKACiiigD+Zb/grR+yddfDT4hT/tH+HpbKXwf8XPFRsNd0TTNE07Rbfwj4qh8NadMk8ssOrSXPiC78dXOleLfEup6lFolklpfwXJ1O6ubzUoJ7j8w/hD8X/HvwN8d6H8Q/h1rt/o2s6Pf6bdXVpbalq2n6X4l03T9WsNYl8M+J4dH1DTLnVvDOq3Om2ser6RJdxw3sCbWKOqOv8AclrWi6T4j0nUtB17TbDWNF1iwu9M1XStTtLe/wBP1HT7+3ktL2yvbK7jmtrq1uraaWC4t54pIZoZHjkRkZlP4L/FX/gila2dp401/wCEfxh1y+Flod/qPg74feJPCujXusaxrdlo5mttBuvG0fiXwrotsut61E1vb6jL4bs7bSbW8hW6W7+yS3Vx/YXhZ418O1uG6fCPiFXpYf6nhaOWYPH4nC1sVhM0y93w9HCY2nhMJUjhquCoKjQlisR+7xFGCxGIrxxMKtSt/lR9JL6H/HuF8Qa/in4FYSvjJZtmOL4hzTJcvzDC5dmfDmeRUMZi8yyitmWZ0Z5hh83xjxeLjl2CvXwWLqvBYHB1MDVw9DC8d4L/AOC3XxBsNKuIfiH8CfCfifW2vpZLTUPB/i3VfBWlw6abe2WC1uNJ1jTPHV1cXsd0t3NLfR6xbQywTW9uthDJbyXFz85fFL/grL+1J8UPA+ueB/s3gX4fDWzp+PFvw2Txz4a8aaSNP1Wy1QDSNcHju8+xm9Fl/Z2oEWri5026vLbbH5+9PP8A/h2B+3P/ANERH/hxPhb/APNrXf8Awv8A+CTv7V/izx1omgfEjwoPhX4Lvv7R/tjx2Nb8BeM/7D+zaVfXdh/xTei+O7fU9R/tHUoLPSv9HlX7L9t+2y7oLeRT93Syn6O+S1a+cUcRwN7XDShmDcM/o5nOnPA81eDwOWrMcW5VLxvHCYHCTniqihTVCtPkgfi2J4n+nnxbh8HwpisB4xfVswhUyNe14JxHDtKtSzf2eDqrOOIHkOVqnQ5Z2qZnnGZwpZdSdbEPF4WkqtVfnt4z+IPj74jalBrXxE8c+LfHer21jFplvqfjDxFq3iTUINOguLi7hsIbzWLu8uEs4rq7urmK2RxEk9xPKqB5ZC3tn7MX7KHxX/ap8UPpXw+0jf4Z0HXvCWnfELxWb3QVHgzRvFF/dwf26NG1fXdDvPEBsbHTNWvzpmkSS3M/2EWxaGS6tjJ+9P7PP/BIn4N/CLxNpfjP4ieLb/40a3o19qslroWteFPDdh8OdQ0zUtDl0mG01/wfrEXi+51S90+5u7vVrS/TxBZQpeR6Wy6ej2Ekl3+nvgr4eeAfhtplxovw78E+E/Amj3d9Jqd1pXg/w9pPhvTrnUpYLe2lv57LR7SztpryS2tLWB7mSNpmht4ImcpEir8lxf8ASNyLLMJXyzgLArGV1QpwweZ18JPB5VhZSrSVZQy2pDC4mq4UFzUOaNGkq9WEqtOpClOjW/T/AAq+gHxpxDmuD4i8b85lleDljK9XNeHcFmlLNeJMzpQwsJYR1+IKFXMcvw0K2Ml7LGqnUxeKeEw1SGGr4etiaOKw3wj+yH/wTc+F37Mo13VfFV3oXxq8ZajruhavoHiTxL8P9Csh4JHhsTT6ZJ4Ut7+58S6lpOsvqV3Pe6hrFprcIufseiJBZWk2ltc3n6PAAAAAAAAAAYAA4AAHAAHAA6UtFfyVn/Eed8UZjWzbPswrZjj6/Lz1aqp04RUKdOlGNHD0IUsNh4KFKCcKFGnBuPM4uTbf+oXBHAPB/hvkOF4Z4JyLCZDkuD9p7LC4eVevVnKrXrYidTFY7GVsTj8dVdWvVkq2NxVerGMvZxmqcYwiUUUV4h9ecZ43+HPgD4l6XDonxD8E+FPHOkW14mo2um+LvD2keI7G11GKC5tYdQtrTWLO8t4b2G3vLuGK6SMTRxXM8auEmkVv5+P2k/8Agjv4u8HWjeIv2btf1z4mrd67YWa/D/xIvhPRdY0PQ20a8n1TXbrxrfa/4b0bVxFrVpBBbaZaeG9PuktdWgUtc/2bcXVz/R1RX3nBXiTxbwDiZVsgzBLC1ZQeKyvGw+tZbi405SlGNSi5QqUXzTk3WwdbC4h3cXV5XKL/ABjxc8AvDPxqwEMNxpkjeY4aFaOW8RZTW/s7PstlWjShOdHFwhUoYuHJRppYXNcLmOCi4xnHDKpGM4/wKF9jujFopY2ZH6q6OpKsuQcgggqQD6jNfRX7Pv7U/wAaP2avE2l698PPFWo3Gjaffarqdz8PNc1nxLL8Otd1LV9El0KbUNf8L6Rruj22o3lvbG0uLO5eVJorzTNMlZ3S0SKv6sfjN+xN+zh8bPDPizQda+GvhPwtrHjK+h1PVfiF4I8I+DNG+Iqakut2uvXuoW3im58N6jcre6xc20lvrFzcRXE1/Z31/FK++4aUfkL8Zv8Agi/4o8MeGvFviP4NfE2/+Ies2t/DJ4Q+GmqeGdD0LUr7TLzXLW2NpqHjnUPGmm6Gb3RtEuJ9Qur46HpsGqz6e8Nrp9k95DBF/YGT+PPhnxtgqmUcV0I5K8dUWBlgs6oTxuX16eJhSo+0lmOHw8qGDpKdarCdfFvCQw9Om8ROtSi24/5bcVfQx+kH4R5rQ4n8NsZPixZNRnnFPN+E8XSyrPMFVy+rWxSo08jxuNjjs0rypYTDVaeByuOaVcdXrRwNLCYmcVGpR8Df8Fsvirp51P8A4WT8FfAvisS/Y/7G/wCEL17XPAn2HZ9q+3/2l/ba/EH+1PtG+z+yfZv7J+x+Rc+b9t+0x/ZfAvj3/wAFUfj78c/A/j34ZHw14G8DeDPG5ksBceGz4rTxrp/hs6rDejRZ/EY8TQabqJ1HTYBoXiKUeG7Oz1nTbzUoBplnDeeTF5+v/BMP9uf+L4Ir/wCHD+F3/wA2v+Fd/wDC/wD4JQ/tX+LPHWi6B8SPCY+Ffgu+/tH+2PHY1vwF4zOifZtLvbuw/wCKb0Xx3BqeonUdSgs9K/0aVBa/bftsu6C3kU9dLK/o5ZJip5/QxXA8MTgvZ46LocQQzCVKeXqNelUwWVUsyxKniYyoxlCjgsHKviqqUFTrVanLLzMRxJ9PDi7L6PBWMy3xgq5fm/tsmqRxnA9bJIYmjnTlg69HN+JMRkOXSpYGUMVOFXF5tmtLB5fh26k6+FoUOen+c3hfw1rvjTxP4b8F+F7L+1fE/i7XdK8NaBp5ubW0Ooa3rl9Bpum2hvL6e2srY3V9cwxG4vLmC3i3+ZPNHGrOP60P+Cf/AOxnafsm/Du5v9T1XXbz4lfFDQvB2ofErS7+bRm0Xw5rWjR65dw6FoMeki73/wBkf8JLdaTqWpSa7q9trNzpyanp66dbXIs0ofsn/wDBOL4N/s0W8+q6z9h+MHj+6v8ARdVi8WeMPCHhsQeGNT8Oalq17o2oeAbC5ttX1bwne+Xf2X9p3S+JdRnvL/SLG/tnsBFHaxfodX4T41+NVPjOnLhnhepVjwzGpCeOxVShOhUzqrQnSr4flp1lCvQwVCvBVI0atGlWqVqVOtUtFRpx/sr6JH0Sa3hRWh4heImHw8/EGdCtSyfLaGMp4uhwnh8XSxGExvtK2ElUweMzfGYOpKjUxOHxWJwtDC4mvhaPNNzxFQooor+bj++QooooAKKKKACiiigAooooAKKKKACiiigAooooAKKKKACiiigAooooAKKKKACiiigAooooAKKKKACiiigAooooAKKKKACiiigAooooAKKKKAJU6H6/0FFCdD9f6CigCNup+p/nSUrdT9T/ADpKACiiigAooooAKKKKACiiigAooooAKKKKACiiigAooooAKKKKACiiigAooooAKKKKACiiigAooooAKKKKACiiigAooooAKKKKACiiigAooooAKKKKACiiigAooooAKKKKACiiigAooooAKKKKACiiigAooooAKKKKACiiigAooooAKKKKACiiigAooooAKKKKACiiigAooooAKKKKACiiigAooooAKKKKACiiigAooooAKKKKACiiigAooooAKKKKACiiigAooooAlTofr/QUUJ0P1/oKKAI26n6n+dJSt1P1P86SgAooooAKKKKACiiigAooooAKKKKACiiigAooooAKKKKACiiigAooooAKKKKACiiigAooooAKKKKACiiigAooooAKKKKACiiigAooooAKKKKACiiigAooooAKKKKACiiigAooooAKKKKACiiigAooooAKKKKACiiigAooooAKKKKACiiigAooooAKKKKACiiigAooooAKKKKACiiigAooooAKKKKACiiigAooooAKKKKACiiigAooooAKKKKACiiigAooooAKKKKAJU6H6/0FFCdD9f6CigCNup+p/nSUrdT9T/OkoAKKKKACiiigAooooAKKKKACiiigAooooAKKKKACiiigAooooAKKKKACiiigAooooAjlcxxSOMEpG7gHplVJGcEHGRzgj61/Ms3/AAWd/aeErxr4E+CDESvGgHhzxwWbDlVGB8Q+WOB0HJPAr+me4/495/8ArjL/AOgNX8T37LAB/ak/Z8BAIPx1+GIIIyCD470YEEHggjgg9a/pTwA4Z4Yz3LuP8fxHkWCzx5HhMpxeDpYvnXJehntavTpzg/3f1j6pRjOThO3JF8rs0/4D+mz4geIXB2d+CWTcB8ZZrwf/AK4ZrxNlma4nLPZS9ty4vg3C4KvXo1I/vvqP9p4upTpxq0ef2tSLqR5lKP39/wAPlv2p/wDonvwW/wDCX8ef/PBo/wCHy37U/wD0T34Lf+Ev48/+eDX9Mf2e3/54Q/8AfpP/AImj7Pb/APPCH/v0n/xNeN/xFDwy/wCjIZN0/wCaireX/Um8n/TZ9V/xLr9IX/pL/ir/AMQTDf8A0Wn8y0v/AAWc/akjIU+AvgfGxGdsvhrx2pIzjIB+IYOOCM46j61+0P7F/wC2N4O/a38CXF7p0F5pXxA8GWHhe0+JOh3Gltpumx67rOkvNNqfheQapraXPhi+1bTtettIju9TOu28GmFtWsbYT2c95d/aQ/Yb+AP7UF0dd+IWh6zZ+NYNB0/w3pPjbw14gv8ATNX0jSNN1e71qKztdNuW1HwnOJ7jUdSt7m41Lw3qF0bW/mWCaGeGyntf5tf2Xz4o/Z5/bz+G/hctoupeIfCvxyb4Q63Ipv7rRrhdb1y8+F/iO909s6TdytFZatqN5otxdQQhLtLSe8sJIlms5PtaGS+GPizwdn1ThPh58G8W8N5dLNp4any1sPXcKdSp9XWI9rBYzBYhUJ4X6xOlg6+DxFWniZYatTiqVf8AI8Zxb9If6M3irwVQ8TOOI+K3hnx9nlLhqjmFbnwuOwarV8Nh3jXgXQqyyrNsFLGUsxWCpYnNsHmmCw1fAwx+GxFWWIwf9hdFFFfyef6XBRUbTQoSryxKw6q0iqRkZGQSCMgg/Q5pBPASAJoiSQABIhJJ4AADZJJ4AHWnZ9n9zJ5o3tzRvta6vftuS0UUUigooqH7Rb/894f+/qf/ABVOzeybE2lu0vVpfmTUVGs0LkKksTMc4VZFYnAycAEk4AJPsM1JSs1urAmns0/R3/IKKKQkAEkgAAkknAAHJJJ4AA5JPSgYtFQ/aLf/AJ7w/wDf1P8A4qpEdJBlHVwDglGDAHg4yCRnBBx7inZrVp272YlKL0Uk32TTHV8ofF/9sf4S/Bj4y/Cv4E+IoPFWrePfizf6HZaRb+HdLsrnTdCh8SeI08K6JqPiPUNS1TSkis73Vkv08rSE1jULeHS7uW7sYBNpwvvq5mVAWdlVR1ZiFAycDJOAMkgfU4r+Q1JA3/BTx3Mm5F/bkbDM5Kqg+OAIwxJAQDkYO0DkcV+s+E/AeW8bYniarmtfEQw3D/D2MzOGGw/uSxeKdKtDDKeI5ualToVYqtKEacpVnGNNyhDm5v5l+kv4z5/4R5f4f4fhvB4KrmHG/G2V8P1cwx161PLMvWKwlXHypYLk5MRXxmHqTwlOpUrU44XnlWjCrUUPZ/150VGs0LkKksTMc4VZFYnAycAEk4AJPsM1JX5LZrdWP6aTT2afo7/kFRyuY4pHGCUjdwD0yqkjOCDjI5wR9akqG4/495/+uMv/AKA1VFXlFPZyS/EUnaMmt1Fv8D+ZqX/gs5+04k7xf8IP8DwiTNGWbw545JCK5UsdvxC67RnhTz0XtX9FPwr+KPgj4z+A9B+JPw61oeIfB/iNb86Vq40/VNKF02l6ne6NqIFhrNnp+pQC31PTr22H2i0i8zyfNiMkLxyv/C9eMFuZ+Cd1zIoCjJJMjYAA5OTxgZOegr9vf+CT37Y3i+y8YeEv2TPFEGn33gXULHxrdeAdRtdLji1zQ9dRJ/Gt3pup6mNTsrWTwxNbWfi28jeTSdU10a7qljai9TRkSKx/tfxq8GMkp8Jxz3gzJcJlmLyH6xjs1o4afsaWLyZYWVXF1pU5wqzrYrBTw9Grh1GtQhHD1Mc5xrVJUVD/ACL+iT9LHjDEeJUuDvFfizM+Ics40WAyjhzF5hSWJxGW8VSzGlhsswsK1KrhqWFy7N6WOxVDGznhcXWljqGTqnPDUFipVf6JqKKK/iY/12Pwpf8A4Kc/Hdf2xR+z3/winwq/4Q3/AIaPT4Qf2l/Yviv/AISP/hGm+JK+Dze/a/8AhM/7N/tr+zD5/wBo/sr7F9t/ef2eYf3FfutX8h8v/KTwf9nyQ/8Aq9Er+vCv3fxv4byLh7/UT+xMsw2W/wBpcLUcZjvq0ZR+s4qXsb1qvNKV5vmldq2+x/GX0QOPuMuOv+Iyf63cQ5hn39g+ImJyrJ/r86c/7Py6H1vlwmH5KcOWkvZwspcz91ahRRURngBIM0QIJBBkQEEcEEFsgg8EHpX4RZvZXP7MbS3aXq0vzJaKiE8BIAmiJJAAEiEkngAANkkngAdalptNbpr1BNPZp+jT/IK+MtF/bu+BXif9pCz/AGYPC0vivxD47mvfFOj6lrFnoS2fhLQvEHg228R3Wv6DqV9rN7pmrXF5aR+GrkR3ejaLqujXLXliLfVJQ101r9i3bpHbTl3VAYpQC7BRny2OMkgZwCcexr+R3/gmS4H7cvwdeRwB5nxELO7Y5Pwz8acszHqSepPJPqa/XPDbgTKeKuHvEjO80qYv2nCPDdTH5bh8PUjSpVcdVwOb4mjVxM3Cc508PPLYWoQcFV9q+edoqMv5f8fPGXibw3478AuD+HsPljw/ihx/hslz/HY6jPEYjDZNh864Vy/FYbAU1Up0qNfG0uIareMqqrLDrDR9lS56jqU/66q/Hf8A4KC/8FBfjJ+yj8YvDvw9+Hvhv4caxo2r/DbSfGFxc+L9J8SX+pJqd94j8WaRNBDLo/ivQ7ZbJbbQrR443tHnE0lwzXDI0ccf7CpJHJny5EfGM7GVsZzjO0nGcHGeuDXzB8bP2O/2bP2gvFNj4x+MXgCPxV4l07Qbbw3Zag/izxjoRi0S0v8AUtSt7T7J4f8AEWkWcgjvdV1Cb7RJbPcsZzG8zRxRJH8z4f5pwpk3EVPG8aZPXzzJI4TFU6mAw9CjXqyxNSMVh6qp18XgqdqclJtuumr6Rkfonjbw74lcVcCV8q8JuKcFwhxfPM8ur0M6x2LxODw0MBQqzeOw7r4PLM2rKVeDjGMVg5Rk42lUprU9T+CXjXVPiT8GvhP8Q9cgsbXWfHfw38E+MNWttLjnh0231LxJ4b03WL6DT4bq5vLmKyiubyVLWO4u7mZIVRZbiZw0jen1z3hPwzoPgfwr4c8H+GLNdM8MeEtB0nw74fsPtNzdrYaHodhBp2mWv2y+nuby5W2sbaGL7Rd3M9xKE8yeaSRmc7ySRyZ8uRHxjOxlbGc4ztJxnBxnrg18nj6mHrY3G1sHSlRwdXF4iphaMoqMqOGnWnKhSkoynGMqdJwg0pzSaspSWr/Ssmo47C5PlOFzXEwxeaYfLMDQzHFQnKcMVj6OFpU8ZiISnTpTnCtiI1KsZSpU5SjJOVODbin0UUVyHphRTPMj3+X5ieZ/c3Lv6bvu53fd56dOelPoEmns07Ozt0fb1CimPJHHjzJETOcb2Vc4xnG4jOMjOOmRTPtFv/z3h/7+p/8AFU7Ps/uE5RTs5RT7NpMmopAQQCCCCAQQcgg8ggjggjkEdaWkUFFFFABRRRQAUUUUAFFFFABRRRQAUUUUAFFFFABRRRQAUUUUAFFFFABRRRQAUUUUAFFFFAEqdD9f6CihOh+v9BRQBG3U/U/zpKVup+p/nSUAFFFFABRRRQAUUUUAFFFFABRRRQAUUUUAFFFFABRRRQAUUUUAFFFFABRRRQAUUUUAQ3H/AB7z/wDXGX/0Bq/ie/ZYIH7Un7PhJAA+OvwxJJOAAPHejEkk8AAcknpX9sNx/wAe8/8A1xl/9Aav4QfDPhfXfG3i7QvBvhey/tLxJ4r8Raf4c8P6eLm1szfa1rWpRadplp9rvp7aztvtF7cww/aLu4gtod/mTTRxqzj+tvox0KeJyrxOw1avDC0sRgcloVcVU5XTw1OrhuI6c681KdOLhRjJ1Jc1SEeWLvOK95f5k/tC8ZXy/iL6PGPw2Cq5jicDnXF2Mw+X0Of2+Pr4bHcA1qWCo+zpV5+1xVSEaFPko1p881y0qjtB/wB332i3/wCe8P8A39T/AOKo+0W//PeH/v6n/wAVX8jX/DsX9uT/AKIy/wD4cT4Y/wDza14j8Xf2TP2k/gXbzX/xO+FHi3QdGtbCy1G98S2kMPiPwnp1vqOpNpFlHqfizwzc6x4c029uNREdsmnX2pwahuurJjbBL6zafxsD4B8HZniaeDy7xo4ax+MrNRpYXBYTLMViKsm4xUadGjxTOpOTlJRSjFtyaSV3ZfUZv9NXxV4fwFfNc9+iZx/kuWYWLnicxzXMuIcvwOHhGMpynXxeL8N6NCjCMIylKVSpGKjGUm0k2v7E/ij8V/Afwb8C678R/iFr8Wg+EfDq2J1TVRZalqxtm1TUrPRtPH9n6Jaahqc4n1PULO3P2a0l8oSmaYxwRySp/JV+zld+Mfjv+3X8M/F1vpVnceJfFv7QOnfFLXbHS2Ww0yztrPxa3xC8Wz2P9rXzvHZaZpFjq13a2c99dahcQ2qWlub2+kijmvfsX/soeHP2ttd8XeFNX+OGjfCnxFpH9h/8It4f1HSbPX9Y8ei+tvEd9rP9h6VceLPDV5c/8I1Z6DHeaj9hh1Pybe+Se5+yRxK039L/AOyT+yP4C/ZH8CX3hXwpf3viXW/EN9Z6x4s8YazYaTa6nqmpW2k2enGzsfsFnHdWPhi0uItQ1DRNDv8AUdam0mbWtUH9qXb3U0z+rWnwl4BZbxhkdDNsTxVxznuDo4BUK2UYvJsBgMvxODnKhXVWaxdDFwUsXPEYj6tmNX61OjQwMY4CrQxNefzuFo+Jn01uIPC3jDGcNZf4ceDvB2a4rOnjMLxNlnFWc51nmAzSjDGYOWGpSyzF5bVnTyyjgsCswyLD/wBn0sXjM4lPOcNjMBg6f1dX5Df8FG/+CgWnfBrR9d+CPwj1gTfGS+NzoXjW4fTfEVl/wr/w34g8HvdW+raH4js9Q0EQ+NJDr2h6n4avdJm12y002WpHVorS9isoJ/05+LHjn/hWHwu+I/xJ/sz+2v8AhAPAvizxp/Y/2z+z/wC1f+EY0K+1r+zvt/2a9+xfbfsX2b7X9juvs/meb9nm2eW38l3wY1j4QfHD9sS7+JHxu8XaL8J/Bvib4rTfFH+xvE+hz+OfDmvX2r/EbTta/wCFZeIL8R6bpum6HqOmalqNrqXi7xBZw+H7OxsJZNTso4Ljy0+E8EuCMuzvE5zxbn+BxmYZHwlhliaeAwdH63LMs2VqtDC1sHQp4nHV6MKKlV9nQwyhOq6UqleNKjWo1f2P6Xni7nvCGXcJ+GfBWb5XkfF/ibmDy+vnWa4pZbTyHhpt4fGZlhs0xlbAZPg8VWxU6eG9ti8e6lLDxxFPD4KpicVhcVhfRPg5+wh+1t+2LoMvxtl8U6O2n+JBH/Zvjf4r+OtZ1LWfGY0i61DwzdGKTTLLxbr6/wBgzeH101z4jh0oPbfYf7J+22is8C/Er/gm/wDtj/Ab7V48srTR9d0vwHoU/wAQr34g/Dzx3a2I8Knw0bzVZ57VPEU3hLxb/bei2+lpq8MuiaPdD97aDT7ua/WW3g/o/wBI/aU/ZM0DStO0PQvjv8ANG0XR7G10zSdI0r4k/D/T9M0zTrGFLazsNPsbXWIrazs7S3jjgtra3ijhhiRI40VFAF6T9qf9mCWOSJ/2ifgeUkRo2H/C1PAxyrqVYYOtkdCeoI9QRX18/HPxQhmdWeF4Nw8OH/aypYXI6vDuYONHLE406WHliqPs5yrrDRjGdRQ+rOtKUoYONBU8PH8vpfQ5+jtV4fw1LMfFXG1ONvq0MTmPGGG46yNTxfEEoyr4nHwy/FLEU4YOePnKpToSqvMFhoU4VM0njHVx1T88/wDglT+2Pqnxc8NXHwD+Il/4r8UfEzwdZeJ/F1p431u6m1hda8FNrehLDb694h1jxDf65qHii01rxRe2dpFHpVvpkHhiw0yBbj7TbSef+xTMEVnY4VVLMcE4CgknAyTgDoAT6V/Ht4m8V+Gf2MP2ybzxL+zR4k0X4n+HPh/Lajwhr/iTVbLxlo2tjxh8P7ez8Qi71LwTP4ds9RGnXviTWLW2GnTWv2S6sYIbz7RLbXKy/wBgi/v7dd/HnQjdt4x5ifNtznGNxxnPvmvjPHThPA5NnmUcT5Nh5YPI+Ocv/trDYWrTeGr4XHSVDEZhRng5e9hY+zx+CrKk401Tq1q2HVNewbl+sfQ48S854r4O4n8PeK8dDM+MPB/PFwnj8xoYiOPweYZPD61gskxdHNYXhmM/b5Nm2EliFUrSr4bCYTGyrS+uRhD+UX9rD/gor8c/i/4/v9K+H/jq98DeBfB/i7xxp/gjVvhVqnjzwPqXjbwpf6tb2/h/UfGcMniEPqF7HpWl2tzao+maT9hm1PVA9lD9oMMPoWk/8Edv2sNU0rTNTuPFvwh0S51Gws7660fVvFfiyXU9Knu7eOebTtQl0fwZqulSXtk8jW11Jp2p6hYvPG7Wl7dQFJn/AGj/AGbf2BfgL+y/rut+KfCVvrPi3xFqhsnsNf8AiJF4U1zV/CX2S21m0vD4S1PT/C2i3mhjWrPW7i11zyp3/tC2t7SGQrHE6yevf8NW/swZK/8ADRfwOyCQR/wtbwNkEdQR/bmcjuOtfY4/xjqZVSwuR+DHDKoZRllCnHHZnWyZ43GZjUqx9rTdbD0qKlhvZ15Y2UqtepUeIq1JvD08NRpWq/lWTfRWo8S4jMuMPpY+ILxvE/EGLr1Mm4fwvFccqyzIqGGmsPXWEx2KxUoY/wBvg6eUQhh8HQoQy/D0KKxtfMMXiFPC/wA0Hxe/Yc/a9/Y+tZ/i6mq2tvovhGwsrq7+KPwt8fT6dP4cuPEmpN4STTIRft4W8afbbltTt7a7k0rRrnT2sNYVJL10GoRW37hf8E2/2sj+0j8H4vDGvRa7cfEf4PaH4X0Pxz4g1JPNsPEn9pTeIbHw3q1rqd3rusa1q2tXei+GorvxbfarBp/n6/c3U9lE9tMqw+Aft5/tw/sl/Ej9nP4y/CLw18R28a+M759J0rTNG8N2HiWwtb3WdC8a6JepfWfjC88H6l4T1PRdMn0w6vcPZX7W3iTSbOax0bWbSbUrPU4flT/gin421Ww+M3xa+HUNvYNovif4bW3jG/upIpzqcOp+CfEumaNpUFpMtytsllcW3jzV3v45bSaeSe309oLi2SK4juff4mp8QeIHgzn3EXHHDiyninhrMaNXKMVPK8RktbE5TD+zJV6s6WLlKtiKNSjjsyUVThSwc69Kg6MfbUq8n8V4e4jgfwS+lfwXwL4P8dviXw58QMhxWF4my6lxDgeLcLl3ElZ5/DB4ahiMshTwuBxVHFZNkHPLEVcVmtLB4jGRxc/quIwcY/0SeLfFOh+B/C3iTxp4mvDp3hzwloWreJdf1AW9zdmx0bQ7CfUtTuxa2UNxeXJt7K2mlEFrBNcS7PLhikkZVP8AMB+1V+3R8Wf2wfifoXwx+B134r8I+Atfv4/A/hPw1Z6rfeDvEHj6b4gWfhvQ9Q0j4lpY+Mb/AMJanYHXY76y0UTta2Npo2rXA1Ni9zcmP9Nv+Cw/xA1Twh+zp4S0Pw741vvDGteMfiPFpuo6Ro/iGfR9T8U+CF8HeLbXxRp95Y2d3b3Os+GBc6loVvrlrLFcaYJr7Sor5A9zah/IP+CMnwY8SeHfDnxK+MXibwhp9vovj+y8Mad8NPF8suhXup32n6HrXjKw8b2NoLe5uNb0W0/tvTtEF7bX8Gnw6pNp1hdQpdpZQzRfIeGuWZFwR4f5n4u5xgsLm+bQxUsq4YyzH1oUMO8TPEQwdWrRpVacvreKipYjEydH2k6eBweM9nGlONSvD9R8fuIeMvF3xu4f+i/wvm2ZcL8M1MthxH4icQ5NhauLxqy+lgp5rh8Piq+Hrw/s7LpzhgcvgsU6FGtm+a5W688VSqUMHW+WP+HNH7VIUkePfgnjGQn/AAlHjoN0ztOPh9s3ZyOG25/ixzXzjo3jL9rn/gnT8UPDek68dR8NXX2O88br8LdZ8Yza/wDDvxJaeIbPV/B41zXdB8EeL00q+vI30uWSya5vIL+3vdF0u5mQwW9ukn9ftfKX7Tn7G/wb/at0zSbX4hWN9o+taPfWU9t428IW3huw8bSaZYQa1HD4Yn8Q6v4e1y6bww1zrl3qcmjoI4DqcdveKVdJBJpw99ITH5njJ5X4kZflOb8LZhRqUMbHD5SlicPzU6kI1KcIV1CpCSm41U6cq6ShLD1KMlNzw45+g7kvD+V0eI/ATO+JeGPEbI8Vh8blFTHcSyll+OdLEUK0qOIq1cFKrRqwdFTw8o16WEk3UjjaGKg6UafPftAeD9U/bO/Y1vNG+GNzp+h3vxk8J/Dbxd4ck8ZzT6db6fY3Gt+E/HIt9bfQ4PEMtrerpVtJbvFZx6hEL5ki89oCbkfyhL8GfE5+PB/Z8F/og8Zj4sH4QnVPtN8PDv8Awkw8V/8ACI/b/tg0/wDtL+x/7T/0j7T/AGV9t+x/vPsHn/uK/r+/Zj/Zj8CfspeA9W+Hvw+1fxZrOi6x4rvvF9xc+ML7StQ1KLUb/StF0iW3t5dI0XQ7ZLFLbQ7V4ontJJlmkuGa4ZHjjj/maj/5SfP/ANnzN/6vEV9X4D8QfUH4kZJkGLWK4dyvCY7iPJq2KwP1fFzxNSjToQliISrVpqnCjgsPTdGVSSlKEqradRxj+afTO4Iecx8BOLeNcseW8dcQ5jlHAfFeDy7OPr2WUsBQxVbGVYYGtTw2FpOtVxebY2usVCjCUKdWlh+WSoKc/wBIf2Of+CZfx5/Z8/aL+H3xc8aeLvhdqnhvwp/wlH9o2PhzXPFl5rE/9t+DvEHh60+yW+peDtKspPLvdVt5Z/Ov4Nlukzx+ZKqRP+6NFFfzVxnxtnnHmZ0M3z+eFqYzDYCll1KWEw0cLTWGo18TiYKVODknP2uLrNyurpxVtD/QLwo8I+DvBnh7GcMcE0cxo5Vj85xGe4iOZ4+pmNd4/E4LL8vqyhXqRhKNL6vlmFUaSVozU5J3m7FQ3H/HvP8A9cZf/QGqaobj/j3n/wCuMv8A6A1fJw+OP+KP5o/TJ/BL/DL8mfxNfsyqr/tTfs9I6qyN8ffharKwDKyt480YMrKcgqQSCCCCDg8V9mf8FOP2VPFHwd+MHiD4u+GvBnhfwt8DfGOo+EdJ8JN4OOi6NYaN4iHg8Q6hoU/heyXT7vT7+7u/C2u+IJLzT9NuNHnhvreWbVP7Wubqzh+NP2Yv+TqP2eP+y/fCz/1PNGr+vn9oj4A+Bf2lvhfq3wt8fx30ek395pmqWeq6ONJj8Q6HqukXkd1b3+g32saXq9tpt5c24utHu7pLNppdG1TVLFZI47yRq/vPxQ4+q+H3iVwZmVT38px+RYjLc7pclSq1l9XM8NVniqFGFWlGWLwrpKdGU1U/dyr0owftmf4t/Rz8FcP43+AHixkFF+x4mybjLAZ9wjiVVoYaLzzD8OYzD0cvxuKq4bEVIZZmMcQ6WKp0nR/f08HiZVF9UifMX7BX7Z3wx/aB8B+DvhhZ694rufjF4D+G2gp41svF9hezalrx8NaV4X0PxB41g8RRT6rpupWWp+ItVWOJtS1W18S3czT3l3o0MJE7/odX8YngXxV8ff2C/jxa69deFL/wd460S21rTrrwz42s9ai0DxT4d1CTUNCnluU0fU9HTxZ4aGp2Lano2o6Zql1od3rWh2Go2k92LJM/18/DH4q/D34x+FLLxp8NPGGg+M/D12tuj6hoV9FdCxvZrCy1JtK1a1DC90XWba01CzlvdE1aCz1bT/tEUd7aQSNtr+e/Gvw6w/Cea4bPuH3PG8KcRwqYvC4ynWhjKGGxrmp4jDfWMPSjRhhqqrU6uXuU5OrD29OE5/V52/uT6JHjtjfEzhrMODeN40sp8SeBKtDLMwyrEYarleNx+UQoexwOP+o47E1MZWx+HlhcRh87UKVOOGq/VK1WlRWOpKX8qMv/ACk8H/Z8kP8A6vRK/rwr+Q+X/lJ4P+z5If8A1eiV/XhX0P0iP+bb/wDZG0P/AHXPhfoKf837/wCzqYv/AN3j+er/AIKWf8FBbvUNci+CHwB8WeOvCGq/Dvx1rdt8R/GWg3Ws+ELy/wBa0G2GjQ+G/D2raTrtnqd9o1nqd54htvEkGp6LBb3mraNo15ot1d2EQurr538Bf8Eu/wBq/wCOPg/w/wDGOXxn8O7KT4nWC+NwfHPjDxXdeLL+38Ru+qWmta3caV4X8Q20t7r9tcxa25l1a41ALfouqR2upLd2kH7AP/wTD+Az/HYftBN4r+K3/CYj4r/8LgOmf234U/4RpvEn/CVnxebBrM+DDqJ0M6kTAbb+1fthsv3Rv/O/f19Xap+0v+zjoGp6joWtfHr4NaNrGi311pWq6RqXxL8GWGo6VqOnzyWl7p1/YXOsxXNleWVzFJb3NrcRRzW80bxSIjoyjqo+KWG4X4fyLh/weyaticXQwyxPEebY7J547H1cTVvKrh5xp0Vz0ZYicpwruShThSpUKNKCUpS4cV9HLMPETjjjHjb6UvFWGwGWY3MHgeBeGsn4opZPktDAYbkhhsbCpWxcvZYqngKMKNbBqEq1atiMRjcTias5QhT/AJoviX/wTh/bG+AYu/H1nbaPrek+AdBn+Id98Qfh948trFfCg8MfbdWuLi2TxFN4S8WDWdFt9LXV4pdF0e6H721Gn3c1+stvB+on/BKz9sjU/i94buPgL8Q77xX4m+Jng6x8T+LrXxrrVzPrCaz4KOt6GkVvrviHWPEN/reoeJ7TWfFF5aWsUel2+mQeGbDTYFuPtNtJ530z8Q/+Cgn7DlhJ4k8AeLvjB4W8RQXWmy6Vrdhp3hjxR498Kavp+taWrT6e+reHvDeveFtbsrqxvfsuo20F/eQI7XOn3yJPDc28f4Bf8EyWU/tz/BcxHEbzfEXaFBVTGfhf44ZRtwMKAFYKQMEDgEDH2E6/Efif4Zca1/ELhmWT5hwxlUc+4dzh5Jjcplj/AKvl+ZYuXs5YuajiYOOH9nWWEdPDRp4yhUlRnNQ5vyqlg+A/o7fSD8I8J4G+INPinJPETiOpwVx1wuuLso4lhkrxmecPZXTdenllHnwFWM8cq+DeZqtj51sqxuHp4qlSlUVP+gH/AIKC/sz+O/2qPgz4e8A/D3V/C+jazovxE0vxjdXPiy+1Ww0+TTNO8N+K9Jnggl0jR9buXvXuNbtXjiktY4DDHOzXCOkaSfyx/Aj4LeKf2gPiv4Z+EHgzUND0vxL4oOtLp194hub+z0aD+w9C1TX7v7Vcabp2qXsYkstKuIoPJsJt1w8KSeXGzyp/cDcf8e8//XGX/wBAav5HP+CY3/J8vwb/AN/4if8AqsvGleX4D8W5xgvD3xMo0J4dQ4RyepnWT81CMnDHYrA55iqssQ2/39J1cuwzjTlZRipxv77PovpneGXC+beOn0esTjKWOdXxP4qw3CfFXs8bOnGrlGX51wZlmHhgYqLWCxCwufZgp4inzSnOVGbV6ST/AGz/AOCdH7GPxR/ZG/4W7/wsnX/BGuf8J7/wg39j/wDCHanruo/Zv+EZ/wCEu+3/ANof214e0HyfO/t6z+y/ZvtXmeVceb5OyPzfzD/4LQu6/tO+CQrso/4UZ4dOAxAz/wAJx8RecA9eBz7D0r+nKv5i/wDgtF/yc94J/wCyF+HP/U4+I1eB4K8R5lxd40VOIM5lQnmOPybHfWJYejGhRf1TL8HgqPJRi3GFqGHpKVnrJOW7PuPpa8B5B4YfRMo8EcKQxlHIsk4qyb6hDG4ueMxcf7RzzMs1xPtcVNRnUvi8dXcLpclNwprSCZ+0/wAPvBmrfEn/AIJ9eCvh9odzZWuueO/2RfD/AIR0i71Sa4h0631TxJ8IrTSLG41Ce1t7y6is4rq8ikupbe0uZ0hV3igmkCxt+HX/AAT3+Jr/ALJ37Yviz4ReP73X9WPifXJvgHNZeDbg3vhq5+JMHxH0bw7o/iTUbfWL3QjNoulmHxDFa6s1hNrVpZavcLbaX/p13EP6E/2UP+TXv2cv+yGfCj/1BdCr8D/+CqfwPT4GftA+GPjp4Q8TLo158Ydf1TxRYaV4b0b/AIRi78FeIfAdl4GW+8QWmuaZqTTahrPiDXtUuPE9xqUNhpV7b6rJNcSTX13O13V+FeNwOc5/4i+GeazjDCcY1M6qZfalNzlm2X4itiIx9tThN0owwlGri05+zp/7HKCqe3qUYT5/pHZTnHCvBPgR9IPhunOrmfhXh+EqGdp4mjClDhnPMDg8DUqLC161GOInVzLF4bLZxpKvW5czhVnR+p4fF1af9N9eO/H340eGf2fPhN4s+LnjCx13UfD3hRNJW/s/DVvY3WtStruu6Z4dszZwajqOk2b+VfatbSzmW/gKW0czx+bKqQydB8Kvif4J+MngLQPiP8O9bPiLwh4hjvhpWsHT9U0s3baTqV5ouo5sdastP1KEwanp15bk3FpF5vledEZIZI5H/Fr/AILKftD6rp8Xhn9mPT9Kv7Gz1zT/AAx8VNa8UWniKe2t9X06LUfGuhReDNT8OQ2CR31lHqul6Z4lS7udWlhS/wBOsSuli4tYLyP8i4A4KxfFHHWWcL4vCV6KpZj/AML2Gqv6nisLgMvrx/talOFd0qtHFU4QqUPZqLr0q0v4TcJJf1B41+LeV+HXg3xD4i5bmWDxMsRkS/1Nx+GX9q5dmOc53g5f6tYilVwka+GxWX1q1WjjfbupHB18JB2xEY1YSfyV/wAEyIPH3xh/bm0L4h+IPFOo+JdT8HeGfGHjDxVrXjDWdX1fXtX0t/DL/DrTrWDUbsahNfX9nc+KdCWOG/u7eGDRrC4EM++2tbWb+hz9pP8AaS+Hn7LXw5/4WT8Rhrdzptzrmn+GtI0rw5pyalrGsa5qUN5dxWdpHc3enadAINN07U9TuZ9S1PT7f7Lp80ME02oTWVndfIn/AASO8DJ4V/ZA0fxENSXUG+Jfjfxl4xEH2IWzaMtjeW/gL+zPtH2m4N+sjeCDqv2ny7MIdS+x/ZmNp9qufiX/AILQfGjxR/wlPgX9nr7BoX/CGf2F4c+L/wDaX2a+/wCEk/4SX7f8RPB/2L7Z/aP9m/2N/Zn777P/AGT9t+2nzPt/k/6PX7DxFgsN4reOtLhtYWOHyXh2MsgxNPC1o4acst4exGKnjfYuWGpqlN4uvWoQpQpz5aUUqNaUVTmv5Z4EzXMPo2fQ2xPHrzCpjeLeOpU+NcBiMxws8wpwz/jjA5bSyhYuMMfWeIpxy3BYXF1MTWrU+fE1G8ZhYzdai/hjw14J/a6/4KJ+PPE+s6Tf6n4vs9H8XHUdRi8QeOprfwV8Kbf4late3Ii8PaT4k17UNUsPDVrFo0wbTfC9nrV/Bpmi2dv9mu50sY5/f9W/4I5/tYafpepX9r4r+EGu3NlYXd3baJpfivxXFqWrz28EksOmafJrHgzS9Ijvb6RFtrZ9T1PT9PSaVGu721txJOn6Z/sF+K/2TP2e/wBnXwjotn+0N8OrbWvHlloXxL8a6V4w+Kfw/h1PQPGniTwd4Yttf0GCyjn0m60yw0u60sQRaZqcVzqdnP8AaY7u8lf5U+zv+Gq/2Yv+jifgf/4dTwP/APLyvV4n8YeP8ozzF5TwVwvSwHDGUYh4LLqEuGcdUniKWH5IVqleS5YpVsTGtOn9VhQ/dVIc061W+IqfN+Hn0WfBPifg/K+JvFzxExGdeIfE+Cjm2fYuHiDk9ClgcRjvaVcLh8JD95UlLC4GeDp1vr9XF3xNGoqdLC4ZwwVL+en9j/8Abd+KH7J3xgvfhJ8fdf17Uvhxp2uQfD7xrY+INT13xxqHwp/4QeDX/D1tb+Bbe08ST6Np+i2Gsz2SeI4tFsNbF9oOjRDQLW5uLeyin/py8J+KdC8c+FvDnjTwvfDVPDXizQ9K8R6BqQt7q0F/o2tWUGo6bd/Zb2G2vbY3FncQym3u7eC5hLGOeGKVXRfwJ/4KsT/sn/EbRfDXxF+H/wAYfhVcfFaxOsG40T4eaVpPi/Wfikbq68EaRH/wl/jfwleTQ6B/wh+hWl3daGfFrXP9qQC703RfKeCfH27/AMEoPij4G8V/sseFvhtoOuG/8afCz+2P+E60c6dqtt/Yf/CZ+O/HOteGwL+7soNN1EahpkEs4/sq8vvsgQQ3n2eYrGfn/FfJcv4n4JynxVwPD2ZcP5zXx9DJ+KMr/s7E4bAQlCliKaze9XCUP3M8TTwmEpY6nOphq0sXQwVaazLD14S+2+jVxbnfh74u8TfRtzjjfIeN+FcHk2L4p8O+I3n2Ax+c1qdStl1aXDKjhsyxdsTRwNfNMyr5PXp0cwwtPLMbm+FoyyDG4OrD9OaKKK/mo/0BCiiigAooooAKKKKACiiigAooooAKKKKACiiigAooooAKKKKACiiigAooooAKKKKAJU6H6/0FFCdD9f6CigCNup+p/nSUrdT9T/OkoAKKKKACiiigAooooAKKKKACiiigAooooAKKKKACiiigAooooAKKKKACiiigAooooAhuP+Pef/rjL/6A1fxP/sr/APJ0v7Pf/Zdvhh/6nejV/bBcf8e8/wD1xl/9Aav4n/2V/wDk6X9nv/su3ww/9TvRq/q36N//ACT3ix/2KMs/9QeJj/Nn6ev/ACW/0Zv+yq4i/wDVv4eH9s1c94q8JeF/HOg3/hbxn4d0TxX4b1RYF1HQfEWlWOtaPe/ZbmG9tTdabqUFzZXDWt7bW95bGaB/JureGePbJEjDoaK/lWlVqUalOtRqTpVqU41KVWnKUKlOpCSlCpTnFqUJwklKMotSjJJppo/0gxGHoYuhWwuKo0sThsTSqUMRh69OFahXoVoOnVo1qVRSp1aVWnKUKlOcZQnCTjJNNo/jS/aE+Cnxg/Yv+OF8+nw+Nvh7YnxB4wuPg548stfgg1fXPBdvqmo6La30HiXwjcW0Vrq91oFzajxBpCHS9StbTWIBqGk2NpqlrHL/AEn/ALCP7XR/a6+F2reJdX0PRPC3jPwdrlt4Z8SaFpWv/wBqtdhtC0u9g8XR6bPBDqWgaP4h1KXW7XSLC+m1XYdEvYV1vUpra5aLf/bE/Y/8EftceBLbRNcuj4f8a+GluW8CeOBDquqnwsdU1PQLvxGo8N2mv6DputnXNN0CLSR/akk/9n+d9ssgk6Msv80P7H3x1139k/8AaS8OX/iu+8V+HPB9l4sk8N/F3wm994g0K3FskGteF57/AMW+GbK0vLnVrz4fXGtX+v22h3ekXN+t/YTWNoLO9uftEf8AYUquA8ffDXE1Pq9JeJPBuFcn7OhWhLF03KpVpU8LL6xOOJpZxh8I6PLXnOWDzaNSXsaGHr0a2J/yzp4bOvoUeP2XUPr2Il4BeK2ZRpxeIxmDq08srxhh8NisTmUPqVGeXV+FcdmUMU54OlTpZpwzPDw+tYzHYPFYbAf1PftX/wDJr37Rv/ZDPiv/AOoLrtfyX/smfALwv+0j8TD8OPE3xd0H4PG50L7X4f1jXbGx1L/hJfEk2t6Fo2meDtIsL7xJ4Y+2a1q39rzXFjbWl5dXs/2CWKCwm3tJD/Y/pOp+Dvit4C03WLSOx8V+AfiL4UtNRtodU0x303xF4T8V6THcQx6ho2sWscj2Wq6TfKt1p2p2SO0M7215bKTJEP5Tv2m/h9qX7Hn7b7+NIfBV9P4D0H4x6R8VPh/DH4en8DeE/EGnWOqeH/H914N8I362l/pH2Lwm+r23g+4vNIiu4bB7eGaXTLNpE06Pxfo85xiaeA444MwGIrZTxTisNUzXKa86WFlVjisBTjhamFjhsxpyw0sTTqyh7SniY2hSdWo4ctCrKn9Z9OXhfAV858HvFfOcDheJvDnLsfQ4d4lwdPE5jChPLs6ryzGjmNTH5HXp4+GArYalV9hiMvmpTxMcPRVXmxmHp1vuv/hx6/8A0cuv/hoD/wDPMo/4cev/ANHLr/4aA/8AzzK/Rn4Of8FCf2Wfiv4X0/Vbv4t+BvAXiSPQvDt/4p8L+NdebwqNA1rWbBri90LTdb8Y2Hhex8W/2NeQXdjd6l4eS6th5VvczLbR39mJes8cftzfskeA9Hj1fV/2gPhvfwXN4unW8Xg7XYfiBqS3c1tdXEUk+j+Bl8RapbWQW1kWTUrqyi06Gdre2muUnuraOX5yr4k/SIoY+WWVKmfrMIVfYvCR4OyupWdSycVCNPIZ+1jONp0503OFSm1UhKUJKT+8wvgF9BXGZLS4iw9HgqWSVsP9ajmVTxW4ioYaNFPlk606/GdL6vOlUTo16WIVKrh68Z0K8KdWE4L8vY/+CH7JJG//AA0srbHR8f8ACoSM7GDYz/wsw4zjGcH6V+2HxO+J3gj4KeAdZ+IvxG1r+wfB3hmLTV1bVxp+qan9nOpalY6Jp4+waNZalqUv2nU9Qs7b/R7SbyfO82bZBHJIv8wv7PvxM/bB/bN/aJ0zwNJ+0v8AGLwo3iK21bVdf8ReEL3XrTw94X0nw5oUr2l9ceDvB+r+EfD2l2OpX1ppGgy3Sf2XDNrGtW89w93qd75d3+8H/BRTwp4n8Zfsb/Fvwx4Q8P674t8R38fgYWOh+HdKvtb1rUPsXxE8I3t49rpmnQ3V7cfZ7O2ub25MUUnk20E08hEcTuOnxKyrijE8YeHvC3iRxrgs+q4zG4VYunlmAwuWSyHL86zDLsFi6311ZXhMNWeJjhq0qE8RTqSw6wPt6+Go0sTBVuDwA4i8O8v8LPHHxG8BPCPN+DcNlWU5jLLa3EOdZlxFHjPPOEsjzzNstwf9kS4izTMMJDAyzDCxxdLBYmjDHTziWDwmYYrEYCrLDfh54g/aQ/bp/bn+LN3dfAeD4jeFbLTLH+xYfDHwn8Y+LPDPhHSNL+2eJdb0e88d+IbrX9M8LxeJtQsFu9MOtag3h2HxA2j2tnpulRXEcdmfovwp/wAETdd1fwv4d1bxN8dR4S8Tapoelah4g8Ln4bWuu/8ACOa3eWMFxqmhnWbH4kRWernSr2SewOpWipbX3kfaYVWORRXA/wDBIf49/CD4Oa/8ZPDvxS8e6J4Ev/H/APwgQ8LTeJZJ9M0a7Pha28f3mt/bfENxCugaIbeLULFIP7b1LTv7QubmGz0/7VduIK/oj1P4heAtF8HR/EPWPGvhTSvAM1jpmqReNtR8Q6TZeE5dN1p7WPR9Qj8Q3F3HpL2WqyX1kmnXS3ZhvXu7ZbZ5DPGG+j8TeOeL/DniH/U/gPJsNwrkmFhltDLcfhMihisVn7rYKjV9msVmWHxdDGxw+LxGIwtNYenUxKxFKtGpiJzlOlD4P6PXg74XeO/A/wDxFPxn4qx/iRxdmVbP8Xn2TZnxjWy7LuC1hc3xGGdd5bkOOyvF5VUx2W4HBZhiJY2vRwDwWJwkqGBp06dLE1fwa+Ln/BK74Kfs9fs7/FX4pfEr4yeOPEPiPwloupX/AIZvtB0XTvDHhubWb6Cz0jwVoOraA1n451e7/tLxjeWdlfalb69plqtlqMfmppsdlc6m/j//AARg/wCTpPG3/ZCvFH/qd/Db/Cvq3/gqL+218JtY+EU/wD+G2ueE/ijc/EyysNR1/wAUeEPGFnqmmeBoPDXjDw3rujRzSaVY6npOs3viCXR9UtZNOi12wv8ARoba31C8tpLfUbBbj5T/AOCMH/J0Xjc/9UL8Tfr46+HH+FfT4PF8a5p4EcfZ1xziMxq5hmccVPL6ePo4XC8mV0FgaNOrRwOHoUJYONbGrHJ061Kk6lOlRr0qSo1adWt+e5rlfhJw39MrwU4T8HsDkeGyPh6pllHO6+S4nMMy9txHjJ5viq2HxWcY7GY2OaVMJlUsoftsPiMQsPWxGJweJxEsVh62Gwn07/wW68L65d+Gv2fvGlvZeZ4a0HWvH/hrVdR+02qfZda8VWXhbUtBsvsjzrezfbrLwj4hm8+3t5ba3+weXdTQS3Nok/09/wAEoPij4G8V/sseFvhtoOtm/wDGfwsGsf8ACd6OdO1W2/sP/hM/HfjnWvDf+n3djBpmo/2hpsEtx/xKry++ybPKvfs8xWM+l/8ABRT9nnVP2i/2c9X0XRNWvrDWPh5f33xV0vStM8Oz+JtS8Y6h4V8G+Lbaz8G2Fla39lcwXmvXGrxwW15bxalPHMiRRaXdvMFX8TP+CVX7RnhD4EfGbxjpHxK8c2PgnwF8RPClhppk1Owd9OvPHmm+JNLtvCkmo6xBp91LoFnYaTrfi83WoajeaZ4eghne41m5RrWykh+JyXBQ47+jvickwEq2JzvgbN6mZ0MvwVGvOtVVfG42uoV6aw+InivbYHNM0nQWD9navh8Oqs4RpV1U/XOLM3q+DX06cBxdnMcLl3CPjDwtQ4exmeZvisFTwmHeDyrJ8JOrgq8sdgqWWrC5zw7w5Sxk809u5YTG454ajVqYjByof1Q1yHjX4g+A/hvpcGufEPxr4U8C6NdX0el22reMPEGk+G9NuNSmgubqHT4L7WLuztpb2W2s7u4jtUlaZ4LW4lVCkMjL5f8A8NX/ALLucf8ADRvwMz6f8LX8C5/L+3a/Er/grB+2F8PPixa+H/gB8NrjQ/HGleHdd8OfELU/iR4b8SR6toy64NH8W6Q3hCygtdNk07VDFpuv6Zqk+uaZ4hvLaC6ml0WW0TULO8Fv+RcCeG2e8X8TYDJa+W5tgMDVlKrmOPlgp0VgsFTSVTEKWMjSozkpzpwjSUnUqSmlCEmf1B4yePvBvhf4fZ3xZguIOGM6zjDQp4fIslhm9LFyzfNq8m6GBcMrnicVThKlTr1amIcI0aMKUp1qtOOp/QL4K+IPgP4kaXPrnw88a+FPHWi2t9Lpdzq3g/xBpPiTTbfUoYLa6m0+e+0e7vLaK9itry0uJLV5VmSG5t5WQJNGzfyeR/8AKT5/+z5m/wDV4iv6Bf8AgnX+zzqf7On7OWkaLrWq319q/wAQ7+x+KuqaVqfh2fwzqPg/UfFXg3wlbXng6/srq/vbme80K40iSC5vLiLTZ5JmeKXS7R4Srfz8/EWO9+Dv/BRa/wDGfxP0nXvBXhu1/auuviYNR1zQNZtvtvgGD4xXepDxXpFp9ha91rRbiy0+9msbzSLe9j1D7PJHY/aJF2V+zeDGAyzAcS+K2S5Fj55vhYcO4zBZViJU3TxOZezlWg3SwyjGpUn7RuKjSpvmXLKN4yi3/J/0sM54hzvw/wDo18W8YZLS4YzKrx1lmbcR4GGIVfL8g+sRwlWMcTmHtKlCjSWHUakp4itHkfPCo4zpzjH+vOivEvAX7SnwA+KFxoFh4B+Mnw48Taz4nsU1HRfDen+LdGPiu6tzpz6tLHJ4Umu4vEVne2enxTXOo6de6Zb3+mpb3K39tbvbzrH7bX8uYzAY7Lq31fMMFi8BiOXm9hjMNWwtbl5pQ5vZV4Qny88Jwvy25oSjvFpf6M5VnWT57hVjsjzXLc5wTkoLGZVjsLmGFc3Tp1lD6xhKtalz+yq0qvLz83s6tOduWcWyobj/AI95/wDrjL/6A1TVDcf8e8//AFxl/wDQGrmh8cf8UfzR6E/gl/hl+TP4m/2Yv+TqP2eP+y/fCz/1PNGr+2qv4lf2Yv8Ak6j9nj/sv3ws/wDU80av7aq/qb6U/wDyP+E/+xLi/wD1Lgf5vfs3f+SJ8TP+ytyz/wBVMj8hP+CpX7Gg+MHhO8/aA8HDx1rvxV8C6B4V8J6f4D8N6P8A8JJZ+J/DTeLb/wC1paaNptg2vwa1Yy+LbjWbjU4bu/sk0nRZraTSIzM+qWvwr/wS0/bP0v4L60f2ffHFn4U0PwD488Wa54wl+JfiHxRb+FYPBuqQeDHF1BrD6qj6VqVnrUnhfQdK0mM3mhz2OoXd00lxqxu7Sztf6ZCAQQQCCCCCMgg8EEHggjgg9a/ke/4KM/spXP7NPxmbVrC6sLzwH8YdQ8YeMfCUWnaLpvhzTvDNwPEl1c6j4A0/R7PVr+VrPwlpOreGxbap9i0iwvYdSS3sbGJrC6jiPB3Pct4+4bzLwf4vr88atGpieFMQ3UjiMPPD0J1ZUMN7FUoTnlU6Uszw8MRVaxEJ4qhWjWw0fZKvpUcHZ94KcfZB9KTwvwfsqmGxdLA+JOBjCjPA46ljcZRw0cZj3ipYirSpcR0sTDh/HVsFhoSwValluMwk8Nj6jxEsHTtW0rX/APgpRpmuaHqVhrOi6x+2tp+qaRq+l3cF/puqabf/ABtgurHUNPvrWSW2vLK8tpY7i1ureWSGeGRJYnZGVj/XB4s8UaH4I8L+I/Gfie9/s3w34S0LVvEmv6j9nurz7BouiWM+panefZLGC5vbn7NZW0032e0t57mbZ5cEMkrKh/ix/ZWAH7Tn7OYHAHx0+EoA9APHmgYr+wD9pjSdU179nP49aJoem32sa1rHwb+Jml6TpGl2k9/qWqalf+DdZtbHT9PsrWOW5vL28uZYre1treKSaeaRIokZ2VTt9InLMPT4k8N8mq1prCwymhllXENwp1Fh44+hhZ1nKSlTpz9mnO8lKEJatOKscv0FOIMdW4B8e+KsLhaTzKrxLi+IMPguWrXoPHVMlx2Y0sLyQlTr1qTruNHlhOFWpDSMozaa/n6+PX7Zf7T/AO2H8bB4B/ZZbx1pPhvwtruvWfg5vhDrHjnQNZ8V+G9Q1LQdDtvGHxFvo7/RrLT9Fa8t7TULC51zS9AsvB1t4jn0/WL+eXzb+S98I/8Agkp+0L8WtV8c63+0F4kvfhFrMl/ZapZaxqaeHfivqXjvUtbn1e68R6hqF7onxChurK9s7mKzuLq51SWefVptXeVH3207N5l/wTG+KHgf9nb9p7xSfjdrR+Gv2/wLrXw3I8T6dqtl/ZvjO58ceCz/AGP4g/0J/wDhGvsf9kal/ad/4g/s3TdJ+xzf2neWm3n+oPTfiD4D1nwdJ8Q9I8a+FNU8Aw2Op6pL4207xBpN74Ti03RHuo9Y1CTxDb3cmkpZaVJY3qajdNdiGye0uVuXjMEoX0/EfjDP/CathOEvD/IMBk2TPLcup4Lij+yZ47MMbiK0/rNWFHH4hVMtxdatKFRV4VsNjJy9tVnRVCcaUqfz/gJ4WcFfSYwuZeJvjdxrnXFXFkOIM9r5v4d/6zUcoyTKMDhaEcuw1bFZNgZUc+yrC4WnUw8sJVwuYZVSj9Uw1HFSxlGWIhX/AB00X/gjT8CvCPhLXdY+Lnxt8cag2jx6lrN34k0JPC3w78N6P4csNPjuZ5dWg8Q2vjcx/YDb397faxJrlnZrZPEjWUH2SW5ufzM/4JkKq/tzfBZUbciTfEUI2Qdyj4XeOFU5GAcjByBg9uK/YP8Ab0/4KBfArw18GvGHw1+Hvinwp8X/ABb8UPCmveDbq08IeJ1vdL8M+HfGPhzxRok/iufxHpGla74cvb3SNQhtI5PCL6tp+s3MN/BeM1rZslxJ+PP/AATC5/bh+CWOfm+IX/qrfG1e/wAH4zxAzjws8U8747xOaVXmHDecxyijmOGw+CjGhhsjzN4qvhcFRo4eVClXq1acG3h6dKp7CMqPMudnxHillPgjwv8ASO+jhwh4NYDh3DxyTj7hSpxRisizDG5vUq4zH8YcOf2dgsxzXFYrHQxlfBYfC16qUMbXxFB42rTxfs5eyif11XH/AB7z/wDXGX/0Bq/kc/4Jjf8AJ8vwb/3/AIif+qy8aV/XLMpeGVFGWaKRVGQMllIAycAZJ6kgetfx9fsfeKdC/Zl/bU8K6r8bb4eDLD4aa/8AEfw341uPs91r40bWYvCni3wpJaFPDMGsy3wXXriKxNxpyXdthzc+d9kV51/NPAqlUxfBvjVl+FpzxOPxnClKng8FQjKti8VUllvE1GMMNhqalWrzdavQpKNKEm6lalBLmqQT/oH6ZFejlvix9EfPMxrUsBkuVeJletmmb4ypDDZZltGHEXh5i51cfj6zhhcJTjhcFjMTKeIq04rD4XE1m1ToVZR/sJr+Yv8A4LRf8nPeCf8Ashfhz/1OPiNX9Gvgb4r/AAv+J41I/Df4i+B/H39jCzOrjwb4q0TxKdKGo/afsH9pLo99eGxN79ivPsouhEZza3IjDGCTb/OV/wAFov8Ak57wT/2Qvw5/6nHxGry/o7YbEYTxToYfFUK2GxFPJs19pQxFKdGtDmoUZx56VSMZx5oSjOPNFXjKMldNM+k+nXj8Dmf0ccbjstxuEzDBV+KuG/Y4vA4iji8LW9njcTSqeyxFCdSlU5KsJ058k3y1IShK0otL99f2UP8Ak179nL/shnwo/wDUF0KvjP8A4K1fBvxL8Uv2dNK13wZ4SsPEGs/DDxXd+NNf1eWbQ7LU/Dnw30/wd4ou/GNzaX2rXVndS2ctzZeH7i+0bSZbi81ObT9PlWwunsYjD9mfsof8mvfs5f8AZDPhR/6guhV7Zrekabr+jatoWsadY6xpOs6bfaVqek6nawXunanp+oW0treaff2d0kltd2d5byyW9zbXEbwTQyPHKjIzA/nGE4hxHCniHU4hwsIVa2VcS4/Eeyqc/JVpvGYilXpy5KlKX7yhUqQX7yMbtc3NG8X+85nwPgfErwKw/A2Y1quHwvEnh/kmBeIoey9rh66yrAYjCV4e2oYmmnRxdChUb9jOajFuk4VeScfwa/4Ir/FS7uLz4xfCnX/GWu362Gg+FvE3gLwff3us3+i6Homnav4jj8b3ug20nnaNof2nWfFPhybUre3Nndatc3aXSw3f2S6lt/lj4tWnhr/goD/wUVm8L+CfijfN4D8Z21lpng/xbe6FrWpW2i6d4O+Fx8Q6tpmm+FtfufDd7aWNx4n0nxCslsH0+A6hql9rMcd0blmuvk/T/E/7Rn7Dfxh8XaRo18vww+Kllo0fhrxNbi28GeLxFoHiOPRPFdvZCSeDxLoJF5bxaHfiexc3VuF+zNNCxuYD+hf/AARt+DnifU/i74n+OWo+ErC+8A6J4V8UeDdG8WXU2hXE+kfEie98F301vpmnSXLa7YXsvg/V9Thk1i1sIrJtP1G90w3xN3PbP/YfEmT4Lg3HeInjLgMzwEXnnCeEw3ClTC4jA1aDzPH4OhCePhSrYP6riZ4ivg8rxmBdDFYr69Crmjr0airUlH/LDgHirNvFXKPAn6Kmc8O5zUhwh4m5lj/EihmGBzfD4uHD+TZriqtLJq1fC5qsxwFHBYTNeIcrziOMy7LXlFXD8PQweIoTwmJdT+iLwn4R8L+BfD+n+FfBvh3Q/CvhzSlnXT9C8N6TY6Ho1kbq5mvbtrTS9Ngt7O2N3e3NzeXHkwr5tzcTTyFpZHdv5r/+C0BH/DUHgYd/+FG+HDj2/wCE5+Igr+nKvyG/4Kw/su3XxU+HehfFf4cfDXXPGvxc8Oa34d8N6td+HJNY1TWY/hikfi24ktLTwna3slvqYh8Wa7plzcXGmaLd63b2s01zNMmj2d48H80eBnEODybxMyzG5viJqOZwxuXSxdarSUY4zMUlTrYuvia1JKE6qaqVHOdSVScUoTlI/wBBfpicDZpxV9H3iDKOFsFSlPIKuUZ3DLMLhsRKc8ryKcnWwmWYLL8LiJSrUsM06FBU6VCFGlNyq0oQR8h/Cj/gjq/xO+F/w5+JB/aEXRP+E/8AA3hTxn/Y3/CrDqH9lf8ACT6FY61/Z32//hYdl9t+xfbfs32r7Ha/aPL837PDv8te/wD+HHr/APRy6/8AhoD/APPMo/4Ja/tu+CPCng3X/gr8efia2g39nr1pe/DjX/iF4m1WXRl8OL4ZjsZ/BttqerW7aB4K0XwlF4Wgl0q11DXtPstRufEg07SLBLuBlu/13/4aw/Zdzj/ho34F59P+Fr+Bc/l/btffcbcd+PPC/E+bZPDM8yr4Whip1MvxOG4VyqthcRgK/wC9wtTD1/7GrKtCFOSoTk6s5xrUqtKq1WhUivxLwh8G/oX+Inh3wzxTWyDIMHmWMy+nQzvAZj4kcS4PMcDnWDX1bMaOOwb4swzwtWrWpvGUaaw9KlUwmJw2Iwylha1CpP8AIj/hx6//AEcuv/hoD/8APMr9Gf2Lf2JfC/7HGieLIdL8aa5448S+PP7E/wCEq1W/sLHRtFP/AAjV14ibRf7B0KBr+90zFl4heDUvt/iHWftlzbLdW32CKQ2i/kP+3z+3d40+LPxi0D4YfsweLvHOl6d4J1zU/Ddl4p+EvjrxPCPjBrXiaDwvb29nY6L4dtdLlv8A+wdfstU0XQZ7a88Q22vm9bUNEmW0vomuf2p/Yi034saV+y98K7b43yeKpPiZLY6/qOvt431O71bxWLfVvFeu6poCa5dahdXeoxXsfhy80mN9O1CVL/SFVNKvba0ubOW1h8zxIxnitHw8yjG8ccXUJ4fibFYXm4Rll2U4HNYUILE43CYvFvA4ShVdCH1TC16uHlJPDYjE4aji6dPFU5Uo/ReAmU/RrqeOfE+VeEHhjjaeO8PstzH2XifTz3ibOeGquNq/2fk+ZZZlizjM8bhYY2qs0zPCYfGxjKOPwOX5histr18vxEK9T6sooor+bj++QooooAKKKKACiiigAooooAKKKKACiiigAooooAKKKKACiiigAooooAKKKKACiiigCVOh+v8AQUUJ0P1/oKKAI26n6n+dJSt1P1P86SgAooooAKKKKACiiigAooooAKKKKACiiigAooooAKKKKACiiigAooooAKKKKACiiigBkieZHJHnG9GTOM43KVzjIzjOcZGfWvxN+Ff/AAR2b4afFP4e/Er/AIaE/tn/AIQTx54X8bf2N/wq4WH9qDw3r1lrf9m/2h/wsC8+x/bBZ/Zvtf2O58jzPO+zTbfKb9taK+r4b434n4Rw+bYXh7M/7Pw+eUaVDNKf1PAYr61SoQxVOlDmxmFxE6HLDGYmPNh5UpS9peUm4U3H82498IfDzxOx3DOY8ccP/wBt4zg7F4jHcOVv7VzrLv7OxWLrZdXxFX2eU5jgaWL9pVyrAT5MbDE04+w5YQjGpWVQooor5Q/SQr8pf2sv+CXPhj9pL4oR/Efwx480L4PC50JbPxBo2ifC+w1IeJPEkuua7rOqeMNWv7LxP4a+2azq39sQW19c3dndXk/9nxSz3029Y4f1aor6LhniviDg/MHmvDmYzy3HSozw8qsaOGxMJ0aluaE8PjKOIw9TZOMp0pSg9YOLbZ8L4g+GvBHinka4b48yKln2TxxVHGww08XmGAq0sVQb9nVo43K8XgcdR3aqQpYmFOtH3K0ZxSR4j+zj8I9U+BHwW8DfCTV/G998RLrwTY32lxeK9Qsp9Onu9Nk1fUL3R9Pj0+41bXJLKy0DSbqy0DTrVdSngg0/TLaK2S2t1itYT42/s5fBf9ovS9F0j4x+BrHxja+HL6fUdDlkvtX0bUtMuLuAW95Ha6x4f1DStWjsr6NIGv8ATvtp0+9ms9PuLq2mn0+ykg9uorieeZus4rcQUswxOEzmvjMTj55jgKjy7EQxeMnUniatCWB+rrDe0daqnDDRpU4wm6cIRp+6erHg7hh8K4TgjE5JgMz4UwWV5fktLI86orPcDUy3KqWHo4DDYyGcPHSzD6vHC4eSrY+eJr1KtKNerVnXvUf8/Hxh/wCCLHiC61PXNa+DHxS8JLaar4r1G80nwP4x0XXtE0zwr4TvZ9QubLTYPFtrqHjnVddvdGjbTtLje+0S0fUoBcahc30FxGLa5wvA/wDwRJ8dXmmTTfET43+EvDGspqEiW+n+DfCmq+NNNn0tYLZ4rmbVtX1LwHdW17LcteQyWMekXMMUENvcLqEslxJb2v8ARJRX6nT+kB4p0sDTwUeIKLnT5FHHVMqyurjnCCUYwqVKuFnQq3StKrUw8q823OdWU25P+cq/0Ivo44jOK2bVOCcVGnX9pKeT0eJeIsNk8a1WTnKtSo4fMqWLoWlJunh6GNp4KlG1OlhYUoxprwD4K/st/AT9nkXsnwj+G2h+FdR1JZ47/Xt1/rXiS4tboaabnTf+Ek8Q3ura9Foss2k2F3/YcOoppCXsJvUs1u5ZppPfmUOrIwyrKVYZIyGBBGRgjIPUEH0paK/I8fmOYZriqmOzPHYzMcbVt7XF47E1sXianKrR569edSrLlWi5pOy0R/TmS5DkfDeXUMn4eyfK8iynDKSw+WZPl+EyzL6HO7z9lg8FSo4enzvWXJTXM9ZXZ+NHxr/4I3/Czxz4ps9X+EfjYfBjw7DoVvY3vhVvD2u/EAahrkd9qVxca6da8Q/ECC9tftVndWFgdOiie2hGnG5QmW7lUeY+Gv8Aglz+1l4p8Hah8O/i/wDteXmleALSx0DS/D/grw7rHj74jeFLrTNHkElrYX/hzxFqfgTSdIs9BfTtFk0S1tLbVYFePci6edPtjc/vLRX6XhvGzxHw+Bo4GeeUsd9UlQngMZmuV5XmmYYGpQnzqtQxuOwdetUr1HaM6+MeKrKMY+ynTkuY/AMw+iL4C47N8Xm9Hg/E5L/accXTzrKuG+I+I+HcjzmhiqKovC4zKcnzTB4XD4Oh71Slg8rjl2FlUqVPrNHEQm4H5Z/B/wD4JZfCj4b/AAZ+K/w88TXfhT4kePfiLY69p+i/FfxB8N7J9R8BW9/4bfSNCk8PaHqXiHW4rO98P6tdX+vnUtI1PRNQ1Seeztrq5VdK06eDR/Yt/wCCch/ZD+J+t/Ec/F//AIWB/bPgXUvBf9kf8IIPDH2f+0Nc8Oa1/aP2/wD4S7X/ADfK/wCEf+z/AGT7JHv+1eabhfJ8uX9O6K8fGeKPHmYYXPsFjeIcRisLxK4POaNbC5fOOJUKdOlCFG+EvgKUadKEVSy94WmlG6hdtn1WVfR08GMkzHgzNso4HwWXZj4fwqQ4VxWEzDOqNTAutXrYmrVxajmShnWIqVq9WpPE55HMcRJzadXlskhAIIIBBBBBGQQeCCDwQRwQetfmN+0j/wAEs/gJ8ZrT7b8NtP0T4FeNLnXtO1HVvEXhzQNQ1PRr3RrHR7vTZdCs/Alt4o8O+E9GN7cNpupXGp6ZYQXUt1YTSTrPPqV5O/6dUV89w9xRxDwpjlmPDubYzKsUuXnlhqn7nERg3KNPF4Wop4XGUYybkqOKo1qXN73JzJNfbcc+HXA/iXlEsi464ZyviTLv3jowx9D/AGrBVKqjGpXyzMaEqOY5VipwioSxWW4rC4l07w9ryNp/zVeKP+CKnx1tNevYPBvxN+E+u+GkNt/Z+reJH8VeF9cug9rA94bzQtN8OeLLKyMF41zBbiHxDffabaKG6kNrJO9pb/bf7Nv/AASS+H3wZ+Iw8cfEnxhofxz0q20HULDS/BviL4cx6dotlrl7LaJHr11DdeLfEGna19i05dTs7bTtT0ia3jub+DVoWg1DTbOVP16or9Bzfx18TM6y2eV4jPoYfD1sNPC4upgMvwOExWMp1IwhN1cTToe1oTkoy5pYGWETVWrFr2bjCP4jwv8AQ2+j7wnn1LiLAcGVsbjsJj6WY5XRznO84zTL8qr0KlWpSjh8BiMY8NjKVOU4csc5hmkovD0Kimq0alSogAAAAAAAAAGAAOAABwABwAOlfnL+2z/wT10T9sDxT4K8Z23j/wD4Vv4j8M6Hf+G9W1D/AIRi68Wf8JDopvl1LQrP7K/izQLLSv7DvbzxBN9ot7ea51H+2vLupvK0+0Rf0bor884d4kzrhPNaGdcP46eXZlh4VqdLERpUK69niKUqNanUoYqlXw1aEoTdo1qNSMZqFWCjVp05x/dOOuAuEvErhvF8I8bZPSzzh/HVcJXxGBqYjGYOXtsDiaeKwtahjMuxGEx+Fq061KKdTC4mjOpRlVw1Vzw9etSqfjR8Bv8Agk7rnwE+MHgH4ueHf2kftN/4L12G/uNPPwmtIv7Z0W5il03xHoP2q88c6pFYf29oF5qWkf2klhc3Om/bft1mi3dvC6/svRRXZxVxlxHxrjMPmHE2PhmOMwuGWDoYhYHL8FUjhlUnWjRm8BhcKqsY1atWcPaqbg6lTkcVJp+V4b+FHAfhJlWOyTw+yWrkOVZlj3mmLwMs4zzNqM8weHo4SeKprO8yzGWHqVMPhsPSrfVpUo1o0KPtVN0oOJTJE8yOSPON6MmcZxuUrnGRnGc4yM+tPor5dOzut1qj9DaTTT2as/Rn4kfC/wD4I6n4cfFT4d/Ew/tC/wBs/wDCBePvC3jj+xv+FXCw/tU+Gtestb/s3+0P+FgXn2P7Z9j+zfa/sd15Hmeb9mm2+Wf23oor6rirjbifjbEYTFcTZl/adfA0Z4fC1PqeAwfsqNSaqThy4DC4WFS81fmqRnNbKSWh+b+G/hF4e+EWCzPLvD3h/wD1fwecYuljsxo/2pnWafWMVRo+wp1faZ1mOY1aXLSfLyUJ06b+KUHLUK8e+MfwC+D/AMftBi8PfFvwHoXjKztBKNLur+Ga21vRGuLmwu7ptB8Q6bNZa/of26bS7BdSGkanZDU7W2Wyv/tFozwt7DRXz2DxuMy7E0cbgMVicDjMPNVMPi8JXq4bE0KiTSnRr0ZQq05WbXNCSdm1ezPuc1ynKs9y7F5RneW4DOMqx9J0MdlmaYPD4/AYyhJpujisHiqdXD16blGMuSrTlHmSdrpM/Ej4Wf8ABHT/AIVp8Ufh38SB+0J/bC+AfHnhTxqNF/4Vd9h/tNfDGv2GtjTP7QPxAvDZ/bBZC1+2fY7oweZ5xt5tvlN+29FFfRcVcbcT8bYjCYrifM/7Tr4GjPD4Wo8HgMG6VGpNVJw5cBhcLCd5rm5qkZyWyklofDeG3hD4eeEWCzPLvDzh/wD1fwecYuljsxo/2pnWafWMVQouhSq8+c5jmNSjyUm4clCdKm95QctT8pv2nP8AglL8K/jl4oTxn4A8SH4PeI9Z13xb4k+IWoHSde8e/wDCbaz4ov7TUxefZdX8c6bZ+HvsF6NXm+z6Pbx2tyNW8vyYYrG2SvlLTf8AgmF+25ottJ8MNH/ak03SvgbNf6poc2j6f45+JtnBL4I1vUrv+2ZpPhrb6ZH4Xe+1Wwvr2+1Hww3iM6Ze6hd3Nnca7JFPJqDf0DUV9TlfjP4gZXl2Hyp5rh80wOCilgaeeZbgc2q4KcZTlTrUcVi6E8XOrQVSVPDvEV68MPR5aFGEKMIU4/nHEf0TvBHiLPcbxLHhrHcOZvms284r8IZ/nPDWHzWjOFCFfC4vLssxlLLaWHxjw9OvjlgcJg6uNxbq43FVa2Lq1K0vyz+AX/BJ79nn4YaUv/C1LGx+OHi2z8Vr4g0nxHqVn4i8KabaabBb6V9i8PX/AIOsvGeq+Hdes4dRsr69um1e2uodSh1N9OvrSazgVH5P/h1YfAnxyHxm/Zw+OI+Bi6W4bwh4bHw4HxGHhkXnhj/hHNfUar4y8b3P9qjWRdaxdj7fpz/2f/an2ezCiztpV/XiiuD/AIiz4iSxeZYytxRjcXLNsLVwOYYTH0sHmGU18JX5VVw6yTHYbEZPRpzipQccPgaVqVXEUo2p4ivGp7X/ABLN4FwyvIcqwnh1lGVw4ZzLDZvkuaZLic1yPibB5ng7vDY2XF2T5hguKcXXpT9nVU8ZnGI5q+GweInzVsDg6lBFBCqGbcwUBmwF3EDlsDgZPOBwM4FfkR+0l/wSV8D/ABt+KOq/EjwR8RP+FTjxL9s1Xxbo3/CK6p42/t7xnq2uaxrOt+Kf7Q1Tx3p39mf2kNStbb+xtPs4dNtPsHm2scf2mSNP14or5/hfjDiTgzHVMx4azStlmKrUXh68oU8PiKNei2pclbC4ujXwtXkkuanKpRlKlJuVKUJNs+38Q/C3gHxXyehkXiBw5heIstwmKjjcJCtXx2CxWExMYuDq4TMcsxWCzHDe1g/Z4iFDFU4YmmlCvGpBJL8xf2QP+Cfnjn9kbx1da/oH7Rn/AAkPgzxD5P8AwnfgT/hVOlaX/wAJb/ZWl6/aeG/+Klu/FWvalon9h6lr0uqf8SqKL+0PK+x3u+F1aJP20v8AgnIf2vPifofxHHxf/wCEA/sbwLpvgs6P/wAIIPE/2n+z9c8R6z/aP2//AIS7QPK83+3/ALN9l+ySbPsvm/aG87y4v07or2P+Im8arib/AFxjm9GnxI8H9QnmdLKMlpTrYbkVO2IoU8ujhMTWVJQorE16FTEqhSo0FVVKhRhD5X/iXrwjfh7/AMQqnwxiq3AKzRZzS4exHFHF2IpYXHqr9Y5sDja+e1MzwOGliXUxc8vweNoYCeMxGLxc8NLE4vE1avAfCfwN/wAKw+F3w5+G39p/21/wgHgXwp4L/tj7H/Z/9q/8IxoVjov9o/YPtN79i+2/YvtP2T7ZdfZ/M8r7RNs8xu/oor4jEYiti8RXxWIn7Svia1XEV6nLGPPWrTlUqT5YKMI805SlywjGKvaKSSR+vYDBYXLMDg8twVL2OCy/CYfBYSjz1KnssLhKMKGHpe0qynVqezpU4Q56k51JW5pylJtv85P20f8Agnl4Y/a013wp4n0nxToXwo8SaR/bX/CU+ILD4d2Gv6146+3Wvh2x0X+3dTg17w1e3H/CN2WhSWmm/bptS8q2vngtvskcRWb6O/ZT/Z50v9l/4L+HvhLYarY+I7vTL7XdU1rxXaeHYPDNx4n1LWNXu7yLUNTsIb/VZJL2x0l9M0BLq51K8mksNHso1eG3igtoPo2ivo8ZxrxPj+GsBwfjM1q1+HcsrrE4LL50MInRqxeJcL4yNCOOq0qf1uuqVCtialCnF0406cY0KCp/B5X4SeHeSeIGdeKWV8NYfB8dcQ4KWX5vndPGZlJYrDVFl6q8uWVMbPJ8LXrf2Xg5YjF4TL6GLrzjWqVq854vFyrlIQCCCAQQQQRkEHggg8EEcEHrS0V8sfo5+O/x/wD+CQHw0+KXj5/F3wu8aWXwQ0W+sWfWPCGm+C73xTp154iudW1XUL7WrB7vxxpNvoNnPbXtjp9t4d0jT7bR9Nh01DYwQpO0Ufxj/wAOVPjt/wAJT9lHxM+E3/CGf279n/t/zPFX/CS/8I19u8v+1v8AhFv+Eb/s3+2v7N/0v+wv+Eu+xfbf9B/4SDyf+JhX9K1FfsOUePHidk+Dp4Gln8cZh6GHjh8P/aWAwOMr0YRuoz+t1KCxWIqRVkpYytiVypRacUkfy1xP9DL6PXFOaVs4xPBM8qxuLxs8djlkGdZvlWCxdSpZ1KX9mUcXLLcFh5tOUqeVYTAPnlOampSbPy1/ZQ/4Jb/DT9nfxjP498beILH4zeJ9LvtF1P4f32o+Fr3wxb+CNS01NVW81BNLTxdr2k67e3Ul5pt3p11qdiZvD9/o9tqGlPDfMtxD+pVFFfn3EnFXEHF+YvNeI80xGaY504UY1KqpUqVGjTioxpYbC4enRwmFptp1Jww1ClGpWnUr1FKtVqVJft3AHhvwR4XZFHhrgLh7BcO5QsRWxdSjhpYjEYnF4qvOU54nMMyx1bFZlmNeKkqFGtj8XiKmHwlKhg6EqeEw9CjTKKKK+fPtwooooAKKKKACiiigAooooAKKKKACiiigAooooAKKKKACiiigAooooAKKKKACiiigCVOh+v8AQUUJ0P1/oKKAI26n6n+dJSt1P1P86SgAooooAKKKKACiiigAooooAKKKKACiiigAooooAKKKKACiiigAooooAKKKKACiiigAooooAKKKKACiiigAooooAKKKKACiiigAooooAKKKKACiiigAooooAKKKKACiiigAooooAKKKKACiiigAooooAKKKKACiiigAooooAKKKKACiiigAooooAKKKKACiiigAooooAKKKKACiiigAooooAKKKKACiiigAooooAKKKKACiiigAooooAKKKKACiiigAooooAKKKKAJU6H6/0FFCdD9f6CigCNup+p/nSVKUySc9Tnp/9ek8v3/T/wCvQBHRUnl+/wCn/wBejy/f9P8A69AEdFSeX7/p/wDXo8v3/T/69AEdFSeX7/p/9ejy/f8AT/69AEdFSeX7/p/9ejy/f9P/AK9AEdFSeX7/AKf/AF6PL9/0/wDr0AR0VJ5fv+n/ANejy/f9P/r0AR0VJ5fv+n/16PL9/wBP/r0AR0VJ5fv+n/16PL9/0/8Ar0AR0VJ5fv8Ap/8AXo8v3/T/AOvQBHRUnl+/6f8A16PL9/0/+vQBHRUnl+/6f/Xo8v3/AE/+vQBHRUnl+/6f/Xo8v3/T/wCvQBHRUnl+/wCn/wBejy/f9P8A69AEdFSeX7/p/wDXo8v3/T/69AEdFSeX7/p/9ejy/f8AT/69AEdFSeX7/p/9ejy/f9P/AK9AEdFSeX7/AKf/AF6PL9/0/wDr0AR0VJ5fv+n/ANejy/f9P/r0AR0VJ5fv+n/16PL9/wBP/r0AR0VJ5fv+n/16PL9/0/8Ar0AR0VJ5fv8Ap/8AXo8v3/T/AOvQBHRUnl+/6f8A16PL9/0/+vQBHRUnl+/6f/Xo8v3/AE/+vQBHRUnl+/6f/Xo8v3/T/wCvQBHRUnl+/wCn/wBejy/f9P8A69AEdFSeX7/p/wDXo8v3/T/69AEdFSeX7/p/9ejy/f8AT/69AEdFSeX7/p/9ejy/f9P/AK9AEdFSeX7/AKf/AF6PL9/0/wDr0AR0VJ5fv+n/ANejy/f9P/r0AR0VJ5fv+n/16PL9/wBP/r0AR0VJ5fv+n/16PL9/0/8Ar0AR0VJ5fv8Ap/8AXo8v3/T/AOvQBHRUnl+/6f8A16PL9/0/+vQBHRUnl+/6f/Xo8v3/AE/+vQBHRUnl+/6f/Xo8v3/T/wCvQBHRUnl+/wCn/wBejy/f9P8A69AEdFSeX7/p/wDXo8v3/T/69AEdFSeX7/p/9ejy/f8AT/69AEdFSeX7/p/9ejy/f9P/AK9AEdFSeX7/AKf/AF6PL9/0/wDr0AR0VJ5fv+n/ANejy/f9P/r0AR0VJ5fv+n/16PL9/wBP/r0AR0VJ5fv+n/16PL9/0/8Ar0AR0VJ5fv8Ap/8AXo8v3/T/AOvQBHRUnl+/6f8A16PL9/0/+vQBHRUnl+/6f/Xo8v3/AE/+vQBHRUnl+/6f/Xo8v3/T/wCvQBHRUnl+/wCn/wBejy/f9P8A69AEdFSeX7/p/wDXo8v3/T/69ACp0P1/oKKco2jGc85ooA//2Q==;" vertex="1" parent="1">
          <mxGeometry x="41.5" y="688.2" width="133" height="61.8" as="geometry" />
        </mxCell>
        <mxCell id="URRhDzllqDp2toMXEWSI-11" style="edgeStyle=orthogonalEdgeStyle;rounded=0;sketch=1;hachureGap=4;jiggle=2;curveFitting=1;orthogonalLoop=1;jettySize=auto;html=1;exitX=1;exitY=0.5;exitDx=0;exitDy=0;entryX=0;entryY=0.5;entryDx=0;entryDy=0;fontFamily=Architects Daughter;fontSource=https%3A%2F%2Ffonts.googleapis.com%2Fcss%3Ffamily%3DArchitects%2BDaughter;" edge="1" parent="1" source="URRhDzllqDp2toMXEWSI-8" target="URRhDzllqDp2toMXEWSI-10">
          <mxGeometry relative="1" as="geometry" />
        </mxCell>
        <mxCell id="URRhDzllqDp2toMXEWSI-8" value="&lt;b&gt;&lt;font style=&quot;font-size: 30px;&quot;&gt;API&lt;/font&gt;&lt;/b&gt;" style="whiteSpace=wrap;html=1;sketch=1;hachureGap=4;jiggle=2;curveFitting=1;fontFamily=Architects Daughter;fontSource=https%3A%2F%2Ffonts.googleapis.com%2Fcss%3Ffamily%3DArchitects%2BDaughter;" vertex="1" parent="1">
          <mxGeometry x="320" y="688.2" width="150" height="100" as="geometry" />
        </mxCell>
        <mxCell id="URRhDzllqDp2toMXEWSI-10" value="" style="shape=image;verticalLabelPosition=bottom;labelBackgroundColor=default;verticalAlign=top;aspect=fixed;imageAspect=0;image=data:image/jpeg,/9j/4AAQSkZJRgABAQEAAAAAAAD/4QAuRXhpZgAATU0AKgAAAAgAAkAAAAMAAAABABQAAEABAAEAAAABAAAAAAAAAAD/2wBDAAoHBwkHBgoJCAkLCwoMDxkQDw4ODx4WFxIZJCAmJSMgIyIoLTkwKCo2KyIjMkQyNjs9QEBAJjBGS0U+Sjk/QD3/2wBDAQsLCw8NDx0QEB09KSMpPT09PT09PT09PT09PT09PT09PT09PT09PT09PT09PT09PT09PT09PT09PT09PT09PT3/wAARCAKJAdoDASIAAhEBAxEB/8QAHwAAAQUBAQEBAQEAAAAAAAAAAAECAwQFBgcICQoL/8QAtRAAAgEDAwIEAwUFBAQAAAF9AQIDAAQRBRIhMUEGE1FhByJxFDKBkaEII0KxwRVS0fAkM2JyggkKFhcYGRolJicoKSo0NTY3ODk6Q0RFRkdISUpTVFVWV1hZWmNkZWZnaGlqc3R1dnd4eXqDhIWGh4iJipKTlJWWl5iZmqKjpKWmp6ipqrKztLW2t7i5usLDxMXGx8jJytLT1NXW19jZ2uHi4+Tl5ufo6erx8vP09fb3+Pn6/8QAHwEAAwEBAQEBAQEBAQAAAAAAAAECAwQFBgcICQoL/8QAtREAAgECBAQDBAcFBAQAAQJ3AAECAxEEBSExBhJBUQdhcRMiMoEIFEKRobHBCSMzUvAVYnLRChYkNOEl8RcYGRomJygpKjU2Nzg5OkNERUZHSElKU1RVVldYWVpjZGVmZ2hpanN0dXZ3eHl6goOEhYaHiImKkpOUlZaXmJmaoqOkpaanqKmqsrO0tba3uLm6wsPExcbHyMnK0tPU1dbX2Nna4uPk5ebn6Onq8vP09fb3+Pn6/9oADAMBAAIRAxEAPwD2WiiigAooooAKKKKACiiigAoopHIVSx6AZpbAZOq6stopjjI39zjOK5yTUJXcsAoyc8jk02+mM907Mc81Xr4/GYudeo7vRbI97D4eNOK01L9rqsttIH49yBXVWN6l7DvXG7uBXDVp6JffZbsKx+Rv8/8A162y7GyozUJP3WZYrDKcXKK1R2NFFFfVnjBRRRQAUUUUAFFFFABRRRQAUUUUAFFFFABRRRQAUUUUAFFFFABRRRQAUUUUAFFFFABRRRQAUUUUAFFFFABRRRQAUUUUAFFFFABRRRQAUUUUAFFFFABRRRQAUUUUAFFFFABRRRQAUUUUAIagvn8uylb/AGTU9Z+uSeXpr+//AOv+lYYmfJSlLyLpLmml5nGucux9Tmkoor4g+kCgEggjqDkUUUAdhot8LuzAJ+ZePwrUri9IvDZ3akn5WPI/z/niuyUhlBHINfW5bifb0knutzwsXR9nU02Y6iiivROUKKKKACiiigAooooAKKKKACiiigAooooAKKKKACiiigAooooAKKKKACiiigAooooAKKKKACiiigAooooAKKKKACiiigAooooAKKKKACiiigAooooAKKKKACiiigAooooAKKKKAErE8TvttUT1Nblcz4mkzPGnoP8AP9K8/NJ8uGl5nTg1esjCooor5A94KKKKADkYI6jkV1ug3wubURsfmQfpXJVc0y7a0u0cdCeRXbgMQ6FZSez0Zz4qj7WD7rY7eimo4kRWU5BGQadX2KaaujwNgooopgFFFFABRRRQAUUUUAFFFFABRRRQAUUUUAFFFFABRRRQAUUUUAFFFFABRRRQAUUUUAFFFFABRRRQAUUUUAFFFFABRRRQAUUUUAFFFFABRRRQAUUUUAFFFFABRRRQAUUUUAJXH69J5mpOPSuxJrhb+Tzb2VvU14udTtSjHuz0MvjebfZFaiilr5o9gSilooASilpKAOp8P33nQmFz8y9P8/r+NbVcLYXRtbpJFPf/AD/hXbQyrNEsi9GGa+pyrE+1pcjeqPDxtH2c+ZbMkooor1jjCiiigAooooAKKKKACiiigAooooAKKKKACiiigAooooAKKKKACiiigAooooAKKKKACiiigAooooAKKKKACiiigAooooAKKKKACiiigAooooAKKKKACiiigAooooAKKKKAIbptltK3oprhJDmRz6mu01eTy9OlPqMVxNfN51O9SMex62XR91yFoopa8Q9IKKKKAEopaSgBK6Tw9fb0MDnntn/P4/nXOVLaTm3uEdTj3rpweIdCqprbqYYikqtNxO9oqG2nW5gSRehHSpq+0jJSSkup8+007BRRRVCCiiigAooooAKKKKACiiigAooooAKKKKACiiigAooooAKKKKACiiigAooooAKKKKACiiigAooooAKKKKACiiigAooooAKKKKACiiigAooooAKKKKACiiigAooooAx/Ecm2xC/3j/n+dcpXQ+KJOYo/x/z+Vc/XyOaz5sS120PcwMbUfUKWkpa847AooopAFFFFACUUtJTA6Dw9fc+Q569M+v8An+VdFXAW8pt5lcEjB6iu3srkXVssgxk9R6GvpsoxPPB0m9Vt6HjY6jyy51syxRRRXsnAFFFFABRRRQAUUUUAAorNvtYhtCUHzsODzwKz/wDhJH3fcTH0NcdXHUKb5ZS1N4YapNXSOi5orNstYhumCt8jHgc8GtKuinVhVXNB3RlOEoO0kFFFFaEhRRRQAUUUUAFFFFABRRRQAUUUUAFFFFABRRRQAUUUUAFFFFABRRRQAUUUUAFFFFABRRRQAUUUUAFFFFABRRRQAUUUUAcn4jk36ht/uismrmqv5moyntk4qnXw+KnzVpS8z6OguWml5C0UUVzmoUUUUAFFFFABRRRTAStzw/feXJ5Lnhumf8/h+VYdOikMUgcdjzit8NWdCopoyrUlUg4noFFVNPuhdWqvnLDg1br7WnNVIqUdmfOyi4tphRRRViCiiigBMVS1S7+yWjEHDtwD6e9XegrkdavftNyQp+UcD6Vw4/EqhRb6s6MLR9rUS6Iz5JDI5Y/gPSkopa+MlJyd2fQJJKyFSRo2yPxHrXXaRefa7QZOXTgk9/euPNaGj3ptLobj8p4P0/zzXp5ZinRqqLej0OPGUfaQut0dhRR1GRRX1x4YUUUUAFFFFABRRRQAUUUUAFFFFABRRRQAUUUUAFFFFABRRRQAUUUUAFFFFABRRRQAUUUUAFFFFABRRRQAUUUUAFNkbZGzegJpc81V1CTy7GVv9nH51nVlyQcuyKirtI4y4ffO59TUdBOST6nNFfCyd3c+lSsrC0UUVIx1FFFAwooooAbRTqbQIKSlpKYGvoN99nn8pz8rcc/5/wA5rqs15+jmNww6g/nXZ6XeC6tVOcsowa+hyfE3ToyfoeTj6Nmqi+Zeooor3jzQoopGIVSScAdzQBn6xdi2tCoOGf8Al3/z71yBJdix6nmr+rXhu7okH5R0Ht/9frVCvkMzxPtqrS2Wh7uDo+zhd7sWiiivMOwKASCCOoNFFNO2qA6zRbwXNoEJ+ZB39K08VxulXhtLlT/CTyPb/PP4V2KsGAIOQe9fY5bifb0VfdbngYuj7Ko7bMWiiivQOUKKKKACiiigAooooAKKKKACiiigAooooAKKKKACiiigAooooAKKKKACiiigAooooAKKKKACiiigAooooAO9ZevSbNPI7k1qVg+JpMRRp61x4+fJh5Py/M3w0eaqkc2KWkpa+MPoQoop1IAooopDCiiigAptOopiG0UUUwErT0S++y3AVj8p6/SsyhHKEMOoORWlGq6U1OPQirBTi4vqehdqKzdGvPtVoFJ+ZB+laVfbUaqqwU49T5ycHCTi+glZmt3gt7Uxg/M45x6f54rSdgilmOABkmuO1S7N3dM3bPT27f4/jXHmWJ9hSa6vY6MJR9pUV9kUiS5JPUnJoopa+Pbu7s9/YKKKKQBRRRQAmSpBHUciur0K8E9t5ZPKdPpXKVb0y8a0ulYdM8j1r0MuxPsKy7PRnLi6PtYO26O1opqOJEDKcqRkGnV9infU8AKKKKYBRRRQAUUUUAFFFFABRRRQAUUVBc3K28ZZuvYVE5xhFyk9BpNuyHSzpCMu2Paqh1aEHGOKyrm5aeQsxODUNeBXzWo5fu9juhhVb3tzo4LuKf7jc+lWK5eORo3DKTwe1dBaT+fAG79678DjnXbjJWaMK1H2eq2LFFFFemc4UUUUAFFFFABRRRQAUUUUAFFFFABRRRQAlcx4lkzeKnoP8/zrqK4zW5PM1OT2OP6f0ryc4nahbuztwEb1b9ihS0lLXyx7YU6m06kAUUUUhhRRRQAUUUUANooopiEpKWkpgaGj3htLoZPynt7f55/CuxVgVBHIPevPwSGBHUHiuq0fUFksyHbHlrnn0/8Arf4V7uUYrlbpSem6PLx9DacfmLrt4IYPKB+Zhk/T/wCua5bJJJPUnJqxqd4bq6Yn1yR6e35VWFcGY4l1qrtstEdeEo+zpq+7HUUUV5x1BRRRQAUUUUAFJ7jqKWigDptAvPOhMTH5l5X6Vs1xFhdG1ukdex6f59eldpFIssSyIcqwyK+vyvE+2pcr3R4WNo+zqXWzH0UUV6ZxhRRRQAUUUUAFFFFABRRUFzcrbxlm69hUTnGEXKT0Gk27ILm5W2jLN17CsG5uWnkLMeKLm5aeQsx4qGvmMbjXiHZaJHo0aKgrvcKKKK4DoCtjRmzEy+lY9aWjviZl9RXbl8+XERffQwxCvTZs0UUV9YeYFFFFABRRRQAUUUUAFFFFABRRRQAUUUUANY7VJ9BXC3snmXkjeprtbxtlpK3+ya4VzmRj6nNfP53P4IfM9PLo6tiUtJS14B6oU6m06kAUUUUhhRRRQAUUUUANooopiEpKWkpgFNN7JbYVDwTlh6+34/0pXIQEnoOapOS5JPUmrhdO6KhBS32LQcuSxOSTkn1qQGqkT9vTpVhDUyQmrOxPRTBT6zYBRRRQAUUUUAFFFFACV0nh++8yMwMeRyv9a5up7Kdra4R1OCD/AJ/wrtwGJdCspdHoznxNH2sGup3NFRQTLPCrr91hkVLX2iaauj55qzsFFFFMAooooAKKKgublbeMs3XsKic4wi5Seg0m3ZBc3K20ZZuvYVg3Ny08hZjxRc3LTyFmPFQ18xjca8Q7LRI9GjRUFd7hRRRXAdAUUUUAFW9Obbdr71UqW3fbOh9DWtGXLUUuzRM1zRaOmooByAaK+0R44UUUUAFFFFABRRRQAUUUUAFFFFABRRRQBQ1qTy9Nk9+K4yuo8SybbNE9T/n+dcvXyucTvXt2R7WAjalfuxaKKK8o7h1FFFIYUUUUgCiiigAooopgNooooEJSUtNdwiFj2FMCC5k6IPxqvSkkkk9SeaStUrKx0RVlYUHBB9KtIc4NVKlift+IpNXRE43Vy0hp9RIakBrJozQ+iiipAKKKKACiiigAooooA6Dw/fZBgc8nkZ9f881v1wltMbedWU4IPWu1tp1uLdJF6EV9ZlOK9rS5G9UeHjqPJPmWzJqKKK9Y4gooqC5uVt4yzHnsKic4wi5Seg0m3ZBc3K28ZZvwFYNzctPIWY9+KS4uGuJCzH6VFXzGNxrxErLRI9KjRUFd7hRRRXAbhRRRQAUUUUAFKhwQfQ0lFMDpoG3QIfapaqac+60X2q3X2WHlzUoy8jx5q0mgooorYkKKKKACiiigAooooAKKKKACiiigDm/E0n72NPbmsGtPxBJv1Fh6VmV8Xj58+Ik/Ox9BhY2pJeQtFFFcZ0DqKKKBhRRRSAKKKKACm06m0xBRRSUwCqtzJkhB25NWJHCIWPbpVEkkknqeTVRXU0pxu7iUUUVoahSg4IPpSUUAWkOQDUqGqkT84/KrKGspI55KzsS06mA0+s2AUUUUAFFFFABRRRQAlb3h69wTBIeD0z6//q/lWATTre4ME6uCRg9R/ntXXgq7oVVJbdTDEUlVpuJ35oFV7O5F1bLIMZI5A7GlublbaMsx57CvsnVgoc7eh8/yu/L1C5uVt4yzdew9awbm4a4kLMfpRc3L3EhZj9BUNfNY3GvEOy2R6NCgoK73CiiiuA3CiiigAooooAKKKKACiiigDa0dswlfQ1o1jaM2JGX1rZr6rLZ82HXkeXXVpsKKKK7zEKKKKACiiigAooooAKKKKACg9KKjnfy4Hf0Umpk7JsaV2cXqL+ZfSN71Vp0p3zOfem18LVk5Tb7s+lhHlikLRRRWZQ6iiigYUUUUgCiiigBtFFFMQUlFMkfy0LfgKaBa6Fe5ky4UdF61DRRWqVlY6IqysFFFFMYUUUUAL0qyj5ANVakifBx69Klq6Imrq5bQ08VChqUGsmjJD6KKKkAooooAKaTRTCaaQATUZNKTUlpaPdyEA7UH3nPb/wCvVxjfRESkoq7Nrw/qDRQyKwJRe/vUlzctcyFmP0FQqqxxiONdqL0H9T70V2Tr1JQVO+iOHkTm521YUUUVgUFFFFABRRRQAUUUUAFFFFABRRRQBc01tt2vvW/XNWzbZ0b0NdIOlfQ5PO9OUezPPxatJMWiiivYOUKKKKACiiigAooooAKKKKAEqpqr+Xp8p9RirdZXiKTbp+3uxrmxc+ShJ+RrRjzVEvM5Pqc+vNFFLXxJ9GFFFFIB1FFFIYUUUUAFNp1NpiCiikpgFVLiTe+0dFqxLJ5aE9+gqjVxXU0px6hRRRVmoUUUUAFFFFABRRRQBZjfIB/OpUNVIzg47GrKGs2jnkrMmFOqMGpKyYBTaKaTQkAhNMJoJqS0tHu5CAdqD7znt/8AXrSMb6ImUlFXYWto93IQDtQfec9v/r1sKqxxiONdqDt/U+9CqscYjjXag6D+p96K2SSVkccpOTu9gooopCCiiigAooooAKKKKACiiigAooooAKKKKAFQ4cH3rpoG3QI3qBXMV0Ng261SvYyidqjj3Rx4taJlqiiivoThCiiigAooooAKKKKACiiigArn/E8nyxJ+P+fyrf8ASuV8Ryb70J/dA/z+tebms+XDNd9DrwUb1kZFLSUtfJHuhRRRSAdRRRSGFFFNpgFFFFAgpKKjnk8tCe54FNK40ruxXuJNz4HReBUVFFapWOhKysFFFFMAooooAKKKKACiiigAqzG+QD+dVqfGcH2NS1dEVFdFtDT81CDTs1m0YpjyajJoJqS0tHu5CAdqD7znt/8AXpxjd2FKSirsLS0e7kIB2oPvOe3/ANethVWOMRxrtQdB/U+9CqscYjiXag6D+p96K2SSVkccpOTu9gooopCCiiigAooooAKKKKACiiigAooooAKKKKACiiigAra0hs25X0rFrU0Z/nZfWu/Lp8uIXnoYYlXgzXooor6o8wKKKKACiiigAooooAKKKKAEri9Yk8zUpD2B4rspCFRmPQDNcLcv5ly7eprw87naEY93+R6OXRvNsipaSlr5w9cKKKKQDqKbRQA6m0UUAFFFJTAKpTSeY5x0HAqxcSbEOOrcCqdXFdTWmuoUUUVZoFFFFABRRRQAUUUUAFFFFABRRRQBMr5H04NOzUKHB+tXbS0e7kIB2oPvMe3/ANep5bvQ5qtoO72FtLV7uQgHag+8x7f/AF62FVY4xHGu1B0H9T70KqxxiONdqDoP6n3oq0klZHFKTk7vYKKKKQgooooAKKKKACiiigAooooAKKKKACiiigAooooAKKKKACrumNsuwPWqVT2rbLhG9DW2HnyVIy7MiorxaOkooor7M8gKKKKACiiigAooooAKKKKAK18/l2Uzf7JFcMTlyfU5rsNdk2aa/v8A/r/pXHV8znU71VHsj18ujaDfdi0tJS14x6IUUUUgCiiigAooooAKSioriTamB1NNK+g0ruxXlk8xyew6VHRRWux0JWVgooopgFFFFABRRRQAUUUUAFFFFABRRVmysnvJCAdqL99z2/8Ar0JXFKSiry2CysnvJCAdqL99z2/+vW+iJFEIol2ovb+p96RESGMRxLtRe39T70tPbRHm1ajqO/ToFFFFIzCiiigAooooAKKKKACiiigAooooAKKKKACiiigAooooAKKKKACnocOD70yimg3OoibfCjeoFP71WsX32qH2qzX2dGXNTUvI8eSs2gooorUkKKKKACiiigAooooAwvEr4to09TXNVueJpM3MaegrDr4/M58+Jl5aHu4KNqKCloorzzrCiiigAooooAKSlpKYCGqUsnmOT26CrFzJhNo6t1qpVxXU1prqFFFFWaBRRRQAUUUUAFFFFABRRRQAUUVZsrJ7yQgHai/fc9v/AK9CVxSkoLmlsFlZPeSEA7UX77+n/wBet6NEhjEcS7UXt/U+9JHGkMYjiXai9v6mnU9tEebVquo/IKKKKRmFFFFABRRRQAUUUUAFFFFABRRRQAUUUUAFFFFABRRRQAUUUUAFFFFABRRRQBuaS262x6Gr9ZGjPy61r19Xl8+bDx8jyq8bTYUUUV3GQUUUUAFFFFABRRQelAHHa9J5mpuPTj/P5VnVYv5PNvZW9WqvXw2Inz1ZS7tn0lFcsEuyFooorE0CiiikAUUUUwEpCQMk9ByaWoLmTACDqeTTSuxxV3YgkYyOW9entTKKK0OhaaBRRRTAKKKKACiiigAooooAKKKs2Vm95IQDtRfvue3/ANehK4pSUVd7BZ2b3khAO1F++57f/XrdjRIYxHEu1F7f1PvRHGkMYjiXai9v6mnU9tEebVquo/IKKKKRmFFFFABRRRQAUUUUAFFFFABRRRQAUUUUAFFFFABRRRQAUUUUAFFFFABRRRQAUUUUAXtLbbdAetbtc3ZtsukPvXR19HlE70nHszz8WrTuLRRRXrHKFFFFABRRRQAlRXL+XbSN6Kamqjq8nl6fKfXisq8uWnKXZFU1eaRxkhzIx9TSUlLXwr1PpULRRRQMKKKKQBSUUUwEJABJ6AZNUWYs5Y96muZOiDv1qvVxWlzanGyuFFFFWWFFFFABRRRQAUUUUAFFFWbOze8kIB2ov33I6f8A16ErilJRV3sFnZveSEA7UX77kdP/AK9bsaJDGIol2ovb+p96I40hjEcS7UXt/U06ntojzatV1H5BRRRSMwooooAKKKKACiiigAooooAKKKKACiiigAooooAKKKKACiiigAooooAKKKKACiiigAooooAfGcSKfeuljbdGreozXL10dm++1Q+gr2cnnaco9zjxa2ZYooor6A4QooooAKKKKAA1jeI5NtkF/vH/AD/Otmuc8USfNFH+P+fyrgzGfLhpeZ0YWN6yOfpaSlr48+gClpKWgApKKKACmkhASegGaWq9zJ0QfjTirscVdkLEsSx6k02iitDoCiiimAUUUUAFFFFABRRVmzs3vJCAdqL99z2/+vQlcUpKKu9gs7N7yQgHai/fc9v/AK9bsaJDGIol2ovb+p96I40hjEcS7UXt/U06ntojzatV1H5BRRRSMwooooAKKKKACiiigAooooAKKKKACiiigAooooAKKKKACiiigAooooAKKKKACiiigAooooAKKKKACtzSm3W2PQ1h1raM/wB9f8/55r0Msny10u+hz4pXgatFFFfUnmhRRRQAUUUUAJXKeIpN+oFf7orrK4jVX83UZW7bjivHzmdqKj3Z3ZfG9RvsinS0lLXzB7QUUUUAFFFJQAjuEQsewqiSSST1J5qa5kyQg6Dk1BWkVZXNoKyuFFFFUWFFFFABRRRQAUUVZs7N7yQgHai/fcjp/wDXoSuKUlFXewWdm95IQDtRfvuR0/8Ar1uxokMYiiXai9v6n3ojjSGMRxLtRe39TTqe2iPNq1XUfkFFFFIzCiiigAooooAKKKKACiiigAooooAKKKKACiiigAooooAKKKKACiiigAooooAKKKKACiiigAooooAKKKKACr+kvi5x6iqFWLJvLukNb4afLWjLszOqrwaOjooor7I8kKKKKACiiigCOZtkTt6AmuFmffO59TXZ6lJ5dhKf9nFcRnJJ9Tmvnc7neUYdtT1cujo2JRRRXhHpi0UlFABSSOI0LenSlqrcyZfaOi9acVdjirsiJJJJ6nk0lFFanQFFFFABRRRQAUUVZs7N7yQgHai/fcjp/wDXoSuKUlFXewWdm95IQDtRfvuR0/8Ar1uxokMYiiXai9v6n3ojjSGMRxLtRe39TTqe2iPNq1XUfkFFFFIzCiiigAooooAKKKKACiiigAooooAKKKKACiiigAooooAKKKKACiiigAooooAKKKKACiiigAooooAKKKKACiiigAp8RxIp96ZR0wfTmmnZ3B6o6lG3Ireop1QWjbrVD7VPX2lKXPBS7o8ZqzaCiiitBBRRRQBl6/Js04juTXIV0nieTEMaetc3XyebT5sQ12Vj28BG1K/cKKKK8w7AooooAbI/loT36CqNS3Em98DovFRVolZG8FZBRRRVFhRRRQAUUVZs7N7yQgHag++5HT/69CVxSkoq72Czs3vJCAdqL99yOn/163Y0SGMRRLtRe39T70RxpDGI4l2ovb+pp1PbRHm1arqPyCiiikZhRRRQAUUUUAFFFFABRRRQAUUUUAFFFFABRRRQAUUUUAFFFFABRRRQAUUUUAFFFFABRRRQAUUUUAFFFFABRRRQAUUUUAFFFFAG9pbbrQD0q7WXozfI6/jWpX1uAnz0Is8qsrTaCiiiuwyCiiigDlvE0mbxU9B/n+dYtX9bk8zUpPb/AD/SqFfFYyfPXk/M+hwy5aaXkFFFFcpsFMlk8tCe/an1Umk3vgdF6U0rsqCuyKiiitToCiiigAooqzZ2b3khAO1F++5HT/69CVxSkoq72Czs3vJCAdqL99yOn/163Y0SGMRRLtRe39T70RRJDGI4l2ovb+p96dT20R5tWq6j8gooopGYUUUUAFFFFABRRRQAUUUUAFFFFABRRRQAUUUUAFFFFABRRRQAUUUUAFFFFABRRRQAUUUUAFFFFABRRRQAUUUUAFFFFABRRRQAUUUUAaGkPtuCvr/n+lbdc7YNtu0P4V0Q6V9JlM+ai12Z52KVphRRRXqnMFIxAUk9KWoLx/LtJW9FNROXLFsaV2kcTdyb7yRvU1DQ5y7H1OaSvhZO7bZ9LFWSQtFJRUjGTSbEPqeBVOpJX3ufQcCo60SsjogrIKKKKooKKKs2dm95IQDtRfvuR0/+vQtRSkoq72Czs3vJCAdqL99yOn/163YkSGMRxLtRe39T70JEkMYjiXag7f1PvTqe2iPNq1XUfkFFFFIzCiiigAooooAKKKKACiiigAooooAKKKKACiiigAooooAKKKKACiiigAooooAKKKKACiiigAooooAKKKKACiiigAooooAKKKKACiiigAooooAkiOyZT710qHKg+orlwcMD6GuktW3WyH2r28nnaUo+RxYtbMmooor3jiEqhrcnlabIfXj/AD+VX6xfE0m2zVPU/wCf51yY2fJQm/I2w8earFeZy1FFFfGH0IVHM+xMDqelSVTlfzHJ7DgU0rsuCuxlFFFaG4UUVZs7N7yQgfKg+85HT/69C1FKSirvYLOze8kIB2oPvuR0/wDr1uxRJDGI4l2oO39T70RRJDGI4l2oO39T706ntojzatV1H5BRRRSMwooooAKKKKACiiigAooooAKKKKACiiigAooooAKKKKACiiigAooooAKKKKACiiigAooooAKKKKACiiigAooooAKKKKACiiigAooooAKKKKACiiigAre0t91ovtWDWxoz5jZfSvRyufLXS7o58Srwv2NOiiivqDzRK5vxPJmaOP0H+f6V0lch4hk36kw7CvLzedsPbuzswMb1fQy6KKK+VPbI7h9iYHVqqU+R97k9ugplXFWR0QVkFFFWbOze8kIHyoPvOR0/+vVbjlJRV3sFnZveSED5UH3nI6f/AF63YokhjEcS7UHb+p96IokhjCRLtQdv6mnU9tEebVquo/IKKKKRmFFFFABRRRQAUUUUAFFFFABRRRQAUUUUAFFFFABRRRQAUUUUAFFFFABRRRQAUUUUAFFFFABRRRQAUUUUAFFFFABRRRQAUUUUAFFFFABRRRQAUUUUAFFFFABWjo7YnK+orOq1pzbbtfc10YWfJWi/Mzqq8GdDRRRX2J5Ih71w2pP5l/K3+1Xa3DeXBI3opNcFKd8zn1NeDnU9IwPSy6OrYyo7h8DaOrdakyBknoKpu5dyfXpXgJXZ7NNXdxtFFWbOze8kwPlQfecjp/8AXrTc1lJRV3sFnZveSED5UH3nI6f/AF63YokhjEca7UHb+p96IokhjCRrtQdv6n3p1PbRHm1arqPyCiiikZhRRRQAUUUUAFFFFABRRRQAUUUUAFFFFABRRRQAUUUUAFFFFABRRRQAUUUUAFFFFABRRRQAUUUUAFFFFABRRRQAUUUUAFFFFABRRRQAUUUUAFFFFABRRRQAUUUUAFSQnbMp9DUdOBwQfQ5qouzuJq6sdQpyAfalqG2bdAh9qlr7OEuaKZ470ZU1V/L0+U+oxXC+/rzXX+I5fL04r3Y1yBIAJPQV85nE710uyPYy+NqbfdkVw+AFHfk1XpzkuST3qezs3vJCAdqD7zkdP/r15kV0PVuqcbsLOze7kIHyoPvOR0/+vW7FEkMYjjXag7f1PvRFEkMYSNdqDt/U+9OqttEefVquo/IKKKKRmFFFFABRRRQAUUUUAFFFFABRRRQAUUUUAFFFFABRRRQAUUUUAFFFFABRRRQAUUUUAFFFFABRRRQAUUUUAFFFFABRRRQAUUUUAFFFFABRRRQAUUUUAFFFFABRRRQAUUUUAFFFFAG/prbrRfarlZujNmJl9K0a+twVTmw8WeTWVptHPeKpfkij/H/P5Vytw/RR+Nb3iiUfbQM8Kv8An+dYdpaSXsx52qD87kdP/r185jpe0xMn2PcwSUKKcttws7N7uQgfKg+85HT/AOvW7FEkMYjjXag7f1PvRFEkMYSNdqDt/U+9Orm20RNWq6j8gooopGYUUUUAFFFFABRRRQAUUUUAFFFFABRRRQAUUUUAFFFFABRRRQAUUUUAFFFFABRRRQAUUUUAFFFFABRRRQAUUUUAFFFFABRRRQAUUUUAFFFFABRRRQAUUUUAFFFFABRRRQAUUUUAFFFFAGlo7YlZfUVsVgaa+27X3rfr6XKZ3o27Hm4qPvnD36PqWolVOEUDe/p/9f2q5FEkMYSNdqDt/U1PPpdzYL+7XzoRydo5H4d/1qCOVZPun6g9q8KvSqU5PnVmz0lUU4pReiHUUUVzgFFFFABRRRQAUUUUAFFFFABRRRQAUUUUAFFFFABRRRQAUUUUAFFFFABRRRQAUUUUAFFFFABRRRQAUUUUAFFFFABRRRQAUUUUAFFFFABRRRQAUUUUAFFFFABRRRQAUUUUAFFFFABRRRQAUUUySZI+Cct/dFO1xli3bZOjehrovNT+8K5220q6vvmlzDCexHJ/D/Gtb+y0/wCesv517mX0q9OL93c4cQ6cnqzQrPvNHgu2LjMUv99ePz9a0KSvYqUo1FyyVzkjNxd0zlri2ubH/Xpvj/56L/X0pqOrrlSCPauq2gggjg+tZV3oUcrGS2Pkyeg+6fw7fhXi4nKmveov5M7KeKT0n95l0U2US2rhLpCmeAw+6acCCMg5B7ivHnCUHaSszsTTV0FFFFQAUUUUAFFFFABRRRQAUUUUAFFFFABRRRQAUUUUAFFFFABRRRQAUUUUAFFFFABRRRQAUUUUAFFFFABRRRQAUUUUAFFFFABRRRQAUUUUAFFFFABRRRQAUUUUAFFFIXVBliAPegBabJIsa5Y49vWkiWe+cpaxkgdXPQVr2egxQkSXB86T3+6Pw7/jXbhsDVrapWXdmVStCnu9exl29rdX+PKXy4j/ABnv/j+Fbdjo9vZ4bHmSf32GT+HpV7GMAcUte9hsBSo62u+5w1MRKfkhaKKK7jAKKKKACiiigBkkSSoUkUMp6gjINY11oJQl7J9v/TNuQfpW5RXPWw9OsrTRcKkoO6ZyJkaKQx3CNE47MODT66S5tIbuPZNGHHvWLdaNPa5e0YzR9426j6HvXh4nLJ09aeqO+niYy0loyrRTElUkqQUcHBVhjFPry2mtGdIUUUUhBRRRQAUUUUAFFFFABRRRQAUUUUAFFFFABRRRQAUUUUAFFFFABRRRQAUUUUAFFFFABRRRQAUUUUAFFFFABRRRQAUUUUAFFFFABRRRQAUcDk8D3qN5xkIgMkhPCqKu2uiT3OHvH8tP+ea9f/rfrXRRw1Ss7RRM5xgveZSEjzSeVaxtI59BwK0rTQCSJL5t57IDwPr/APWrXgtYrWPbCgQe1S17uGyynT1nqzhqYqUtI6ISONIkCIoVR0AGBTqKK9NJJWRy7hRRRTAKKKKACiiigAooooAKKKKACiiigCne6bb3w/ep8w6MOorEutOurHlQZ4vUD5h+FdPSGuPEYKlX3Vn3NqdecPNHJxyrIPlPPcHtTq2r3RoLs71HlS/317/Ud6xbi3ubBv36b4/+ei/1rwcTgKtHW115HdTrQqabMKKRHVxlSCKWuA2CiiigAooooAKKKKACiiigAooooAKKKKACiiigAooooAKKKKACiiigAooooAKKKKACiiigAooooAKKKKACiiigAopskixrljj29aW3tbrUG/cpsi/56N/nn8K1p0p1HaCuxSairt2Q2SZIupyfQVPa6Xd3+Gk/cwn1HJ/D/Gtax0e3s8NjzJf77DP5elaAr2sNlSWtV/I46mL6Q+8q2enW9kMRIN3dj1NW6Slr14QjBWirHG5OTu2FFFFWIKKKKACiiigAooooAKKKKACiiigAooooAKKKKACiiigApCoYEEAg+tLRQBj3ehRuTJaHyZOuB90/4VlSia0fZdxlCejDkGus7UyWFJkKSorqeoPNebictp1dY6M6aeJlHSWqOYBBAKkEHuKKu3WhPETJYPj1jY8fgf8AH86zzIUkMc6NE47MOK8KvhKlB2ktO53QqRmvdY+iiiuUsKKKKACiiigAooooAKKKKACiiigAooooAKKKKACiiigAooooAKKKKACiiigAooooAKKOnJ6VGJWmkEdvGZXPoOBVRi5O0UHmPJVBliAPemwie8fZaRlsdWPQVo2mglyJL5tx7RqeB9T/AIVsxRJCgSNQqjoBXrYbKpTtKpouxzVMVGOkdWZlnoEUJEl0fOk9D93/AOv+NawUKoAGAKWivbpUYUlaCscM5ym7yYUUUVsQFFFFABRRRQAUUUUAFFFFABRRRQAUUUUAFFFFABRRRQAUUUUAFFFFABRRRQAUUUUAFV7q0hu02TRhh+o+lWKMVMoqSs0NNp6HOXWjXFpl7VjNH/cP3h/jVNJlclTlXBwVPGK6+qV7plvej94uG7OOCK8nE5VGV5UnZ9jrp4trSZg0VJdaddWHzAedD6jqP8/jUEcqy/dPPoa8OrRnSdpKx2xkpK6d0PooorIYUUUUAFFFFABRRRQAUUUUAFFFFABRRRQAUUUUAFFFFABRRTJJki6nn0FPcY+o2nAIRAXcnhRzU9rpl1f4L/uYT3I5P4f41u2emW9kv7pPmxy56mvRw2W1KtnLRHPUxEIabsyLXRJ7rD3jGKP+4Ov/ANb9a27a1htY9kKBF9qno5r3qGEp0V7q17nDUrTqbvQKKKK6TIKKKKACiiigAooooAKKKKACiiigAooooAKKKKACiiigAooooAKKKKACiiigAooooAKKKKACiiigAooooAKKKKADFZt7osF2S6fupf7yj+YrSorOpShVXLJXKhNwd4s5O4gurA4uE3J2kXp/n60I4kXKkEV1TKHBBAIPY1kXmhJITJZnyX64/hP+FeJicqa96k/kdtPFJ6T+8zaKjkM1rJ5d1GUPZgODUgYEZBBHqK8icJQdpKzOtO6ugoooqACiiigAooooAKKKKACiiigAoopCQgySAPU0ALTXkWNcscf1pIxPeuY7SMt6segrWs9BiiIkum86T0P3R/j+NdmHwVWs7pWXdmdSrGn8T17GXb211fn9ynlx/wB9v8/yrasdGgtMOR5kv95h/Idq0FUKAAAAPSlr3sPgKVHVq77nBUxEp6bIWiiiu8wCiiigAooooAKKKKACiiigAooooAKKKKACiiigAooooAKKKKACiiigAooooAKKKKACiiigAooooAKKKKACiiigAooooAKKKKACiiigAooooAjlhjmjKSorKeoIzWJd6C8RMli/v5bH+R/x/Ot+iuethqdZWkjSFWUHozkPNMbGO4RonHYipM5ro7qzhvE2zIGHY9x9DWHdaPc2hL2rGaPup+8P8fwrwsTlk6esNUd1PExnpLRkFFRx3Cudpyrg4KnipK8xprc6QooopCCiiigAoqN5lBCqC7k4CirlrolxdYe7by0/uDr/APW/WuijhqlZ2iiZzjBXkymJWlkEdujSuewHFaNpoDORJfPuPZFPT6n/AArXt7SG0j2wRhB/Opq93DZZTp61NWcVTFOWkdENihSFAsaKijoAMU+ijpXppJKyORu4UUUUwCiiigAooooAKKKKACiiigAooooAKKKKACiiigAooooAKKKKACiiigAopaKAEopaKAEopaKAEopaKAEopaKAEopaKAEopaKAEopaKAEopaKAEopaKAEopaKAEopaKAEopaKAKN5pdvegmRNr9nXqKx5tHvbbJhYTIO3f8v8ACukFLXJXwVKtq1Zm0K86el7o45nni4ltpFP0NJ9qX+49a+tdawf4vxr5yvRjTm4o9OlLnimyyrzzcQ28jfgatQ6NeXGDOwiQ9QOTV3RulbHavTweX0pxU5anLXxEoScYlSy023sh+6XLd3bkmrlAor2YU4wVoo4XJy1YUUtFUISilooASilooASilooASilooASilooASilooASilooASilooASilooASilooASilooASilooA//2Q==;" vertex="1" parent="1">
          <mxGeometry x="620" y="727.47" width="124.94" height="171.06" as="geometry" />
        </mxCell>
        <mxCell id="URRhDzllqDp2toMXEWSI-15" style="edgeStyle=orthogonalEdgeStyle;rounded=0;sketch=1;hachureGap=4;jiggle=2;curveFitting=1;orthogonalLoop=1;jettySize=auto;html=1;exitX=0;exitY=0.75;exitDx=0;exitDy=0;fontFamily=Architects Daughter;fontSource=https%3A%2F%2Ffonts.googleapis.com%2Fcss%3Ffamily%3DArchitects%2BDaughter;" edge="1" parent="1" source="URRhDzllqDp2toMXEWSI-13">
          <mxGeometry relative="1" as="geometry">
            <mxPoint x="290" y="1054" as="targetPoint" />
          </mxGeometry>
        </mxCell>
        <mxCell id="URRhDzllqDp2toMXEWSI-13" value="&lt;b&gt;&lt;font style=&quot;font-size: 16px;&quot;&gt;App&lt;/font&gt;&lt;/b&gt;" style="whiteSpace=wrap;html=1;sketch=1;hachureGap=4;jiggle=2;curveFitting=1;fontFamily=Architects Daughter;fontSource=https%3A%2F%2Ffonts.googleapis.com%2Fcss%3Ffamily%3DArchitects%2BDaughter;" vertex="1" parent="1">
          <mxGeometry x="550" y="970" width="130" height="111.47" as="geometry" />
        </mxCell>
        <mxCell id="URRhDzllqDp2toMXEWSI-14" style="edgeStyle=orthogonalEdgeStyle;rounded=0;sketch=1;hachureGap=4;jiggle=2;curveFitting=1;orthogonalLoop=1;jettySize=auto;html=1;exitX=1;exitY=0.25;exitDx=0;exitDy=0;entryX=-0.025;entryY=0.197;entryDx=0;entryDy=0;entryPerimeter=0;fontFamily=Architects Daughter;fontSource=https%3A%2F%2Ffonts.googleapis.com%2Fcss%3Ffamily%3DArchitects%2BDaughter;" edge="1" parent="1" source="URRhDzllqDp2toMXEWSI-2" target="URRhDzllqDp2toMXEWSI-13">
          <mxGeometry relative="1" as="geometry" />
        </mxCell>
        <mxCell id="URRhDzllqDp2toMXEWSI-17" value="&lt;font style=&quot;font-size: 15px;&quot;&gt;&lt;b&gt;connexion avec Bluetooth&lt;/b&gt;&lt;/font&gt;" style="text;html=1;align=center;verticalAlign=middle;resizable=0;points=[];autosize=1;strokeColor=none;fillColor=none;fontFamily=Architects Daughter;fontSource=https%3A%2F%2Ffonts.googleapis.com%2Fcss%3Ffamily%3DArchitects%2BDaughter;" vertex="1" parent="1">
          <mxGeometry x="250" y="960" width="200" height="30" as="geometry" />
        </mxCell>
        <mxCell id="URRhDzllqDp2toMXEWSI-18" value="&lt;font style=&quot;font-size: 15px;&quot;&gt;&lt;b&gt;retourner les mesures&lt;/b&gt;&lt;/font&gt;" style="text;html=1;align=center;verticalAlign=middle;resizable=0;points=[];autosize=1;strokeColor=none;fillColor=none;fontFamily=Architects Daughter;fontSource=https%3A%2F%2Ffonts.googleapis.com%2Fcss%3Ffamily%3DArchitects%2BDaughter;" vertex="1" parent="1">
          <mxGeometry x="310" y="1058" width="180" height="30" as="geometry" />
        </mxCell>
        <mxCell id="URRhDzllqDp2toMXEWSI-19" value="" style="shape=image;verticalLabelPosition=bottom;labelBackgroundColor=default;verticalAlign=top;aspect=fixed;imageAspect=0;image=data:image/jpeg,/9j/4AAQSkZJRgABAQEAAAAAAAD/4QAuRXhpZgAATU0AKgAAAAgAAkAAAAMAAAABADIAAEABAAEAAAABAAAAAAAAAAD/2wBDAAoHBwkHBgoJCAkLCwoMDxkQDw4ODx4WFxIZJCAmJSMgIyIoLTkwKCo2KyIjMkQyNjs9QEBAJjBGS0U+Sjk/QD3/2wBDAQsLCw8NDx0QEB09KSMpPT09PT09PT09PT09PT09PT09PT09PT09PT09PT09PT09PT09PT09PT09PT09PT09PT3/wAARCADJAW0DASIAAhEBAxEB/8QAHwAAAQUBAQEBAQEAAAAAAAAAAAECAwQFBgcICQoL/8QAtRAAAgEDAwIEAwUFBAQAAAF9AQIDAAQRBRIhMUEGE1FhByJxFDKBkaEII0KxwRVS0fAkM2JyggkKFhcYGRolJicoKSo0NTY3ODk6Q0RFRkdISUpTVFVWV1hZWmNkZWZnaGlqc3R1dnd4eXqDhIWGh4iJipKTlJWWl5iZmqKjpKWmp6ipqrKztLW2t7i5usLDxMXGx8jJytLT1NXW19jZ2uHi4+Tl5ufo6erx8vP09fb3+Pn6/8QAHwEAAwEBAQEBAQEBAQAAAAAAAAECAwQFBgcICQoL/8QAtREAAgECBAQDBAcFBAQAAQJ3AAECAxEEBSExBhJBUQdhcRMiMoEIFEKRobHBCSMzUvAVYnLRChYkNOEl8RcYGRomJygpKjU2Nzg5OkNERUZHSElKU1RVVldYWVpjZGVmZ2hpanN0dXZ3eHl6goOEhYaHiImKkpOUlZaXmJmaoqOkpaanqKmqsrO0tba3uLm6wsPExcbHyMnK0tPU1dbX2Nna4uPk5ebn6Onq8vP09fb3+Pn6/9oADAMBAAIRAxEAPwD2WiiigAooooAKKKKACiiigAooooAKKKKACiiigAooooAKKKKACiiigAooooAKKK8jsviTqOk6xdw3w+2WgncY6Og3HofT2P5ik3YD1yisnRPEum+IId+n3IZwPmibh1+o/qOK1qYBRRRQAUUUUAFFFFABRRRQAUUUUAFFFFABRRRQAUUUUAFFFFABRRRQAUUUUAFFFFABRRRQAUUUUAFFFFABRRRQAUUUUAFFFFABRRRQAUUUUAFFFFABXzfqn/IWvP8Aru//AKEa+kK+b9U/5C15/wBd3/8AQjUsDW8Csy+NNM2kjMuDg9eDXvVeCeBv+R00z/rr/Q173TQBRRRTAKKKKACiiigAooooAKKKKACiiigAooooAKKKKACiiigAooooAKKKKACiiigAoopCQoJJAA7mgBagvb62062a4vJ0hhXq7nArjPEnxOsdM32+lKL25HBfP7tT9f4vw/OvMNX13UNdufO1C5aU5+Vc4VfoO1JuwHqsPxR0ObUjbN58cJ4W5ZflJ+nUD3/lXYQXEVzCs1vIssbDKshyDXzTWvoXifU/D0waxuCIictC/wAyN+Hr7jBpJ9wPoOiuQ8OfETTNc2QXJ+xXjcbHPysf9lv6HH4119UAUUySRYkLyMFUdSTgCuf1DxMqgx2Q3N0MjDgfQd/89ayq1oUleTJclHc27q8gs4988gQe/f6VmW/ia0mmKOGjBPys3Q/X0rlpp5LiQyTSF2Pcmo682eYSb91aGDrO+h6Krq6hlIKnoQaeK4Ow1W508jynymeY26f/AFvwrqNO122v8IT5Ux/gY9foe9dlHFwqaPRmsKilp1NSiioLy9t9PtnubuZIYUGWdzgCus0J6yta8SaboFv5uoXAQkfLGOXb6D+vT3rg/EnxUZ99voMZVehuZByf91e31P5V55c3U97O091M80rH5nc7iaTYHsWi/EzSNUuTBcB7FycRtMwKt+I6H6/nXkGpOr6rdspBVpnIIOc/MarUVLdwN/wN/wAjppn/AF1/oa97rwTwN/yOmmf9df6Gve6pAFFV72/ttNtmuLydIYV6s5wK818R/FSSXfb6DGUXobmReT/ur2+p/IUN2A7zXPE2meHoPM1C4CsRlYl5dvoP6nA96o6B470jxA/lQymC4zgRT4Ut9OcH6da8Oubma8nee5leWVzlnc7ifzqMEgggkEHII4xSuB9M0V4x4b+JWo6Rsg1DdfWo4+Y/vFHs3f6H8xXqui+INO8QW3nafcLJj7yHhl+opp3A0qKKq3t/BYx7p3C56DufpSclFXYN2LVZ17rVrZNsYmSX+5Hyf/rVS8/UdY4gBtLU/wAZ+8w9v/rfnWhZaTbWIzGuXPWRuSax551PgVl3ZN29gsdUtr8YifDjqjcMP8+1Xazr7Rre8PmKDDP1EicHPv61UW/vtJOzUIzNB2nTqPr/APXx+NHtJQ0qLTuhXa3Nt3EaFmICjkk1WGpWjAkXEZAGSd3QZx/OpLa6hvIRJBIHQ9xVCTQIZEjVpJPkj8vI7jn+pB/CrlKWjhqhtvoa1FFFalBRRRQAUUUUAFFFFABRRRQAVneIf+Rb1P8A69Jf/QDWjWf4h/5FvVP+vSX/ANANAHzrU9pZ3GoXCW9nC80z/dRBk/X6VBXefCPH/CSXf/Xqcf8AfS1C1AqzfC7XItMFwvkyTYy1urfMPx6E+1chNDLbTPFPG0cqHDK4wRX0vXiXxOAHjS4wAMxRk47/AC02rAcrF/ro/wDeFfSkP+pT/dFfNcX+uj/3hX0pD/qI/wDdFCAz/EP/ACBZ/wDgP/oQriq7XxD/AMgWf/gP/oQriq8jMP4i9DmrbhRRRXAYhUtqSLqEjqHGPzqKpLb/AI+of98fzqo/Ehrc9EHQVxPxXJ/4ROP3uk/k1dsOgrifiv8A8ipH/wBfS/8AoLV9L0O48brU0Tw7qPiCfytPt2cKfmkPCL9T/TrWXXr3wkZf+EbulBG4XJyM8j5VqUrgclrfwz1fSYBPbFb6NVzIIgdy/wDAe4+n5VxxBBIIwRwQe1fTRIAJPQV836mQdVuypBBncgjnPzGhqwGr4G/5HTTP+uv9DXvdeCeBv+R00z/rr/Q173VIDzv4wZ/szTh285uP+A15TXq3xg/5Bmnf9dn/APQa8pqXuBq6J4a1LxBNtsoCYgfnmf5UX6n+gzVzXPBepaLGZ8Jd2n/PxAdyj1z6V2fh4Sn4eWHlBigkk8zb6bj19q09FimljvVRHaNrd1wBwWxwPrXO67VVU7b9TNztLlseMV2fwrz/AMJhxnBt3zj8P/rUnh34a6nqriXUFawtged4xI30Xt9T+Rr1PRfDmm6BAYtPtwhIw8jcu/1P9OldKTNDVrDu41l8V2yyBWXyc4I/3q3KxZ/+Rstv+uJ/9mrKtql6oifQ07uY21pNMoBMaFgD7VmNrrLp9vKId9xcEhY1PHBx/hV/VP8AkF3P/XJv5ViQWSXuk2IS4WK5Tc0fPJ5Pb8KzrTmpWj2CTd7Itm411RuNtbkegPP86uabqCanbsSm11O10PY1SA16Afet5wPz/pU2j3ouZJ4nt1gnQ5kCjr70qcnzWbevRiT1sRaKixarqMaAKgZcAdutbVY2k/8AIb1P/eH9a2a1w/wfNlQ2FooorcoKKKKACiiigAooooAKKKKACs/xD/yLeqf9ekv/AKAa0Ko63DJcaFqEMKl5JLaRFUdSSpAFAHznXe/CMMfEF22DtFtgnH+0Kd4c+Ft3ebbjWma1h7Qr/rG+v90fmfYV6dpekWWjWot9Pt0hj74HLH1J7mpSAu14p8Twf+E0myDzFHj34r2usvWvDuna/B5WoW6uQPlkHDr9DTauB8+Rf66P/eFfSkP+oj/3RXkOt/DPUtMuVl03N9bFhgAYkXnuO/1H5CvX4gRCgPUKBQlYDO8Q/wDIFn/4D/6EK4qvRmQOpVgCp6gisLUPDMcuZLMiN/7h+6f8K8/GYedRqcenQxq029UctRUtxbTWshSeMow7Hof8airyWnF2ZzbBUtqCbqEAZJkAAH1qzp+jXOoMGRdkef8AWN0/D1rqNP0W20/5lG+X++w5/D0rqoYWdRp7I0hTb16GkOlcV8VUZ/CSlVJC3KFiBnAww/qK7WmSxJPG0cqK6MMMrDIIr3TrPmirem6peaRdC4sLh4JV7ocZ9iO49jXp3iT4XW13vuNFcW0x5ML/AOrb6f3f1H0rzLU9JvdHujb6hbvBIOgYcH6HuPpUNNAa2t+OdZ12AQXE4ihxhkhG0P659fp0rnaACcAck8ACux8N/DfUdZ2T326ytD3cfvHHsvb6n8jRqwM7wIrN4003apOJcnA6DBr3qsnRPDmm+H4BHYWwViMNK3Lt9T/QcVrVSVgPO/jBn+zNOPbzm/8AQa8pr6RvrC21K2a3vIEnibqrjP8A+qvN/EnwqePdcaDJvXqbaU8j/dbv9D+dJoDi9D8S6n4em32Nwyxk5aF/mRvqP6jBr1Hw18RNK1RY7a6C6fcnACsf3bH/AGW7fQ4/GvH7m1nsp2guoXhlQ/MjjaRUQBdgqglicAAZJpLQD6ZBBAI5B70VwPw7sfEtrHnUnZNNK/JFPy+e20dVH1/Ku+qgCsK8kSHxTbPIwRfJxknA/irdqtd2UF7HsnQMB0PcfSs6sHJK3Rikm1oM1PnS7ojn9038qx7TTHvNKs57eXy54t21u33jTrnRJ7e2ZY7y4eAf8slXcSPQc1d0e/s3t0t4GKMgxskGG/8Ar+vFc7XPU/eK2hG71ViLbrh+Xdbf73NT6dp5sBNNcyq80p3O3QCi91qC1byowZ5zwI05596qrp17qjCTUpTHF1EMZ/n/AJz9KeilaN5NfgGnTVi6Kwl1XUZYyGQsACO/Wtuore2itYhHAgRR2FTVvSg4Rsy4qyCiiitRhRRRQAUUUUAFFFFABRRRQAUUUUAFFFFABRRRQAUUUUAFFFFAEM9tFdRmOaNXU9iKz4PDtlbzeZteTnhXOQPw/wAc1rUVnKlCTTa1E4pvYRVCgAAADsKWiitBhRRRQAVU1DTLPVrU29/bpPEf4XHT6HsfcVbooA53R/A2iaHOZ7a2aSbOVeY7yn+76fXr710VFFABRRRQAUUUUAZes+H9N1+DytQtlkIHyyDh1+h/yKp6F4J0fw+3mWsBln/57TkM4+nGB+AFdBRQAUUUUAFFFFABWffaPa3xDSKVkH8acGtCiplBSVpIGkynY6ZbWC4hT5j1duWP41cooojFRVkhJJBRRRVDCiiigAooooAKKKKACiiigAooooAKKKKACiiigAooooAKKKKACiiigAooooAKKKKACiiigAooooAKKKKACiiigAooooAKKKKACiiigAooooAKKKKACiiigAooooAKKKKACiiigAooooAKKKKACs3V/EGmaFGH1K8igz91Scs30UcmsLx540XwxaLb2m19SuBmNSMiNem8j9AO5rnfDvw3uNYf+1fFk87yzHeICxDn/fPb/dGMeo6UAbEvxc8PRuVWO/lH95IlA/VhU1n8VvDl1IEeS5ts95ouP/HSa3LbwpoVpGEh0myC+rQhj+Z5qrqfgbw/qsbLNpsMTn/lpAvlsPy6/jmgDbtLy3vrdZ7SeOeJh8rxsGB/EVNXjl9putfC/VEvbCdrnTJWwwP3W/2XHY46MP8A61ep6Nq9trulQX9m2YpRnb3U91PuDQBS1PxlomjXxs9RvTBOAG2tC54PcELg/wD1q2YpEmjWSNg6OAVZTkEHuK53xv4Tj8U6SVjCrfwgtbyHjJ7qfY/ocGuV+GniuS0nPhrVi0cqMVtzJwVYdYz+Ocfl6UAeoUUUUAFYUXjLQ59WGmQ3wlvDIYxGkbt8w68gYxwec44rC+I/jE6LY/2bYSf8TC5Xkr1hQ8Z+p6D8T6VJ8OvB3/CP6f8Abr2PGo3K8g9YU67fr3P4DtQB2FzcxWdrLcXD7IokMjtj7qgZJ49BVTR9f07X4JJtLuRPHG21iEZcHr3ApviX/kWNV/69Jf8A0A15r4F8QxeGfA2p38y73N0EhjzjzHKjj6Dk/QUAeo6jqtlpFsZ9RuoreMdGdsZ+g7n2FcpcfFvw9C5VFvZx/ejhAH/jzCsfRPBN74tmGt+LLiYrL80Vsp2/Ke3+yvsOe5Oa7i18J6FZRhINIswPVoQx/M5NAGDa/Fjw7cuFka7twTjdLDkf+Ok11dhqVpqluLixuYriI/xRtkf/AFj7Gs2/8GeH9RjKz6VaqSPvRJ5bD8VxXnut+GdV+Ht3/bGgXUklkCBIrDJUejjoy9s8Y9jzQB69RWL4Y8SW/ifR47y3Gx87ZoieY37j6dwfT3raoAybTxPpN9q8umW12HvYSweLy2GNpweSMcGtavI/DtxFZ/FjXLm4cJDCbp5GP8KhuTTrjUtf+Jeoy2ulFrLR4ztdiSAR/tEfeJ67RwO/rQB39/4y0DTXKXWq26uOqqd5H4LmrukazZa7Zfa9Om86DcU3bSvI69a5TT/hNoNrGPtZuLyTHJaTYD9Av+JrqdL0mx8P2BtrGMQW4YyEFycE9Tk/SgDQJABJ4ArmNU+Inh7S5DE9758qnBW3Xfj8en61xeta/qvj/W30Xw+Wj05TiSTJAdR/Ex7L6Dv6Z6dVofwz0PSoVN3CL+4x8zzj5fwXpj65oAqD4waDux9n1ED1MSf/ABVbej+OdB1uQRWt8qTNwIphsY/TPB/DNX28O6MyFDpNgVIwR9nT/CuV8R/CzTdQheXSALG6HIUE+Ux9x/D9R+RoA7yivMfBPi6+03Vz4b8SFhKreVDJIeVbspPcHjB9x1BGPTqACs3VfEGl6GgbUr2KAkZCk5Zvoo5NZ/jbxGfDHh6S6hAa5kYRQA9Ax5yfYAE/kO9cP4S8AyeJE/tvxHcTulwd6R7vmlH95j2B7AdvQUAdHN8W/D0TYRb6Yf3kiGP1YUkHxc8PSth0voh/eeIEfoxroLXwloNkgWDSLMDHVog5/M5NF14S0K9TbPpFmR0ysQQ/mMGgCbSvEGma5GX029in2j5lBwy/VTyK0q8m8V+BJfC4/tzw1cTRpbnc8e7LRD1U919Qc8eozXc+DPEi+J9AS7YBblD5U6joHHcexBB/SgDoKjuLiK1haa4lSKJBlndgoH4mnMQilmICgZJ9K8bnl1L4o+KHtoJWg0uA5H91EzgMR3ZvT+gzQB2998T/AA5ZOUW5luWXr5ERI/M4B/CqQ+MGgkgfZtRHuYk/+KrW0v4e+HtMhVfsCXLgcyXHzk/geB+ArUfw7ozoVbSbAqRgj7On+FAGZpfxA8ParIIob8RSnok6mMn8Txn8a6WuI1/4XaPqcLvp0f2C6xlShJjJ917D6Y/Gsf4f+JL7TdZk8La2zb0JSBnOSjDkpnupHIP4DgjAB6fRRRQAUySRYY3kkYKiAsxPYCn1heNrk2vgzVZVOCbdkB9N3y/1oA4DwbbHxp49vNcvVLwWzeYit0B6Rr+ABP1Ar1yvLfhp4g0PQvD0yX1/FBczTlijA52gADoPqfxrsf8AhPvDX/QXg/Jv8KAOhornv+E+8Nf9BeD8m/wo/wCE+8Nf9BeD8m/woA1dT06DVtNuLG6XdDOhVvb0I9wcH6ivNvhfez6R4j1Lw9dN/EzKOwdDg4+o5/AV2n/CfeGv+gvB+Tf4V58uo2k/xlt7zTJ1mguJVAZc87k2t1980AexV5z8S/B7XKHXtLQi6h5uFTqyjo4x3XH5D259GooA5LwD4vXxNpRiuWA1C2AEo/56Ds4Hv39D6AitLxT4jg8MaNJeTYaU/LBFnmR/8B1J9PevPPFmiXXgTxHDr+iLts5JMsij5Y2PVD/stzj06cYFRWkV58UvFxublXh0q1ABQHOxf7oP95jyT6fQCgDQ8AeHJ9e1WTxPrmZN0heAMP8AWP8A3sei4wB6j2r1Oo4YI7aBIYEWOONQqIowFA4AqSgDM8S/8ixqv/XpL/6Aa8b+HulNr3iCC1uMtY2jG6kjPIJ4A/M4/AGvZPEv/Isar/16S/8AoBrhPgzbAQardEfMzRxg+gGT/UflQB6dRRRQAVFcQRXMEkE6LJFIpR1YcMDwRUtFAHkfhQyeDviZcaK7n7Lct5a5PXI3Rn684/E165XlHxPX7B4z0bUY/lfapJHco+f6ivV6APAtUtrq/wDiFqVhZOUe8vZIGI7qXyc+wxn8K9v0jSrbRNMhsbNAkMQx7se7H3PWvMfDMKy/GXUGYAmKe5cZ9ckf+zV65QAVxPxT1ttM8M/ZIW2zX7eVkHkIOW/PgfjXbV5J8VbiK48YaXaXDhLeONTIx6KGfk/kooA7L4f+H00HwxAWQC6ulE05xzk9F/AHp65rqa50ePfDKgAatAAOwDf4Uv8Awn3hr/oLwfk3+FAHQ0Vz3/CfeGv+gvB+Tf4Uf8J94a/6C8H5N/hQBzPxc0NZLCDW4F2z27COVhwSh6H6huPxrrvCOrnXfDFjfOcyvHtl/wB9eG/UZ/GsDxV4u8O6p4X1Gzi1SB5ZIG8tcNksOR29QKh+D9wZPC9zEekd0cfQqp/nn86AK3xljc6Pp0gB2LOyk+hK8fyNdp4dnhufDmnS2xBiNtGFx2woGPwxj8KPEOiW/iLR5tPushZOVcDlGHQj/PIyK8wtrvxN8M5ngntvtell8g8+WfcMPuE+h/I9aAPYqK4bTvizoN0ALsXFm56703r+a/4CumsfEuj6lgWep2krH+ESAN+R5oAv3ECXMEkMiho5FKMD3BGDXn/wv0PVtDutTj1C0lghkCFC+PmIJ9PY16JRQBW1KNpdMuo0BLvC6qB3JU15x8GZofK1SDIE5aN8HqV5H6E/rXqFeWeJPBmreHtbOveFd7KWLvDGMtGT1AX+JT6dvTvQB6nRXmul/F6EYh1zT5YJV4Z4RkZ91PI/WupsfHfhzUMeVqsCMf4ZiYyP++sUAdDXm/jLw5qcvj7TdV0uyklRfKaWRcYDK/Of+AgV6JDNFcRh4ZEkQ9GRgR+lSUAFFFFABXOfEKMyeBdUA7Rq35Mp/pXR1S1exGp6ReWRx+/haME9iRgfrg0Aed/D/wAG6Dr3hhbvULMy3AldGYSuvA6cA+hFdP8A8Kz8L/8AQNP/AH/k/wDiq5j4P6l5Mmo6NPlJVbzkU8cj5WH1GF/WvUaAOV/4Vn4X/wCgaf8Av/J/8VR/wrPwv/0DT/3/AJP/AIquqooA5X/hWfhf/oGn/v8Ayf8AxVT2PgHw9p17Dd2tgUnhbejmZzg/QnFdHXnXhnxVqviPx9dwwXZOjw73EYjXBUfKvzYzySD1oA9Foorzv4l+LmtY/wCwdLJa8uAFnKclVPRRju2fyPvQBi+KdYuvHvieLQdFYmyjf5nHKuR1c/7I6D1/EVFDJd/CzxcIZmebSbnBJx99f7w/21PbuPTIrufAnhFPDGk7p1U6hcYaZh/D6IPYfqfbFX/FPhuDxPo0tnNhZR80EuOY3/wPQj096ANa3uIrq3jnt3WSKRQ6MpyGB5BqWvKvh94ln0HVJPDGtZiAkKQFj/q3z936N1B9T716rQBmeJf+RY1X/r0l/wDQDXE/BlwdM1NP4lmQn8V4/ka7bxL/AMixqv8A16S/+gGvL/hBqa22v3Vi7YF3FlRnqyc4/wC+ST+FAHsdFFFABRRRQB5T8XsS65o0C/fKNx9WAH8jXqwGBivItSlHiv4v28MXz29pIqEg8FY/mb8C2R+Veu0AeUeE/wDkserf9dLj/wBCr1evKPCf/JY9W/66XH/oVer0AFeQ/EW2il+JOmJdJut50hVxnGV8whuR7V69XmXxhsJFGmarFkGNzCzDsfvL/I0AdH/wrPwv/wBA0/8Af+T/AOKo/wCFZ+F/+gaf+/8AJ/8AFVt6Jqces6LaX8ZG2eIMQOzdx+ByPwq/QByv/Cs/C/8A0DT/AN/5P/iqP+FZ+F/+gaf+/wDJ/wDFV1VFAHK/8Kz8L/8AQNP/AH/k/wDiq2dF0DT/AA/bvBpkHkxSNvZd7Nk4x3J9KyfH3iGTw74aee1kEd5K4jhOAcHqTg/7IP44qfwRdajfeFrW81aYzXNxmQEqFwufl4AHYZ/GgDoKRgGUggEHqCK4LxL4w1LQ/Hdlp5eJdOnMTNuj5Cs21ufwNd9QBhX/AIJ8PaiS1xpUG9urRgxk/iuK52/+EGj3AJsrm6tX7AkSL+R5/Wu/ooA8gu9G8X+A1N1YXrXVjHywUl1A/wBqM9B7jp6iu58G+MIPFdg7FPJvIMCaIHjnow9jz9PyJ6VlDAggEHsa8m0C3XQ/jPcWNoNkEhkXaOAFKeZj6AgflQB61RXPeONVvtE8MTX+mlBNE6ZLLuG0nB4/EU7wXrcviDwxbX1wyNcMWWXYMAMGPb6YP40AaGo6HpmrDF/YW9wezPGCw/HqK5y9+Ffhy6z5UM9qx7xSk/8AoWa7KigDyu8+F2raQxufDmrOXHITcYnP/AgcH8cVP4W+IN/Bqy6L4oQpMWEazsuxlbsHHoePmHrzkc16bXmnxj0+H7FYaiFCziUwFgOWUgsMn2IP5mgD0uiqGhXD3mgafcSHMk1tE7H3Kgn+dX6ACiiigDynxzol74X8SJ4o0cERtJvlAGQjng5/2WyfxJ6cV3Hhrxdp3ii0DW0gjuQP3lux+dD7eo9x+hraliSeNo5UV43BVlYZBB6givP9a+E9vLcfatBvHsZQdwjYkqD/ALLDlf1/CgD0SivME0D4jWo8qHVkkQdGMwbP/fS5psngnxrrQMera2scB+8vnMwP/AVAB/GgC34+8ewx2smjaJL593P+7lliO4Rg8bRjqx6cdM+tbPw88Knw1opa6XF9dYeUf3B2T8Mk/UmneGfh9pfhxxcfNd3q9JpRjb/ur2+vJ966ugDnfGXimLwto7TZVryXK28Z7t6n2HX8hXK/DbwrNdXB8TaxuknlYvbiTqSesh+vOPz9Kval8P7zX/E66lrWoRyWqvgW0SEYQdFB9+59z0rvERY0CRqFRRgKBgAUAOooooA4H4l+Dzq1n/a2np/ptsv7xVHMqD+q9fccc8CrPw68ZDxBp/2K9kzqNsvJJ/1qdm+o4B/A967WuAvfhxcQeKP7Y0C/isjv80RNGSFY/eHH8J9PcjpQB1niX/kV9V/69Jf/AEA14ro2kXR8OP4g0vf9t027DMF5+TaDnHfB6j0J7V7Rr+//AIRTUvM27/scu7b0zsOcVyHwb50LUP8Ar5H/AKCKAN/wp40sfE9ooV1hvgP3lsx+bPcr6j+Xeulrg9f+Flhf3LXekztp1yTu2quY8+wHK/hx7VmDw58Q7H91bawsyDoxn3f+hrmgD0+uD8c/EK30m1lsNKmWbUHG0uhysHvnu3t26n0OTJ4Q8d6wDFqWspHCeGHnHB/4Co5/Gt/w18NtM0KVLm5JvrteVeQYRD6qvr7nP4UAVPhl4Tl0ayk1TUEK3l0oCIw+aOPrz7scHHbA75rvqKKAPKPCf/JY9W/66XH/AKFXq9cdo3gm40zxtea693E8dw0rCIIdw3tnr7V2NABWdrujw69o1zp8/CzLgMByrDkH8Dg1o0UAeQeFPEVx4C1afQtfR0tDJkOASIyf4l9VPXj8s5r1q2uYLu3Se2mSaJxlXRgQfxFZuv8AhfTfElqIdQhy6j5JU4eP6H+hyPauEPw38RaJMz+HdbxGTkqXaIn6gZU/jigD1Kqep6rZ6NZvdahcJBCo+8x6+wHc+wrz06P8SXXYdTQA9SJUGPxC5otfhXqGpXQuPEusvOQeVjZnY+25un4CgDJmkvPil4vjSNHh0u16k/wJnkn/AGmxjHt3AJr2CGGO3hSGFAkcahVUdABwBVXStJstEsktNOgWGFecDqx9Se59zV6gDg/if4Yl1jSo9Qs4y91ZZ3IoyXjPXA7kHnHoT3o8BeP7fVrOHTtUmWLUIgEV3OBOB3z/AHvbv1HoO8rifEvwy03W5nubNjYXTHLFFzGx9SvY+4x9CaAO2ory2Pwh480geVp2srJCOFHnnj8GHH4U8+H/AIjXfyTaukSnqwn2/wDoK5oA7nXvEdh4csmuNQmCnB2Rjl5D6Af16Dua8/8Ah7Z3fiHxjeeJ7qPZErPtPYuwxtHqFU4/Kr2m/CYS3X2nxBqUl45PzJGSN31c8kfTH1r0K0tILG1jtrWJYYYxtRFGABQBFqunRatplzY3H+qnjKEjqM9D9QcH8K8k8Ma5c/DzxBc6TrSMLORssQPunoJF9QR+PHqMV7NWP4h8L6b4ktRFqEOXUfu5U4eP6H+hyPagDStbuC+tkuLSZJoXGVdDkGpq8sPwz1/Rpmk8Pa2FUnO0s0RP1xkH8cVL/Y/xJI2/2kmOmfMT/wCJoA9LlljgiaSZ1jjUZZmOAB7mvIvGmuN4516z0TQlM0Uch/efwu56t/uqM8+57Yq9/wAK38R6y6nX9dDR5yVDvL+hwAa7bw74S0zwxAVsIiZnA3zyHLv/AID2FAGrY2q2Nhb2kZJSCJY1J9FGB/Kp6KKACiiigAooooAKKKKACiiigAooooAKKKKACiiigDM8S/8AIsar/wBekv8A6Aa474N/8gO//wCvkf8AoIrsfEv/ACLGq/8AXpL/AOgGuO+DeRod/kH/AI+R/wCgigD0SiiigAooooAKKKKACiiigAooooAKKKKACiiigAooooAKKKKACiiigAooooAKKKKACiiigAooooAKKKKACilooASilooASilooASilooASilooASilooASilooASilooASilooASilooASilooASilooASilooASilooASilooASilooASilooASilooASilooASilooASilooASilooASilooA//2Q==;" vertex="1" parent="1">
          <mxGeometry x="340" y="620" width="90.79" height="50" as="geometry" />
        </mxCell>
        <mxCell id="URRhDzllqDp2toMXEWSI-20" value="&lt;b&gt;&lt;font style=&quot;font-size: 23px;&quot;&gt;Firebase&lt;/font&gt;&lt;/b&gt;" style="text;html=1;align=center;verticalAlign=middle;resizable=0;points=[];autosize=1;strokeColor=none;fillColor=none;fontFamily=Architects Daughter;fontSource=https%3A%2F%2Ffonts.googleapis.com%2Fcss%3Ffamily%3DArchitects%2BDaughter;" vertex="1" parent="1">
          <mxGeometry x="624.94" y="670" width="120" height="40" as="geometry" />
        </mxCell>
      </root>
    </mxGraphModel>
  </diagram>
</mxfile>
